G04 #@! TF.FileFunction,Copper,L2,Bot,Signal*
%FSLAX46Y46*%
G04 Gerber Fmt 4.6, Leading zero omitted, Abs format (unit mm)*
G04 Created by KiCad (PCBNEW 4.0.6) date 05/22/17 17:46:35*
%MOMM*%
%LPD*%
G01*
G04 APERTURE LIST*
%ADD10C,0.100000*%
%ADD11C,0.300000*%
%ADD12R,2.032000X2.032000*%
%ADD13O,2.032000X2.032000*%
%ADD14C,1.500000*%
%ADD15O,0.899160X1.501140*%
%ADD16C,1.000000*%
%ADD17R,2.235200X2.235200*%
%ADD18R,1.727200X2.032000*%
%ADD19O,1.727200X2.032000*%
%ADD20R,2.032000X1.727200*%
%ADD21O,2.032000X1.727200*%
%ADD22R,1.700000X1.700000*%
%ADD23O,1.700000X1.700000*%
%ADD24R,1.980000X3.960000*%
%ADD25O,1.980000X3.960000*%
%ADD26R,1.250000X1.500000*%
%ADD27C,0.800000*%
%ADD28C,0.600000*%
%ADD29C,0.700000*%
%ADD30C,0.500000*%
%ADD31C,0.550000*%
%ADD32C,0.177800*%
%ADD33C,0.500000*%
%ADD34C,2.000000*%
%ADD35C,1.000000*%
%ADD36C,0.400000*%
%ADD37C,0.250000*%
%ADD38C,1.200000*%
%ADD39C,0.200000*%
%ADD40C,0.254000*%
G04 APERTURE END LIST*
D10*
D11*
X150120062Y-81270743D02*
X150120062Y-81651695D01*
X150215300Y-81842171D01*
X150405776Y-82032648D01*
X150786729Y-82127886D01*
X151453395Y-82127886D01*
X151834348Y-82032648D01*
X152024824Y-81842171D01*
X152120062Y-81651695D01*
X152120062Y-81270743D01*
X152024824Y-81080267D01*
X151834348Y-80889790D01*
X151453395Y-80794552D01*
X150786729Y-80794552D01*
X150405776Y-80889790D01*
X150215300Y-81080267D01*
X150120062Y-81270743D01*
X152120062Y-82985028D02*
X150120062Y-82985028D01*
X152120062Y-84127886D01*
X150120062Y-84127886D01*
X151072443Y-85080266D02*
X151072443Y-85746933D01*
X152120062Y-86032647D02*
X152120062Y-85080266D01*
X150120062Y-85080266D01*
X150120062Y-86032647D01*
D12*
X106810000Y-51200000D03*
D13*
X106810000Y-48660000D03*
D14*
X90250000Y-48030000D03*
X123280000Y-44780000D03*
X134110000Y-46770000D03*
X135860000Y-61700000D03*
X158860000Y-42710000D03*
X147880000Y-52700000D03*
D15*
X122470000Y-57120000D03*
X123740000Y-57120000D03*
X121200000Y-57120000D03*
D16*
X75990000Y-46080000D03*
X159820000Y-38000000D03*
X138860000Y-64900000D03*
X123800000Y-54670000D03*
X130970000Y-55130000D03*
X136320000Y-58280000D03*
X101230000Y-43400000D03*
D17*
X88470300Y-58369900D03*
D18*
X109460000Y-37240000D03*
D19*
X106920000Y-37240000D03*
X104380000Y-37240000D03*
X101840000Y-37240000D03*
D18*
X145990000Y-37080000D03*
D19*
X143450000Y-37080000D03*
X140910000Y-37080000D03*
X138370000Y-37080000D03*
D18*
X93120000Y-59430000D03*
D19*
X95660000Y-59430000D03*
X98200000Y-59430000D03*
D20*
X117220000Y-48680000D03*
D21*
X117220000Y-51220000D03*
X117220000Y-53760000D03*
D12*
X110550000Y-51230000D03*
D13*
X110550000Y-48690000D03*
D12*
X148090000Y-46390000D03*
D13*
X145550000Y-46390000D03*
D12*
X148110000Y-49970000D03*
D13*
X145570000Y-49970000D03*
D12*
X132860000Y-60320000D03*
D13*
X130320000Y-60320000D03*
D12*
X102820000Y-55430000D03*
D13*
X102820000Y-57970000D03*
D12*
X161500000Y-46470000D03*
D13*
X161500000Y-49010000D03*
D12*
X127460000Y-52220000D03*
D13*
X124920000Y-52220000D03*
D12*
X91292240Y-54191600D03*
D13*
X88752240Y-54191600D03*
D12*
X91373520Y-50290160D03*
D13*
X88833520Y-50290160D03*
D12*
X149290000Y-55550000D03*
D13*
X149290000Y-58090000D03*
D12*
X106680000Y-63120000D03*
D13*
X106680000Y-65660000D03*
D12*
X160260000Y-53390000D03*
D13*
X160260000Y-55930000D03*
D12*
X76793920Y-53033360D03*
D13*
X76793920Y-50493360D03*
D12*
X113540000Y-42370000D03*
D13*
X113540000Y-39830000D03*
D12*
X96410000Y-36940000D03*
D13*
X96410000Y-39480000D03*
D20*
X75360000Y-43310000D03*
D21*
X75360000Y-40770000D03*
X75360000Y-38230000D03*
X75360000Y-35690000D03*
D18*
X136100000Y-66810000D03*
D19*
X133560000Y-66810000D03*
X131020000Y-66810000D03*
X128480000Y-66810000D03*
D22*
X131944300Y-105351400D03*
D23*
X131944300Y-102811400D03*
D22*
X131944300Y-90301900D03*
D23*
X131944300Y-87761900D03*
D22*
X99102100Y-110901300D03*
D23*
X96562100Y-110901300D03*
D22*
X99076700Y-107180200D03*
D23*
X96536700Y-107180200D03*
D22*
X131779200Y-110939400D03*
D23*
X131779200Y-113479400D03*
D14*
X116348700Y-94721500D03*
X107839700Y-91165500D03*
X131944300Y-99814200D03*
X105312400Y-91152800D03*
X119739600Y-103370200D03*
X104893300Y-108374000D03*
D22*
X99089400Y-103344800D03*
D23*
X99089400Y-100804800D03*
D22*
X80966500Y-91330600D03*
D23*
X78426500Y-91330600D03*
X75886500Y-91330600D03*
D22*
X76534200Y-109986900D03*
D23*
X76534200Y-107446900D03*
D22*
X112348200Y-91000400D03*
D23*
X114888200Y-91000400D03*
D22*
X131944300Y-93997600D03*
D23*
X131944300Y-96537600D03*
D22*
X126267400Y-114825600D03*
D23*
X126267400Y-112285600D03*
D24*
X154793300Y-125279700D03*
D25*
X152253300Y-125279700D03*
X149713300Y-125279700D03*
D22*
X164343700Y-116211900D03*
D23*
X161803700Y-116211900D03*
D22*
X164343700Y-75089300D03*
D23*
X161803700Y-75089300D03*
D22*
X162832400Y-98279500D03*
D23*
X162832400Y-95739500D03*
D22*
X162108500Y-79166000D03*
D23*
X162108500Y-81706000D03*
X162108500Y-84246000D03*
X162108500Y-86786000D03*
X162108500Y-89326000D03*
D26*
X139105300Y-94203600D03*
X139105300Y-96703600D03*
D22*
X148095300Y-91683600D03*
D23*
X148095300Y-94223600D03*
X148095300Y-96763600D03*
D22*
X158196900Y-77400700D03*
D23*
X155656900Y-77400700D03*
D22*
X138215300Y-89553600D03*
D23*
X138215300Y-87013600D03*
D22*
X162845100Y-102114900D03*
D23*
X162845100Y-104654900D03*
D22*
X137295300Y-78553600D03*
D23*
X139835300Y-78553600D03*
X142375300Y-78553600D03*
D22*
X151821500Y-96768200D03*
D23*
X154361500Y-96768200D03*
X156901500Y-96768200D03*
D14*
X137125300Y-107493600D03*
D27*
X110570000Y-52890000D03*
D28*
X141990000Y-46250000D03*
D29*
X92580000Y-35160000D03*
D28*
X93480000Y-34700000D03*
X79600000Y-34860000D03*
X81570000Y-35220000D03*
D29*
X78400000Y-37060000D03*
D28*
X77500000Y-35940000D03*
X80260000Y-36150000D03*
X164290000Y-40320000D03*
X161690000Y-35400000D03*
X156480000Y-36450000D03*
X164960000Y-37330000D03*
X161950000Y-38050000D03*
D27*
X154730000Y-38530000D03*
D28*
X149370000Y-35520000D03*
D27*
X149580000Y-43840000D03*
D28*
X147960000Y-42310000D03*
X146180000Y-41050000D03*
D27*
X144010000Y-40010000D03*
D28*
X145510000Y-43340000D03*
X111690000Y-64770000D03*
D29*
X82220000Y-37080000D03*
X80610000Y-37100000D03*
X84030000Y-44190000D03*
D27*
X108330000Y-40280000D03*
X99550000Y-58130000D03*
X121400000Y-54570000D03*
X122250000Y-55500000D03*
D28*
X147200000Y-58800000D03*
X146940000Y-57900000D03*
X140770000Y-56140000D03*
X132700000Y-55430000D03*
D27*
X132960000Y-56980000D03*
X150490000Y-46590000D03*
D28*
X130310000Y-45960000D03*
D27*
X137190000Y-39110000D03*
X134920000Y-37810000D03*
X124830000Y-43280000D03*
X125140000Y-41700000D03*
X118700000Y-44700000D03*
X116450000Y-44590000D03*
D28*
X123190000Y-46830000D03*
X121930000Y-47690000D03*
D27*
X99360000Y-61320000D03*
X97430000Y-63710000D03*
X95450000Y-62080000D03*
X86370000Y-55300000D03*
X86310000Y-52870000D03*
X86440000Y-48330000D03*
D29*
X75620000Y-47760000D03*
D28*
X91200000Y-47100000D03*
X91280000Y-45780000D03*
D29*
X103760000Y-51780000D03*
D28*
X106410000Y-46360000D03*
D27*
X101620000Y-51170000D03*
D28*
X96540000Y-55820000D03*
D27*
X98120000Y-42960000D03*
X106670000Y-67470000D03*
D28*
X116820000Y-61130000D03*
X118670000Y-61130000D03*
X164645300Y-89343600D03*
X164765300Y-86743600D03*
X164765300Y-84233600D03*
X164685300Y-81603600D03*
X164725300Y-79093600D03*
X157355300Y-93853600D03*
X151685300Y-94403600D03*
X153335300Y-94163600D03*
X155345300Y-94163600D03*
D30*
X137265300Y-112443600D03*
X137265300Y-114653600D03*
X137265300Y-116633600D03*
X137185300Y-118643600D03*
X137295300Y-121193600D03*
D28*
X141435300Y-82183600D03*
X145505300Y-99443600D03*
X143805300Y-99373600D03*
X140415300Y-74593600D03*
X141785300Y-73223600D03*
X141905300Y-75663600D03*
X143805300Y-75583600D03*
X144505300Y-118923600D03*
X144335300Y-121753600D03*
X146185300Y-123313600D03*
X146095300Y-126053600D03*
X143845300Y-126173600D03*
X143525300Y-123443600D03*
X141405300Y-123563600D03*
X141345300Y-126213600D03*
X160419400Y-118599500D03*
X160076500Y-125076500D03*
X164915200Y-124657400D03*
X164305600Y-118675700D03*
X164356400Y-73108100D03*
X157866700Y-86062100D03*
X159759000Y-84246000D03*
X158146100Y-84474600D03*
X158857300Y-85300100D03*
X157434900Y-81540900D03*
D30*
X150526100Y-109684100D03*
X151973900Y-108134700D03*
X150526100Y-108083900D03*
X151973900Y-109658700D03*
X151246700Y-108873900D03*
D28*
X153777300Y-76206900D03*
X153332800Y-74340000D03*
X153332800Y-72803300D03*
X154933000Y-72803300D03*
X156241100Y-72803300D03*
X158196900Y-72828700D03*
X160038400Y-72968400D03*
X161600500Y-73057300D03*
X163022900Y-73082700D03*
X149599000Y-73489100D03*
X147884500Y-76321200D03*
X149814900Y-76359300D03*
X148697300Y-75343300D03*
X143986500Y-73394800D03*
X148265500Y-73489100D03*
D16*
X137065000Y-63695000D03*
X135430000Y-63660000D03*
D28*
X123486100Y-105364100D03*
X112932400Y-108564500D03*
X103648700Y-102976500D03*
X114964400Y-108145400D03*
X121162000Y-95991500D03*
X122686000Y-95991500D03*
X103813800Y-98137800D03*
X105033000Y-96944000D03*
D27*
X118088600Y-95483500D03*
D28*
X76064300Y-95204100D03*
X76077000Y-96651900D03*
X93526800Y-97350400D03*
X92282200Y-97363100D03*
X90847100Y-97350400D03*
X124476700Y-92727600D03*
X124476700Y-94010300D03*
X124476700Y-95407300D03*
X100702300Y-97350400D03*
X102632700Y-100601600D03*
X101610350Y-98258450D03*
X102594600Y-99255400D03*
X102600950Y-99249050D03*
X102645400Y-101998600D03*
X129010600Y-115016100D03*
X119079200Y-115892400D03*
X107992100Y-115320900D03*
X105909300Y-115333600D03*
D27*
X119561800Y-93819800D03*
D28*
X77359700Y-100588900D03*
X77347000Y-99788800D03*
X95882650Y-99064900D03*
D27*
X122266900Y-88079400D03*
D28*
X81309400Y-113669900D03*
X87519700Y-113682600D03*
X108944600Y-105275200D03*
X126026100Y-91902100D03*
X127969200Y-91902100D03*
X74667300Y-100690500D03*
X102315200Y-86314100D03*
X99813300Y-96067700D03*
X102302500Y-96093100D03*
X88611900Y-101414400D03*
X88611900Y-99788800D03*
X123409900Y-103471800D03*
X119587200Y-98925200D03*
X119853900Y-101643000D03*
X95933450Y-85177450D03*
X94225300Y-100703200D03*
X94225300Y-98925200D03*
X111586200Y-108424800D03*
X111535400Y-106596000D03*
X157930200Y-106496400D03*
X141153500Y-100641700D03*
X157892100Y-107728300D03*
X141204300Y-102546700D03*
X154056700Y-110776300D03*
X143490300Y-115170500D03*
X160355900Y-113976700D03*
X146208100Y-109912700D03*
D30*
X145547700Y-110547700D03*
D28*
X138975300Y-92273600D03*
D16*
X139345300Y-107423600D03*
D28*
X147400358Y-105407373D03*
X145725500Y-105442300D03*
D16*
X142067900Y-116669100D03*
D28*
X146665300Y-115856300D03*
X155428300Y-115957900D03*
X146614500Y-105442300D03*
D27*
X150221300Y-105543900D03*
D31*
X92580000Y-35160000D02*
X93020000Y-35160000D01*
X93020000Y-35160000D02*
X93480000Y-34700000D01*
X79600000Y-34860000D02*
X81210000Y-34860000D01*
X81210000Y-34860000D02*
X81570000Y-35220000D01*
X79600000Y-34860000D02*
X79600000Y-35490000D01*
X77500000Y-35510000D02*
X78150000Y-34860000D01*
X78150000Y-34860000D02*
X79600000Y-34860000D01*
X78400000Y-37060000D02*
X78400000Y-36840000D01*
X78400000Y-36840000D02*
X77500000Y-35940000D01*
X77500000Y-35940000D02*
X77500000Y-35510000D01*
X79600000Y-35490000D02*
X80260000Y-36150000D01*
X164290000Y-40320000D02*
X164220000Y-40320000D01*
X164960000Y-39650000D02*
X164290000Y-40320000D01*
X161690000Y-35400000D02*
X163030000Y-35400000D01*
X160640000Y-36450000D02*
X161690000Y-35400000D01*
X153880000Y-35520000D02*
X155550000Y-35520000D01*
X155550000Y-35520000D02*
X156480000Y-36450000D01*
X156480000Y-36450000D02*
X160640000Y-36450000D01*
X163030000Y-35400000D02*
X164960000Y-37330000D01*
X164960000Y-37330000D02*
X164960000Y-39650000D01*
X164220000Y-40320000D02*
X161950000Y-38050000D01*
X154730000Y-38530000D02*
X154730000Y-36370000D01*
X153880000Y-35520000D02*
X149370000Y-35520000D01*
X154730000Y-36370000D02*
X153880000Y-35520000D01*
X149580000Y-43840000D02*
X149490000Y-43840000D01*
X149490000Y-43840000D02*
X147960000Y-42310000D01*
X146180000Y-41050000D02*
X146180000Y-42670000D01*
X145140000Y-40010000D02*
X146180000Y-41050000D01*
X144010000Y-40010000D02*
X145140000Y-40010000D01*
X146180000Y-42670000D02*
X145510000Y-43340000D01*
X111690000Y-64770000D02*
X111690000Y-64780000D01*
D32*
X164343700Y-75089300D02*
X164343700Y-78712000D01*
X164645300Y-86863600D02*
X164645300Y-89343600D01*
X164765300Y-86743600D02*
X164645300Y-86863600D01*
X164765300Y-81683600D02*
X164765300Y-84233600D01*
X164685300Y-81603600D02*
X164765300Y-81683600D01*
X164343700Y-78712000D02*
X164725300Y-79093600D01*
X155345300Y-94163600D02*
X153335300Y-94163600D01*
D33*
X137265300Y-116633600D02*
X137265300Y-114653600D01*
X137185300Y-121083600D02*
X137185300Y-118643600D01*
X137295300Y-121193600D02*
X137185300Y-121083600D01*
X143875300Y-99443600D02*
X145505300Y-99443600D01*
X143805300Y-99373600D02*
X143875300Y-99443600D01*
X140265300Y-75583600D02*
X137295300Y-78553600D01*
X140265300Y-74743600D02*
X140265300Y-75583600D01*
X140415300Y-74593600D02*
X140265300Y-74743600D01*
X141785300Y-75543600D02*
X141785300Y-73223600D01*
X141905300Y-75663600D02*
X141785300Y-75543600D01*
X143805300Y-73576000D02*
X143805300Y-75583600D01*
X143986500Y-73394800D02*
X143805300Y-73576000D01*
X144505300Y-121583600D02*
X144505300Y-118923600D01*
X144335300Y-121753600D02*
X144505300Y-121583600D01*
X146185300Y-125963600D02*
X146185300Y-123313600D01*
X146095300Y-126053600D02*
X146185300Y-125963600D01*
X143845300Y-123763600D02*
X143845300Y-126173600D01*
X143525300Y-123443600D02*
X143845300Y-123763600D01*
X141405300Y-126153600D02*
X141405300Y-123563600D01*
X141345300Y-126213600D02*
X141405300Y-126153600D01*
D32*
X160419400Y-121990400D02*
X160419400Y-118599500D01*
X160076500Y-122333300D02*
X160419400Y-121990400D01*
X160076500Y-125076500D02*
X160076500Y-122333300D01*
X164915200Y-119285300D02*
X164915200Y-124657400D01*
X164305600Y-118675700D02*
X164915200Y-119285300D01*
D33*
X162108500Y-84246000D02*
X159759000Y-84246000D01*
X159759000Y-84246000D02*
X159911400Y-84246000D01*
X159911400Y-84246000D02*
X158857300Y-85300100D01*
X151237300Y-108871300D02*
X151244100Y-108871300D01*
X151244100Y-108871300D02*
X151246700Y-108873900D01*
D32*
X153777300Y-74784500D02*
X153777300Y-76206900D01*
X153332800Y-74340000D02*
X153777300Y-74784500D01*
X154933000Y-72803300D02*
X153332800Y-72803300D01*
X158171500Y-72803300D02*
X156241100Y-72803300D01*
X158196900Y-72828700D02*
X158171500Y-72803300D01*
X161511600Y-72968400D02*
X160038400Y-72968400D01*
X161600500Y-73057300D02*
X161511600Y-72968400D01*
X164331000Y-73082700D02*
X163022900Y-73082700D01*
X164356400Y-73108100D02*
X164331000Y-73082700D01*
D33*
X149599000Y-73489100D02*
X148265500Y-73489100D01*
D34*
X137060000Y-63660000D02*
X137060000Y-63690000D01*
X137060000Y-63690000D02*
X137065000Y-63695000D01*
X135430000Y-63660000D02*
X137060000Y-63660000D01*
X137060000Y-63660000D02*
X137180000Y-63660000D01*
X137180000Y-63660000D02*
X137310000Y-63790000D01*
X131020000Y-64760000D02*
X131020000Y-66810000D01*
X132140000Y-63640000D02*
X131020000Y-64760000D01*
X135410000Y-63640000D02*
X132140000Y-63640000D01*
X135430000Y-63660000D02*
X135410000Y-63640000D01*
D35*
X123486100Y-105364100D02*
X116031200Y-105364100D01*
X116031200Y-105364100D02*
X114964400Y-106430900D01*
X114964400Y-108145400D02*
X114951700Y-108145400D01*
X114532600Y-108564500D02*
X112932400Y-108564500D01*
X114951700Y-108145400D02*
X114532600Y-108564500D01*
X114964400Y-108145400D02*
X114964400Y-106430900D01*
X103648700Y-103001900D02*
X104131300Y-103484500D01*
X112018000Y-103484500D02*
X104131300Y-103484500D01*
X114964400Y-106430900D02*
X112018000Y-103484500D01*
X105033000Y-96944000D02*
X105071100Y-96944000D01*
X117783800Y-85094900D02*
X121581100Y-85094900D01*
X116107400Y-86771300D02*
X117783800Y-85094900D01*
X123905200Y-91635400D02*
X123905200Y-92245000D01*
X123905200Y-87419000D02*
X123905200Y-91635400D01*
X121581100Y-85094900D02*
X123905200Y-87419000D01*
X114875500Y-88003200D02*
X116107400Y-86771300D01*
X111611600Y-88003200D02*
X114875500Y-88003200D01*
X110455900Y-89158900D02*
X111611600Y-88003200D01*
X123905200Y-92245000D02*
X124476700Y-92816500D01*
X109630400Y-89984400D02*
X110455900Y-89158900D01*
X109630400Y-92384700D02*
X109630400Y-89984400D01*
X105071100Y-96944000D02*
X109630400Y-92384700D01*
X103648700Y-103001900D02*
X103648700Y-102976500D01*
X103636000Y-102989200D02*
X103648700Y-102976500D01*
X103648700Y-102976500D02*
X103636000Y-102989200D01*
X103813800Y-98137800D02*
X103839200Y-98137800D01*
X103839200Y-98137800D02*
X105033000Y-96944000D01*
X104334500Y-97642500D02*
X105033000Y-96944000D01*
X102721600Y-99255400D02*
X102594600Y-99255400D01*
X102721600Y-99255400D02*
X104334500Y-97642500D01*
X118088600Y-95483500D02*
X118596600Y-95991500D01*
X124451300Y-95407300D02*
X124476700Y-95407300D01*
X123867100Y-95991500D02*
X124451300Y-95407300D01*
X123308300Y-95991500D02*
X123867100Y-95991500D01*
X118596600Y-95991500D02*
X121162000Y-95991500D01*
X121162000Y-95991500D02*
X122686000Y-95991500D01*
X122686000Y-95991500D02*
X123308300Y-95991500D01*
X98492500Y-97350400D02*
X93526800Y-97350400D01*
X76064300Y-95204100D02*
X76077000Y-95216800D01*
X76077000Y-95216800D02*
X76077000Y-95343800D01*
X76077000Y-96651900D02*
X76077000Y-95343800D01*
D33*
X76077000Y-95343800D02*
X76077000Y-95191400D01*
D35*
X90796300Y-97350400D02*
X89361200Y-95915300D01*
X89361200Y-95915300D02*
X89361200Y-94848500D01*
X89361200Y-94848500D02*
X88129300Y-93616600D01*
X88129300Y-93616600D02*
X77651800Y-93616600D01*
X77651800Y-93616600D02*
X76077000Y-95191400D01*
X90847100Y-97350400D02*
X90796300Y-97350400D01*
D33*
X92282200Y-97363100D02*
X92282200Y-97350400D01*
X92282200Y-97350400D02*
X92282200Y-97363100D01*
X92282200Y-97363100D02*
X92282200Y-97350400D01*
D35*
X99152900Y-97350400D02*
X98492500Y-97350400D01*
X99152900Y-97325000D02*
X99152900Y-97350400D01*
X99152900Y-97325000D02*
X99152900Y-97350400D01*
X100702300Y-97350400D02*
X99152900Y-97350400D01*
X93526800Y-97350400D02*
X92282200Y-97350400D01*
X92282200Y-97350400D02*
X90847100Y-97350400D01*
X124476700Y-92727600D02*
X124476700Y-92816500D01*
X124476700Y-92816500D02*
X124476700Y-94010300D01*
X124476700Y-94010300D02*
X124476700Y-95407300D01*
X101610350Y-98258450D02*
X100702300Y-97350400D01*
X103648700Y-103001900D02*
X102645400Y-101998600D01*
X102632700Y-100601600D02*
X102645400Y-100601600D01*
X102645400Y-100601600D02*
X102632700Y-100601600D01*
X102632700Y-100601600D02*
X102645400Y-100601600D01*
X102594600Y-99255400D02*
X102600950Y-99249050D01*
X102645400Y-101935100D02*
X102645400Y-101998600D01*
X102645400Y-99293500D02*
X101610350Y-98258450D01*
X102645400Y-101935100D02*
X102645400Y-100601600D01*
X102645400Y-100601600D02*
X102645400Y-99293500D01*
D36*
X95882650Y-99064900D02*
X95889000Y-99064900D01*
D33*
X141153500Y-100641700D02*
X141686900Y-101175100D01*
X141686900Y-101175100D02*
X154310700Y-101175100D01*
X154310700Y-101175100D02*
X157892100Y-104756500D01*
X157892100Y-104756500D02*
X157892100Y-107728300D01*
X141204300Y-102546700D02*
X141839300Y-101911700D01*
X141839300Y-101911700D02*
X150653100Y-101911700D01*
X150653100Y-101911700D02*
X154056700Y-105315300D01*
X154056700Y-105315300D02*
X154056700Y-110776300D01*
X145827100Y-114637100D02*
X145827100Y-114764100D01*
X145827100Y-114764100D02*
X145420700Y-115170500D01*
X145420700Y-115170500D02*
X143490300Y-115170500D01*
X160355900Y-113976700D02*
X159670100Y-114662500D01*
X159670100Y-114662500D02*
X145852500Y-114662500D01*
X145852500Y-114662500D02*
X145827100Y-114637100D01*
X145204800Y-114014800D02*
X145204800Y-110890600D01*
X145827100Y-114637100D02*
X145204800Y-114014800D01*
D37*
X145204800Y-110890600D02*
X145547700Y-110547700D01*
D33*
X145573100Y-110547700D02*
X145547700Y-110547700D01*
X146208100Y-109912700D02*
X145573100Y-110547700D01*
X145204800Y-110890600D02*
X145547700Y-110547700D01*
D35*
X139105300Y-92403600D02*
X139105300Y-94203600D01*
X138975300Y-92273600D02*
X139105300Y-92403600D01*
X139337400Y-107423600D02*
X139337400Y-107360000D01*
X139345300Y-107423600D02*
X139337400Y-107423600D01*
D33*
X147757500Y-105366100D02*
X147757500Y-105391500D01*
X147757500Y-105366100D02*
X147757500Y-105391500D01*
D38*
X142067900Y-116669100D02*
X139337400Y-113938600D01*
X139337400Y-113938600D02*
X139337400Y-107360000D01*
X139337400Y-107360000D02*
X141305900Y-105391500D01*
X145471500Y-105391500D02*
X145725500Y-105442300D01*
X141305900Y-105391500D02*
X145471500Y-105391500D01*
X145725500Y-105442300D02*
X145852500Y-105442300D01*
D33*
X155326700Y-115856300D02*
X146665300Y-115856300D01*
X155428300Y-115957900D02*
X155326700Y-115856300D01*
D38*
X150221300Y-105543900D02*
X150068900Y-105391500D01*
X150068900Y-105391500D02*
X149052900Y-105391500D01*
X145852500Y-105442300D02*
X146614500Y-105442300D01*
X146614500Y-105442300D02*
X147400358Y-105407373D01*
X147400358Y-105407373D02*
X147757500Y-105391500D01*
X147757500Y-105391500D02*
X148748100Y-105391500D01*
X149052900Y-105391500D02*
X148748100Y-105391500D01*
D35*
X151580200Y-92234300D02*
X151464600Y-92234300D01*
X156114100Y-77857900D02*
X156114100Y-91167500D01*
X155047300Y-92234300D02*
X156114100Y-91167500D01*
X151580200Y-92234300D02*
X155047300Y-92234300D01*
X149475300Y-94223600D02*
X148095300Y-94223600D01*
X151464600Y-92234300D02*
X149475300Y-94223600D01*
D33*
X156114100Y-77857900D02*
X155656900Y-77400700D01*
D38*
X162108500Y-81706000D02*
X160444800Y-81706000D01*
X159606600Y-78810400D02*
X158196900Y-77400700D01*
X159606600Y-80867800D02*
X159606600Y-78810400D01*
X160444800Y-81706000D02*
X159606600Y-80867800D01*
D33*
X158857300Y-78061100D02*
X158196900Y-77400700D01*
D39*
G36*
X166380000Y-70430000D02*
X72730000Y-70430000D01*
X72730000Y-66065009D01*
X105107313Y-66065009D01*
X105281549Y-66485679D01*
X105703973Y-66957992D01*
X106274989Y-67232698D01*
X106526000Y-67124693D01*
X106526000Y-65814000D01*
X106834000Y-65814000D01*
X106834000Y-67124693D01*
X107085011Y-67232698D01*
X107165084Y-67194176D01*
X127026851Y-67194176D01*
X127226162Y-67732629D01*
X127616359Y-68153822D01*
X128098951Y-68383811D01*
X128326000Y-68272983D01*
X128326000Y-66964000D01*
X127160484Y-66964000D01*
X127026851Y-67194176D01*
X107165084Y-67194176D01*
X107656027Y-66957992D01*
X108078451Y-66485679D01*
X108103242Y-66425824D01*
X127026851Y-66425824D01*
X127160484Y-66656000D01*
X128326000Y-66656000D01*
X128326000Y-65347017D01*
X128634000Y-65347017D01*
X128634000Y-66656000D01*
X128654000Y-66656000D01*
X128654000Y-66964000D01*
X128634000Y-66964000D01*
X128634000Y-68272983D01*
X128861049Y-68383811D01*
X129343641Y-68153822D01*
X129733838Y-67732629D01*
X129781348Y-67604277D01*
X129959340Y-67870660D01*
X130030191Y-67918001D01*
X130055789Y-67956311D01*
X130498173Y-68251902D01*
X131020000Y-68355700D01*
X131541827Y-68251902D01*
X131984211Y-67956311D01*
X132009809Y-67918001D01*
X132080660Y-67870660D01*
X132309610Y-67528013D01*
X132595789Y-67956311D01*
X133038173Y-68251902D01*
X133560000Y-68355700D01*
X134081827Y-68251902D01*
X134524211Y-67956311D01*
X134726605Y-67653406D01*
X134726605Y-67826000D01*
X134761469Y-68011289D01*
X134870975Y-68181465D01*
X135038061Y-68295630D01*
X135236400Y-68335795D01*
X136963600Y-68335795D01*
X137148889Y-68300931D01*
X137319065Y-68191425D01*
X137433230Y-68024339D01*
X137473395Y-67826000D01*
X137473395Y-65794000D01*
X137438531Y-65608711D01*
X137329025Y-65438535D01*
X137161939Y-65324370D01*
X136963600Y-65284205D01*
X135236400Y-65284205D01*
X135051111Y-65319069D01*
X134880935Y-65428575D01*
X134766770Y-65595661D01*
X134726605Y-65794000D01*
X134726605Y-65966594D01*
X134524211Y-65663689D01*
X134081827Y-65368098D01*
X133560000Y-65264300D01*
X133038173Y-65368098D01*
X132595789Y-65663689D01*
X132520000Y-65777115D01*
X132520000Y-65381320D01*
X132761320Y-65140000D01*
X135329453Y-65140000D01*
X135430000Y-65160000D01*
X136712300Y-65160000D01*
X136735975Y-65175819D01*
X137310000Y-65290000D01*
X137884025Y-65175819D01*
X137890247Y-65171662D01*
X138011747Y-65465714D01*
X138292806Y-65747264D01*
X138660215Y-65899826D01*
X139058040Y-65900173D01*
X139425714Y-65748253D01*
X139707264Y-65467194D01*
X139859826Y-65099785D01*
X139860173Y-64701960D01*
X139708253Y-64334286D01*
X139427194Y-64052736D01*
X139059785Y-63900174D01*
X138788132Y-63899937D01*
X138810000Y-63790000D01*
X138695819Y-63215975D01*
X138370660Y-62729340D01*
X138240660Y-62599340D01*
X137754025Y-62274181D01*
X137180000Y-62160000D01*
X137022472Y-62160000D01*
X137109783Y-61949731D01*
X137110217Y-61452450D01*
X136920316Y-60992857D01*
X136568993Y-60640919D01*
X136109731Y-60450217D01*
X135612450Y-60449783D01*
X135152857Y-60639684D01*
X134800919Y-60991007D01*
X134610217Y-61450269D01*
X134609783Y-61947550D01*
X134689302Y-62140000D01*
X132140000Y-62140000D01*
X131565975Y-62254181D01*
X131079340Y-62579340D01*
X129959340Y-63699340D01*
X129634181Y-64185975D01*
X129520000Y-64760000D01*
X129520000Y-65656546D01*
X129343641Y-65466178D01*
X128861049Y-65236189D01*
X128634000Y-65347017D01*
X128326000Y-65347017D01*
X128098951Y-65236189D01*
X127616359Y-65466178D01*
X127226162Y-65887371D01*
X127026851Y-66425824D01*
X108103242Y-66425824D01*
X108252687Y-66065009D01*
X108143922Y-65814000D01*
X106834000Y-65814000D01*
X106526000Y-65814000D01*
X105216078Y-65814000D01*
X105107313Y-66065009D01*
X72730000Y-66065009D01*
X72730000Y-65254991D01*
X105107313Y-65254991D01*
X105216078Y-65506000D01*
X106526000Y-65506000D01*
X106526000Y-65486000D01*
X106834000Y-65486000D01*
X106834000Y-65506000D01*
X108143922Y-65506000D01*
X108252687Y-65254991D01*
X108078451Y-64834321D01*
X107879036Y-64611355D01*
X107881289Y-64610931D01*
X108051465Y-64501425D01*
X108165630Y-64334339D01*
X108205795Y-64136000D01*
X108205795Y-62104000D01*
X108170931Y-61918711D01*
X108061425Y-61748535D01*
X107894339Y-61634370D01*
X107696000Y-61594205D01*
X105664000Y-61594205D01*
X105478711Y-61629069D01*
X105308535Y-61738575D01*
X105194370Y-61905661D01*
X105154205Y-62104000D01*
X105154205Y-64136000D01*
X105189069Y-64321289D01*
X105298575Y-64491465D01*
X105465661Y-64605630D01*
X105482952Y-64609132D01*
X105281549Y-64834321D01*
X105107313Y-65254991D01*
X72730000Y-65254991D01*
X72730000Y-57252300D01*
X86842905Y-57252300D01*
X86842905Y-59487500D01*
X86877769Y-59672789D01*
X86987275Y-59842965D01*
X87154361Y-59957130D01*
X87352700Y-59997295D01*
X89587900Y-59997295D01*
X89773189Y-59962431D01*
X89943365Y-59852925D01*
X90057530Y-59685839D01*
X90097695Y-59487500D01*
X90097695Y-58414000D01*
X91746605Y-58414000D01*
X91746605Y-60446000D01*
X91781469Y-60631289D01*
X91890975Y-60801465D01*
X92058061Y-60915630D01*
X92256400Y-60955795D01*
X93983600Y-60955795D01*
X94168889Y-60920931D01*
X94339065Y-60811425D01*
X94453230Y-60644339D01*
X94493395Y-60446000D01*
X94493395Y-60273406D01*
X94695789Y-60576311D01*
X95138173Y-60871902D01*
X95660000Y-60975700D01*
X96181827Y-60871902D01*
X96624211Y-60576311D01*
X96919802Y-60133927D01*
X96930000Y-60082658D01*
X96940198Y-60133927D01*
X97235789Y-60576311D01*
X97678173Y-60871902D01*
X98200000Y-60975700D01*
X98721827Y-60871902D01*
X99164211Y-60576311D01*
X99355317Y-60290300D01*
X128804000Y-60290300D01*
X128804000Y-60349700D01*
X128919399Y-60929848D01*
X129248026Y-61421674D01*
X129739852Y-61750301D01*
X130320000Y-61865700D01*
X130900148Y-61750301D01*
X131354977Y-61446395D01*
X131369069Y-61521289D01*
X131478575Y-61691465D01*
X131645661Y-61805630D01*
X131844000Y-61845795D01*
X133876000Y-61845795D01*
X134061289Y-61810931D01*
X134231465Y-61701425D01*
X134345630Y-61534339D01*
X134385795Y-61336000D01*
X134385795Y-59304000D01*
X134350931Y-59118711D01*
X134241425Y-58948535D01*
X134074339Y-58834370D01*
X133876000Y-58794205D01*
X131844000Y-58794205D01*
X131658711Y-58829069D01*
X131488535Y-58938575D01*
X131374370Y-59105661D01*
X131356372Y-59194537D01*
X130900148Y-58889699D01*
X130320000Y-58774300D01*
X129739852Y-58889699D01*
X129248026Y-59218326D01*
X128919399Y-59710152D01*
X128804000Y-60290300D01*
X99355317Y-60290300D01*
X99459802Y-60133927D01*
X99563600Y-59612100D01*
X99563600Y-59247900D01*
X99459802Y-58726073D01*
X99164211Y-58283689D01*
X98721827Y-57988098D01*
X98630843Y-57970000D01*
X101274300Y-57970000D01*
X101389699Y-58550148D01*
X101718326Y-59041974D01*
X102210152Y-59370601D01*
X102790300Y-59486000D01*
X102849700Y-59486000D01*
X103429848Y-59370601D01*
X103921674Y-59041974D01*
X104250301Y-58550148D01*
X104264644Y-58478040D01*
X135319827Y-58478040D01*
X135471747Y-58845714D01*
X135752806Y-59127264D01*
X136120215Y-59279826D01*
X136518040Y-59280173D01*
X136885714Y-59128253D01*
X137167264Y-58847194D01*
X137319826Y-58479785D01*
X137320165Y-58090000D01*
X147744300Y-58090000D01*
X147859699Y-58670148D01*
X148188326Y-59161974D01*
X148680152Y-59490601D01*
X149260300Y-59606000D01*
X149319700Y-59606000D01*
X149899848Y-59490601D01*
X150391674Y-59161974D01*
X150720301Y-58670148D01*
X150835700Y-58090000D01*
X150720301Y-57509852D01*
X150416395Y-57055023D01*
X150491289Y-57040931D01*
X150661465Y-56931425D01*
X150775630Y-56764339D01*
X150815795Y-56566000D01*
X150815795Y-56335009D01*
X158687313Y-56335009D01*
X158861549Y-56755679D01*
X159283973Y-57227992D01*
X159854989Y-57502698D01*
X160106000Y-57394693D01*
X160106000Y-56084000D01*
X160414000Y-56084000D01*
X160414000Y-57394693D01*
X160665011Y-57502698D01*
X161236027Y-57227992D01*
X161658451Y-56755679D01*
X161832687Y-56335009D01*
X161723922Y-56084000D01*
X160414000Y-56084000D01*
X160106000Y-56084000D01*
X158796078Y-56084000D01*
X158687313Y-56335009D01*
X150815795Y-56335009D01*
X150815795Y-55524991D01*
X158687313Y-55524991D01*
X158796078Y-55776000D01*
X160106000Y-55776000D01*
X160106000Y-55756000D01*
X160414000Y-55756000D01*
X160414000Y-55776000D01*
X161723922Y-55776000D01*
X161832687Y-55524991D01*
X161658451Y-55104321D01*
X161459036Y-54881355D01*
X161461289Y-54880931D01*
X161631465Y-54771425D01*
X161745630Y-54604339D01*
X161785795Y-54406000D01*
X161785795Y-52374000D01*
X161750931Y-52188711D01*
X161641425Y-52018535D01*
X161474339Y-51904370D01*
X161276000Y-51864205D01*
X159244000Y-51864205D01*
X159058711Y-51899069D01*
X158888535Y-52008575D01*
X158774370Y-52175661D01*
X158734205Y-52374000D01*
X158734205Y-54406000D01*
X158769069Y-54591289D01*
X158878575Y-54761465D01*
X159045661Y-54875630D01*
X159062952Y-54879132D01*
X158861549Y-55104321D01*
X158687313Y-55524991D01*
X150815795Y-55524991D01*
X150815795Y-54534000D01*
X150780931Y-54348711D01*
X150671425Y-54178535D01*
X150504339Y-54064370D01*
X150306000Y-54024205D01*
X148274000Y-54024205D01*
X148088711Y-54059069D01*
X147918535Y-54168575D01*
X147804370Y-54335661D01*
X147764205Y-54534000D01*
X147764205Y-56566000D01*
X147799069Y-56751289D01*
X147908575Y-56921465D01*
X148075661Y-57035630D01*
X148164537Y-57053628D01*
X147859699Y-57509852D01*
X147744300Y-58090000D01*
X137320165Y-58090000D01*
X137320173Y-58081960D01*
X137168253Y-57714286D01*
X136887194Y-57432736D01*
X136519785Y-57280174D01*
X136121960Y-57279827D01*
X135754286Y-57431747D01*
X135472736Y-57712806D01*
X135320174Y-58080215D01*
X135319827Y-58478040D01*
X104264644Y-58478040D01*
X104365700Y-57970000D01*
X104250301Y-57389852D01*
X103946395Y-56935023D01*
X104021289Y-56920931D01*
X104191465Y-56811425D01*
X104203022Y-56794510D01*
X120250420Y-56794510D01*
X120250420Y-57445490D01*
X120322702Y-57808879D01*
X120528546Y-58116944D01*
X120836611Y-58322788D01*
X121200000Y-58395070D01*
X121563389Y-58322788D01*
X121736366Y-58207208D01*
X122077701Y-58425374D01*
X122154217Y-58430325D01*
X122316000Y-58313380D01*
X122316000Y-57274000D01*
X122296000Y-57274000D01*
X122296000Y-56966000D01*
X122316000Y-56966000D01*
X122316000Y-55926620D01*
X122624000Y-55926620D01*
X122624000Y-56966000D01*
X122644000Y-56966000D01*
X122644000Y-57274000D01*
X122624000Y-57274000D01*
X122624000Y-58313380D01*
X122785783Y-58430325D01*
X122862299Y-58425374D01*
X123203634Y-58207208D01*
X123376611Y-58322788D01*
X123740000Y-58395070D01*
X124103389Y-58322788D01*
X124411454Y-58116944D01*
X124617298Y-57808879D01*
X124689580Y-57445490D01*
X124689580Y-56794510D01*
X124617298Y-56431121D01*
X124411454Y-56123056D01*
X124103389Y-55917212D01*
X123740000Y-55844930D01*
X123376611Y-55917212D01*
X123203634Y-56032792D01*
X122862299Y-55814626D01*
X122785783Y-55809675D01*
X122624000Y-55926620D01*
X122316000Y-55926620D01*
X122154217Y-55809675D01*
X122077701Y-55814626D01*
X121736366Y-56032792D01*
X121563389Y-55917212D01*
X121200000Y-55844930D01*
X120836611Y-55917212D01*
X120528546Y-56123056D01*
X120322702Y-56431121D01*
X120250420Y-56794510D01*
X104203022Y-56794510D01*
X104305630Y-56644339D01*
X104345795Y-56446000D01*
X104345795Y-54414000D01*
X104310931Y-54228711D01*
X104201425Y-54058535D01*
X104034339Y-53944370D01*
X103836000Y-53904205D01*
X101804000Y-53904205D01*
X101618711Y-53939069D01*
X101448535Y-54048575D01*
X101334370Y-54215661D01*
X101294205Y-54414000D01*
X101294205Y-56446000D01*
X101329069Y-56631289D01*
X101438575Y-56801465D01*
X101605661Y-56915630D01*
X101694537Y-56933628D01*
X101389699Y-57389852D01*
X101274300Y-57970000D01*
X98630843Y-57970000D01*
X98200000Y-57884300D01*
X97678173Y-57988098D01*
X97235789Y-58283689D01*
X96940198Y-58726073D01*
X96930000Y-58777342D01*
X96919802Y-58726073D01*
X96624211Y-58283689D01*
X96181827Y-57988098D01*
X95660000Y-57884300D01*
X95138173Y-57988098D01*
X94695789Y-58283689D01*
X94493395Y-58586594D01*
X94493395Y-58414000D01*
X94458531Y-58228711D01*
X94349025Y-58058535D01*
X94181939Y-57944370D01*
X93983600Y-57904205D01*
X92256400Y-57904205D01*
X92071111Y-57939069D01*
X91900935Y-58048575D01*
X91786770Y-58215661D01*
X91746605Y-58414000D01*
X90097695Y-58414000D01*
X90097695Y-57252300D01*
X90062831Y-57067011D01*
X89953325Y-56896835D01*
X89786239Y-56782670D01*
X89587900Y-56742505D01*
X87352700Y-56742505D01*
X87167411Y-56777369D01*
X86997235Y-56886875D01*
X86883070Y-57053961D01*
X86842905Y-57252300D01*
X72730000Y-57252300D01*
X72730000Y-50493360D01*
X75248220Y-50493360D01*
X75363619Y-51073508D01*
X75667525Y-51528337D01*
X75592631Y-51542429D01*
X75422455Y-51651935D01*
X75308290Y-51819021D01*
X75268125Y-52017360D01*
X75268125Y-54049360D01*
X75302989Y-54234649D01*
X75412495Y-54404825D01*
X75579581Y-54518990D01*
X75777920Y-54559155D01*
X77809920Y-54559155D01*
X77995209Y-54524291D01*
X78165385Y-54414785D01*
X78279550Y-54247699D01*
X78296924Y-54161900D01*
X87236240Y-54161900D01*
X87236240Y-54221300D01*
X87351639Y-54801448D01*
X87680266Y-55293274D01*
X88172092Y-55621901D01*
X88752240Y-55737300D01*
X89332388Y-55621901D01*
X89787217Y-55317995D01*
X89801309Y-55392889D01*
X89910815Y-55563065D01*
X90077901Y-55677230D01*
X90276240Y-55717395D01*
X92308240Y-55717395D01*
X92493529Y-55682531D01*
X92663705Y-55573025D01*
X92777870Y-55405939D01*
X92818035Y-55207600D01*
X92818035Y-53175600D01*
X92783171Y-52990311D01*
X92673665Y-52820135D01*
X92506579Y-52705970D01*
X92308240Y-52665805D01*
X90276240Y-52665805D01*
X90090951Y-52700669D01*
X89920775Y-52810175D01*
X89806610Y-52977261D01*
X89788612Y-53066137D01*
X89332388Y-52761299D01*
X88752240Y-52645900D01*
X88172092Y-52761299D01*
X87680266Y-53089926D01*
X87351639Y-53581752D01*
X87236240Y-54161900D01*
X78296924Y-54161900D01*
X78319715Y-54049360D01*
X78319715Y-52017360D01*
X78284851Y-51832071D01*
X78175345Y-51661895D01*
X78008259Y-51547730D01*
X77919383Y-51529732D01*
X78224221Y-51073508D01*
X78339620Y-50493360D01*
X78293294Y-50260460D01*
X87317520Y-50260460D01*
X87317520Y-50319860D01*
X87432919Y-50900008D01*
X87761546Y-51391834D01*
X88253372Y-51720461D01*
X88833520Y-51835860D01*
X89413668Y-51720461D01*
X89868497Y-51416555D01*
X89882589Y-51491449D01*
X89992095Y-51661625D01*
X90159181Y-51775790D01*
X90357520Y-51815955D01*
X92389520Y-51815955D01*
X92574809Y-51781091D01*
X92744985Y-51671585D01*
X92859150Y-51504499D01*
X92899315Y-51306160D01*
X92899315Y-49274160D01*
X92864451Y-49088871D01*
X92754945Y-48918695D01*
X92587859Y-48804530D01*
X92389520Y-48764365D01*
X91283665Y-48764365D01*
X91309081Y-48738993D01*
X91341881Y-48660000D01*
X105264300Y-48660000D01*
X105379699Y-49240148D01*
X105683605Y-49694977D01*
X105608711Y-49709069D01*
X105438535Y-49818575D01*
X105324370Y-49985661D01*
X105284205Y-50184000D01*
X105284205Y-52216000D01*
X105319069Y-52401289D01*
X105428575Y-52571465D01*
X105595661Y-52685630D01*
X105794000Y-52725795D01*
X107826000Y-52725795D01*
X108011289Y-52690931D01*
X108181465Y-52581425D01*
X108295630Y-52414339D01*
X108335795Y-52216000D01*
X108335795Y-50184000D01*
X108300931Y-49998711D01*
X108191425Y-49828535D01*
X108024339Y-49714370D01*
X107935463Y-49696372D01*
X108240301Y-49240148D01*
X108349732Y-48690000D01*
X109004300Y-48690000D01*
X109119699Y-49270148D01*
X109423605Y-49724977D01*
X109348711Y-49739069D01*
X109178535Y-49848575D01*
X109064370Y-50015661D01*
X109024205Y-50214000D01*
X109024205Y-52246000D01*
X109059069Y-52431289D01*
X109168575Y-52601465D01*
X109335661Y-52715630D01*
X109534000Y-52755795D01*
X109670117Y-52755795D01*
X109669844Y-53068236D01*
X109806572Y-53399143D01*
X110059525Y-53652538D01*
X110390194Y-53789843D01*
X110748236Y-53790156D01*
X111079143Y-53653428D01*
X111332538Y-53400475D01*
X111469843Y-53069806D01*
X111470118Y-52755795D01*
X111566000Y-52755795D01*
X111751289Y-52720931D01*
X111921465Y-52611425D01*
X112035630Y-52444339D01*
X112075795Y-52246000D01*
X112075795Y-51220000D01*
X115674300Y-51220000D01*
X115778098Y-51741827D01*
X116073689Y-52184211D01*
X116516073Y-52479802D01*
X116567342Y-52490000D01*
X116516073Y-52500198D01*
X116073689Y-52795789D01*
X115778098Y-53238173D01*
X115674300Y-53760000D01*
X115778098Y-54281827D01*
X116073689Y-54724211D01*
X116516073Y-55019802D01*
X117037900Y-55123600D01*
X117402100Y-55123600D01*
X117923927Y-55019802D01*
X118151055Y-54868040D01*
X122799827Y-54868040D01*
X122951747Y-55235714D01*
X123232806Y-55517264D01*
X123600215Y-55669826D01*
X123998040Y-55670173D01*
X124365714Y-55518253D01*
X124556259Y-55328040D01*
X129969827Y-55328040D01*
X130121747Y-55695714D01*
X130402806Y-55977264D01*
X130770215Y-56129826D01*
X131168040Y-56130173D01*
X131535714Y-55978253D01*
X131817264Y-55697194D01*
X131969826Y-55329785D01*
X131970173Y-54931960D01*
X131818253Y-54564286D01*
X131537194Y-54282736D01*
X131169785Y-54130174D01*
X130771960Y-54129827D01*
X130404286Y-54281747D01*
X130122736Y-54562806D01*
X129970174Y-54930215D01*
X129969827Y-55328040D01*
X124556259Y-55328040D01*
X124647264Y-55237194D01*
X124799826Y-54869785D01*
X124800173Y-54471960D01*
X124648253Y-54104286D01*
X124367194Y-53822736D01*
X123999785Y-53670174D01*
X123601960Y-53669827D01*
X123234286Y-53821747D01*
X122952736Y-54102806D01*
X122800174Y-54470215D01*
X122799827Y-54868040D01*
X118151055Y-54868040D01*
X118366311Y-54724211D01*
X118661902Y-54281827D01*
X118765700Y-53760000D01*
X118661902Y-53238173D01*
X118366311Y-52795789D01*
X117923927Y-52500198D01*
X117872658Y-52490000D01*
X117923927Y-52479802D01*
X118357198Y-52190300D01*
X123404000Y-52190300D01*
X123404000Y-52249700D01*
X123519399Y-52829848D01*
X123848026Y-53321674D01*
X124339852Y-53650301D01*
X124920000Y-53765700D01*
X125500148Y-53650301D01*
X125954977Y-53346395D01*
X125969069Y-53421289D01*
X126078575Y-53591465D01*
X126245661Y-53705630D01*
X126444000Y-53745795D01*
X128476000Y-53745795D01*
X128661289Y-53710931D01*
X128831465Y-53601425D01*
X128945630Y-53434339D01*
X128985795Y-53236000D01*
X128985795Y-51204000D01*
X128950931Y-51018711D01*
X128841425Y-50848535D01*
X128674339Y-50734370D01*
X128476000Y-50694205D01*
X126444000Y-50694205D01*
X126258711Y-50729069D01*
X126088535Y-50838575D01*
X125974370Y-51005661D01*
X125956372Y-51094537D01*
X125500148Y-50789699D01*
X124920000Y-50674300D01*
X124339852Y-50789699D01*
X123848026Y-51118326D01*
X123519399Y-51610152D01*
X123404000Y-52190300D01*
X118357198Y-52190300D01*
X118366311Y-52184211D01*
X118661902Y-51741827D01*
X118765700Y-51220000D01*
X118661902Y-50698173D01*
X118366311Y-50255789D01*
X118063406Y-50053395D01*
X118236000Y-50053395D01*
X118421289Y-50018531D01*
X118542862Y-49940300D01*
X144054000Y-49940300D01*
X144054000Y-49999700D01*
X144169399Y-50579848D01*
X144498026Y-51071674D01*
X144989852Y-51400301D01*
X145570000Y-51515700D01*
X146150148Y-51400301D01*
X146604977Y-51096395D01*
X146619069Y-51171289D01*
X146728575Y-51341465D01*
X146895661Y-51455630D01*
X147094000Y-51495795D01*
X147521093Y-51495795D01*
X147172857Y-51639684D01*
X146820919Y-51991007D01*
X146630217Y-52450269D01*
X146629783Y-52947550D01*
X146819684Y-53407143D01*
X147171007Y-53759081D01*
X147630269Y-53949783D01*
X148127550Y-53950217D01*
X148587143Y-53760316D01*
X148939081Y-53408993D01*
X149129783Y-52949731D01*
X149130217Y-52452450D01*
X148940316Y-51992857D01*
X148588993Y-51640919D01*
X148239495Y-51495795D01*
X149126000Y-51495795D01*
X149311289Y-51460931D01*
X149481465Y-51351425D01*
X149595630Y-51184339D01*
X149635795Y-50986000D01*
X149635795Y-49010000D01*
X159954300Y-49010000D01*
X160069699Y-49590148D01*
X160398326Y-50081974D01*
X160890152Y-50410601D01*
X161470300Y-50526000D01*
X161529700Y-50526000D01*
X162109848Y-50410601D01*
X162601674Y-50081974D01*
X162930301Y-49590148D01*
X163045700Y-49010000D01*
X162930301Y-48429852D01*
X162626395Y-47975023D01*
X162701289Y-47960931D01*
X162871465Y-47851425D01*
X162985630Y-47684339D01*
X163025795Y-47486000D01*
X163025795Y-45454000D01*
X162990931Y-45268711D01*
X162881425Y-45098535D01*
X162714339Y-44984370D01*
X162516000Y-44944205D01*
X160484000Y-44944205D01*
X160298711Y-44979069D01*
X160128535Y-45088575D01*
X160014370Y-45255661D01*
X159974205Y-45454000D01*
X159974205Y-47486000D01*
X160009069Y-47671289D01*
X160118575Y-47841465D01*
X160285661Y-47955630D01*
X160374537Y-47973628D01*
X160069699Y-48429852D01*
X159954300Y-49010000D01*
X149635795Y-49010000D01*
X149635795Y-48954000D01*
X149600931Y-48768711D01*
X149491425Y-48598535D01*
X149324339Y-48484370D01*
X149126000Y-48444205D01*
X147094000Y-48444205D01*
X146908711Y-48479069D01*
X146738535Y-48588575D01*
X146624370Y-48755661D01*
X146606372Y-48844537D01*
X146150148Y-48539699D01*
X145570000Y-48424300D01*
X144989852Y-48539699D01*
X144498026Y-48868326D01*
X144169399Y-49360152D01*
X144054000Y-49940300D01*
X118542862Y-49940300D01*
X118591465Y-49909025D01*
X118705630Y-49741939D01*
X118745795Y-49543600D01*
X118745795Y-47816400D01*
X118710931Y-47631111D01*
X118601425Y-47460935D01*
X118434339Y-47346770D01*
X118236000Y-47306605D01*
X116204000Y-47306605D01*
X116018711Y-47341469D01*
X115848535Y-47450975D01*
X115734370Y-47618061D01*
X115694205Y-47816400D01*
X115694205Y-49543600D01*
X115729069Y-49728889D01*
X115838575Y-49899065D01*
X116005661Y-50013230D01*
X116204000Y-50053395D01*
X116376594Y-50053395D01*
X116073689Y-50255789D01*
X115778098Y-50698173D01*
X115674300Y-51220000D01*
X112075795Y-51220000D01*
X112075795Y-50214000D01*
X112040931Y-50028711D01*
X111931425Y-49858535D01*
X111764339Y-49744370D01*
X111675463Y-49726372D01*
X111980301Y-49270148D01*
X112095700Y-48690000D01*
X111980301Y-48109852D01*
X111651674Y-47618026D01*
X111159848Y-47289399D01*
X110579700Y-47174000D01*
X110520300Y-47174000D01*
X109940152Y-47289399D01*
X109448326Y-47618026D01*
X109119699Y-48109852D01*
X109004300Y-48690000D01*
X108349732Y-48690000D01*
X108355700Y-48660000D01*
X108240301Y-48079852D01*
X107911674Y-47588026D01*
X107419848Y-47259399D01*
X106839700Y-47144000D01*
X106780300Y-47144000D01*
X106200152Y-47259399D01*
X105708326Y-47588026D01*
X105379699Y-48079852D01*
X105264300Y-48660000D01*
X91341881Y-48660000D01*
X91499783Y-48279731D01*
X91500217Y-47782450D01*
X91310316Y-47322857D01*
X91005543Y-47017550D01*
X132859783Y-47017550D01*
X133049684Y-47477143D01*
X133401007Y-47829081D01*
X133860269Y-48019783D01*
X134357550Y-48020217D01*
X134817143Y-47830316D01*
X135169081Y-47478993D01*
X135359783Y-47019731D01*
X135360217Y-46522450D01*
X135293218Y-46360300D01*
X144034000Y-46360300D01*
X144034000Y-46419700D01*
X144149399Y-46999848D01*
X144478026Y-47491674D01*
X144969852Y-47820301D01*
X145550000Y-47935700D01*
X146130148Y-47820301D01*
X146584977Y-47516395D01*
X146599069Y-47591289D01*
X146708575Y-47761465D01*
X146875661Y-47875630D01*
X147074000Y-47915795D01*
X149106000Y-47915795D01*
X149291289Y-47880931D01*
X149461465Y-47771425D01*
X149575630Y-47604339D01*
X149615795Y-47406000D01*
X149615795Y-45374000D01*
X149580931Y-45188711D01*
X149471425Y-45018535D01*
X149304339Y-44904370D01*
X149106000Y-44864205D01*
X147074000Y-44864205D01*
X146888711Y-44899069D01*
X146718535Y-45008575D01*
X146604370Y-45175661D01*
X146586372Y-45264537D01*
X146130148Y-44959699D01*
X145550000Y-44844300D01*
X144969852Y-44959699D01*
X144478026Y-45288326D01*
X144149399Y-45780152D01*
X144034000Y-46360300D01*
X135293218Y-46360300D01*
X135170316Y-46062857D01*
X134818993Y-45710919D01*
X134359731Y-45520217D01*
X133862450Y-45519783D01*
X133402857Y-45709684D01*
X133050919Y-46061007D01*
X132860217Y-46520269D01*
X132859783Y-47017550D01*
X91005543Y-47017550D01*
X90958993Y-46970919D01*
X90499731Y-46780217D01*
X90002450Y-46779783D01*
X89542857Y-46969684D01*
X89190919Y-47321007D01*
X89000217Y-47780269D01*
X88999783Y-48277550D01*
X89189684Y-48737143D01*
X89287042Y-48834671D01*
X88833520Y-48744460D01*
X88253372Y-48859859D01*
X87761546Y-49188486D01*
X87432919Y-49680312D01*
X87317520Y-50260460D01*
X78293294Y-50260460D01*
X78224221Y-49913212D01*
X77895594Y-49421386D01*
X77403768Y-49092759D01*
X76823620Y-48977360D01*
X76764220Y-48977360D01*
X76184072Y-49092759D01*
X75692246Y-49421386D01*
X75363619Y-49913212D01*
X75248220Y-50493360D01*
X72730000Y-50493360D01*
X72730000Y-46278040D01*
X74989827Y-46278040D01*
X75141747Y-46645714D01*
X75422806Y-46927264D01*
X75790215Y-47079826D01*
X76188040Y-47080173D01*
X76555714Y-46928253D01*
X76837264Y-46647194D01*
X76989826Y-46279785D01*
X76990173Y-45881960D01*
X76838253Y-45514286D01*
X76557194Y-45232736D01*
X76189785Y-45080174D01*
X75791960Y-45079827D01*
X75424286Y-45231747D01*
X75142736Y-45512806D01*
X74990174Y-45880215D01*
X74989827Y-46278040D01*
X72730000Y-46278040D01*
X72730000Y-45027550D01*
X122029783Y-45027550D01*
X122219684Y-45487143D01*
X122571007Y-45839081D01*
X123030269Y-46029783D01*
X123527550Y-46030217D01*
X123987143Y-45840316D01*
X124339081Y-45488993D01*
X124529783Y-45029731D01*
X124530217Y-44532450D01*
X124340316Y-44072857D01*
X123988993Y-43720919D01*
X123529731Y-43530217D01*
X123032450Y-43529783D01*
X122572857Y-43719684D01*
X122220919Y-44071007D01*
X122030217Y-44530269D01*
X122029783Y-45027550D01*
X72730000Y-45027550D01*
X72730000Y-38611049D01*
X73786189Y-38611049D01*
X74016178Y-39093641D01*
X74437371Y-39483838D01*
X74603495Y-39545330D01*
X74213689Y-39805789D01*
X73918098Y-40248173D01*
X73814300Y-40770000D01*
X73918098Y-41291827D01*
X74213689Y-41734211D01*
X74516594Y-41936605D01*
X74344000Y-41936605D01*
X74158711Y-41971469D01*
X73988535Y-42080975D01*
X73874370Y-42248061D01*
X73834205Y-42446400D01*
X73834205Y-44173600D01*
X73869069Y-44358889D01*
X73978575Y-44529065D01*
X74145661Y-44643230D01*
X74344000Y-44683395D01*
X76376000Y-44683395D01*
X76561289Y-44648531D01*
X76731465Y-44539025D01*
X76845630Y-44371939D01*
X76885795Y-44173600D01*
X76885795Y-43598040D01*
X100229827Y-43598040D01*
X100381747Y-43965714D01*
X100662806Y-44247264D01*
X101030215Y-44399826D01*
X101428040Y-44400173D01*
X101795714Y-44248253D01*
X102077264Y-43967194D01*
X102229826Y-43599785D01*
X102230173Y-43201960D01*
X102078253Y-42834286D01*
X101797194Y-42552736D01*
X101429785Y-42400174D01*
X101031960Y-42399827D01*
X100664286Y-42551747D01*
X100382736Y-42832806D01*
X100230174Y-43200215D01*
X100229827Y-43598040D01*
X76885795Y-43598040D01*
X76885795Y-42446400D01*
X76850931Y-42261111D01*
X76741425Y-42090935D01*
X76574339Y-41976770D01*
X76376000Y-41936605D01*
X76203406Y-41936605D01*
X76506311Y-41734211D01*
X76801902Y-41291827D01*
X76905700Y-40770000D01*
X76801902Y-40248173D01*
X76506311Y-39805789D01*
X76116505Y-39545330D01*
X76282629Y-39483838D01*
X76286771Y-39480000D01*
X94864300Y-39480000D01*
X94979699Y-40060148D01*
X95308326Y-40551974D01*
X95800152Y-40880601D01*
X96380300Y-40996000D01*
X96439700Y-40996000D01*
X97019848Y-40880601D01*
X97511674Y-40551974D01*
X97840301Y-40060148D01*
X97886080Y-39830000D01*
X111994300Y-39830000D01*
X112109699Y-40410148D01*
X112413605Y-40864977D01*
X112338711Y-40879069D01*
X112168535Y-40988575D01*
X112054370Y-41155661D01*
X112014205Y-41354000D01*
X112014205Y-43386000D01*
X112049069Y-43571289D01*
X112158575Y-43741465D01*
X112325661Y-43855630D01*
X112524000Y-43895795D01*
X114556000Y-43895795D01*
X114741289Y-43860931D01*
X114911465Y-43751425D01*
X115025630Y-43584339D01*
X115065795Y-43386000D01*
X115065795Y-42957550D01*
X157609783Y-42957550D01*
X157799684Y-43417143D01*
X158151007Y-43769081D01*
X158610269Y-43959783D01*
X159107550Y-43960217D01*
X159567143Y-43770316D01*
X159919081Y-43418993D01*
X160109783Y-42959731D01*
X160110217Y-42462450D01*
X159920316Y-42002857D01*
X159568993Y-41650919D01*
X159109731Y-41460217D01*
X158612450Y-41459783D01*
X158152857Y-41649684D01*
X157800919Y-42001007D01*
X157610217Y-42460269D01*
X157609783Y-42957550D01*
X115065795Y-42957550D01*
X115065795Y-41354000D01*
X115030931Y-41168711D01*
X114921425Y-40998535D01*
X114754339Y-40884370D01*
X114665463Y-40866372D01*
X114970301Y-40410148D01*
X115085700Y-39830000D01*
X114970301Y-39249852D01*
X114641674Y-38758026D01*
X114149848Y-38429399D01*
X113569700Y-38314000D01*
X113510300Y-38314000D01*
X112930152Y-38429399D01*
X112438326Y-38758026D01*
X112109699Y-39249852D01*
X111994300Y-39830000D01*
X97886080Y-39830000D01*
X97955700Y-39480000D01*
X97840301Y-38899852D01*
X97536395Y-38445023D01*
X97611289Y-38430931D01*
X97781465Y-38321425D01*
X97895630Y-38154339D01*
X97935795Y-37956000D01*
X97935795Y-37057900D01*
X100476400Y-37057900D01*
X100476400Y-37422100D01*
X100580198Y-37943927D01*
X100875789Y-38386311D01*
X101318173Y-38681902D01*
X101840000Y-38785700D01*
X102361827Y-38681902D01*
X102804211Y-38386311D01*
X103099802Y-37943927D01*
X103110000Y-37892658D01*
X103120198Y-37943927D01*
X103415789Y-38386311D01*
X103858173Y-38681902D01*
X104380000Y-38785700D01*
X104901827Y-38681902D01*
X105344211Y-38386311D01*
X105639802Y-37943927D01*
X105650000Y-37892658D01*
X105660198Y-37943927D01*
X105955789Y-38386311D01*
X106398173Y-38681902D01*
X106920000Y-38785700D01*
X107441827Y-38681902D01*
X107884211Y-38386311D01*
X108086605Y-38083406D01*
X108086605Y-38256000D01*
X108121469Y-38441289D01*
X108230975Y-38611465D01*
X108398061Y-38725630D01*
X108596400Y-38765795D01*
X110323600Y-38765795D01*
X110508889Y-38730931D01*
X110679065Y-38621425D01*
X110793230Y-38454339D01*
X110833395Y-38256000D01*
X110833395Y-36897900D01*
X137006400Y-36897900D01*
X137006400Y-37262100D01*
X137110198Y-37783927D01*
X137405789Y-38226311D01*
X137848173Y-38521902D01*
X138370000Y-38625700D01*
X138891827Y-38521902D01*
X139334211Y-38226311D01*
X139629802Y-37783927D01*
X139640000Y-37732658D01*
X139650198Y-37783927D01*
X139945789Y-38226311D01*
X140388173Y-38521902D01*
X140910000Y-38625700D01*
X141431827Y-38521902D01*
X141874211Y-38226311D01*
X142169802Y-37783927D01*
X142180000Y-37732658D01*
X142190198Y-37783927D01*
X142485789Y-38226311D01*
X142928173Y-38521902D01*
X143450000Y-38625700D01*
X143971827Y-38521902D01*
X144414211Y-38226311D01*
X144616605Y-37923406D01*
X144616605Y-38096000D01*
X144651469Y-38281289D01*
X144760975Y-38451465D01*
X144928061Y-38565630D01*
X145126400Y-38605795D01*
X146853600Y-38605795D01*
X147038889Y-38570931D01*
X147209065Y-38461425D01*
X147323230Y-38294339D01*
X147342731Y-38198040D01*
X158819827Y-38198040D01*
X158971747Y-38565714D01*
X159252806Y-38847264D01*
X159620215Y-38999826D01*
X160018040Y-39000173D01*
X160385714Y-38848253D01*
X160667264Y-38567194D01*
X160819826Y-38199785D01*
X160820173Y-37801960D01*
X160668253Y-37434286D01*
X160387194Y-37152736D01*
X160019785Y-37000174D01*
X159621960Y-36999827D01*
X159254286Y-37151747D01*
X158972736Y-37432806D01*
X158820174Y-37800215D01*
X158819827Y-38198040D01*
X147342731Y-38198040D01*
X147363395Y-38096000D01*
X147363395Y-36064000D01*
X147328531Y-35878711D01*
X147219025Y-35708535D01*
X147051939Y-35594370D01*
X146853600Y-35554205D01*
X145126400Y-35554205D01*
X144941111Y-35589069D01*
X144770935Y-35698575D01*
X144656770Y-35865661D01*
X144616605Y-36064000D01*
X144616605Y-36236594D01*
X144414211Y-35933689D01*
X143971827Y-35638098D01*
X143450000Y-35534300D01*
X142928173Y-35638098D01*
X142485789Y-35933689D01*
X142190198Y-36376073D01*
X142180000Y-36427342D01*
X142169802Y-36376073D01*
X141874211Y-35933689D01*
X141431827Y-35638098D01*
X140910000Y-35534300D01*
X140388173Y-35638098D01*
X139945789Y-35933689D01*
X139650198Y-36376073D01*
X139640000Y-36427342D01*
X139629802Y-36376073D01*
X139334211Y-35933689D01*
X138891827Y-35638098D01*
X138370000Y-35534300D01*
X137848173Y-35638098D01*
X137405789Y-35933689D01*
X137110198Y-36376073D01*
X137006400Y-36897900D01*
X110833395Y-36897900D01*
X110833395Y-36224000D01*
X110798531Y-36038711D01*
X110689025Y-35868535D01*
X110521939Y-35754370D01*
X110323600Y-35714205D01*
X108596400Y-35714205D01*
X108411111Y-35749069D01*
X108240935Y-35858575D01*
X108126770Y-36025661D01*
X108086605Y-36224000D01*
X108086605Y-36396594D01*
X107884211Y-36093689D01*
X107441827Y-35798098D01*
X106920000Y-35694300D01*
X106398173Y-35798098D01*
X105955789Y-36093689D01*
X105660198Y-36536073D01*
X105650000Y-36587342D01*
X105639802Y-36536073D01*
X105344211Y-36093689D01*
X104901827Y-35798098D01*
X104380000Y-35694300D01*
X103858173Y-35798098D01*
X103415789Y-36093689D01*
X103120198Y-36536073D01*
X103110000Y-36587342D01*
X103099802Y-36536073D01*
X102804211Y-36093689D01*
X102361827Y-35798098D01*
X101840000Y-35694300D01*
X101318173Y-35798098D01*
X100875789Y-36093689D01*
X100580198Y-36536073D01*
X100476400Y-37057900D01*
X97935795Y-37057900D01*
X97935795Y-35924000D01*
X97900931Y-35738711D01*
X97791425Y-35568535D01*
X97624339Y-35454370D01*
X97426000Y-35414205D01*
X95394000Y-35414205D01*
X95208711Y-35449069D01*
X95038535Y-35558575D01*
X94924370Y-35725661D01*
X94884205Y-35924000D01*
X94884205Y-37956000D01*
X94919069Y-38141289D01*
X95028575Y-38311465D01*
X95195661Y-38425630D01*
X95284537Y-38443628D01*
X94979699Y-38899852D01*
X94864300Y-39480000D01*
X76286771Y-39480000D01*
X76703822Y-39093641D01*
X76933811Y-38611049D01*
X76822983Y-38384000D01*
X75514000Y-38384000D01*
X75514000Y-38404000D01*
X75206000Y-38404000D01*
X75206000Y-38384000D01*
X73897017Y-38384000D01*
X73786189Y-38611049D01*
X72730000Y-38611049D01*
X72730000Y-36071049D01*
X73786189Y-36071049D01*
X74016178Y-36553641D01*
X74437371Y-36943838D01*
X74481034Y-36960000D01*
X74437371Y-36976162D01*
X74016178Y-37366359D01*
X73786189Y-37848951D01*
X73897017Y-38076000D01*
X75206000Y-38076000D01*
X75206000Y-35844000D01*
X75514000Y-35844000D01*
X75514000Y-38076000D01*
X76822983Y-38076000D01*
X76933811Y-37848951D01*
X76703822Y-37366359D01*
X76282629Y-36976162D01*
X76238966Y-36960000D01*
X76282629Y-36943838D01*
X76703822Y-36553641D01*
X76933811Y-36071049D01*
X76822983Y-35844000D01*
X75514000Y-35844000D01*
X75206000Y-35844000D01*
X73897017Y-35844000D01*
X73786189Y-36071049D01*
X72730000Y-36071049D01*
X72730000Y-35308951D01*
X73786189Y-35308951D01*
X73897017Y-35536000D01*
X75206000Y-35536000D01*
X75206000Y-34370484D01*
X75514000Y-34370484D01*
X75514000Y-35536000D01*
X76822983Y-35536000D01*
X76933811Y-35308951D01*
X76703822Y-34826359D01*
X76282629Y-34436162D01*
X75744176Y-34236851D01*
X75514000Y-34370484D01*
X75206000Y-34370484D01*
X74975824Y-34236851D01*
X74437371Y-34436162D01*
X74016178Y-34826359D01*
X73786189Y-35308951D01*
X72730000Y-35308951D01*
X72730000Y-34020000D01*
X166380000Y-34020000D01*
X166380000Y-70430000D01*
X166380000Y-70430000D01*
G37*
X166380000Y-70430000D02*
X72730000Y-70430000D01*
X72730000Y-66065009D01*
X105107313Y-66065009D01*
X105281549Y-66485679D01*
X105703973Y-66957992D01*
X106274989Y-67232698D01*
X106526000Y-67124693D01*
X106526000Y-65814000D01*
X106834000Y-65814000D01*
X106834000Y-67124693D01*
X107085011Y-67232698D01*
X107165084Y-67194176D01*
X127026851Y-67194176D01*
X127226162Y-67732629D01*
X127616359Y-68153822D01*
X128098951Y-68383811D01*
X128326000Y-68272983D01*
X128326000Y-66964000D01*
X127160484Y-66964000D01*
X127026851Y-67194176D01*
X107165084Y-67194176D01*
X107656027Y-66957992D01*
X108078451Y-66485679D01*
X108103242Y-66425824D01*
X127026851Y-66425824D01*
X127160484Y-66656000D01*
X128326000Y-66656000D01*
X128326000Y-65347017D01*
X128634000Y-65347017D01*
X128634000Y-66656000D01*
X128654000Y-66656000D01*
X128654000Y-66964000D01*
X128634000Y-66964000D01*
X128634000Y-68272983D01*
X128861049Y-68383811D01*
X129343641Y-68153822D01*
X129733838Y-67732629D01*
X129781348Y-67604277D01*
X129959340Y-67870660D01*
X130030191Y-67918001D01*
X130055789Y-67956311D01*
X130498173Y-68251902D01*
X131020000Y-68355700D01*
X131541827Y-68251902D01*
X131984211Y-67956311D01*
X132009809Y-67918001D01*
X132080660Y-67870660D01*
X132309610Y-67528013D01*
X132595789Y-67956311D01*
X133038173Y-68251902D01*
X133560000Y-68355700D01*
X134081827Y-68251902D01*
X134524211Y-67956311D01*
X134726605Y-67653406D01*
X134726605Y-67826000D01*
X134761469Y-68011289D01*
X134870975Y-68181465D01*
X135038061Y-68295630D01*
X135236400Y-68335795D01*
X136963600Y-68335795D01*
X137148889Y-68300931D01*
X137319065Y-68191425D01*
X137433230Y-68024339D01*
X137473395Y-67826000D01*
X137473395Y-65794000D01*
X137438531Y-65608711D01*
X137329025Y-65438535D01*
X137161939Y-65324370D01*
X136963600Y-65284205D01*
X135236400Y-65284205D01*
X135051111Y-65319069D01*
X134880935Y-65428575D01*
X134766770Y-65595661D01*
X134726605Y-65794000D01*
X134726605Y-65966594D01*
X134524211Y-65663689D01*
X134081827Y-65368098D01*
X133560000Y-65264300D01*
X133038173Y-65368098D01*
X132595789Y-65663689D01*
X132520000Y-65777115D01*
X132520000Y-65381320D01*
X132761320Y-65140000D01*
X135329453Y-65140000D01*
X135430000Y-65160000D01*
X136712300Y-65160000D01*
X136735975Y-65175819D01*
X137310000Y-65290000D01*
X137884025Y-65175819D01*
X137890247Y-65171662D01*
X138011747Y-65465714D01*
X138292806Y-65747264D01*
X138660215Y-65899826D01*
X139058040Y-65900173D01*
X139425714Y-65748253D01*
X139707264Y-65467194D01*
X139859826Y-65099785D01*
X139860173Y-64701960D01*
X139708253Y-64334286D01*
X139427194Y-64052736D01*
X139059785Y-63900174D01*
X138788132Y-63899937D01*
X138810000Y-63790000D01*
X138695819Y-63215975D01*
X138370660Y-62729340D01*
X138240660Y-62599340D01*
X137754025Y-62274181D01*
X137180000Y-62160000D01*
X137022472Y-62160000D01*
X137109783Y-61949731D01*
X137110217Y-61452450D01*
X136920316Y-60992857D01*
X136568993Y-60640919D01*
X136109731Y-60450217D01*
X135612450Y-60449783D01*
X135152857Y-60639684D01*
X134800919Y-60991007D01*
X134610217Y-61450269D01*
X134609783Y-61947550D01*
X134689302Y-62140000D01*
X132140000Y-62140000D01*
X131565975Y-62254181D01*
X131079340Y-62579340D01*
X129959340Y-63699340D01*
X129634181Y-64185975D01*
X129520000Y-64760000D01*
X129520000Y-65656546D01*
X129343641Y-65466178D01*
X128861049Y-65236189D01*
X128634000Y-65347017D01*
X128326000Y-65347017D01*
X128098951Y-65236189D01*
X127616359Y-65466178D01*
X127226162Y-65887371D01*
X127026851Y-66425824D01*
X108103242Y-66425824D01*
X108252687Y-66065009D01*
X108143922Y-65814000D01*
X106834000Y-65814000D01*
X106526000Y-65814000D01*
X105216078Y-65814000D01*
X105107313Y-66065009D01*
X72730000Y-66065009D01*
X72730000Y-65254991D01*
X105107313Y-65254991D01*
X105216078Y-65506000D01*
X106526000Y-65506000D01*
X106526000Y-65486000D01*
X106834000Y-65486000D01*
X106834000Y-65506000D01*
X108143922Y-65506000D01*
X108252687Y-65254991D01*
X108078451Y-64834321D01*
X107879036Y-64611355D01*
X107881289Y-64610931D01*
X108051465Y-64501425D01*
X108165630Y-64334339D01*
X108205795Y-64136000D01*
X108205795Y-62104000D01*
X108170931Y-61918711D01*
X108061425Y-61748535D01*
X107894339Y-61634370D01*
X107696000Y-61594205D01*
X105664000Y-61594205D01*
X105478711Y-61629069D01*
X105308535Y-61738575D01*
X105194370Y-61905661D01*
X105154205Y-62104000D01*
X105154205Y-64136000D01*
X105189069Y-64321289D01*
X105298575Y-64491465D01*
X105465661Y-64605630D01*
X105482952Y-64609132D01*
X105281549Y-64834321D01*
X105107313Y-65254991D01*
X72730000Y-65254991D01*
X72730000Y-57252300D01*
X86842905Y-57252300D01*
X86842905Y-59487500D01*
X86877769Y-59672789D01*
X86987275Y-59842965D01*
X87154361Y-59957130D01*
X87352700Y-59997295D01*
X89587900Y-59997295D01*
X89773189Y-59962431D01*
X89943365Y-59852925D01*
X90057530Y-59685839D01*
X90097695Y-59487500D01*
X90097695Y-58414000D01*
X91746605Y-58414000D01*
X91746605Y-60446000D01*
X91781469Y-60631289D01*
X91890975Y-60801465D01*
X92058061Y-60915630D01*
X92256400Y-60955795D01*
X93983600Y-60955795D01*
X94168889Y-60920931D01*
X94339065Y-60811425D01*
X94453230Y-60644339D01*
X94493395Y-60446000D01*
X94493395Y-60273406D01*
X94695789Y-60576311D01*
X95138173Y-60871902D01*
X95660000Y-60975700D01*
X96181827Y-60871902D01*
X96624211Y-60576311D01*
X96919802Y-60133927D01*
X96930000Y-60082658D01*
X96940198Y-60133927D01*
X97235789Y-60576311D01*
X97678173Y-60871902D01*
X98200000Y-60975700D01*
X98721827Y-60871902D01*
X99164211Y-60576311D01*
X99355317Y-60290300D01*
X128804000Y-60290300D01*
X128804000Y-60349700D01*
X128919399Y-60929848D01*
X129248026Y-61421674D01*
X129739852Y-61750301D01*
X130320000Y-61865700D01*
X130900148Y-61750301D01*
X131354977Y-61446395D01*
X131369069Y-61521289D01*
X131478575Y-61691465D01*
X131645661Y-61805630D01*
X131844000Y-61845795D01*
X133876000Y-61845795D01*
X134061289Y-61810931D01*
X134231465Y-61701425D01*
X134345630Y-61534339D01*
X134385795Y-61336000D01*
X134385795Y-59304000D01*
X134350931Y-59118711D01*
X134241425Y-58948535D01*
X134074339Y-58834370D01*
X133876000Y-58794205D01*
X131844000Y-58794205D01*
X131658711Y-58829069D01*
X131488535Y-58938575D01*
X131374370Y-59105661D01*
X131356372Y-59194537D01*
X130900148Y-58889699D01*
X130320000Y-58774300D01*
X129739852Y-58889699D01*
X129248026Y-59218326D01*
X128919399Y-59710152D01*
X128804000Y-60290300D01*
X99355317Y-60290300D01*
X99459802Y-60133927D01*
X99563600Y-59612100D01*
X99563600Y-59247900D01*
X99459802Y-58726073D01*
X99164211Y-58283689D01*
X98721827Y-57988098D01*
X98630843Y-57970000D01*
X101274300Y-57970000D01*
X101389699Y-58550148D01*
X101718326Y-59041974D01*
X102210152Y-59370601D01*
X102790300Y-59486000D01*
X102849700Y-59486000D01*
X103429848Y-59370601D01*
X103921674Y-59041974D01*
X104250301Y-58550148D01*
X104264644Y-58478040D01*
X135319827Y-58478040D01*
X135471747Y-58845714D01*
X135752806Y-59127264D01*
X136120215Y-59279826D01*
X136518040Y-59280173D01*
X136885714Y-59128253D01*
X137167264Y-58847194D01*
X137319826Y-58479785D01*
X137320165Y-58090000D01*
X147744300Y-58090000D01*
X147859699Y-58670148D01*
X148188326Y-59161974D01*
X148680152Y-59490601D01*
X149260300Y-59606000D01*
X149319700Y-59606000D01*
X149899848Y-59490601D01*
X150391674Y-59161974D01*
X150720301Y-58670148D01*
X150835700Y-58090000D01*
X150720301Y-57509852D01*
X150416395Y-57055023D01*
X150491289Y-57040931D01*
X150661465Y-56931425D01*
X150775630Y-56764339D01*
X150815795Y-56566000D01*
X150815795Y-56335009D01*
X158687313Y-56335009D01*
X158861549Y-56755679D01*
X159283973Y-57227992D01*
X159854989Y-57502698D01*
X160106000Y-57394693D01*
X160106000Y-56084000D01*
X160414000Y-56084000D01*
X160414000Y-57394693D01*
X160665011Y-57502698D01*
X161236027Y-57227992D01*
X161658451Y-56755679D01*
X161832687Y-56335009D01*
X161723922Y-56084000D01*
X160414000Y-56084000D01*
X160106000Y-56084000D01*
X158796078Y-56084000D01*
X158687313Y-56335009D01*
X150815795Y-56335009D01*
X150815795Y-55524991D01*
X158687313Y-55524991D01*
X158796078Y-55776000D01*
X160106000Y-55776000D01*
X160106000Y-55756000D01*
X160414000Y-55756000D01*
X160414000Y-55776000D01*
X161723922Y-55776000D01*
X161832687Y-55524991D01*
X161658451Y-55104321D01*
X161459036Y-54881355D01*
X161461289Y-54880931D01*
X161631465Y-54771425D01*
X161745630Y-54604339D01*
X161785795Y-54406000D01*
X161785795Y-52374000D01*
X161750931Y-52188711D01*
X161641425Y-52018535D01*
X161474339Y-51904370D01*
X161276000Y-51864205D01*
X159244000Y-51864205D01*
X159058711Y-51899069D01*
X158888535Y-52008575D01*
X158774370Y-52175661D01*
X158734205Y-52374000D01*
X158734205Y-54406000D01*
X158769069Y-54591289D01*
X158878575Y-54761465D01*
X159045661Y-54875630D01*
X159062952Y-54879132D01*
X158861549Y-55104321D01*
X158687313Y-55524991D01*
X150815795Y-55524991D01*
X150815795Y-54534000D01*
X150780931Y-54348711D01*
X150671425Y-54178535D01*
X150504339Y-54064370D01*
X150306000Y-54024205D01*
X148274000Y-54024205D01*
X148088711Y-54059069D01*
X147918535Y-54168575D01*
X147804370Y-54335661D01*
X147764205Y-54534000D01*
X147764205Y-56566000D01*
X147799069Y-56751289D01*
X147908575Y-56921465D01*
X148075661Y-57035630D01*
X148164537Y-57053628D01*
X147859699Y-57509852D01*
X147744300Y-58090000D01*
X137320165Y-58090000D01*
X137320173Y-58081960D01*
X137168253Y-57714286D01*
X136887194Y-57432736D01*
X136519785Y-57280174D01*
X136121960Y-57279827D01*
X135754286Y-57431747D01*
X135472736Y-57712806D01*
X135320174Y-58080215D01*
X135319827Y-58478040D01*
X104264644Y-58478040D01*
X104365700Y-57970000D01*
X104250301Y-57389852D01*
X103946395Y-56935023D01*
X104021289Y-56920931D01*
X104191465Y-56811425D01*
X104203022Y-56794510D01*
X120250420Y-56794510D01*
X120250420Y-57445490D01*
X120322702Y-57808879D01*
X120528546Y-58116944D01*
X120836611Y-58322788D01*
X121200000Y-58395070D01*
X121563389Y-58322788D01*
X121736366Y-58207208D01*
X122077701Y-58425374D01*
X122154217Y-58430325D01*
X122316000Y-58313380D01*
X122316000Y-57274000D01*
X122296000Y-57274000D01*
X122296000Y-56966000D01*
X122316000Y-56966000D01*
X122316000Y-55926620D01*
X122624000Y-55926620D01*
X122624000Y-56966000D01*
X122644000Y-56966000D01*
X122644000Y-57274000D01*
X122624000Y-57274000D01*
X122624000Y-58313380D01*
X122785783Y-58430325D01*
X122862299Y-58425374D01*
X123203634Y-58207208D01*
X123376611Y-58322788D01*
X123740000Y-58395070D01*
X124103389Y-58322788D01*
X124411454Y-58116944D01*
X124617298Y-57808879D01*
X124689580Y-57445490D01*
X124689580Y-56794510D01*
X124617298Y-56431121D01*
X124411454Y-56123056D01*
X124103389Y-55917212D01*
X123740000Y-55844930D01*
X123376611Y-55917212D01*
X123203634Y-56032792D01*
X122862299Y-55814626D01*
X122785783Y-55809675D01*
X122624000Y-55926620D01*
X122316000Y-55926620D01*
X122154217Y-55809675D01*
X122077701Y-55814626D01*
X121736366Y-56032792D01*
X121563389Y-55917212D01*
X121200000Y-55844930D01*
X120836611Y-55917212D01*
X120528546Y-56123056D01*
X120322702Y-56431121D01*
X120250420Y-56794510D01*
X104203022Y-56794510D01*
X104305630Y-56644339D01*
X104345795Y-56446000D01*
X104345795Y-54414000D01*
X104310931Y-54228711D01*
X104201425Y-54058535D01*
X104034339Y-53944370D01*
X103836000Y-53904205D01*
X101804000Y-53904205D01*
X101618711Y-53939069D01*
X101448535Y-54048575D01*
X101334370Y-54215661D01*
X101294205Y-54414000D01*
X101294205Y-56446000D01*
X101329069Y-56631289D01*
X101438575Y-56801465D01*
X101605661Y-56915630D01*
X101694537Y-56933628D01*
X101389699Y-57389852D01*
X101274300Y-57970000D01*
X98630843Y-57970000D01*
X98200000Y-57884300D01*
X97678173Y-57988098D01*
X97235789Y-58283689D01*
X96940198Y-58726073D01*
X96930000Y-58777342D01*
X96919802Y-58726073D01*
X96624211Y-58283689D01*
X96181827Y-57988098D01*
X95660000Y-57884300D01*
X95138173Y-57988098D01*
X94695789Y-58283689D01*
X94493395Y-58586594D01*
X94493395Y-58414000D01*
X94458531Y-58228711D01*
X94349025Y-58058535D01*
X94181939Y-57944370D01*
X93983600Y-57904205D01*
X92256400Y-57904205D01*
X92071111Y-57939069D01*
X91900935Y-58048575D01*
X91786770Y-58215661D01*
X91746605Y-58414000D01*
X90097695Y-58414000D01*
X90097695Y-57252300D01*
X90062831Y-57067011D01*
X89953325Y-56896835D01*
X89786239Y-56782670D01*
X89587900Y-56742505D01*
X87352700Y-56742505D01*
X87167411Y-56777369D01*
X86997235Y-56886875D01*
X86883070Y-57053961D01*
X86842905Y-57252300D01*
X72730000Y-57252300D01*
X72730000Y-50493360D01*
X75248220Y-50493360D01*
X75363619Y-51073508D01*
X75667525Y-51528337D01*
X75592631Y-51542429D01*
X75422455Y-51651935D01*
X75308290Y-51819021D01*
X75268125Y-52017360D01*
X75268125Y-54049360D01*
X75302989Y-54234649D01*
X75412495Y-54404825D01*
X75579581Y-54518990D01*
X75777920Y-54559155D01*
X77809920Y-54559155D01*
X77995209Y-54524291D01*
X78165385Y-54414785D01*
X78279550Y-54247699D01*
X78296924Y-54161900D01*
X87236240Y-54161900D01*
X87236240Y-54221300D01*
X87351639Y-54801448D01*
X87680266Y-55293274D01*
X88172092Y-55621901D01*
X88752240Y-55737300D01*
X89332388Y-55621901D01*
X89787217Y-55317995D01*
X89801309Y-55392889D01*
X89910815Y-55563065D01*
X90077901Y-55677230D01*
X90276240Y-55717395D01*
X92308240Y-55717395D01*
X92493529Y-55682531D01*
X92663705Y-55573025D01*
X92777870Y-55405939D01*
X92818035Y-55207600D01*
X92818035Y-53175600D01*
X92783171Y-52990311D01*
X92673665Y-52820135D01*
X92506579Y-52705970D01*
X92308240Y-52665805D01*
X90276240Y-52665805D01*
X90090951Y-52700669D01*
X89920775Y-52810175D01*
X89806610Y-52977261D01*
X89788612Y-53066137D01*
X89332388Y-52761299D01*
X88752240Y-52645900D01*
X88172092Y-52761299D01*
X87680266Y-53089926D01*
X87351639Y-53581752D01*
X87236240Y-54161900D01*
X78296924Y-54161900D01*
X78319715Y-54049360D01*
X78319715Y-52017360D01*
X78284851Y-51832071D01*
X78175345Y-51661895D01*
X78008259Y-51547730D01*
X77919383Y-51529732D01*
X78224221Y-51073508D01*
X78339620Y-50493360D01*
X78293294Y-50260460D01*
X87317520Y-50260460D01*
X87317520Y-50319860D01*
X87432919Y-50900008D01*
X87761546Y-51391834D01*
X88253372Y-51720461D01*
X88833520Y-51835860D01*
X89413668Y-51720461D01*
X89868497Y-51416555D01*
X89882589Y-51491449D01*
X89992095Y-51661625D01*
X90159181Y-51775790D01*
X90357520Y-51815955D01*
X92389520Y-51815955D01*
X92574809Y-51781091D01*
X92744985Y-51671585D01*
X92859150Y-51504499D01*
X92899315Y-51306160D01*
X92899315Y-49274160D01*
X92864451Y-49088871D01*
X92754945Y-48918695D01*
X92587859Y-48804530D01*
X92389520Y-48764365D01*
X91283665Y-48764365D01*
X91309081Y-48738993D01*
X91341881Y-48660000D01*
X105264300Y-48660000D01*
X105379699Y-49240148D01*
X105683605Y-49694977D01*
X105608711Y-49709069D01*
X105438535Y-49818575D01*
X105324370Y-49985661D01*
X105284205Y-50184000D01*
X105284205Y-52216000D01*
X105319069Y-52401289D01*
X105428575Y-52571465D01*
X105595661Y-52685630D01*
X105794000Y-52725795D01*
X107826000Y-52725795D01*
X108011289Y-52690931D01*
X108181465Y-52581425D01*
X108295630Y-52414339D01*
X108335795Y-52216000D01*
X108335795Y-50184000D01*
X108300931Y-49998711D01*
X108191425Y-49828535D01*
X108024339Y-49714370D01*
X107935463Y-49696372D01*
X108240301Y-49240148D01*
X108349732Y-48690000D01*
X109004300Y-48690000D01*
X109119699Y-49270148D01*
X109423605Y-49724977D01*
X109348711Y-49739069D01*
X109178535Y-49848575D01*
X109064370Y-50015661D01*
X109024205Y-50214000D01*
X109024205Y-52246000D01*
X109059069Y-52431289D01*
X109168575Y-52601465D01*
X109335661Y-52715630D01*
X109534000Y-52755795D01*
X109670117Y-52755795D01*
X109669844Y-53068236D01*
X109806572Y-53399143D01*
X110059525Y-53652538D01*
X110390194Y-53789843D01*
X110748236Y-53790156D01*
X111079143Y-53653428D01*
X111332538Y-53400475D01*
X111469843Y-53069806D01*
X111470118Y-52755795D01*
X111566000Y-52755795D01*
X111751289Y-52720931D01*
X111921465Y-52611425D01*
X112035630Y-52444339D01*
X112075795Y-52246000D01*
X112075795Y-51220000D01*
X115674300Y-51220000D01*
X115778098Y-51741827D01*
X116073689Y-52184211D01*
X116516073Y-52479802D01*
X116567342Y-52490000D01*
X116516073Y-52500198D01*
X116073689Y-52795789D01*
X115778098Y-53238173D01*
X115674300Y-53760000D01*
X115778098Y-54281827D01*
X116073689Y-54724211D01*
X116516073Y-55019802D01*
X117037900Y-55123600D01*
X117402100Y-55123600D01*
X117923927Y-55019802D01*
X118151055Y-54868040D01*
X122799827Y-54868040D01*
X122951747Y-55235714D01*
X123232806Y-55517264D01*
X123600215Y-55669826D01*
X123998040Y-55670173D01*
X124365714Y-55518253D01*
X124556259Y-55328040D01*
X129969827Y-55328040D01*
X130121747Y-55695714D01*
X130402806Y-55977264D01*
X130770215Y-56129826D01*
X131168040Y-56130173D01*
X131535714Y-55978253D01*
X131817264Y-55697194D01*
X131969826Y-55329785D01*
X131970173Y-54931960D01*
X131818253Y-54564286D01*
X131537194Y-54282736D01*
X131169785Y-54130174D01*
X130771960Y-54129827D01*
X130404286Y-54281747D01*
X130122736Y-54562806D01*
X129970174Y-54930215D01*
X129969827Y-55328040D01*
X124556259Y-55328040D01*
X124647264Y-55237194D01*
X124799826Y-54869785D01*
X124800173Y-54471960D01*
X124648253Y-54104286D01*
X124367194Y-53822736D01*
X123999785Y-53670174D01*
X123601960Y-53669827D01*
X123234286Y-53821747D01*
X122952736Y-54102806D01*
X122800174Y-54470215D01*
X122799827Y-54868040D01*
X118151055Y-54868040D01*
X118366311Y-54724211D01*
X118661902Y-54281827D01*
X118765700Y-53760000D01*
X118661902Y-53238173D01*
X118366311Y-52795789D01*
X117923927Y-52500198D01*
X117872658Y-52490000D01*
X117923927Y-52479802D01*
X118357198Y-52190300D01*
X123404000Y-52190300D01*
X123404000Y-52249700D01*
X123519399Y-52829848D01*
X123848026Y-53321674D01*
X124339852Y-53650301D01*
X124920000Y-53765700D01*
X125500148Y-53650301D01*
X125954977Y-53346395D01*
X125969069Y-53421289D01*
X126078575Y-53591465D01*
X126245661Y-53705630D01*
X126444000Y-53745795D01*
X128476000Y-53745795D01*
X128661289Y-53710931D01*
X128831465Y-53601425D01*
X128945630Y-53434339D01*
X128985795Y-53236000D01*
X128985795Y-51204000D01*
X128950931Y-51018711D01*
X128841425Y-50848535D01*
X128674339Y-50734370D01*
X128476000Y-50694205D01*
X126444000Y-50694205D01*
X126258711Y-50729069D01*
X126088535Y-50838575D01*
X125974370Y-51005661D01*
X125956372Y-51094537D01*
X125500148Y-50789699D01*
X124920000Y-50674300D01*
X124339852Y-50789699D01*
X123848026Y-51118326D01*
X123519399Y-51610152D01*
X123404000Y-52190300D01*
X118357198Y-52190300D01*
X118366311Y-52184211D01*
X118661902Y-51741827D01*
X118765700Y-51220000D01*
X118661902Y-50698173D01*
X118366311Y-50255789D01*
X118063406Y-50053395D01*
X118236000Y-50053395D01*
X118421289Y-50018531D01*
X118542862Y-49940300D01*
X144054000Y-49940300D01*
X144054000Y-49999700D01*
X144169399Y-50579848D01*
X144498026Y-51071674D01*
X144989852Y-51400301D01*
X145570000Y-51515700D01*
X146150148Y-51400301D01*
X146604977Y-51096395D01*
X146619069Y-51171289D01*
X146728575Y-51341465D01*
X146895661Y-51455630D01*
X147094000Y-51495795D01*
X147521093Y-51495795D01*
X147172857Y-51639684D01*
X146820919Y-51991007D01*
X146630217Y-52450269D01*
X146629783Y-52947550D01*
X146819684Y-53407143D01*
X147171007Y-53759081D01*
X147630269Y-53949783D01*
X148127550Y-53950217D01*
X148587143Y-53760316D01*
X148939081Y-53408993D01*
X149129783Y-52949731D01*
X149130217Y-52452450D01*
X148940316Y-51992857D01*
X148588993Y-51640919D01*
X148239495Y-51495795D01*
X149126000Y-51495795D01*
X149311289Y-51460931D01*
X149481465Y-51351425D01*
X149595630Y-51184339D01*
X149635795Y-50986000D01*
X149635795Y-49010000D01*
X159954300Y-49010000D01*
X160069699Y-49590148D01*
X160398326Y-50081974D01*
X160890152Y-50410601D01*
X161470300Y-50526000D01*
X161529700Y-50526000D01*
X162109848Y-50410601D01*
X162601674Y-50081974D01*
X162930301Y-49590148D01*
X163045700Y-49010000D01*
X162930301Y-48429852D01*
X162626395Y-47975023D01*
X162701289Y-47960931D01*
X162871465Y-47851425D01*
X162985630Y-47684339D01*
X163025795Y-47486000D01*
X163025795Y-45454000D01*
X162990931Y-45268711D01*
X162881425Y-45098535D01*
X162714339Y-44984370D01*
X162516000Y-44944205D01*
X160484000Y-44944205D01*
X160298711Y-44979069D01*
X160128535Y-45088575D01*
X160014370Y-45255661D01*
X159974205Y-45454000D01*
X159974205Y-47486000D01*
X160009069Y-47671289D01*
X160118575Y-47841465D01*
X160285661Y-47955630D01*
X160374537Y-47973628D01*
X160069699Y-48429852D01*
X159954300Y-49010000D01*
X149635795Y-49010000D01*
X149635795Y-48954000D01*
X149600931Y-48768711D01*
X149491425Y-48598535D01*
X149324339Y-48484370D01*
X149126000Y-48444205D01*
X147094000Y-48444205D01*
X146908711Y-48479069D01*
X146738535Y-48588575D01*
X146624370Y-48755661D01*
X146606372Y-48844537D01*
X146150148Y-48539699D01*
X145570000Y-48424300D01*
X144989852Y-48539699D01*
X144498026Y-48868326D01*
X144169399Y-49360152D01*
X144054000Y-49940300D01*
X118542862Y-49940300D01*
X118591465Y-49909025D01*
X118705630Y-49741939D01*
X118745795Y-49543600D01*
X118745795Y-47816400D01*
X118710931Y-47631111D01*
X118601425Y-47460935D01*
X118434339Y-47346770D01*
X118236000Y-47306605D01*
X116204000Y-47306605D01*
X116018711Y-47341469D01*
X115848535Y-47450975D01*
X115734370Y-47618061D01*
X115694205Y-47816400D01*
X115694205Y-49543600D01*
X115729069Y-49728889D01*
X115838575Y-49899065D01*
X116005661Y-50013230D01*
X116204000Y-50053395D01*
X116376594Y-50053395D01*
X116073689Y-50255789D01*
X115778098Y-50698173D01*
X115674300Y-51220000D01*
X112075795Y-51220000D01*
X112075795Y-50214000D01*
X112040931Y-50028711D01*
X111931425Y-49858535D01*
X111764339Y-49744370D01*
X111675463Y-49726372D01*
X111980301Y-49270148D01*
X112095700Y-48690000D01*
X111980301Y-48109852D01*
X111651674Y-47618026D01*
X111159848Y-47289399D01*
X110579700Y-47174000D01*
X110520300Y-47174000D01*
X109940152Y-47289399D01*
X109448326Y-47618026D01*
X109119699Y-48109852D01*
X109004300Y-48690000D01*
X108349732Y-48690000D01*
X108355700Y-48660000D01*
X108240301Y-48079852D01*
X107911674Y-47588026D01*
X107419848Y-47259399D01*
X106839700Y-47144000D01*
X106780300Y-47144000D01*
X106200152Y-47259399D01*
X105708326Y-47588026D01*
X105379699Y-48079852D01*
X105264300Y-48660000D01*
X91341881Y-48660000D01*
X91499783Y-48279731D01*
X91500217Y-47782450D01*
X91310316Y-47322857D01*
X91005543Y-47017550D01*
X132859783Y-47017550D01*
X133049684Y-47477143D01*
X133401007Y-47829081D01*
X133860269Y-48019783D01*
X134357550Y-48020217D01*
X134817143Y-47830316D01*
X135169081Y-47478993D01*
X135359783Y-47019731D01*
X135360217Y-46522450D01*
X135293218Y-46360300D01*
X144034000Y-46360300D01*
X144034000Y-46419700D01*
X144149399Y-46999848D01*
X144478026Y-47491674D01*
X144969852Y-47820301D01*
X145550000Y-47935700D01*
X146130148Y-47820301D01*
X146584977Y-47516395D01*
X146599069Y-47591289D01*
X146708575Y-47761465D01*
X146875661Y-47875630D01*
X147074000Y-47915795D01*
X149106000Y-47915795D01*
X149291289Y-47880931D01*
X149461465Y-47771425D01*
X149575630Y-47604339D01*
X149615795Y-47406000D01*
X149615795Y-45374000D01*
X149580931Y-45188711D01*
X149471425Y-45018535D01*
X149304339Y-44904370D01*
X149106000Y-44864205D01*
X147074000Y-44864205D01*
X146888711Y-44899069D01*
X146718535Y-45008575D01*
X146604370Y-45175661D01*
X146586372Y-45264537D01*
X146130148Y-44959699D01*
X145550000Y-44844300D01*
X144969852Y-44959699D01*
X144478026Y-45288326D01*
X144149399Y-45780152D01*
X144034000Y-46360300D01*
X135293218Y-46360300D01*
X135170316Y-46062857D01*
X134818993Y-45710919D01*
X134359731Y-45520217D01*
X133862450Y-45519783D01*
X133402857Y-45709684D01*
X133050919Y-46061007D01*
X132860217Y-46520269D01*
X132859783Y-47017550D01*
X91005543Y-47017550D01*
X90958993Y-46970919D01*
X90499731Y-46780217D01*
X90002450Y-46779783D01*
X89542857Y-46969684D01*
X89190919Y-47321007D01*
X89000217Y-47780269D01*
X88999783Y-48277550D01*
X89189684Y-48737143D01*
X89287042Y-48834671D01*
X88833520Y-48744460D01*
X88253372Y-48859859D01*
X87761546Y-49188486D01*
X87432919Y-49680312D01*
X87317520Y-50260460D01*
X78293294Y-50260460D01*
X78224221Y-49913212D01*
X77895594Y-49421386D01*
X77403768Y-49092759D01*
X76823620Y-48977360D01*
X76764220Y-48977360D01*
X76184072Y-49092759D01*
X75692246Y-49421386D01*
X75363619Y-49913212D01*
X75248220Y-50493360D01*
X72730000Y-50493360D01*
X72730000Y-46278040D01*
X74989827Y-46278040D01*
X75141747Y-46645714D01*
X75422806Y-46927264D01*
X75790215Y-47079826D01*
X76188040Y-47080173D01*
X76555714Y-46928253D01*
X76837264Y-46647194D01*
X76989826Y-46279785D01*
X76990173Y-45881960D01*
X76838253Y-45514286D01*
X76557194Y-45232736D01*
X76189785Y-45080174D01*
X75791960Y-45079827D01*
X75424286Y-45231747D01*
X75142736Y-45512806D01*
X74990174Y-45880215D01*
X74989827Y-46278040D01*
X72730000Y-46278040D01*
X72730000Y-45027550D01*
X122029783Y-45027550D01*
X122219684Y-45487143D01*
X122571007Y-45839081D01*
X123030269Y-46029783D01*
X123527550Y-46030217D01*
X123987143Y-45840316D01*
X124339081Y-45488993D01*
X124529783Y-45029731D01*
X124530217Y-44532450D01*
X124340316Y-44072857D01*
X123988993Y-43720919D01*
X123529731Y-43530217D01*
X123032450Y-43529783D01*
X122572857Y-43719684D01*
X122220919Y-44071007D01*
X122030217Y-44530269D01*
X122029783Y-45027550D01*
X72730000Y-45027550D01*
X72730000Y-38611049D01*
X73786189Y-38611049D01*
X74016178Y-39093641D01*
X74437371Y-39483838D01*
X74603495Y-39545330D01*
X74213689Y-39805789D01*
X73918098Y-40248173D01*
X73814300Y-40770000D01*
X73918098Y-41291827D01*
X74213689Y-41734211D01*
X74516594Y-41936605D01*
X74344000Y-41936605D01*
X74158711Y-41971469D01*
X73988535Y-42080975D01*
X73874370Y-42248061D01*
X73834205Y-42446400D01*
X73834205Y-44173600D01*
X73869069Y-44358889D01*
X73978575Y-44529065D01*
X74145661Y-44643230D01*
X74344000Y-44683395D01*
X76376000Y-44683395D01*
X76561289Y-44648531D01*
X76731465Y-44539025D01*
X76845630Y-44371939D01*
X76885795Y-44173600D01*
X76885795Y-43598040D01*
X100229827Y-43598040D01*
X100381747Y-43965714D01*
X100662806Y-44247264D01*
X101030215Y-44399826D01*
X101428040Y-44400173D01*
X101795714Y-44248253D01*
X102077264Y-43967194D01*
X102229826Y-43599785D01*
X102230173Y-43201960D01*
X102078253Y-42834286D01*
X101797194Y-42552736D01*
X101429785Y-42400174D01*
X101031960Y-42399827D01*
X100664286Y-42551747D01*
X100382736Y-42832806D01*
X100230174Y-43200215D01*
X100229827Y-43598040D01*
X76885795Y-43598040D01*
X76885795Y-42446400D01*
X76850931Y-42261111D01*
X76741425Y-42090935D01*
X76574339Y-41976770D01*
X76376000Y-41936605D01*
X76203406Y-41936605D01*
X76506311Y-41734211D01*
X76801902Y-41291827D01*
X76905700Y-40770000D01*
X76801902Y-40248173D01*
X76506311Y-39805789D01*
X76116505Y-39545330D01*
X76282629Y-39483838D01*
X76286771Y-39480000D01*
X94864300Y-39480000D01*
X94979699Y-40060148D01*
X95308326Y-40551974D01*
X95800152Y-40880601D01*
X96380300Y-40996000D01*
X96439700Y-40996000D01*
X97019848Y-40880601D01*
X97511674Y-40551974D01*
X97840301Y-40060148D01*
X97886080Y-39830000D01*
X111994300Y-39830000D01*
X112109699Y-40410148D01*
X112413605Y-40864977D01*
X112338711Y-40879069D01*
X112168535Y-40988575D01*
X112054370Y-41155661D01*
X112014205Y-41354000D01*
X112014205Y-43386000D01*
X112049069Y-43571289D01*
X112158575Y-43741465D01*
X112325661Y-43855630D01*
X112524000Y-43895795D01*
X114556000Y-43895795D01*
X114741289Y-43860931D01*
X114911465Y-43751425D01*
X115025630Y-43584339D01*
X115065795Y-43386000D01*
X115065795Y-42957550D01*
X157609783Y-42957550D01*
X157799684Y-43417143D01*
X158151007Y-43769081D01*
X158610269Y-43959783D01*
X159107550Y-43960217D01*
X159567143Y-43770316D01*
X159919081Y-43418993D01*
X160109783Y-42959731D01*
X160110217Y-42462450D01*
X159920316Y-42002857D01*
X159568993Y-41650919D01*
X159109731Y-41460217D01*
X158612450Y-41459783D01*
X158152857Y-41649684D01*
X157800919Y-42001007D01*
X157610217Y-42460269D01*
X157609783Y-42957550D01*
X115065795Y-42957550D01*
X115065795Y-41354000D01*
X115030931Y-41168711D01*
X114921425Y-40998535D01*
X114754339Y-40884370D01*
X114665463Y-40866372D01*
X114970301Y-40410148D01*
X115085700Y-39830000D01*
X114970301Y-39249852D01*
X114641674Y-38758026D01*
X114149848Y-38429399D01*
X113569700Y-38314000D01*
X113510300Y-38314000D01*
X112930152Y-38429399D01*
X112438326Y-38758026D01*
X112109699Y-39249852D01*
X111994300Y-39830000D01*
X97886080Y-39830000D01*
X97955700Y-39480000D01*
X97840301Y-38899852D01*
X97536395Y-38445023D01*
X97611289Y-38430931D01*
X97781465Y-38321425D01*
X97895630Y-38154339D01*
X97935795Y-37956000D01*
X97935795Y-37057900D01*
X100476400Y-37057900D01*
X100476400Y-37422100D01*
X100580198Y-37943927D01*
X100875789Y-38386311D01*
X101318173Y-38681902D01*
X101840000Y-38785700D01*
X102361827Y-38681902D01*
X102804211Y-38386311D01*
X103099802Y-37943927D01*
X103110000Y-37892658D01*
X103120198Y-37943927D01*
X103415789Y-38386311D01*
X103858173Y-38681902D01*
X104380000Y-38785700D01*
X104901827Y-38681902D01*
X105344211Y-38386311D01*
X105639802Y-37943927D01*
X105650000Y-37892658D01*
X105660198Y-37943927D01*
X105955789Y-38386311D01*
X106398173Y-38681902D01*
X106920000Y-38785700D01*
X107441827Y-38681902D01*
X107884211Y-38386311D01*
X108086605Y-38083406D01*
X108086605Y-38256000D01*
X108121469Y-38441289D01*
X108230975Y-38611465D01*
X108398061Y-38725630D01*
X108596400Y-38765795D01*
X110323600Y-38765795D01*
X110508889Y-38730931D01*
X110679065Y-38621425D01*
X110793230Y-38454339D01*
X110833395Y-38256000D01*
X110833395Y-36897900D01*
X137006400Y-36897900D01*
X137006400Y-37262100D01*
X137110198Y-37783927D01*
X137405789Y-38226311D01*
X137848173Y-38521902D01*
X138370000Y-38625700D01*
X138891827Y-38521902D01*
X139334211Y-38226311D01*
X139629802Y-37783927D01*
X139640000Y-37732658D01*
X139650198Y-37783927D01*
X139945789Y-38226311D01*
X140388173Y-38521902D01*
X140910000Y-38625700D01*
X141431827Y-38521902D01*
X141874211Y-38226311D01*
X142169802Y-37783927D01*
X142180000Y-37732658D01*
X142190198Y-37783927D01*
X142485789Y-38226311D01*
X142928173Y-38521902D01*
X143450000Y-38625700D01*
X143971827Y-38521902D01*
X144414211Y-38226311D01*
X144616605Y-37923406D01*
X144616605Y-38096000D01*
X144651469Y-38281289D01*
X144760975Y-38451465D01*
X144928061Y-38565630D01*
X145126400Y-38605795D01*
X146853600Y-38605795D01*
X147038889Y-38570931D01*
X147209065Y-38461425D01*
X147323230Y-38294339D01*
X147342731Y-38198040D01*
X158819827Y-38198040D01*
X158971747Y-38565714D01*
X159252806Y-38847264D01*
X159620215Y-38999826D01*
X160018040Y-39000173D01*
X160385714Y-38848253D01*
X160667264Y-38567194D01*
X160819826Y-38199785D01*
X160820173Y-37801960D01*
X160668253Y-37434286D01*
X160387194Y-37152736D01*
X160019785Y-37000174D01*
X159621960Y-36999827D01*
X159254286Y-37151747D01*
X158972736Y-37432806D01*
X158820174Y-37800215D01*
X158819827Y-38198040D01*
X147342731Y-38198040D01*
X147363395Y-38096000D01*
X147363395Y-36064000D01*
X147328531Y-35878711D01*
X147219025Y-35708535D01*
X147051939Y-35594370D01*
X146853600Y-35554205D01*
X145126400Y-35554205D01*
X144941111Y-35589069D01*
X144770935Y-35698575D01*
X144656770Y-35865661D01*
X144616605Y-36064000D01*
X144616605Y-36236594D01*
X144414211Y-35933689D01*
X143971827Y-35638098D01*
X143450000Y-35534300D01*
X142928173Y-35638098D01*
X142485789Y-35933689D01*
X142190198Y-36376073D01*
X142180000Y-36427342D01*
X142169802Y-36376073D01*
X141874211Y-35933689D01*
X141431827Y-35638098D01*
X140910000Y-35534300D01*
X140388173Y-35638098D01*
X139945789Y-35933689D01*
X139650198Y-36376073D01*
X139640000Y-36427342D01*
X139629802Y-36376073D01*
X139334211Y-35933689D01*
X138891827Y-35638098D01*
X138370000Y-35534300D01*
X137848173Y-35638098D01*
X137405789Y-35933689D01*
X137110198Y-36376073D01*
X137006400Y-36897900D01*
X110833395Y-36897900D01*
X110833395Y-36224000D01*
X110798531Y-36038711D01*
X110689025Y-35868535D01*
X110521939Y-35754370D01*
X110323600Y-35714205D01*
X108596400Y-35714205D01*
X108411111Y-35749069D01*
X108240935Y-35858575D01*
X108126770Y-36025661D01*
X108086605Y-36224000D01*
X108086605Y-36396594D01*
X107884211Y-36093689D01*
X107441827Y-35798098D01*
X106920000Y-35694300D01*
X106398173Y-35798098D01*
X105955789Y-36093689D01*
X105660198Y-36536073D01*
X105650000Y-36587342D01*
X105639802Y-36536073D01*
X105344211Y-36093689D01*
X104901827Y-35798098D01*
X104380000Y-35694300D01*
X103858173Y-35798098D01*
X103415789Y-36093689D01*
X103120198Y-36536073D01*
X103110000Y-36587342D01*
X103099802Y-36536073D01*
X102804211Y-36093689D01*
X102361827Y-35798098D01*
X101840000Y-35694300D01*
X101318173Y-35798098D01*
X100875789Y-36093689D01*
X100580198Y-36536073D01*
X100476400Y-37057900D01*
X97935795Y-37057900D01*
X97935795Y-35924000D01*
X97900931Y-35738711D01*
X97791425Y-35568535D01*
X97624339Y-35454370D01*
X97426000Y-35414205D01*
X95394000Y-35414205D01*
X95208711Y-35449069D01*
X95038535Y-35558575D01*
X94924370Y-35725661D01*
X94884205Y-35924000D01*
X94884205Y-37956000D01*
X94919069Y-38141289D01*
X95028575Y-38311465D01*
X95195661Y-38425630D01*
X95284537Y-38443628D01*
X94979699Y-38899852D01*
X94864300Y-39480000D01*
X76286771Y-39480000D01*
X76703822Y-39093641D01*
X76933811Y-38611049D01*
X76822983Y-38384000D01*
X75514000Y-38384000D01*
X75514000Y-38404000D01*
X75206000Y-38404000D01*
X75206000Y-38384000D01*
X73897017Y-38384000D01*
X73786189Y-38611049D01*
X72730000Y-38611049D01*
X72730000Y-36071049D01*
X73786189Y-36071049D01*
X74016178Y-36553641D01*
X74437371Y-36943838D01*
X74481034Y-36960000D01*
X74437371Y-36976162D01*
X74016178Y-37366359D01*
X73786189Y-37848951D01*
X73897017Y-38076000D01*
X75206000Y-38076000D01*
X75206000Y-35844000D01*
X75514000Y-35844000D01*
X75514000Y-38076000D01*
X76822983Y-38076000D01*
X76933811Y-37848951D01*
X76703822Y-37366359D01*
X76282629Y-36976162D01*
X76238966Y-36960000D01*
X76282629Y-36943838D01*
X76703822Y-36553641D01*
X76933811Y-36071049D01*
X76822983Y-35844000D01*
X75514000Y-35844000D01*
X75206000Y-35844000D01*
X73897017Y-35844000D01*
X73786189Y-36071049D01*
X72730000Y-36071049D01*
X72730000Y-35308951D01*
X73786189Y-35308951D01*
X73897017Y-35536000D01*
X75206000Y-35536000D01*
X75206000Y-34370484D01*
X75514000Y-34370484D01*
X75514000Y-35536000D01*
X76822983Y-35536000D01*
X76933811Y-35308951D01*
X76703822Y-34826359D01*
X76282629Y-34436162D01*
X75744176Y-34236851D01*
X75514000Y-34370484D01*
X75206000Y-34370484D01*
X74975824Y-34236851D01*
X74437371Y-34436162D01*
X74016178Y-34826359D01*
X73786189Y-35308951D01*
X72730000Y-35308951D01*
X72730000Y-34020000D01*
X166380000Y-34020000D01*
X166380000Y-70430000D01*
D40*
G36*
X133406000Y-87498503D02*
X133345354Y-87193615D01*
X133023447Y-86711846D01*
X132541678Y-86389939D01*
X131973393Y-86276900D01*
X131915207Y-86276900D01*
X131346922Y-86389939D01*
X130865153Y-86711846D01*
X130543246Y-87193615D01*
X130430207Y-87761900D01*
X130543246Y-88330185D01*
X130865153Y-88811954D01*
X130906752Y-88839750D01*
X130858983Y-88848738D01*
X130642859Y-88987810D01*
X130497869Y-89200010D01*
X130446860Y-89451900D01*
X130446860Y-91151900D01*
X130491138Y-91387217D01*
X130630210Y-91603341D01*
X130842410Y-91748331D01*
X131094300Y-91799340D01*
X132794300Y-91799340D01*
X133029617Y-91755062D01*
X133245741Y-91615990D01*
X133390731Y-91403790D01*
X133406000Y-91328389D01*
X133406000Y-92957659D01*
X133397462Y-92912283D01*
X133258390Y-92696159D01*
X133046190Y-92551169D01*
X132794300Y-92500160D01*
X131094300Y-92500160D01*
X130858983Y-92544438D01*
X130642859Y-92683510D01*
X130497869Y-92895710D01*
X130446860Y-93147600D01*
X130446860Y-94847600D01*
X130491138Y-95082917D01*
X130630210Y-95299041D01*
X130842410Y-95444031D01*
X130909841Y-95457686D01*
X130865153Y-95487546D01*
X130543246Y-95969315D01*
X130430207Y-96537600D01*
X130543246Y-97105885D01*
X130865153Y-97587654D01*
X131346922Y-97909561D01*
X131915207Y-98022600D01*
X131973393Y-98022600D01*
X132541678Y-97909561D01*
X133023447Y-97587654D01*
X133345354Y-97105885D01*
X133406000Y-96800997D01*
X133406000Y-102548003D01*
X133345354Y-102243115D01*
X133023447Y-101761346D01*
X132541678Y-101439439D01*
X131973393Y-101326400D01*
X131915207Y-101326400D01*
X131346922Y-101439439D01*
X130865153Y-101761346D01*
X130543246Y-102243115D01*
X130430207Y-102811400D01*
X130543246Y-103379685D01*
X130865153Y-103861454D01*
X130906752Y-103889250D01*
X130858983Y-103898238D01*
X130642859Y-104037310D01*
X130497869Y-104249510D01*
X130446860Y-104501400D01*
X130446860Y-106201400D01*
X130491138Y-106436717D01*
X130630210Y-106652841D01*
X130842410Y-106797831D01*
X131094300Y-106848840D01*
X132794300Y-106848840D01*
X133029617Y-106804562D01*
X133245741Y-106665490D01*
X133390731Y-106453290D01*
X133406000Y-106377889D01*
X133406000Y-117252500D01*
X73700900Y-117252500D01*
X73700900Y-107446900D01*
X75020107Y-107446900D01*
X75133146Y-108015185D01*
X75455053Y-108496954D01*
X75496652Y-108524750D01*
X75448883Y-108533738D01*
X75232759Y-108672810D01*
X75087769Y-108885010D01*
X75036760Y-109136900D01*
X75036760Y-110836900D01*
X75081038Y-111072217D01*
X75220110Y-111288341D01*
X75432310Y-111433331D01*
X75684200Y-111484340D01*
X77384200Y-111484340D01*
X77619517Y-111440062D01*
X77835641Y-111300990D01*
X77980631Y-111088790D01*
X78024490Y-110872207D01*
X95077100Y-110872207D01*
X95077100Y-110930393D01*
X95190139Y-111498678D01*
X95512046Y-111980447D01*
X95993815Y-112302354D01*
X96562100Y-112415393D01*
X97130385Y-112302354D01*
X97612154Y-111980447D01*
X97639950Y-111938848D01*
X97648938Y-111986617D01*
X97788010Y-112202741D01*
X98000210Y-112347731D01*
X98252100Y-112398740D01*
X99952100Y-112398740D01*
X100187417Y-112354462D01*
X100294431Y-112285600D01*
X124753307Y-112285600D01*
X124866346Y-112853885D01*
X125188253Y-113335654D01*
X125229852Y-113363450D01*
X125182083Y-113372438D01*
X124965959Y-113511510D01*
X124820969Y-113723710D01*
X124769960Y-113975600D01*
X124769960Y-115675600D01*
X124814238Y-115910917D01*
X124953310Y-116127041D01*
X125165510Y-116272031D01*
X125417400Y-116323040D01*
X127117400Y-116323040D01*
X127352717Y-116278762D01*
X127568841Y-116139690D01*
X127713831Y-115927490D01*
X127764840Y-115675600D01*
X127764840Y-113975600D01*
X127738627Y-113836290D01*
X130337724Y-113836290D01*
X130507555Y-114246324D01*
X130897842Y-114674583D01*
X131422308Y-114920886D01*
X131652200Y-114800219D01*
X131652200Y-113606400D01*
X131906200Y-113606400D01*
X131906200Y-114800219D01*
X132136092Y-114920886D01*
X132660558Y-114674583D01*
X133050845Y-114246324D01*
X133220676Y-113836290D01*
X133099355Y-113606400D01*
X131906200Y-113606400D01*
X131652200Y-113606400D01*
X130459045Y-113606400D01*
X130337724Y-113836290D01*
X127738627Y-113836290D01*
X127720562Y-113740283D01*
X127581490Y-113524159D01*
X127369290Y-113379169D01*
X127301859Y-113365514D01*
X127346547Y-113335654D01*
X127668454Y-112853885D01*
X127781493Y-112285600D01*
X127668454Y-111717315D01*
X127346547Y-111235546D01*
X126864778Y-110913639D01*
X126296493Y-110800600D01*
X126238307Y-110800600D01*
X125670022Y-110913639D01*
X125188253Y-111235546D01*
X124866346Y-111717315D01*
X124753307Y-112285600D01*
X100294431Y-112285600D01*
X100403541Y-112215390D01*
X100548531Y-112003190D01*
X100599540Y-111751300D01*
X100599540Y-110089400D01*
X130281760Y-110089400D01*
X130281760Y-111789400D01*
X130326038Y-112024717D01*
X130465110Y-112240841D01*
X130677310Y-112385831D01*
X130785307Y-112407701D01*
X130507555Y-112712476D01*
X130337724Y-113122510D01*
X130459045Y-113352400D01*
X131652200Y-113352400D01*
X131652200Y-113332400D01*
X131906200Y-113332400D01*
X131906200Y-113352400D01*
X133099355Y-113352400D01*
X133220676Y-113122510D01*
X133050845Y-112712476D01*
X132774699Y-112409463D01*
X132864517Y-112392562D01*
X133080641Y-112253490D01*
X133225631Y-112041290D01*
X133276640Y-111789400D01*
X133276640Y-110089400D01*
X133232362Y-109854083D01*
X133093290Y-109637959D01*
X132881090Y-109492969D01*
X132629200Y-109441960D01*
X130929200Y-109441960D01*
X130693883Y-109486238D01*
X130477759Y-109625310D01*
X130332769Y-109837510D01*
X130281760Y-110089400D01*
X100599540Y-110089400D01*
X100599540Y-110051300D01*
X100555262Y-109815983D01*
X100416190Y-109599859D01*
X100203990Y-109454869D01*
X99952100Y-109403860D01*
X98252100Y-109403860D01*
X98016783Y-109448138D01*
X97800659Y-109587210D01*
X97655669Y-109799410D01*
X97642014Y-109866841D01*
X97612154Y-109822153D01*
X97130385Y-109500246D01*
X96562100Y-109387207D01*
X95993815Y-109500246D01*
X95512046Y-109822153D01*
X95190139Y-110303922D01*
X95077100Y-110872207D01*
X78024490Y-110872207D01*
X78031640Y-110836900D01*
X78031640Y-109136900D01*
X77987362Y-108901583D01*
X77848290Y-108685459D01*
X77636090Y-108540469D01*
X77568659Y-108526814D01*
X77613347Y-108496954D01*
X77935254Y-108015185D01*
X78048293Y-107446900D01*
X77989457Y-107151107D01*
X95051700Y-107151107D01*
X95051700Y-107209293D01*
X95164739Y-107777578D01*
X95486646Y-108259347D01*
X95968415Y-108581254D01*
X96536700Y-108694293D01*
X97104985Y-108581254D01*
X97586754Y-108259347D01*
X97614550Y-108217748D01*
X97623538Y-108265517D01*
X97762610Y-108481641D01*
X97974810Y-108626631D01*
X98226700Y-108677640D01*
X99926700Y-108677640D01*
X100082708Y-108648285D01*
X103508060Y-108648285D01*
X103718469Y-109157515D01*
X104107736Y-109547461D01*
X104616598Y-109758759D01*
X105167585Y-109759240D01*
X105676815Y-109548831D01*
X106066761Y-109159564D01*
X106278059Y-108650702D01*
X106278540Y-108099715D01*
X106068131Y-107590485D01*
X105678864Y-107200539D01*
X105170002Y-106989241D01*
X104619015Y-106988760D01*
X104109785Y-107199169D01*
X103719839Y-107588436D01*
X103508541Y-108097298D01*
X103508060Y-108648285D01*
X100082708Y-108648285D01*
X100162017Y-108633362D01*
X100378141Y-108494290D01*
X100523131Y-108282090D01*
X100574140Y-108030200D01*
X100574140Y-106330200D01*
X100529862Y-106094883D01*
X100390790Y-105878759D01*
X100178590Y-105733769D01*
X99926700Y-105682760D01*
X98226700Y-105682760D01*
X97991383Y-105727038D01*
X97775259Y-105866110D01*
X97630269Y-106078310D01*
X97616614Y-106145741D01*
X97586754Y-106101053D01*
X97104985Y-105779146D01*
X96536700Y-105666107D01*
X95968415Y-105779146D01*
X95486646Y-106101053D01*
X95164739Y-106582822D01*
X95051700Y-107151107D01*
X77989457Y-107151107D01*
X77935254Y-106878615D01*
X77613347Y-106396846D01*
X77131578Y-106074939D01*
X76563293Y-105961900D01*
X76505107Y-105961900D01*
X75936822Y-106074939D01*
X75455053Y-106396846D01*
X75133146Y-106878615D01*
X75020107Y-107446900D01*
X73700900Y-107446900D01*
X73700900Y-100804800D01*
X97575307Y-100804800D01*
X97688346Y-101373085D01*
X98010253Y-101854854D01*
X98051852Y-101882650D01*
X98004083Y-101891638D01*
X97787959Y-102030710D01*
X97642969Y-102242910D01*
X97591960Y-102494800D01*
X97591960Y-104194800D01*
X97636238Y-104430117D01*
X97775310Y-104646241D01*
X97987510Y-104791231D01*
X98239400Y-104842240D01*
X99939400Y-104842240D01*
X100174717Y-104797962D01*
X100390841Y-104658890D01*
X100535831Y-104446690D01*
X100586840Y-104194800D01*
X100586840Y-102494800D01*
X100542562Y-102259483D01*
X100403490Y-102043359D01*
X100191290Y-101898369D01*
X100123859Y-101884714D01*
X100168547Y-101854854D01*
X100490454Y-101373085D01*
X100603493Y-100804800D01*
X100490454Y-100236515D01*
X100168547Y-99754746D01*
X99686778Y-99432839D01*
X99118493Y-99319800D01*
X99060307Y-99319800D01*
X98492022Y-99432839D01*
X98010253Y-99754746D01*
X97688346Y-100236515D01*
X97575307Y-100804800D01*
X73700900Y-100804800D01*
X73700900Y-91301507D01*
X74401500Y-91301507D01*
X74401500Y-91359693D01*
X74514539Y-91927978D01*
X74836446Y-92409747D01*
X75318215Y-92731654D01*
X75886500Y-92844693D01*
X76454785Y-92731654D01*
X76936554Y-92409747D01*
X77156500Y-92080574D01*
X77376446Y-92409747D01*
X77522480Y-92507323D01*
X77217455Y-92567996D01*
X76849234Y-92814033D01*
X75274434Y-94388834D01*
X75269347Y-94396447D01*
X75261734Y-94401534D01*
X75015697Y-94769755D01*
X74929300Y-95204100D01*
X74942000Y-95267947D01*
X74942000Y-96651900D01*
X75028397Y-97086246D01*
X75274434Y-97454466D01*
X75642654Y-97700503D01*
X76077000Y-97786900D01*
X76511346Y-97700503D01*
X76879566Y-97454466D01*
X77125603Y-97086246D01*
X77212000Y-96651900D01*
X77212000Y-95661532D01*
X78121933Y-94751600D01*
X87659168Y-94751600D01*
X88226200Y-95318632D01*
X88226200Y-95915300D01*
X88312597Y-96349646D01*
X88514557Y-96651900D01*
X88558634Y-96717866D01*
X89993734Y-98152966D01*
X90361954Y-98399003D01*
X90796300Y-98485400D01*
X100232168Y-98485400D01*
X101510400Y-99763632D01*
X101510400Y-100537753D01*
X101497700Y-100601600D01*
X101510400Y-100665447D01*
X101510400Y-101998600D01*
X101596797Y-102432946D01*
X101763165Y-102681933D01*
X101842834Y-102801166D01*
X102846133Y-103804466D01*
X102846136Y-103804468D01*
X103328733Y-104287066D01*
X103567628Y-104446690D01*
X103696954Y-104533103D01*
X104131300Y-104619500D01*
X111547868Y-104619500D01*
X113829400Y-106901032D01*
X113829400Y-107429500D01*
X112932400Y-107429500D01*
X112498054Y-107515897D01*
X112129834Y-107761934D01*
X111883797Y-108130154D01*
X111797400Y-108564500D01*
X111883797Y-108998846D01*
X112129834Y-109367066D01*
X112498054Y-109613103D01*
X112932400Y-109699500D01*
X114532600Y-109699500D01*
X114966946Y-109613103D01*
X115335166Y-109367066D01*
X115728692Y-108973540D01*
X115766966Y-108947966D01*
X116013003Y-108579746D01*
X116099400Y-108145400D01*
X116099400Y-106901032D01*
X116501332Y-106499100D01*
X123486100Y-106499100D01*
X123920446Y-106412703D01*
X124288666Y-106166666D01*
X124534703Y-105798446D01*
X124621100Y-105364100D01*
X124534703Y-104929754D01*
X124288666Y-104561534D01*
X123920446Y-104315497D01*
X123486100Y-104229100D01*
X120839597Y-104229100D01*
X120913061Y-104155764D01*
X121124359Y-103646902D01*
X121124840Y-103095915D01*
X120914431Y-102586685D01*
X120525164Y-102196739D01*
X120016302Y-101985441D01*
X119465315Y-101984960D01*
X118956085Y-102195369D01*
X118566139Y-102584636D01*
X118354841Y-103093498D01*
X118354360Y-103644485D01*
X118564769Y-104153715D01*
X118640023Y-104229100D01*
X116031200Y-104229100D01*
X115596854Y-104315497D01*
X115228634Y-104561534D01*
X114964400Y-104825768D01*
X112820566Y-102681934D01*
X112674949Y-102584636D01*
X112452346Y-102435897D01*
X112018000Y-102349500D01*
X104601432Y-102349500D01*
X104502418Y-102250486D01*
X104451267Y-102173933D01*
X104374717Y-102122784D01*
X103780400Y-101528468D01*
X103780400Y-100088485D01*
X130559060Y-100088485D01*
X130769469Y-100597715D01*
X131158736Y-100987661D01*
X131667598Y-101198959D01*
X132218585Y-101199440D01*
X132727815Y-100989031D01*
X133117761Y-100599764D01*
X133329059Y-100090902D01*
X133329540Y-99539915D01*
X133119131Y-99030685D01*
X132729864Y-98640739D01*
X132221002Y-98429441D01*
X131670015Y-98428960D01*
X131160785Y-98639369D01*
X130770839Y-99028636D01*
X130559541Y-99537498D01*
X130559060Y-100088485D01*
X103780400Y-100088485D01*
X103780400Y-99801732D01*
X105758845Y-97823287D01*
X105873666Y-97746566D01*
X110432966Y-93187266D01*
X110507671Y-93075462D01*
X110679003Y-92819046D01*
X110765400Y-92384700D01*
X110765400Y-90454532D01*
X110850760Y-90369172D01*
X110850760Y-91850400D01*
X110895038Y-92085717D01*
X111034110Y-92301841D01*
X111246310Y-92446831D01*
X111498200Y-92497840D01*
X113198200Y-92497840D01*
X113433517Y-92453562D01*
X113649641Y-92314490D01*
X113794631Y-92102290D01*
X113808286Y-92034859D01*
X113838146Y-92079547D01*
X114319915Y-92401454D01*
X114888200Y-92514493D01*
X115456485Y-92401454D01*
X115938254Y-92079547D01*
X116260161Y-91597778D01*
X116373200Y-91029493D01*
X116373200Y-90971307D01*
X116260161Y-90403022D01*
X115938254Y-89921253D01*
X115456485Y-89599346D01*
X114888200Y-89486307D01*
X114319915Y-89599346D01*
X113838146Y-89921253D01*
X113810350Y-89962852D01*
X113801362Y-89915083D01*
X113662290Y-89698959D01*
X113450090Y-89553969D01*
X113198200Y-89502960D01*
X111716972Y-89502960D01*
X112081732Y-89138200D01*
X114875500Y-89138200D01*
X115309846Y-89051803D01*
X115678066Y-88805766D01*
X118253932Y-86229900D01*
X121110968Y-86229900D01*
X122770200Y-87889132D01*
X122770200Y-92245000D01*
X122856597Y-92679346D01*
X123001167Y-92895710D01*
X123102634Y-93047566D01*
X123341700Y-93286632D01*
X123341700Y-94856500D01*
X119066732Y-94856500D01*
X118891166Y-94680934D01*
X118522945Y-94434897D01*
X118088600Y-94348500D01*
X117723185Y-94421186D01*
X117523531Y-93937985D01*
X117134264Y-93548039D01*
X116625402Y-93336741D01*
X116074415Y-93336260D01*
X115565185Y-93546669D01*
X115175239Y-93935936D01*
X114963941Y-94444798D01*
X114963460Y-94995785D01*
X115173869Y-95505015D01*
X115563136Y-95894961D01*
X116071998Y-96106259D01*
X116622985Y-96106740D01*
X117048684Y-95930845D01*
X117286034Y-96286066D01*
X117794033Y-96794066D01*
X118106426Y-97002800D01*
X118162254Y-97040103D01*
X118596600Y-97126500D01*
X123867100Y-97126500D01*
X124301446Y-97040103D01*
X124669666Y-96794066D01*
X125202721Y-96261012D01*
X125279266Y-96209866D01*
X125525303Y-95841646D01*
X125611700Y-95407300D01*
X125611700Y-92727600D01*
X125525303Y-92293254D01*
X125279266Y-91925034D01*
X125040200Y-91765295D01*
X125040200Y-87419000D01*
X124953803Y-86984654D01*
X124707766Y-86616434D01*
X122383666Y-84292334D01*
X122015446Y-84046297D01*
X121581100Y-83959900D01*
X117783800Y-83959900D01*
X117349455Y-84046296D01*
X116981234Y-84292334D01*
X114405368Y-86868200D01*
X111611600Y-86868200D01*
X111177255Y-86954596D01*
X110809034Y-87200634D01*
X108827834Y-89181834D01*
X108581797Y-89550054D01*
X108503904Y-89941646D01*
X108116402Y-89780741D01*
X107565415Y-89780260D01*
X107056185Y-89990669D01*
X106666239Y-90379936D01*
X106578720Y-90590705D01*
X106487231Y-90369285D01*
X106097964Y-89979339D01*
X105589102Y-89768041D01*
X105038115Y-89767560D01*
X104528885Y-89977969D01*
X104138939Y-90367236D01*
X103927641Y-90876098D01*
X103927160Y-91427085D01*
X104137569Y-91936315D01*
X104526836Y-92326261D01*
X105035698Y-92537559D01*
X105586685Y-92538040D01*
X106095915Y-92327631D01*
X106485861Y-91938364D01*
X106573380Y-91727595D01*
X106664869Y-91949015D01*
X107054136Y-92338961D01*
X107562998Y-92550259D01*
X107859450Y-92550518D01*
X104345255Y-96064713D01*
X104283077Y-96106259D01*
X104230434Y-96141434D01*
X103087781Y-97284087D01*
X103011234Y-97335234D01*
X102960087Y-97411781D01*
X102664450Y-97707418D01*
X101504866Y-96547834D01*
X101465944Y-96521827D01*
X101136646Y-96301797D01*
X100702300Y-96215400D01*
X99280594Y-96215400D01*
X99152900Y-96190000D01*
X99025206Y-96215400D01*
X91266432Y-96215400D01*
X90496200Y-95445168D01*
X90496200Y-94848500D01*
X90487232Y-94803417D01*
X90409804Y-94414155D01*
X90163766Y-94045934D01*
X88931866Y-92814034D01*
X88866563Y-92770400D01*
X88563646Y-92567997D01*
X88129300Y-92481600D01*
X82379376Y-92481600D01*
X82412931Y-92432490D01*
X82463940Y-92180600D01*
X82463940Y-90480600D01*
X82419662Y-90245283D01*
X82280590Y-90029159D01*
X82068390Y-89884169D01*
X81816500Y-89833160D01*
X80116500Y-89833160D01*
X79881183Y-89877438D01*
X79665059Y-90016510D01*
X79520069Y-90228710D01*
X79506414Y-90296141D01*
X79476554Y-90251453D01*
X78994785Y-89929546D01*
X78426500Y-89816507D01*
X77858215Y-89929546D01*
X77376446Y-90251453D01*
X77156500Y-90580626D01*
X76936554Y-90251453D01*
X76454785Y-89929546D01*
X75886500Y-89816507D01*
X75318215Y-89929546D01*
X74836446Y-90251453D01*
X74514539Y-90733222D01*
X74401500Y-91301507D01*
X73700900Y-91301507D01*
X73700900Y-83277600D01*
X133406000Y-83277600D01*
X133406000Y-87498503D01*
X133406000Y-87498503D01*
G37*
X133406000Y-87498503D02*
X133345354Y-87193615D01*
X133023447Y-86711846D01*
X132541678Y-86389939D01*
X131973393Y-86276900D01*
X131915207Y-86276900D01*
X131346922Y-86389939D01*
X130865153Y-86711846D01*
X130543246Y-87193615D01*
X130430207Y-87761900D01*
X130543246Y-88330185D01*
X130865153Y-88811954D01*
X130906752Y-88839750D01*
X130858983Y-88848738D01*
X130642859Y-88987810D01*
X130497869Y-89200010D01*
X130446860Y-89451900D01*
X130446860Y-91151900D01*
X130491138Y-91387217D01*
X130630210Y-91603341D01*
X130842410Y-91748331D01*
X131094300Y-91799340D01*
X132794300Y-91799340D01*
X133029617Y-91755062D01*
X133245741Y-91615990D01*
X133390731Y-91403790D01*
X133406000Y-91328389D01*
X133406000Y-92957659D01*
X133397462Y-92912283D01*
X133258390Y-92696159D01*
X133046190Y-92551169D01*
X132794300Y-92500160D01*
X131094300Y-92500160D01*
X130858983Y-92544438D01*
X130642859Y-92683510D01*
X130497869Y-92895710D01*
X130446860Y-93147600D01*
X130446860Y-94847600D01*
X130491138Y-95082917D01*
X130630210Y-95299041D01*
X130842410Y-95444031D01*
X130909841Y-95457686D01*
X130865153Y-95487546D01*
X130543246Y-95969315D01*
X130430207Y-96537600D01*
X130543246Y-97105885D01*
X130865153Y-97587654D01*
X131346922Y-97909561D01*
X131915207Y-98022600D01*
X131973393Y-98022600D01*
X132541678Y-97909561D01*
X133023447Y-97587654D01*
X133345354Y-97105885D01*
X133406000Y-96800997D01*
X133406000Y-102548003D01*
X133345354Y-102243115D01*
X133023447Y-101761346D01*
X132541678Y-101439439D01*
X131973393Y-101326400D01*
X131915207Y-101326400D01*
X131346922Y-101439439D01*
X130865153Y-101761346D01*
X130543246Y-102243115D01*
X130430207Y-102811400D01*
X130543246Y-103379685D01*
X130865153Y-103861454D01*
X130906752Y-103889250D01*
X130858983Y-103898238D01*
X130642859Y-104037310D01*
X130497869Y-104249510D01*
X130446860Y-104501400D01*
X130446860Y-106201400D01*
X130491138Y-106436717D01*
X130630210Y-106652841D01*
X130842410Y-106797831D01*
X131094300Y-106848840D01*
X132794300Y-106848840D01*
X133029617Y-106804562D01*
X133245741Y-106665490D01*
X133390731Y-106453290D01*
X133406000Y-106377889D01*
X133406000Y-117252500D01*
X73700900Y-117252500D01*
X73700900Y-107446900D01*
X75020107Y-107446900D01*
X75133146Y-108015185D01*
X75455053Y-108496954D01*
X75496652Y-108524750D01*
X75448883Y-108533738D01*
X75232759Y-108672810D01*
X75087769Y-108885010D01*
X75036760Y-109136900D01*
X75036760Y-110836900D01*
X75081038Y-111072217D01*
X75220110Y-111288341D01*
X75432310Y-111433331D01*
X75684200Y-111484340D01*
X77384200Y-111484340D01*
X77619517Y-111440062D01*
X77835641Y-111300990D01*
X77980631Y-111088790D01*
X78024490Y-110872207D01*
X95077100Y-110872207D01*
X95077100Y-110930393D01*
X95190139Y-111498678D01*
X95512046Y-111980447D01*
X95993815Y-112302354D01*
X96562100Y-112415393D01*
X97130385Y-112302354D01*
X97612154Y-111980447D01*
X97639950Y-111938848D01*
X97648938Y-111986617D01*
X97788010Y-112202741D01*
X98000210Y-112347731D01*
X98252100Y-112398740D01*
X99952100Y-112398740D01*
X100187417Y-112354462D01*
X100294431Y-112285600D01*
X124753307Y-112285600D01*
X124866346Y-112853885D01*
X125188253Y-113335654D01*
X125229852Y-113363450D01*
X125182083Y-113372438D01*
X124965959Y-113511510D01*
X124820969Y-113723710D01*
X124769960Y-113975600D01*
X124769960Y-115675600D01*
X124814238Y-115910917D01*
X124953310Y-116127041D01*
X125165510Y-116272031D01*
X125417400Y-116323040D01*
X127117400Y-116323040D01*
X127352717Y-116278762D01*
X127568841Y-116139690D01*
X127713831Y-115927490D01*
X127764840Y-115675600D01*
X127764840Y-113975600D01*
X127738627Y-113836290D01*
X130337724Y-113836290D01*
X130507555Y-114246324D01*
X130897842Y-114674583D01*
X131422308Y-114920886D01*
X131652200Y-114800219D01*
X131652200Y-113606400D01*
X131906200Y-113606400D01*
X131906200Y-114800219D01*
X132136092Y-114920886D01*
X132660558Y-114674583D01*
X133050845Y-114246324D01*
X133220676Y-113836290D01*
X133099355Y-113606400D01*
X131906200Y-113606400D01*
X131652200Y-113606400D01*
X130459045Y-113606400D01*
X130337724Y-113836290D01*
X127738627Y-113836290D01*
X127720562Y-113740283D01*
X127581490Y-113524159D01*
X127369290Y-113379169D01*
X127301859Y-113365514D01*
X127346547Y-113335654D01*
X127668454Y-112853885D01*
X127781493Y-112285600D01*
X127668454Y-111717315D01*
X127346547Y-111235546D01*
X126864778Y-110913639D01*
X126296493Y-110800600D01*
X126238307Y-110800600D01*
X125670022Y-110913639D01*
X125188253Y-111235546D01*
X124866346Y-111717315D01*
X124753307Y-112285600D01*
X100294431Y-112285600D01*
X100403541Y-112215390D01*
X100548531Y-112003190D01*
X100599540Y-111751300D01*
X100599540Y-110089400D01*
X130281760Y-110089400D01*
X130281760Y-111789400D01*
X130326038Y-112024717D01*
X130465110Y-112240841D01*
X130677310Y-112385831D01*
X130785307Y-112407701D01*
X130507555Y-112712476D01*
X130337724Y-113122510D01*
X130459045Y-113352400D01*
X131652200Y-113352400D01*
X131652200Y-113332400D01*
X131906200Y-113332400D01*
X131906200Y-113352400D01*
X133099355Y-113352400D01*
X133220676Y-113122510D01*
X133050845Y-112712476D01*
X132774699Y-112409463D01*
X132864517Y-112392562D01*
X133080641Y-112253490D01*
X133225631Y-112041290D01*
X133276640Y-111789400D01*
X133276640Y-110089400D01*
X133232362Y-109854083D01*
X133093290Y-109637959D01*
X132881090Y-109492969D01*
X132629200Y-109441960D01*
X130929200Y-109441960D01*
X130693883Y-109486238D01*
X130477759Y-109625310D01*
X130332769Y-109837510D01*
X130281760Y-110089400D01*
X100599540Y-110089400D01*
X100599540Y-110051300D01*
X100555262Y-109815983D01*
X100416190Y-109599859D01*
X100203990Y-109454869D01*
X99952100Y-109403860D01*
X98252100Y-109403860D01*
X98016783Y-109448138D01*
X97800659Y-109587210D01*
X97655669Y-109799410D01*
X97642014Y-109866841D01*
X97612154Y-109822153D01*
X97130385Y-109500246D01*
X96562100Y-109387207D01*
X95993815Y-109500246D01*
X95512046Y-109822153D01*
X95190139Y-110303922D01*
X95077100Y-110872207D01*
X78024490Y-110872207D01*
X78031640Y-110836900D01*
X78031640Y-109136900D01*
X77987362Y-108901583D01*
X77848290Y-108685459D01*
X77636090Y-108540469D01*
X77568659Y-108526814D01*
X77613347Y-108496954D01*
X77935254Y-108015185D01*
X78048293Y-107446900D01*
X77989457Y-107151107D01*
X95051700Y-107151107D01*
X95051700Y-107209293D01*
X95164739Y-107777578D01*
X95486646Y-108259347D01*
X95968415Y-108581254D01*
X96536700Y-108694293D01*
X97104985Y-108581254D01*
X97586754Y-108259347D01*
X97614550Y-108217748D01*
X97623538Y-108265517D01*
X97762610Y-108481641D01*
X97974810Y-108626631D01*
X98226700Y-108677640D01*
X99926700Y-108677640D01*
X100082708Y-108648285D01*
X103508060Y-108648285D01*
X103718469Y-109157515D01*
X104107736Y-109547461D01*
X104616598Y-109758759D01*
X105167585Y-109759240D01*
X105676815Y-109548831D01*
X106066761Y-109159564D01*
X106278059Y-108650702D01*
X106278540Y-108099715D01*
X106068131Y-107590485D01*
X105678864Y-107200539D01*
X105170002Y-106989241D01*
X104619015Y-106988760D01*
X104109785Y-107199169D01*
X103719839Y-107588436D01*
X103508541Y-108097298D01*
X103508060Y-108648285D01*
X100082708Y-108648285D01*
X100162017Y-108633362D01*
X100378141Y-108494290D01*
X100523131Y-108282090D01*
X100574140Y-108030200D01*
X100574140Y-106330200D01*
X100529862Y-106094883D01*
X100390790Y-105878759D01*
X100178590Y-105733769D01*
X99926700Y-105682760D01*
X98226700Y-105682760D01*
X97991383Y-105727038D01*
X97775259Y-105866110D01*
X97630269Y-106078310D01*
X97616614Y-106145741D01*
X97586754Y-106101053D01*
X97104985Y-105779146D01*
X96536700Y-105666107D01*
X95968415Y-105779146D01*
X95486646Y-106101053D01*
X95164739Y-106582822D01*
X95051700Y-107151107D01*
X77989457Y-107151107D01*
X77935254Y-106878615D01*
X77613347Y-106396846D01*
X77131578Y-106074939D01*
X76563293Y-105961900D01*
X76505107Y-105961900D01*
X75936822Y-106074939D01*
X75455053Y-106396846D01*
X75133146Y-106878615D01*
X75020107Y-107446900D01*
X73700900Y-107446900D01*
X73700900Y-100804800D01*
X97575307Y-100804800D01*
X97688346Y-101373085D01*
X98010253Y-101854854D01*
X98051852Y-101882650D01*
X98004083Y-101891638D01*
X97787959Y-102030710D01*
X97642969Y-102242910D01*
X97591960Y-102494800D01*
X97591960Y-104194800D01*
X97636238Y-104430117D01*
X97775310Y-104646241D01*
X97987510Y-104791231D01*
X98239400Y-104842240D01*
X99939400Y-104842240D01*
X100174717Y-104797962D01*
X100390841Y-104658890D01*
X100535831Y-104446690D01*
X100586840Y-104194800D01*
X100586840Y-102494800D01*
X100542562Y-102259483D01*
X100403490Y-102043359D01*
X100191290Y-101898369D01*
X100123859Y-101884714D01*
X100168547Y-101854854D01*
X100490454Y-101373085D01*
X100603493Y-100804800D01*
X100490454Y-100236515D01*
X100168547Y-99754746D01*
X99686778Y-99432839D01*
X99118493Y-99319800D01*
X99060307Y-99319800D01*
X98492022Y-99432839D01*
X98010253Y-99754746D01*
X97688346Y-100236515D01*
X97575307Y-100804800D01*
X73700900Y-100804800D01*
X73700900Y-91301507D01*
X74401500Y-91301507D01*
X74401500Y-91359693D01*
X74514539Y-91927978D01*
X74836446Y-92409747D01*
X75318215Y-92731654D01*
X75886500Y-92844693D01*
X76454785Y-92731654D01*
X76936554Y-92409747D01*
X77156500Y-92080574D01*
X77376446Y-92409747D01*
X77522480Y-92507323D01*
X77217455Y-92567996D01*
X76849234Y-92814033D01*
X75274434Y-94388834D01*
X75269347Y-94396447D01*
X75261734Y-94401534D01*
X75015697Y-94769755D01*
X74929300Y-95204100D01*
X74942000Y-95267947D01*
X74942000Y-96651900D01*
X75028397Y-97086246D01*
X75274434Y-97454466D01*
X75642654Y-97700503D01*
X76077000Y-97786900D01*
X76511346Y-97700503D01*
X76879566Y-97454466D01*
X77125603Y-97086246D01*
X77212000Y-96651900D01*
X77212000Y-95661532D01*
X78121933Y-94751600D01*
X87659168Y-94751600D01*
X88226200Y-95318632D01*
X88226200Y-95915300D01*
X88312597Y-96349646D01*
X88514557Y-96651900D01*
X88558634Y-96717866D01*
X89993734Y-98152966D01*
X90361954Y-98399003D01*
X90796300Y-98485400D01*
X100232168Y-98485400D01*
X101510400Y-99763632D01*
X101510400Y-100537753D01*
X101497700Y-100601600D01*
X101510400Y-100665447D01*
X101510400Y-101998600D01*
X101596797Y-102432946D01*
X101763165Y-102681933D01*
X101842834Y-102801166D01*
X102846133Y-103804466D01*
X102846136Y-103804468D01*
X103328733Y-104287066D01*
X103567628Y-104446690D01*
X103696954Y-104533103D01*
X104131300Y-104619500D01*
X111547868Y-104619500D01*
X113829400Y-106901032D01*
X113829400Y-107429500D01*
X112932400Y-107429500D01*
X112498054Y-107515897D01*
X112129834Y-107761934D01*
X111883797Y-108130154D01*
X111797400Y-108564500D01*
X111883797Y-108998846D01*
X112129834Y-109367066D01*
X112498054Y-109613103D01*
X112932400Y-109699500D01*
X114532600Y-109699500D01*
X114966946Y-109613103D01*
X115335166Y-109367066D01*
X115728692Y-108973540D01*
X115766966Y-108947966D01*
X116013003Y-108579746D01*
X116099400Y-108145400D01*
X116099400Y-106901032D01*
X116501332Y-106499100D01*
X123486100Y-106499100D01*
X123920446Y-106412703D01*
X124288666Y-106166666D01*
X124534703Y-105798446D01*
X124621100Y-105364100D01*
X124534703Y-104929754D01*
X124288666Y-104561534D01*
X123920446Y-104315497D01*
X123486100Y-104229100D01*
X120839597Y-104229100D01*
X120913061Y-104155764D01*
X121124359Y-103646902D01*
X121124840Y-103095915D01*
X120914431Y-102586685D01*
X120525164Y-102196739D01*
X120016302Y-101985441D01*
X119465315Y-101984960D01*
X118956085Y-102195369D01*
X118566139Y-102584636D01*
X118354841Y-103093498D01*
X118354360Y-103644485D01*
X118564769Y-104153715D01*
X118640023Y-104229100D01*
X116031200Y-104229100D01*
X115596854Y-104315497D01*
X115228634Y-104561534D01*
X114964400Y-104825768D01*
X112820566Y-102681934D01*
X112674949Y-102584636D01*
X112452346Y-102435897D01*
X112018000Y-102349500D01*
X104601432Y-102349500D01*
X104502418Y-102250486D01*
X104451267Y-102173933D01*
X104374717Y-102122784D01*
X103780400Y-101528468D01*
X103780400Y-100088485D01*
X130559060Y-100088485D01*
X130769469Y-100597715D01*
X131158736Y-100987661D01*
X131667598Y-101198959D01*
X132218585Y-101199440D01*
X132727815Y-100989031D01*
X133117761Y-100599764D01*
X133329059Y-100090902D01*
X133329540Y-99539915D01*
X133119131Y-99030685D01*
X132729864Y-98640739D01*
X132221002Y-98429441D01*
X131670015Y-98428960D01*
X131160785Y-98639369D01*
X130770839Y-99028636D01*
X130559541Y-99537498D01*
X130559060Y-100088485D01*
X103780400Y-100088485D01*
X103780400Y-99801732D01*
X105758845Y-97823287D01*
X105873666Y-97746566D01*
X110432966Y-93187266D01*
X110507671Y-93075462D01*
X110679003Y-92819046D01*
X110765400Y-92384700D01*
X110765400Y-90454532D01*
X110850760Y-90369172D01*
X110850760Y-91850400D01*
X110895038Y-92085717D01*
X111034110Y-92301841D01*
X111246310Y-92446831D01*
X111498200Y-92497840D01*
X113198200Y-92497840D01*
X113433517Y-92453562D01*
X113649641Y-92314490D01*
X113794631Y-92102290D01*
X113808286Y-92034859D01*
X113838146Y-92079547D01*
X114319915Y-92401454D01*
X114888200Y-92514493D01*
X115456485Y-92401454D01*
X115938254Y-92079547D01*
X116260161Y-91597778D01*
X116373200Y-91029493D01*
X116373200Y-90971307D01*
X116260161Y-90403022D01*
X115938254Y-89921253D01*
X115456485Y-89599346D01*
X114888200Y-89486307D01*
X114319915Y-89599346D01*
X113838146Y-89921253D01*
X113810350Y-89962852D01*
X113801362Y-89915083D01*
X113662290Y-89698959D01*
X113450090Y-89553969D01*
X113198200Y-89502960D01*
X111716972Y-89502960D01*
X112081732Y-89138200D01*
X114875500Y-89138200D01*
X115309846Y-89051803D01*
X115678066Y-88805766D01*
X118253932Y-86229900D01*
X121110968Y-86229900D01*
X122770200Y-87889132D01*
X122770200Y-92245000D01*
X122856597Y-92679346D01*
X123001167Y-92895710D01*
X123102634Y-93047566D01*
X123341700Y-93286632D01*
X123341700Y-94856500D01*
X119066732Y-94856500D01*
X118891166Y-94680934D01*
X118522945Y-94434897D01*
X118088600Y-94348500D01*
X117723185Y-94421186D01*
X117523531Y-93937985D01*
X117134264Y-93548039D01*
X116625402Y-93336741D01*
X116074415Y-93336260D01*
X115565185Y-93546669D01*
X115175239Y-93935936D01*
X114963941Y-94444798D01*
X114963460Y-94995785D01*
X115173869Y-95505015D01*
X115563136Y-95894961D01*
X116071998Y-96106259D01*
X116622985Y-96106740D01*
X117048684Y-95930845D01*
X117286034Y-96286066D01*
X117794033Y-96794066D01*
X118106426Y-97002800D01*
X118162254Y-97040103D01*
X118596600Y-97126500D01*
X123867100Y-97126500D01*
X124301446Y-97040103D01*
X124669666Y-96794066D01*
X125202721Y-96261012D01*
X125279266Y-96209866D01*
X125525303Y-95841646D01*
X125611700Y-95407300D01*
X125611700Y-92727600D01*
X125525303Y-92293254D01*
X125279266Y-91925034D01*
X125040200Y-91765295D01*
X125040200Y-87419000D01*
X124953803Y-86984654D01*
X124707766Y-86616434D01*
X122383666Y-84292334D01*
X122015446Y-84046297D01*
X121581100Y-83959900D01*
X117783800Y-83959900D01*
X117349455Y-84046296D01*
X116981234Y-84292334D01*
X114405368Y-86868200D01*
X111611600Y-86868200D01*
X111177255Y-86954596D01*
X110809034Y-87200634D01*
X108827834Y-89181834D01*
X108581797Y-89550054D01*
X108503904Y-89941646D01*
X108116402Y-89780741D01*
X107565415Y-89780260D01*
X107056185Y-89990669D01*
X106666239Y-90379936D01*
X106578720Y-90590705D01*
X106487231Y-90369285D01*
X106097964Y-89979339D01*
X105589102Y-89768041D01*
X105038115Y-89767560D01*
X104528885Y-89977969D01*
X104138939Y-90367236D01*
X103927641Y-90876098D01*
X103927160Y-91427085D01*
X104137569Y-91936315D01*
X104526836Y-92326261D01*
X105035698Y-92537559D01*
X105586685Y-92538040D01*
X106095915Y-92327631D01*
X106485861Y-91938364D01*
X106573380Y-91727595D01*
X106664869Y-91949015D01*
X107054136Y-92338961D01*
X107562998Y-92550259D01*
X107859450Y-92550518D01*
X104345255Y-96064713D01*
X104283077Y-96106259D01*
X104230434Y-96141434D01*
X103087781Y-97284087D01*
X103011234Y-97335234D01*
X102960087Y-97411781D01*
X102664450Y-97707418D01*
X101504866Y-96547834D01*
X101465944Y-96521827D01*
X101136646Y-96301797D01*
X100702300Y-96215400D01*
X99280594Y-96215400D01*
X99152900Y-96190000D01*
X99025206Y-96215400D01*
X91266432Y-96215400D01*
X90496200Y-95445168D01*
X90496200Y-94848500D01*
X90487232Y-94803417D01*
X90409804Y-94414155D01*
X90163766Y-94045934D01*
X88931866Y-92814034D01*
X88866563Y-92770400D01*
X88563646Y-92567997D01*
X88129300Y-92481600D01*
X82379376Y-92481600D01*
X82412931Y-92432490D01*
X82463940Y-92180600D01*
X82463940Y-90480600D01*
X82419662Y-90245283D01*
X82280590Y-90029159D01*
X82068390Y-89884169D01*
X81816500Y-89833160D01*
X80116500Y-89833160D01*
X79881183Y-89877438D01*
X79665059Y-90016510D01*
X79520069Y-90228710D01*
X79506414Y-90296141D01*
X79476554Y-90251453D01*
X78994785Y-89929546D01*
X78426500Y-89816507D01*
X77858215Y-89929546D01*
X77376446Y-90251453D01*
X77156500Y-90580626D01*
X76936554Y-90251453D01*
X76454785Y-89929546D01*
X75886500Y-89816507D01*
X75318215Y-89929546D01*
X74836446Y-90251453D01*
X74514539Y-90733222D01*
X74401500Y-91301507D01*
X73700900Y-91301507D01*
X73700900Y-83277600D01*
X133406000Y-83277600D01*
X133406000Y-87498503D01*
G36*
X136339736Y-108667061D02*
X136848598Y-108878359D01*
X137399585Y-108878840D01*
X137908815Y-108668431D01*
X138102400Y-108475183D01*
X138102400Y-113938600D01*
X138196409Y-114411214D01*
X138464123Y-114811877D01*
X141194623Y-117542377D01*
X141595286Y-117810091D01*
X142067900Y-117904100D01*
X142540514Y-117810091D01*
X142941177Y-117542377D01*
X143208891Y-117141714D01*
X143302900Y-116669100D01*
X143208891Y-116196486D01*
X143088272Y-116015967D01*
X143303501Y-116105338D01*
X143675467Y-116105662D01*
X143796869Y-116055500D01*
X145420695Y-116055500D01*
X145420700Y-116055501D01*
X145679662Y-116003989D01*
X145730179Y-115993940D01*
X145730138Y-116041467D01*
X145872183Y-116385243D01*
X146134973Y-116648492D01*
X146478501Y-116791138D01*
X146850467Y-116791462D01*
X146971869Y-116741300D01*
X154889196Y-116741300D01*
X154897973Y-116750092D01*
X155241501Y-116892738D01*
X155613467Y-116893062D01*
X155957243Y-116751017D01*
X156220492Y-116488227D01*
X156363138Y-116144699D01*
X156363462Y-115772733D01*
X156270398Y-115547500D01*
X159670095Y-115547500D01*
X159670100Y-115547501D01*
X159826957Y-115516299D01*
X160008775Y-115480133D01*
X160295890Y-115288290D01*
X160764735Y-114819445D01*
X160884843Y-114769817D01*
X161148092Y-114507027D01*
X161290738Y-114163499D01*
X161291062Y-113791533D01*
X161149017Y-113447757D01*
X160886227Y-113184508D01*
X160542699Y-113041862D01*
X160170733Y-113041538D01*
X159826957Y-113183583D01*
X159563708Y-113446373D01*
X159513334Y-113567687D01*
X159303520Y-113777500D01*
X154241867Y-113777500D01*
X154241867Y-111711462D01*
X154585643Y-111569417D01*
X154848892Y-111306627D01*
X154991538Y-110963099D01*
X154991862Y-110591133D01*
X154941700Y-110469731D01*
X154941700Y-105315305D01*
X154941701Y-105315300D01*
X154885510Y-105032816D01*
X154874333Y-104976625D01*
X154682490Y-104689510D01*
X152053079Y-102060100D01*
X153944121Y-102060100D01*
X157007100Y-105123080D01*
X157007100Y-106281333D01*
X156995362Y-106309601D01*
X156995038Y-106681567D01*
X157007100Y-106710759D01*
X157007100Y-107421478D01*
X156957262Y-107541501D01*
X156956938Y-107913467D01*
X157098983Y-108257243D01*
X157361773Y-108520492D01*
X157705301Y-108663138D01*
X158077267Y-108663462D01*
X158421043Y-108521417D01*
X158684292Y-108258627D01*
X158826938Y-107915099D01*
X158827262Y-107543133D01*
X158777100Y-107421731D01*
X158777100Y-106894976D01*
X158865038Y-106683199D01*
X158865362Y-106311233D01*
X158777100Y-106097622D01*
X158777100Y-104756505D01*
X158777101Y-104756500D01*
X158720910Y-104474016D01*
X158709733Y-104417825D01*
X158517890Y-104130710D01*
X154936492Y-100549313D01*
X154936490Y-100549310D01*
X154649375Y-100357467D01*
X154361500Y-100300205D01*
X154361500Y-98282293D01*
X154929785Y-98169254D01*
X155411554Y-97847347D01*
X155631500Y-97518174D01*
X155851446Y-97847347D01*
X156333215Y-98169254D01*
X156901500Y-98282293D01*
X157469785Y-98169254D01*
X157951554Y-97847347D01*
X158273461Y-97365578D01*
X158386500Y-96797293D01*
X158386500Y-96739107D01*
X158273461Y-96170822D01*
X157951554Y-95689053D01*
X157469785Y-95367146D01*
X156901500Y-95254107D01*
X156333215Y-95367146D01*
X155851446Y-95689053D01*
X155631500Y-96018226D01*
X155411554Y-95689053D01*
X154929785Y-95367146D01*
X154361500Y-95254107D01*
X153793215Y-95367146D01*
X153311446Y-95689053D01*
X153283650Y-95730652D01*
X153274662Y-95682883D01*
X153135590Y-95466759D01*
X152923390Y-95321769D01*
X152671500Y-95270760D01*
X150971500Y-95270760D01*
X150736183Y-95315038D01*
X150520059Y-95454110D01*
X150375069Y-95666310D01*
X150324060Y-95918200D01*
X150324060Y-97618200D01*
X150368338Y-97853517D01*
X150507410Y-98069641D01*
X150719610Y-98214631D01*
X150971500Y-98265640D01*
X152671500Y-98265640D01*
X152906817Y-98221362D01*
X153122941Y-98082290D01*
X153267931Y-97870090D01*
X153281586Y-97802659D01*
X153311446Y-97847347D01*
X153793215Y-98169254D01*
X154361500Y-98282293D01*
X154361500Y-100300205D01*
X154310700Y-100290100D01*
X148066207Y-100290100D01*
X148066207Y-98248600D01*
X148124393Y-98248600D01*
X148692678Y-98135561D01*
X149174447Y-97813654D01*
X149496354Y-97331885D01*
X149609393Y-96763600D01*
X149496354Y-96195315D01*
X149174447Y-95713546D01*
X148845274Y-95493600D01*
X149047316Y-95358600D01*
X149475300Y-95358600D01*
X149909646Y-95272203D01*
X150193891Y-95082276D01*
X150277866Y-95026166D01*
X151934732Y-93369300D01*
X155047300Y-93369300D01*
X155481646Y-93282903D01*
X155733461Y-93114645D01*
X155849866Y-93036866D01*
X156916666Y-91970066D01*
X157162703Y-91601846D01*
X157249100Y-91167500D01*
X157249100Y-78878335D01*
X157346900Y-78898140D01*
X157947786Y-78898140D01*
X158371600Y-79321954D01*
X158371600Y-80867800D01*
X158465609Y-81340414D01*
X158733323Y-81741077D01*
X159571523Y-82579277D01*
X159972186Y-82846991D01*
X160444800Y-82941000D01*
X161306145Y-82941000D01*
X161370053Y-82983702D01*
X161227142Y-83050817D01*
X160836855Y-83479076D01*
X160667024Y-83889110D01*
X160788345Y-84119000D01*
X161981500Y-84119000D01*
X161981500Y-84099000D01*
X162235500Y-84099000D01*
X162235500Y-84119000D01*
X163428655Y-84119000D01*
X163549976Y-83889110D01*
X163380145Y-83479076D01*
X162989858Y-83050817D01*
X162846947Y-82983702D01*
X163187647Y-82756054D01*
X163509554Y-82274285D01*
X163622593Y-81706000D01*
X163509554Y-81137715D01*
X163187647Y-80655946D01*
X163146048Y-80628150D01*
X163193817Y-80619162D01*
X163409941Y-80480090D01*
X163554931Y-80267890D01*
X163605940Y-80016000D01*
X163605940Y-78316000D01*
X163561662Y-78080683D01*
X163422590Y-77864559D01*
X163210390Y-77719569D01*
X162958500Y-77668560D01*
X161803700Y-77668560D01*
X161803700Y-76603393D01*
X162371985Y-76490354D01*
X162853754Y-76168447D01*
X162883103Y-76124523D01*
X162955373Y-76298998D01*
X163134001Y-76477627D01*
X163367390Y-76574300D01*
X164057950Y-76574300D01*
X164216700Y-76415550D01*
X164216700Y-75216300D01*
X164196700Y-75216300D01*
X164196700Y-74962300D01*
X164216700Y-74962300D01*
X164216700Y-73763050D01*
X164057950Y-73604300D01*
X163367390Y-73604300D01*
X163134001Y-73700973D01*
X162955373Y-73879602D01*
X162883103Y-74054077D01*
X162853754Y-74010153D01*
X162371985Y-73688246D01*
X161803700Y-73575207D01*
X161235415Y-73688246D01*
X160753646Y-74010153D01*
X160431739Y-74491922D01*
X160318700Y-75060207D01*
X160318700Y-75118393D01*
X160431739Y-75686678D01*
X160753646Y-76168447D01*
X161235415Y-76490354D01*
X161803700Y-76603393D01*
X161803700Y-77668560D01*
X161258500Y-77668560D01*
X161023183Y-77712838D01*
X160807059Y-77851910D01*
X160662069Y-78064110D01*
X160639429Y-78175910D01*
X160479877Y-77937123D01*
X159694340Y-77151586D01*
X159694340Y-76550700D01*
X159650062Y-76315383D01*
X159510990Y-76099259D01*
X159298790Y-75954269D01*
X159046900Y-75903260D01*
X157346900Y-75903260D01*
X157111583Y-75947538D01*
X156895459Y-76086610D01*
X156750469Y-76298810D01*
X156736814Y-76366241D01*
X156706954Y-76321553D01*
X156225185Y-75999646D01*
X155656900Y-75886607D01*
X155088615Y-75999646D01*
X154606846Y-76321553D01*
X154284939Y-76803322D01*
X154171900Y-77371607D01*
X154171900Y-77429793D01*
X154284939Y-77998078D01*
X154606846Y-78479847D01*
X154979100Y-78728579D01*
X154979100Y-90697368D01*
X154577168Y-91099300D01*
X151464600Y-91099300D01*
X151030254Y-91185697D01*
X150662034Y-91431734D01*
X149592740Y-92501028D01*
X149592740Y-90833600D01*
X149548462Y-90598283D01*
X149409390Y-90382159D01*
X149197190Y-90237169D01*
X148945300Y-90186160D01*
X148730300Y-90186160D01*
X148730300Y-87198600D01*
X153400300Y-87198600D01*
X153400300Y-79628600D01*
X148730300Y-79628600D01*
X148730300Y-87198600D01*
X148730300Y-90186160D01*
X147245300Y-90186160D01*
X147009983Y-90230438D01*
X146793859Y-90369510D01*
X146648869Y-90581710D01*
X146597860Y-90833600D01*
X146597860Y-92533600D01*
X146642138Y-92768917D01*
X146781210Y-92985041D01*
X146993410Y-93130031D01*
X147060841Y-93143686D01*
X147016153Y-93173546D01*
X146694246Y-93655315D01*
X146581207Y-94223600D01*
X146694246Y-94791885D01*
X147016153Y-95273654D01*
X147345326Y-95493600D01*
X147016153Y-95713546D01*
X146694246Y-96195315D01*
X146581207Y-96763600D01*
X146694246Y-97331885D01*
X147016153Y-97813654D01*
X147497922Y-98135561D01*
X148066207Y-98248600D01*
X148066207Y-100290100D01*
X142053480Y-100290100D01*
X141996245Y-100232865D01*
X141946617Y-100112757D01*
X141683827Y-99849508D01*
X141340299Y-99706862D01*
X140968333Y-99706538D01*
X140624557Y-99848583D01*
X140361308Y-100111373D01*
X140218662Y-100454901D01*
X140218338Y-100826867D01*
X140360383Y-101170643D01*
X140623173Y-101433892D01*
X140744487Y-101484266D01*
X140879820Y-101619600D01*
X140795465Y-101703956D01*
X140675357Y-101753583D01*
X140412108Y-102016373D01*
X140269462Y-102359901D01*
X140269138Y-102731867D01*
X140411183Y-103075643D01*
X140673973Y-103338892D01*
X141017501Y-103481538D01*
X141389467Y-103481862D01*
X141733243Y-103339817D01*
X141996492Y-103077027D01*
X142046866Y-102955714D01*
X142205879Y-102796700D01*
X150286521Y-102796700D01*
X153171700Y-105681880D01*
X153171700Y-110469478D01*
X153121862Y-110589501D01*
X153121538Y-110961467D01*
X153263583Y-111305243D01*
X153526373Y-111568492D01*
X153869901Y-111711138D01*
X154241867Y-111711462D01*
X154241867Y-113777500D01*
X146219080Y-113777500D01*
X146089800Y-113648221D01*
X146089800Y-111257179D01*
X146122341Y-111224638D01*
X146134973Y-111216198D01*
X146198890Y-111173490D01*
X146616935Y-110755445D01*
X146737043Y-110705817D01*
X147000292Y-110443027D01*
X147142938Y-110099499D01*
X147143262Y-109727533D01*
X147001217Y-109383757D01*
X146738427Y-109120508D01*
X146394899Y-108977862D01*
X146022933Y-108977538D01*
X145679157Y-109119583D01*
X145415908Y-109382373D01*
X145365534Y-109503687D01*
X145089955Y-109779265D01*
X145047043Y-109796996D01*
X144921912Y-109921909D01*
X144921910Y-109921910D01*
X144921909Y-109921912D01*
X144797871Y-110045733D01*
X144797717Y-110046103D01*
X144579010Y-110264810D01*
X144535699Y-110329630D01*
X144387167Y-110551925D01*
X144375990Y-110608116D01*
X144319799Y-110890600D01*
X144319800Y-110890605D01*
X144319800Y-114014795D01*
X144319799Y-114014800D01*
X144373646Y-114285500D01*
X143797122Y-114285500D01*
X143677099Y-114235662D01*
X143305133Y-114235338D01*
X142961357Y-114377383D01*
X142698108Y-114640173D01*
X142555462Y-114983701D01*
X142555138Y-115355667D01*
X142593243Y-115447889D01*
X140572400Y-113427046D01*
X140572400Y-107871554D01*
X141817454Y-106626500D01*
X145349212Y-106626500D01*
X145483297Y-106653317D01*
X145605573Y-106653445D01*
X145725500Y-106677300D01*
X146614500Y-106677300D01*
X146641811Y-106671868D01*
X146669335Y-106676082D01*
X147455193Y-106641155D01*
X147784930Y-106626500D01*
X149661298Y-106626500D01*
X149748686Y-106684891D01*
X150221300Y-106778900D01*
X150693914Y-106684891D01*
X151094577Y-106417177D01*
X151362291Y-106016514D01*
X151456300Y-105543900D01*
X151362291Y-105071286D01*
X151094577Y-104670623D01*
X150942177Y-104518223D01*
X150541514Y-104250509D01*
X150068900Y-104156500D01*
X147757500Y-104156500D01*
X147730190Y-104161932D01*
X147702666Y-104157718D01*
X147345523Y-104173591D01*
X146587070Y-104207300D01*
X145847788Y-104207300D01*
X145713704Y-104180483D01*
X145591427Y-104180355D01*
X145471500Y-104156500D01*
X141305900Y-104156500D01*
X140833286Y-104250509D01*
X140432623Y-104518223D01*
X139391050Y-105559796D01*
X139391050Y-98088600D01*
X139856610Y-98088600D01*
X140089999Y-97991927D01*
X140268627Y-97813298D01*
X140365300Y-97579909D01*
X140365300Y-96989350D01*
X140206550Y-96830600D01*
X139232300Y-96830600D01*
X139232300Y-97929850D01*
X139391050Y-98088600D01*
X139391050Y-105559796D01*
X138464123Y-106486723D01*
X138353990Y-106651549D01*
X138353990Y-98088600D01*
X138819550Y-98088600D01*
X138978300Y-97929850D01*
X138978300Y-96830600D01*
X138004050Y-96830600D01*
X138004050Y-96576600D01*
X138978300Y-96576600D01*
X138978300Y-96556600D01*
X139232300Y-96556600D01*
X139232300Y-96576600D01*
X140206550Y-96576600D01*
X140365300Y-96417850D01*
X140365300Y-95827291D01*
X140268627Y-95593902D01*
X140127390Y-95452664D01*
X140181741Y-95417690D01*
X140326731Y-95205490D01*
X140377740Y-94953600D01*
X140377740Y-93453600D01*
X140333462Y-93218283D01*
X140240300Y-93073505D01*
X140240300Y-92403600D01*
X140153903Y-91969254D01*
X139907866Y-91601034D01*
X139835300Y-91528468D01*
X139835300Y-80067693D01*
X140403585Y-79954654D01*
X140885354Y-79632747D01*
X141105300Y-79303574D01*
X141325246Y-79632747D01*
X141807015Y-79954654D01*
X142375300Y-80067693D01*
X142943585Y-79954654D01*
X143425354Y-79632747D01*
X143747261Y-79150978D01*
X143860300Y-78582693D01*
X143860300Y-78524507D01*
X143747261Y-77956222D01*
X143425354Y-77474453D01*
X142943585Y-77152546D01*
X142375300Y-77039507D01*
X141807015Y-77152546D01*
X141325246Y-77474453D01*
X141105300Y-77803626D01*
X140885354Y-77474453D01*
X140403585Y-77152546D01*
X139835300Y-77039507D01*
X139267015Y-77152546D01*
X138785246Y-77474453D01*
X138755897Y-77518377D01*
X138683627Y-77343902D01*
X138504999Y-77165273D01*
X138271610Y-77068600D01*
X137581050Y-77068600D01*
X137422300Y-77227350D01*
X137422300Y-78426600D01*
X137442300Y-78426600D01*
X137442300Y-78680600D01*
X137422300Y-78680600D01*
X137422300Y-79879850D01*
X137581050Y-80038600D01*
X138271610Y-80038600D01*
X138504999Y-79941927D01*
X138683627Y-79763298D01*
X138755897Y-79588823D01*
X138785246Y-79632747D01*
X139267015Y-79954654D01*
X139835300Y-80067693D01*
X139835300Y-91528468D01*
X139777866Y-91471034D01*
X139409645Y-91224997D01*
X138975300Y-91138600D01*
X138540955Y-91224997D01*
X138501050Y-91251660D01*
X138501050Y-91038600D01*
X139191609Y-91038600D01*
X139424998Y-90941927D01*
X139603627Y-90763299D01*
X139700300Y-90529910D01*
X139700300Y-89839350D01*
X139541550Y-89680600D01*
X138342300Y-89680600D01*
X138342300Y-90879850D01*
X138501050Y-91038600D01*
X138501050Y-91251660D01*
X138172734Y-91471034D01*
X137926697Y-91839255D01*
X137840300Y-92273600D01*
X137926697Y-92707945D01*
X137970300Y-92773202D01*
X137970300Y-93075214D01*
X137883869Y-93201710D01*
X137832860Y-93453600D01*
X137832860Y-94953600D01*
X137877138Y-95188917D01*
X138016210Y-95405041D01*
X138084306Y-95451569D01*
X137941973Y-95593902D01*
X137845300Y-95827291D01*
X137845300Y-96417850D01*
X138004050Y-96576600D01*
X138004050Y-96830600D01*
X137845300Y-96989350D01*
X137845300Y-97579909D01*
X137941973Y-97813298D01*
X138120601Y-97991927D01*
X138353990Y-98088600D01*
X138353990Y-106651549D01*
X138305766Y-106723722D01*
X138300131Y-106710085D01*
X137910864Y-106320139D01*
X137402002Y-106108841D01*
X137238991Y-106108699D01*
X137238991Y-91038600D01*
X137929550Y-91038600D01*
X138088300Y-90879850D01*
X138088300Y-89680600D01*
X136889050Y-89680600D01*
X136889050Y-89426600D01*
X138088300Y-89426600D01*
X138088300Y-89406600D01*
X138342300Y-89406600D01*
X138342300Y-89426600D01*
X139541550Y-89426600D01*
X139700300Y-89267850D01*
X139700300Y-88577290D01*
X139603627Y-88343901D01*
X139424998Y-88165273D01*
X139250523Y-88093003D01*
X139294447Y-88063654D01*
X139616354Y-87581885D01*
X139729393Y-87013600D01*
X139616354Y-86445315D01*
X139294447Y-85963546D01*
X138812678Y-85641639D01*
X138244393Y-85528600D01*
X138186207Y-85528600D01*
X137617922Y-85641639D01*
X137136153Y-85963546D01*
X136814246Y-86445315D01*
X136701207Y-87013600D01*
X136814246Y-87581885D01*
X137136153Y-88063654D01*
X137180077Y-88093003D01*
X137005602Y-88165273D01*
X136826973Y-88343901D01*
X136730300Y-88577290D01*
X136730300Y-89267850D01*
X136889050Y-89426600D01*
X136889050Y-89680600D01*
X136730300Y-89839350D01*
X136730300Y-90529910D01*
X136826973Y-90763299D01*
X137005602Y-90941927D01*
X137238991Y-91038600D01*
X137238991Y-106108699D01*
X136851015Y-106108360D01*
X136341785Y-106318769D01*
X136023000Y-106636999D01*
X136023000Y-79879326D01*
X136085601Y-79941927D01*
X136318990Y-80038600D01*
X137009550Y-80038600D01*
X137168300Y-79879850D01*
X137168300Y-78680600D01*
X137148300Y-78680600D01*
X137148300Y-78426600D01*
X137168300Y-78426600D01*
X137168300Y-77227350D01*
X137009550Y-77068600D01*
X136318990Y-77068600D01*
X136085601Y-77165273D01*
X136023000Y-77227874D01*
X136023000Y-72411300D01*
X165727600Y-72411300D01*
X165727600Y-73875175D01*
X165553399Y-73700973D01*
X165320010Y-73604300D01*
X164629450Y-73604300D01*
X164470700Y-73763050D01*
X164470700Y-74962300D01*
X164490700Y-74962300D01*
X164490700Y-75216300D01*
X164470700Y-75216300D01*
X164470700Y-76415550D01*
X164629450Y-76574300D01*
X165320010Y-76574300D01*
X165553399Y-76477627D01*
X165727600Y-76303425D01*
X165727600Y-114997775D01*
X165553399Y-114823573D01*
X165320010Y-114726900D01*
X164629450Y-114726900D01*
X164470700Y-114885650D01*
X164470700Y-116084900D01*
X164490700Y-116084900D01*
X164490700Y-116338900D01*
X164470700Y-116338900D01*
X164470700Y-117538150D01*
X164629450Y-117696900D01*
X165320010Y-117696900D01*
X165553399Y-117600227D01*
X165727600Y-117426025D01*
X165727600Y-126995900D01*
X161803700Y-126995900D01*
X161803700Y-117725993D01*
X162371985Y-117612954D01*
X162853754Y-117291047D01*
X162883103Y-117247123D01*
X162955373Y-117421598D01*
X163134001Y-117600227D01*
X163367390Y-117696900D01*
X164057950Y-117696900D01*
X164216700Y-117538150D01*
X164216700Y-116338900D01*
X164196700Y-116338900D01*
X164196700Y-116084900D01*
X164216700Y-116084900D01*
X164216700Y-114885650D01*
X164057950Y-114726900D01*
X163367390Y-114726900D01*
X163201992Y-114795410D01*
X163201992Y-106096386D01*
X163726458Y-105850083D01*
X164116745Y-105421824D01*
X164286576Y-105011790D01*
X164165255Y-104781900D01*
X162972100Y-104781900D01*
X162972100Y-105975719D01*
X163201992Y-106096386D01*
X163201992Y-114795410D01*
X163134001Y-114823573D01*
X162955373Y-115002202D01*
X162883103Y-115176677D01*
X162853754Y-115132753D01*
X162488208Y-114888504D01*
X162488208Y-106096386D01*
X162718100Y-105975719D01*
X162718100Y-104781900D01*
X161524945Y-104781900D01*
X161524945Y-104527900D01*
X162718100Y-104527900D01*
X162718100Y-104507900D01*
X162972100Y-104507900D01*
X162972100Y-104527900D01*
X164165255Y-104527900D01*
X164286576Y-104298010D01*
X164116745Y-103887976D01*
X163840599Y-103584963D01*
X163930417Y-103568062D01*
X164146541Y-103428990D01*
X164291531Y-103216790D01*
X164342540Y-102964900D01*
X164342540Y-101264900D01*
X164298262Y-101029583D01*
X164159190Y-100813459D01*
X163946990Y-100668469D01*
X163695100Y-100617460D01*
X161995100Y-100617460D01*
X161982400Y-100619849D01*
X161982400Y-99776940D01*
X163682400Y-99776940D01*
X163917717Y-99732662D01*
X164133841Y-99593590D01*
X164278831Y-99381390D01*
X164329840Y-99129500D01*
X164329840Y-97429500D01*
X164285562Y-97194183D01*
X164146490Y-96978059D01*
X163934290Y-96833069D01*
X163866859Y-96819414D01*
X163911547Y-96789554D01*
X164233454Y-96307785D01*
X164346493Y-95739500D01*
X164233454Y-95171215D01*
X163911547Y-94689446D01*
X163429778Y-94367539D01*
X162861493Y-94254500D01*
X162803307Y-94254500D01*
X162235022Y-94367539D01*
X162079407Y-94471517D01*
X162079407Y-90811000D01*
X162137593Y-90811000D01*
X162705878Y-90697961D01*
X163187647Y-90376054D01*
X163509554Y-89894285D01*
X163622593Y-89326000D01*
X163509554Y-88757715D01*
X163187647Y-88275946D01*
X162858474Y-88056000D01*
X163187647Y-87836054D01*
X163509554Y-87354285D01*
X163622593Y-86786000D01*
X163509554Y-86217715D01*
X163187647Y-85735946D01*
X162846947Y-85508298D01*
X162989858Y-85441183D01*
X163380145Y-85012924D01*
X163549976Y-84602890D01*
X163428655Y-84373000D01*
X162235500Y-84373000D01*
X162235500Y-84393000D01*
X161981500Y-84393000D01*
X161981500Y-84373000D01*
X160788345Y-84373000D01*
X160667024Y-84602890D01*
X160836855Y-85012924D01*
X161227142Y-85441183D01*
X161370053Y-85508298D01*
X161029353Y-85735946D01*
X160707446Y-86217715D01*
X160594407Y-86786000D01*
X160707446Y-87354285D01*
X161029353Y-87836054D01*
X161358526Y-88056000D01*
X161029353Y-88275946D01*
X160707446Y-88757715D01*
X160594407Y-89326000D01*
X160707446Y-89894285D01*
X161029353Y-90376054D01*
X161511122Y-90697961D01*
X162079407Y-90811000D01*
X162079407Y-94471517D01*
X161753253Y-94689446D01*
X161431346Y-95171215D01*
X161318307Y-95739500D01*
X161431346Y-96307785D01*
X161753253Y-96789554D01*
X161794852Y-96817350D01*
X161747083Y-96826338D01*
X161530959Y-96965410D01*
X161385969Y-97177610D01*
X161334960Y-97429500D01*
X161334960Y-99129500D01*
X161379238Y-99364817D01*
X161518310Y-99580941D01*
X161730510Y-99725931D01*
X161982400Y-99776940D01*
X161982400Y-100619849D01*
X161759783Y-100661738D01*
X161543659Y-100800810D01*
X161398669Y-101013010D01*
X161347660Y-101264900D01*
X161347660Y-102964900D01*
X161391938Y-103200217D01*
X161531010Y-103416341D01*
X161743210Y-103561331D01*
X161851207Y-103583201D01*
X161573455Y-103887976D01*
X161403624Y-104298010D01*
X161524945Y-104527900D01*
X161524945Y-104781900D01*
X161403624Y-105011790D01*
X161573455Y-105421824D01*
X161963742Y-105850083D01*
X162488208Y-106096386D01*
X162488208Y-114888504D01*
X162371985Y-114810846D01*
X161803700Y-114697807D01*
X161235415Y-114810846D01*
X160753646Y-115132753D01*
X160431739Y-115614522D01*
X160318700Y-116182807D01*
X160318700Y-116240993D01*
X160431739Y-116809278D01*
X160753646Y-117291047D01*
X161235415Y-117612954D01*
X161803700Y-117725993D01*
X161803700Y-126995900D01*
X156430740Y-126995900D01*
X156430740Y-123299700D01*
X156386462Y-123064383D01*
X156247390Y-122848259D01*
X156035190Y-122703269D01*
X155783300Y-122652260D01*
X153803300Y-122652260D01*
X153567983Y-122696538D01*
X153351859Y-122835610D01*
X153248622Y-122986703D01*
X152875161Y-122737165D01*
X152253300Y-122613469D01*
X151631439Y-122737165D01*
X151104251Y-123089420D01*
X150983300Y-123270436D01*
X150862349Y-123089420D01*
X150335161Y-122737165D01*
X149713300Y-122613469D01*
X149091439Y-122737165D01*
X148564251Y-123089420D01*
X148211996Y-123616608D01*
X148088300Y-124238469D01*
X148088300Y-126320931D01*
X148211996Y-126942792D01*
X148247482Y-126995900D01*
X136023000Y-126995900D01*
X136023000Y-108349773D01*
X136339736Y-108667061D01*
X136339736Y-108667061D01*
G37*
X136339736Y-108667061D02*
X136848598Y-108878359D01*
X137399585Y-108878840D01*
X137908815Y-108668431D01*
X138102400Y-108475183D01*
X138102400Y-113938600D01*
X138196409Y-114411214D01*
X138464123Y-114811877D01*
X141194623Y-117542377D01*
X141595286Y-117810091D01*
X142067900Y-117904100D01*
X142540514Y-117810091D01*
X142941177Y-117542377D01*
X143208891Y-117141714D01*
X143302900Y-116669100D01*
X143208891Y-116196486D01*
X143088272Y-116015967D01*
X143303501Y-116105338D01*
X143675467Y-116105662D01*
X143796869Y-116055500D01*
X145420695Y-116055500D01*
X145420700Y-116055501D01*
X145679662Y-116003989D01*
X145730179Y-115993940D01*
X145730138Y-116041467D01*
X145872183Y-116385243D01*
X146134973Y-116648492D01*
X146478501Y-116791138D01*
X146850467Y-116791462D01*
X146971869Y-116741300D01*
X154889196Y-116741300D01*
X154897973Y-116750092D01*
X155241501Y-116892738D01*
X155613467Y-116893062D01*
X155957243Y-116751017D01*
X156220492Y-116488227D01*
X156363138Y-116144699D01*
X156363462Y-115772733D01*
X156270398Y-115547500D01*
X159670095Y-115547500D01*
X159670100Y-115547501D01*
X159826957Y-115516299D01*
X160008775Y-115480133D01*
X160295890Y-115288290D01*
X160764735Y-114819445D01*
X160884843Y-114769817D01*
X161148092Y-114507027D01*
X161290738Y-114163499D01*
X161291062Y-113791533D01*
X161149017Y-113447757D01*
X160886227Y-113184508D01*
X160542699Y-113041862D01*
X160170733Y-113041538D01*
X159826957Y-113183583D01*
X159563708Y-113446373D01*
X159513334Y-113567687D01*
X159303520Y-113777500D01*
X154241867Y-113777500D01*
X154241867Y-111711462D01*
X154585643Y-111569417D01*
X154848892Y-111306627D01*
X154991538Y-110963099D01*
X154991862Y-110591133D01*
X154941700Y-110469731D01*
X154941700Y-105315305D01*
X154941701Y-105315300D01*
X154885510Y-105032816D01*
X154874333Y-104976625D01*
X154682490Y-104689510D01*
X152053079Y-102060100D01*
X153944121Y-102060100D01*
X157007100Y-105123080D01*
X157007100Y-106281333D01*
X156995362Y-106309601D01*
X156995038Y-106681567D01*
X157007100Y-106710759D01*
X157007100Y-107421478D01*
X156957262Y-107541501D01*
X156956938Y-107913467D01*
X157098983Y-108257243D01*
X157361773Y-108520492D01*
X157705301Y-108663138D01*
X158077267Y-108663462D01*
X158421043Y-108521417D01*
X158684292Y-108258627D01*
X158826938Y-107915099D01*
X158827262Y-107543133D01*
X158777100Y-107421731D01*
X158777100Y-106894976D01*
X158865038Y-106683199D01*
X158865362Y-106311233D01*
X158777100Y-106097622D01*
X158777100Y-104756505D01*
X158777101Y-104756500D01*
X158720910Y-104474016D01*
X158709733Y-104417825D01*
X158517890Y-104130710D01*
X154936492Y-100549313D01*
X154936490Y-100549310D01*
X154649375Y-100357467D01*
X154361500Y-100300205D01*
X154361500Y-98282293D01*
X154929785Y-98169254D01*
X155411554Y-97847347D01*
X155631500Y-97518174D01*
X155851446Y-97847347D01*
X156333215Y-98169254D01*
X156901500Y-98282293D01*
X157469785Y-98169254D01*
X157951554Y-97847347D01*
X158273461Y-97365578D01*
X158386500Y-96797293D01*
X158386500Y-96739107D01*
X158273461Y-96170822D01*
X157951554Y-95689053D01*
X157469785Y-95367146D01*
X156901500Y-95254107D01*
X156333215Y-95367146D01*
X155851446Y-95689053D01*
X155631500Y-96018226D01*
X155411554Y-95689053D01*
X154929785Y-95367146D01*
X154361500Y-95254107D01*
X153793215Y-95367146D01*
X153311446Y-95689053D01*
X153283650Y-95730652D01*
X153274662Y-95682883D01*
X153135590Y-95466759D01*
X152923390Y-95321769D01*
X152671500Y-95270760D01*
X150971500Y-95270760D01*
X150736183Y-95315038D01*
X150520059Y-95454110D01*
X150375069Y-95666310D01*
X150324060Y-95918200D01*
X150324060Y-97618200D01*
X150368338Y-97853517D01*
X150507410Y-98069641D01*
X150719610Y-98214631D01*
X150971500Y-98265640D01*
X152671500Y-98265640D01*
X152906817Y-98221362D01*
X153122941Y-98082290D01*
X153267931Y-97870090D01*
X153281586Y-97802659D01*
X153311446Y-97847347D01*
X153793215Y-98169254D01*
X154361500Y-98282293D01*
X154361500Y-100300205D01*
X154310700Y-100290100D01*
X148066207Y-100290100D01*
X148066207Y-98248600D01*
X148124393Y-98248600D01*
X148692678Y-98135561D01*
X149174447Y-97813654D01*
X149496354Y-97331885D01*
X149609393Y-96763600D01*
X149496354Y-96195315D01*
X149174447Y-95713546D01*
X148845274Y-95493600D01*
X149047316Y-95358600D01*
X149475300Y-95358600D01*
X149909646Y-95272203D01*
X150193891Y-95082276D01*
X150277866Y-95026166D01*
X151934732Y-93369300D01*
X155047300Y-93369300D01*
X155481646Y-93282903D01*
X155733461Y-93114645D01*
X155849866Y-93036866D01*
X156916666Y-91970066D01*
X157162703Y-91601846D01*
X157249100Y-91167500D01*
X157249100Y-78878335D01*
X157346900Y-78898140D01*
X157947786Y-78898140D01*
X158371600Y-79321954D01*
X158371600Y-80867800D01*
X158465609Y-81340414D01*
X158733323Y-81741077D01*
X159571523Y-82579277D01*
X159972186Y-82846991D01*
X160444800Y-82941000D01*
X161306145Y-82941000D01*
X161370053Y-82983702D01*
X161227142Y-83050817D01*
X160836855Y-83479076D01*
X160667024Y-83889110D01*
X160788345Y-84119000D01*
X161981500Y-84119000D01*
X161981500Y-84099000D01*
X162235500Y-84099000D01*
X162235500Y-84119000D01*
X163428655Y-84119000D01*
X163549976Y-83889110D01*
X163380145Y-83479076D01*
X162989858Y-83050817D01*
X162846947Y-82983702D01*
X163187647Y-82756054D01*
X163509554Y-82274285D01*
X163622593Y-81706000D01*
X163509554Y-81137715D01*
X163187647Y-80655946D01*
X163146048Y-80628150D01*
X163193817Y-80619162D01*
X163409941Y-80480090D01*
X163554931Y-80267890D01*
X163605940Y-80016000D01*
X163605940Y-78316000D01*
X163561662Y-78080683D01*
X163422590Y-77864559D01*
X163210390Y-77719569D01*
X162958500Y-77668560D01*
X161803700Y-77668560D01*
X161803700Y-76603393D01*
X162371985Y-76490354D01*
X162853754Y-76168447D01*
X162883103Y-76124523D01*
X162955373Y-76298998D01*
X163134001Y-76477627D01*
X163367390Y-76574300D01*
X164057950Y-76574300D01*
X164216700Y-76415550D01*
X164216700Y-75216300D01*
X164196700Y-75216300D01*
X164196700Y-74962300D01*
X164216700Y-74962300D01*
X164216700Y-73763050D01*
X164057950Y-73604300D01*
X163367390Y-73604300D01*
X163134001Y-73700973D01*
X162955373Y-73879602D01*
X162883103Y-74054077D01*
X162853754Y-74010153D01*
X162371985Y-73688246D01*
X161803700Y-73575207D01*
X161235415Y-73688246D01*
X160753646Y-74010153D01*
X160431739Y-74491922D01*
X160318700Y-75060207D01*
X160318700Y-75118393D01*
X160431739Y-75686678D01*
X160753646Y-76168447D01*
X161235415Y-76490354D01*
X161803700Y-76603393D01*
X161803700Y-77668560D01*
X161258500Y-77668560D01*
X161023183Y-77712838D01*
X160807059Y-77851910D01*
X160662069Y-78064110D01*
X160639429Y-78175910D01*
X160479877Y-77937123D01*
X159694340Y-77151586D01*
X159694340Y-76550700D01*
X159650062Y-76315383D01*
X159510990Y-76099259D01*
X159298790Y-75954269D01*
X159046900Y-75903260D01*
X157346900Y-75903260D01*
X157111583Y-75947538D01*
X156895459Y-76086610D01*
X156750469Y-76298810D01*
X156736814Y-76366241D01*
X156706954Y-76321553D01*
X156225185Y-75999646D01*
X155656900Y-75886607D01*
X155088615Y-75999646D01*
X154606846Y-76321553D01*
X154284939Y-76803322D01*
X154171900Y-77371607D01*
X154171900Y-77429793D01*
X154284939Y-77998078D01*
X154606846Y-78479847D01*
X154979100Y-78728579D01*
X154979100Y-90697368D01*
X154577168Y-91099300D01*
X151464600Y-91099300D01*
X151030254Y-91185697D01*
X150662034Y-91431734D01*
X149592740Y-92501028D01*
X149592740Y-90833600D01*
X149548462Y-90598283D01*
X149409390Y-90382159D01*
X149197190Y-90237169D01*
X148945300Y-90186160D01*
X148730300Y-90186160D01*
X148730300Y-87198600D01*
X153400300Y-87198600D01*
X153400300Y-79628600D01*
X148730300Y-79628600D01*
X148730300Y-87198600D01*
X148730300Y-90186160D01*
X147245300Y-90186160D01*
X147009983Y-90230438D01*
X146793859Y-90369510D01*
X146648869Y-90581710D01*
X146597860Y-90833600D01*
X146597860Y-92533600D01*
X146642138Y-92768917D01*
X146781210Y-92985041D01*
X146993410Y-93130031D01*
X147060841Y-93143686D01*
X147016153Y-93173546D01*
X146694246Y-93655315D01*
X146581207Y-94223600D01*
X146694246Y-94791885D01*
X147016153Y-95273654D01*
X147345326Y-95493600D01*
X147016153Y-95713546D01*
X146694246Y-96195315D01*
X146581207Y-96763600D01*
X146694246Y-97331885D01*
X147016153Y-97813654D01*
X147497922Y-98135561D01*
X148066207Y-98248600D01*
X148066207Y-100290100D01*
X142053480Y-100290100D01*
X141996245Y-100232865D01*
X141946617Y-100112757D01*
X141683827Y-99849508D01*
X141340299Y-99706862D01*
X140968333Y-99706538D01*
X140624557Y-99848583D01*
X140361308Y-100111373D01*
X140218662Y-100454901D01*
X140218338Y-100826867D01*
X140360383Y-101170643D01*
X140623173Y-101433892D01*
X140744487Y-101484266D01*
X140879820Y-101619600D01*
X140795465Y-101703956D01*
X140675357Y-101753583D01*
X140412108Y-102016373D01*
X140269462Y-102359901D01*
X140269138Y-102731867D01*
X140411183Y-103075643D01*
X140673973Y-103338892D01*
X141017501Y-103481538D01*
X141389467Y-103481862D01*
X141733243Y-103339817D01*
X141996492Y-103077027D01*
X142046866Y-102955714D01*
X142205879Y-102796700D01*
X150286521Y-102796700D01*
X153171700Y-105681880D01*
X153171700Y-110469478D01*
X153121862Y-110589501D01*
X153121538Y-110961467D01*
X153263583Y-111305243D01*
X153526373Y-111568492D01*
X153869901Y-111711138D01*
X154241867Y-111711462D01*
X154241867Y-113777500D01*
X146219080Y-113777500D01*
X146089800Y-113648221D01*
X146089800Y-111257179D01*
X146122341Y-111224638D01*
X146134973Y-111216198D01*
X146198890Y-111173490D01*
X146616935Y-110755445D01*
X146737043Y-110705817D01*
X147000292Y-110443027D01*
X147142938Y-110099499D01*
X147143262Y-109727533D01*
X147001217Y-109383757D01*
X146738427Y-109120508D01*
X146394899Y-108977862D01*
X146022933Y-108977538D01*
X145679157Y-109119583D01*
X145415908Y-109382373D01*
X145365534Y-109503687D01*
X145089955Y-109779265D01*
X145047043Y-109796996D01*
X144921912Y-109921909D01*
X144921910Y-109921910D01*
X144921909Y-109921912D01*
X144797871Y-110045733D01*
X144797717Y-110046103D01*
X144579010Y-110264810D01*
X144535699Y-110329630D01*
X144387167Y-110551925D01*
X144375990Y-110608116D01*
X144319799Y-110890600D01*
X144319800Y-110890605D01*
X144319800Y-114014795D01*
X144319799Y-114014800D01*
X144373646Y-114285500D01*
X143797122Y-114285500D01*
X143677099Y-114235662D01*
X143305133Y-114235338D01*
X142961357Y-114377383D01*
X142698108Y-114640173D01*
X142555462Y-114983701D01*
X142555138Y-115355667D01*
X142593243Y-115447889D01*
X140572400Y-113427046D01*
X140572400Y-107871554D01*
X141817454Y-106626500D01*
X145349212Y-106626500D01*
X145483297Y-106653317D01*
X145605573Y-106653445D01*
X145725500Y-106677300D01*
X146614500Y-106677300D01*
X146641811Y-106671868D01*
X146669335Y-106676082D01*
X147455193Y-106641155D01*
X147784930Y-106626500D01*
X149661298Y-106626500D01*
X149748686Y-106684891D01*
X150221300Y-106778900D01*
X150693914Y-106684891D01*
X151094577Y-106417177D01*
X151362291Y-106016514D01*
X151456300Y-105543900D01*
X151362291Y-105071286D01*
X151094577Y-104670623D01*
X150942177Y-104518223D01*
X150541514Y-104250509D01*
X150068900Y-104156500D01*
X147757500Y-104156500D01*
X147730190Y-104161932D01*
X147702666Y-104157718D01*
X147345523Y-104173591D01*
X146587070Y-104207300D01*
X145847788Y-104207300D01*
X145713704Y-104180483D01*
X145591427Y-104180355D01*
X145471500Y-104156500D01*
X141305900Y-104156500D01*
X140833286Y-104250509D01*
X140432623Y-104518223D01*
X139391050Y-105559796D01*
X139391050Y-98088600D01*
X139856610Y-98088600D01*
X140089999Y-97991927D01*
X140268627Y-97813298D01*
X140365300Y-97579909D01*
X140365300Y-96989350D01*
X140206550Y-96830600D01*
X139232300Y-96830600D01*
X139232300Y-97929850D01*
X139391050Y-98088600D01*
X139391050Y-105559796D01*
X138464123Y-106486723D01*
X138353990Y-106651549D01*
X138353990Y-98088600D01*
X138819550Y-98088600D01*
X138978300Y-97929850D01*
X138978300Y-96830600D01*
X138004050Y-96830600D01*
X138004050Y-96576600D01*
X138978300Y-96576600D01*
X138978300Y-96556600D01*
X139232300Y-96556600D01*
X139232300Y-96576600D01*
X140206550Y-96576600D01*
X140365300Y-96417850D01*
X140365300Y-95827291D01*
X140268627Y-95593902D01*
X140127390Y-95452664D01*
X140181741Y-95417690D01*
X140326731Y-95205490D01*
X140377740Y-94953600D01*
X140377740Y-93453600D01*
X140333462Y-93218283D01*
X140240300Y-93073505D01*
X140240300Y-92403600D01*
X140153903Y-91969254D01*
X139907866Y-91601034D01*
X139835300Y-91528468D01*
X139835300Y-80067693D01*
X140403585Y-79954654D01*
X140885354Y-79632747D01*
X141105300Y-79303574D01*
X141325246Y-79632747D01*
X141807015Y-79954654D01*
X142375300Y-80067693D01*
X142943585Y-79954654D01*
X143425354Y-79632747D01*
X143747261Y-79150978D01*
X143860300Y-78582693D01*
X143860300Y-78524507D01*
X143747261Y-77956222D01*
X143425354Y-77474453D01*
X142943585Y-77152546D01*
X142375300Y-77039507D01*
X141807015Y-77152546D01*
X141325246Y-77474453D01*
X141105300Y-77803626D01*
X140885354Y-77474453D01*
X140403585Y-77152546D01*
X139835300Y-77039507D01*
X139267015Y-77152546D01*
X138785246Y-77474453D01*
X138755897Y-77518377D01*
X138683627Y-77343902D01*
X138504999Y-77165273D01*
X138271610Y-77068600D01*
X137581050Y-77068600D01*
X137422300Y-77227350D01*
X137422300Y-78426600D01*
X137442300Y-78426600D01*
X137442300Y-78680600D01*
X137422300Y-78680600D01*
X137422300Y-79879850D01*
X137581050Y-80038600D01*
X138271610Y-80038600D01*
X138504999Y-79941927D01*
X138683627Y-79763298D01*
X138755897Y-79588823D01*
X138785246Y-79632747D01*
X139267015Y-79954654D01*
X139835300Y-80067693D01*
X139835300Y-91528468D01*
X139777866Y-91471034D01*
X139409645Y-91224997D01*
X138975300Y-91138600D01*
X138540955Y-91224997D01*
X138501050Y-91251660D01*
X138501050Y-91038600D01*
X139191609Y-91038600D01*
X139424998Y-90941927D01*
X139603627Y-90763299D01*
X139700300Y-90529910D01*
X139700300Y-89839350D01*
X139541550Y-89680600D01*
X138342300Y-89680600D01*
X138342300Y-90879850D01*
X138501050Y-91038600D01*
X138501050Y-91251660D01*
X138172734Y-91471034D01*
X137926697Y-91839255D01*
X137840300Y-92273600D01*
X137926697Y-92707945D01*
X137970300Y-92773202D01*
X137970300Y-93075214D01*
X137883869Y-93201710D01*
X137832860Y-93453600D01*
X137832860Y-94953600D01*
X137877138Y-95188917D01*
X138016210Y-95405041D01*
X138084306Y-95451569D01*
X137941973Y-95593902D01*
X137845300Y-95827291D01*
X137845300Y-96417850D01*
X138004050Y-96576600D01*
X138004050Y-96830600D01*
X137845300Y-96989350D01*
X137845300Y-97579909D01*
X137941973Y-97813298D01*
X138120601Y-97991927D01*
X138353990Y-98088600D01*
X138353990Y-106651549D01*
X138305766Y-106723722D01*
X138300131Y-106710085D01*
X137910864Y-106320139D01*
X137402002Y-106108841D01*
X137238991Y-106108699D01*
X137238991Y-91038600D01*
X137929550Y-91038600D01*
X138088300Y-90879850D01*
X138088300Y-89680600D01*
X136889050Y-89680600D01*
X136889050Y-89426600D01*
X138088300Y-89426600D01*
X138088300Y-89406600D01*
X138342300Y-89406600D01*
X138342300Y-89426600D01*
X139541550Y-89426600D01*
X139700300Y-89267850D01*
X139700300Y-88577290D01*
X139603627Y-88343901D01*
X139424998Y-88165273D01*
X139250523Y-88093003D01*
X139294447Y-88063654D01*
X139616354Y-87581885D01*
X139729393Y-87013600D01*
X139616354Y-86445315D01*
X139294447Y-85963546D01*
X138812678Y-85641639D01*
X138244393Y-85528600D01*
X138186207Y-85528600D01*
X137617922Y-85641639D01*
X137136153Y-85963546D01*
X136814246Y-86445315D01*
X136701207Y-87013600D01*
X136814246Y-87581885D01*
X137136153Y-88063654D01*
X137180077Y-88093003D01*
X137005602Y-88165273D01*
X136826973Y-88343901D01*
X136730300Y-88577290D01*
X136730300Y-89267850D01*
X136889050Y-89426600D01*
X136889050Y-89680600D01*
X136730300Y-89839350D01*
X136730300Y-90529910D01*
X136826973Y-90763299D01*
X137005602Y-90941927D01*
X137238991Y-91038600D01*
X137238991Y-106108699D01*
X136851015Y-106108360D01*
X136341785Y-106318769D01*
X136023000Y-106636999D01*
X136023000Y-79879326D01*
X136085601Y-79941927D01*
X136318990Y-80038600D01*
X137009550Y-80038600D01*
X137168300Y-79879850D01*
X137168300Y-78680600D01*
X137148300Y-78680600D01*
X137148300Y-78426600D01*
X137168300Y-78426600D01*
X137168300Y-77227350D01*
X137009550Y-77068600D01*
X136318990Y-77068600D01*
X136085601Y-77165273D01*
X136023000Y-77227874D01*
X136023000Y-72411300D01*
X165727600Y-72411300D01*
X165727600Y-73875175D01*
X165553399Y-73700973D01*
X165320010Y-73604300D01*
X164629450Y-73604300D01*
X164470700Y-73763050D01*
X164470700Y-74962300D01*
X164490700Y-74962300D01*
X164490700Y-75216300D01*
X164470700Y-75216300D01*
X164470700Y-76415550D01*
X164629450Y-76574300D01*
X165320010Y-76574300D01*
X165553399Y-76477627D01*
X165727600Y-76303425D01*
X165727600Y-114997775D01*
X165553399Y-114823573D01*
X165320010Y-114726900D01*
X164629450Y-114726900D01*
X164470700Y-114885650D01*
X164470700Y-116084900D01*
X164490700Y-116084900D01*
X164490700Y-116338900D01*
X164470700Y-116338900D01*
X164470700Y-117538150D01*
X164629450Y-117696900D01*
X165320010Y-117696900D01*
X165553399Y-117600227D01*
X165727600Y-117426025D01*
X165727600Y-126995900D01*
X161803700Y-126995900D01*
X161803700Y-117725993D01*
X162371985Y-117612954D01*
X162853754Y-117291047D01*
X162883103Y-117247123D01*
X162955373Y-117421598D01*
X163134001Y-117600227D01*
X163367390Y-117696900D01*
X164057950Y-117696900D01*
X164216700Y-117538150D01*
X164216700Y-116338900D01*
X164196700Y-116338900D01*
X164196700Y-116084900D01*
X164216700Y-116084900D01*
X164216700Y-114885650D01*
X164057950Y-114726900D01*
X163367390Y-114726900D01*
X163201992Y-114795410D01*
X163201992Y-106096386D01*
X163726458Y-105850083D01*
X164116745Y-105421824D01*
X164286576Y-105011790D01*
X164165255Y-104781900D01*
X162972100Y-104781900D01*
X162972100Y-105975719D01*
X163201992Y-106096386D01*
X163201992Y-114795410D01*
X163134001Y-114823573D01*
X162955373Y-115002202D01*
X162883103Y-115176677D01*
X162853754Y-115132753D01*
X162488208Y-114888504D01*
X162488208Y-106096386D01*
X162718100Y-105975719D01*
X162718100Y-104781900D01*
X161524945Y-104781900D01*
X161524945Y-104527900D01*
X162718100Y-104527900D01*
X162718100Y-104507900D01*
X162972100Y-104507900D01*
X162972100Y-104527900D01*
X164165255Y-104527900D01*
X164286576Y-104298010D01*
X164116745Y-103887976D01*
X163840599Y-103584963D01*
X163930417Y-103568062D01*
X164146541Y-103428990D01*
X164291531Y-103216790D01*
X164342540Y-102964900D01*
X164342540Y-101264900D01*
X164298262Y-101029583D01*
X164159190Y-100813459D01*
X163946990Y-100668469D01*
X163695100Y-100617460D01*
X161995100Y-100617460D01*
X161982400Y-100619849D01*
X161982400Y-99776940D01*
X163682400Y-99776940D01*
X163917717Y-99732662D01*
X164133841Y-99593590D01*
X164278831Y-99381390D01*
X164329840Y-99129500D01*
X164329840Y-97429500D01*
X164285562Y-97194183D01*
X164146490Y-96978059D01*
X163934290Y-96833069D01*
X163866859Y-96819414D01*
X163911547Y-96789554D01*
X164233454Y-96307785D01*
X164346493Y-95739500D01*
X164233454Y-95171215D01*
X163911547Y-94689446D01*
X163429778Y-94367539D01*
X162861493Y-94254500D01*
X162803307Y-94254500D01*
X162235022Y-94367539D01*
X162079407Y-94471517D01*
X162079407Y-90811000D01*
X162137593Y-90811000D01*
X162705878Y-90697961D01*
X163187647Y-90376054D01*
X163509554Y-89894285D01*
X163622593Y-89326000D01*
X163509554Y-88757715D01*
X163187647Y-88275946D01*
X162858474Y-88056000D01*
X163187647Y-87836054D01*
X163509554Y-87354285D01*
X163622593Y-86786000D01*
X163509554Y-86217715D01*
X163187647Y-85735946D01*
X162846947Y-85508298D01*
X162989858Y-85441183D01*
X163380145Y-85012924D01*
X163549976Y-84602890D01*
X163428655Y-84373000D01*
X162235500Y-84373000D01*
X162235500Y-84393000D01*
X161981500Y-84393000D01*
X161981500Y-84373000D01*
X160788345Y-84373000D01*
X160667024Y-84602890D01*
X160836855Y-85012924D01*
X161227142Y-85441183D01*
X161370053Y-85508298D01*
X161029353Y-85735946D01*
X160707446Y-86217715D01*
X160594407Y-86786000D01*
X160707446Y-87354285D01*
X161029353Y-87836054D01*
X161358526Y-88056000D01*
X161029353Y-88275946D01*
X160707446Y-88757715D01*
X160594407Y-89326000D01*
X160707446Y-89894285D01*
X161029353Y-90376054D01*
X161511122Y-90697961D01*
X162079407Y-90811000D01*
X162079407Y-94471517D01*
X161753253Y-94689446D01*
X161431346Y-95171215D01*
X161318307Y-95739500D01*
X161431346Y-96307785D01*
X161753253Y-96789554D01*
X161794852Y-96817350D01*
X161747083Y-96826338D01*
X161530959Y-96965410D01*
X161385969Y-97177610D01*
X161334960Y-97429500D01*
X161334960Y-99129500D01*
X161379238Y-99364817D01*
X161518310Y-99580941D01*
X161730510Y-99725931D01*
X161982400Y-99776940D01*
X161982400Y-100619849D01*
X161759783Y-100661738D01*
X161543659Y-100800810D01*
X161398669Y-101013010D01*
X161347660Y-101264900D01*
X161347660Y-102964900D01*
X161391938Y-103200217D01*
X161531010Y-103416341D01*
X161743210Y-103561331D01*
X161851207Y-103583201D01*
X161573455Y-103887976D01*
X161403624Y-104298010D01*
X161524945Y-104527900D01*
X161524945Y-104781900D01*
X161403624Y-105011790D01*
X161573455Y-105421824D01*
X161963742Y-105850083D01*
X162488208Y-106096386D01*
X162488208Y-114888504D01*
X162371985Y-114810846D01*
X161803700Y-114697807D01*
X161235415Y-114810846D01*
X160753646Y-115132753D01*
X160431739Y-115614522D01*
X160318700Y-116182807D01*
X160318700Y-116240993D01*
X160431739Y-116809278D01*
X160753646Y-117291047D01*
X161235415Y-117612954D01*
X161803700Y-117725993D01*
X161803700Y-126995900D01*
X156430740Y-126995900D01*
X156430740Y-123299700D01*
X156386462Y-123064383D01*
X156247390Y-122848259D01*
X156035190Y-122703269D01*
X155783300Y-122652260D01*
X153803300Y-122652260D01*
X153567983Y-122696538D01*
X153351859Y-122835610D01*
X153248622Y-122986703D01*
X152875161Y-122737165D01*
X152253300Y-122613469D01*
X151631439Y-122737165D01*
X151104251Y-123089420D01*
X150983300Y-123270436D01*
X150862349Y-123089420D01*
X150335161Y-122737165D01*
X149713300Y-122613469D01*
X149091439Y-122737165D01*
X148564251Y-123089420D01*
X148211996Y-123616608D01*
X148088300Y-124238469D01*
X148088300Y-126320931D01*
X148211996Y-126942792D01*
X148247482Y-126995900D01*
X136023000Y-126995900D01*
X136023000Y-108349773D01*
X136339736Y-108667061D01*
M02*
