G04 #@! TF.FileFunction,Soldermask,Bot*
%FSLAX46Y46*%
G04 Gerber Fmt 4.6, Leading zero omitted, Abs format (unit mm)*
G04 Created by KiCad (PCBNEW 4.0.6) date 05/22/17 17:46:35*
%MOMM*%
%LPD*%
G01*
G04 APERTURE LIST*
%ADD10C,0.100000*%
%ADD11R,2.432000X2.432000*%
%ADD12O,2.432000X2.432000*%
%ADD13C,1.900000*%
%ADD14O,1.299160X1.901140*%
%ADD15C,1.400000*%
%ADD16R,2.635200X2.635200*%
%ADD17R,2.127200X2.432000*%
%ADD18O,2.127200X2.432000*%
%ADD19R,2.432000X2.127200*%
%ADD20O,2.432000X2.127200*%
%ADD21R,2.100000X2.100000*%
%ADD22O,2.100000X2.100000*%
%ADD23R,2.380000X4.360000*%
%ADD24O,2.380000X4.360000*%
%ADD25R,1.650000X1.900000*%
G04 APERTURE END LIST*
D10*
D11*
X106810000Y-51200000D03*
D12*
X106810000Y-48660000D03*
D13*
X90250000Y-48030000D03*
X123280000Y-44780000D03*
X134110000Y-46770000D03*
X135860000Y-61700000D03*
X158860000Y-42710000D03*
X147880000Y-52700000D03*
D14*
X122470000Y-57120000D03*
X123740000Y-57120000D03*
X121200000Y-57120000D03*
D15*
X75990000Y-46080000D03*
X159820000Y-38000000D03*
X138860000Y-64900000D03*
X123800000Y-54670000D03*
X130970000Y-55130000D03*
X136320000Y-58280000D03*
X101230000Y-43400000D03*
D16*
X88470300Y-58369900D03*
D17*
X109460000Y-37240000D03*
D18*
X106920000Y-37240000D03*
X104380000Y-37240000D03*
X101840000Y-37240000D03*
D17*
X145990000Y-37080000D03*
D18*
X143450000Y-37080000D03*
X140910000Y-37080000D03*
X138370000Y-37080000D03*
D17*
X93120000Y-59430000D03*
D18*
X95660000Y-59430000D03*
X98200000Y-59430000D03*
D19*
X117220000Y-48680000D03*
D20*
X117220000Y-51220000D03*
X117220000Y-53760000D03*
D11*
X110550000Y-51230000D03*
D12*
X110550000Y-48690000D03*
D11*
X148090000Y-46390000D03*
D12*
X145550000Y-46390000D03*
D11*
X148110000Y-49970000D03*
D12*
X145570000Y-49970000D03*
D11*
X132860000Y-60320000D03*
D12*
X130320000Y-60320000D03*
D11*
X102820000Y-55430000D03*
D12*
X102820000Y-57970000D03*
D11*
X161500000Y-46470000D03*
D12*
X161500000Y-49010000D03*
D11*
X127460000Y-52220000D03*
D12*
X124920000Y-52220000D03*
D11*
X91292240Y-54191600D03*
D12*
X88752240Y-54191600D03*
D11*
X91373520Y-50290160D03*
D12*
X88833520Y-50290160D03*
D11*
X149290000Y-55550000D03*
D12*
X149290000Y-58090000D03*
D11*
X106680000Y-63120000D03*
D12*
X106680000Y-65660000D03*
D11*
X160260000Y-53390000D03*
D12*
X160260000Y-55930000D03*
D11*
X76793920Y-53033360D03*
D12*
X76793920Y-50493360D03*
D11*
X113540000Y-42370000D03*
D12*
X113540000Y-39830000D03*
D11*
X96410000Y-36940000D03*
D12*
X96410000Y-39480000D03*
D19*
X75360000Y-43310000D03*
D20*
X75360000Y-40770000D03*
X75360000Y-38230000D03*
X75360000Y-35690000D03*
D17*
X136100000Y-66810000D03*
D18*
X133560000Y-66810000D03*
X131020000Y-66810000D03*
X128480000Y-66810000D03*
D21*
X131944300Y-105351400D03*
D22*
X131944300Y-102811400D03*
D21*
X131944300Y-90301900D03*
D22*
X131944300Y-87761900D03*
D21*
X99102100Y-110901300D03*
D22*
X96562100Y-110901300D03*
D21*
X99076700Y-107180200D03*
D22*
X96536700Y-107180200D03*
D21*
X131779200Y-110939400D03*
D22*
X131779200Y-113479400D03*
D13*
X116348700Y-94721500D03*
X107839700Y-91165500D03*
X131944300Y-99814200D03*
X105312400Y-91152800D03*
X119739600Y-103370200D03*
X104893300Y-108374000D03*
D21*
X99089400Y-103344800D03*
D22*
X99089400Y-100804800D03*
D21*
X80966500Y-91330600D03*
D22*
X78426500Y-91330600D03*
X75886500Y-91330600D03*
D21*
X76534200Y-109986900D03*
D22*
X76534200Y-107446900D03*
D21*
X112348200Y-91000400D03*
D22*
X114888200Y-91000400D03*
D21*
X131944300Y-93997600D03*
D22*
X131944300Y-96537600D03*
D21*
X126267400Y-114825600D03*
D22*
X126267400Y-112285600D03*
D23*
X154793300Y-125279700D03*
D24*
X152253300Y-125279700D03*
X149713300Y-125279700D03*
D21*
X164343700Y-116211900D03*
D22*
X161803700Y-116211900D03*
D21*
X164343700Y-75089300D03*
D22*
X161803700Y-75089300D03*
D21*
X162832400Y-98279500D03*
D22*
X162832400Y-95739500D03*
D21*
X162108500Y-79166000D03*
D22*
X162108500Y-81706000D03*
X162108500Y-84246000D03*
X162108500Y-86786000D03*
X162108500Y-89326000D03*
D25*
X139105300Y-94203600D03*
X139105300Y-96703600D03*
D21*
X148095300Y-91683600D03*
D22*
X148095300Y-94223600D03*
X148095300Y-96763600D03*
D21*
X158196900Y-77400700D03*
D22*
X155656900Y-77400700D03*
D21*
X138215300Y-89553600D03*
D22*
X138215300Y-87013600D03*
D21*
X162845100Y-102114900D03*
D22*
X162845100Y-104654900D03*
D21*
X137295300Y-78553600D03*
D22*
X139835300Y-78553600D03*
X142375300Y-78553600D03*
D21*
X151821500Y-96768200D03*
D22*
X154361500Y-96768200D03*
X156901500Y-96768200D03*
D13*
X137125300Y-107493600D03*
M02*
