G04 #@! TF.FileFunction,Other,Fab,Bot*
%FSLAX46Y46*%
G04 Gerber Fmt 4.6, Leading zero omitted, Abs format (unit mm)*
G04 Created by KiCad (PCBNEW 4.0.6) date 05/22/17 17:46:35*
%MOMM*%
%LPD*%
G01*
G04 APERTURE LIST*
%ADD10C,0.100000*%
%ADD11C,0.150000*%
%ADD12C,0.125000*%
G04 APERTURE END LIST*
D10*
X139725300Y-94453600D02*
X138485300Y-94453600D01*
X139725300Y-96453600D02*
X139725300Y-94453600D01*
X138485300Y-96453600D02*
X139725300Y-96453600D01*
X138485300Y-94453600D02*
X138485300Y-96453600D01*
D11*
X141307681Y-94858362D02*
X141307681Y-94286933D01*
X141307681Y-94572647D02*
X140307681Y-94572647D01*
X140450538Y-94477409D01*
X140545776Y-94382171D01*
X140593395Y-94286933D01*
X140641014Y-95715505D02*
X141307681Y-95715505D01*
X140641014Y-95286933D02*
X141164824Y-95286933D01*
X141260062Y-95334552D01*
X141307681Y-95429790D01*
X141307681Y-95572648D01*
X141260062Y-95667886D01*
X141212443Y-95715505D01*
X140783871Y-96525029D02*
X140783871Y-96191695D01*
X141307681Y-96191695D02*
X140307681Y-96191695D01*
X140307681Y-96667886D01*
D12*
X139182271Y-95144872D02*
X139206081Y-95121062D01*
X139229890Y-95049634D01*
X139229890Y-95002015D01*
X139206081Y-94930586D01*
X139158462Y-94882967D01*
X139110843Y-94859158D01*
X139015605Y-94835348D01*
X138944176Y-94835348D01*
X138848938Y-94859158D01*
X138801319Y-94882967D01*
X138753700Y-94930586D01*
X138729890Y-95002015D01*
X138729890Y-95049634D01*
X138753700Y-95121062D01*
X138777510Y-95144872D01*
X139229890Y-95621062D02*
X139229890Y-95335348D01*
X139229890Y-95478205D02*
X138729890Y-95478205D01*
X138801319Y-95430586D01*
X138848938Y-95382967D01*
X138872748Y-95335348D01*
X138896557Y-96049633D02*
X139229890Y-96049633D01*
X138706081Y-95930586D02*
X139063224Y-95811538D01*
X139063224Y-96121062D01*
M02*
