G04 #@! TF.FileFunction,Paste,Top*
%FSLAX46Y46*%
G04 Gerber Fmt 4.6, Leading zero omitted, Abs format (unit mm)*
G04 Created by KiCad (PCBNEW 4.0.6) date 05/22/17 17:46:35*
%MOMM*%
%LPD*%
G01*
G04 APERTURE LIST*
%ADD10C,0.100000*%
%ADD11R,1.550000X0.600000*%
%ADD12R,1.250000X1.500000*%
%ADD13R,1.600000X1.400000*%
%ADD14R,1.400000X1.600000*%
%ADD15R,1.300000X1.500000*%
%ADD16R,1.500000X1.300000*%
%ADD17R,1.450000X0.450000*%
%ADD18R,0.300000X1.400000*%
%ADD19R,1.400000X0.300000*%
%ADD20R,1.000000X1.000000*%
%ADD21R,1.500000X1.250000*%
%ADD22R,1.600000X2.000000*%
%ADD23R,2.000000X1.600000*%
%ADD24R,0.400000X1.200000*%
%ADD25R,1.800000X1.100000*%
%ADD26R,0.450000X1.450000*%
%ADD27R,2.400000X3.325000*%
%ADD28R,1.200000X1.200000*%
%ADD29R,1.600000X0.550000*%
%ADD30R,0.550000X1.600000*%
%ADD31R,0.600000X1.500000*%
%ADD32R,0.250000X0.500000*%
%ADD33R,0.500000X0.250000*%
%ADD34R,2.500000X2.500000*%
%ADD35R,3.325000X2.400000*%
%ADD36R,0.600000X1.550000*%
G04 APERTURE END LIST*
D10*
D11*
X85400000Y-37815000D03*
X85400000Y-39085000D03*
X85400000Y-40355000D03*
X85400000Y-41625000D03*
X90800000Y-41625000D03*
X90800000Y-40355000D03*
X90800000Y-39085000D03*
X90800000Y-37815000D03*
D12*
X140790000Y-54470000D03*
X140790000Y-51970000D03*
D13*
X81934560Y-50673520D03*
X81934560Y-52873520D03*
X84434560Y-50673520D03*
X84434560Y-52873520D03*
D14*
X120910000Y-40150000D03*
X118710000Y-40150000D03*
X120910000Y-42650000D03*
X118710000Y-42650000D03*
D15*
X95440000Y-66580000D03*
X95440000Y-63880000D03*
D16*
X81380000Y-45070000D03*
X78680000Y-45070000D03*
X150070000Y-41060000D03*
X152770000Y-41060000D03*
X77320000Y-47430000D03*
X80020000Y-47430000D03*
X152850000Y-38870000D03*
X150150000Y-38870000D03*
X100870000Y-66560000D03*
X98170000Y-66560000D03*
D11*
X151530000Y-48655000D03*
X151530000Y-49925000D03*
X151530000Y-51195000D03*
X151530000Y-52465000D03*
X156930000Y-52465000D03*
X156930000Y-51195000D03*
X156930000Y-49925000D03*
X156930000Y-48655000D03*
D17*
X145120000Y-59595000D03*
X145120000Y-58945000D03*
X145120000Y-58295000D03*
X145120000Y-57645000D03*
X140720000Y-57645000D03*
X140720000Y-58295000D03*
X140720000Y-58945000D03*
X140720000Y-59595000D03*
D18*
X104130000Y-45090000D03*
X104630000Y-45090000D03*
X105130000Y-45090000D03*
X105630000Y-45090000D03*
X106130000Y-45090000D03*
X106130000Y-40690000D03*
X105630000Y-40690000D03*
X105130000Y-40690000D03*
X104630000Y-40690000D03*
X104130000Y-40690000D03*
X96742320Y-49573520D03*
X96242320Y-49573520D03*
X95742320Y-49573520D03*
X95242320Y-49573520D03*
X94742320Y-49573520D03*
X94742320Y-53973520D03*
X95242320Y-53973520D03*
X95742320Y-53973520D03*
X96242320Y-53973520D03*
X96742320Y-53973520D03*
X139180000Y-44780000D03*
X139680000Y-44780000D03*
X140180000Y-44780000D03*
X140680000Y-44780000D03*
X141180000Y-44780000D03*
X141180000Y-40380000D03*
X140680000Y-40380000D03*
X140180000Y-40380000D03*
X139680000Y-40380000D03*
X139180000Y-40380000D03*
D19*
X124690000Y-48190000D03*
X124690000Y-47690000D03*
X124690000Y-47190000D03*
X124690000Y-46690000D03*
X124690000Y-46190000D03*
X120290000Y-46190000D03*
X120290000Y-46690000D03*
X120290000Y-47190000D03*
X120290000Y-47690000D03*
X120290000Y-48190000D03*
D20*
X136740000Y-48510000D03*
X134740000Y-48510000D03*
X136610000Y-56470000D03*
X134610000Y-56470000D03*
X126510000Y-55370000D03*
X126510000Y-57370000D03*
D11*
X133070000Y-50615000D03*
X133070000Y-51885000D03*
X133070000Y-53155000D03*
X133070000Y-54425000D03*
X138470000Y-54425000D03*
X138470000Y-53155000D03*
X138470000Y-51885000D03*
X138470000Y-50615000D03*
D20*
X129450000Y-56980000D03*
X131450000Y-56980000D03*
D16*
X84562500Y-55293960D03*
X81862500Y-55293960D03*
D15*
X116450000Y-42940000D03*
X116450000Y-40240000D03*
D12*
X108150000Y-44200000D03*
X108150000Y-41700000D03*
D21*
X103740000Y-61330000D03*
X101240000Y-61330000D03*
X95020000Y-47080000D03*
X92520000Y-47080000D03*
D12*
X109660000Y-64770000D03*
X109660000Y-62270000D03*
X103760000Y-47560000D03*
X103760000Y-50060000D03*
X101650000Y-47170000D03*
X101650000Y-49670000D03*
X97420000Y-46980000D03*
X97420000Y-44480000D03*
X98920000Y-54030000D03*
X98920000Y-56530000D03*
X142990000Y-43860000D03*
X142990000Y-41360000D03*
D21*
X155070000Y-54680000D03*
X152570000Y-54680000D03*
X152280000Y-46620000D03*
X154780000Y-46620000D03*
D12*
X129040000Y-44970000D03*
X129040000Y-42470000D03*
X126880000Y-44960000D03*
X126880000Y-42460000D03*
X137190000Y-43360000D03*
X137190000Y-40860000D03*
D22*
X134920000Y-43830000D03*
X134920000Y-39830000D03*
D21*
X126860000Y-47150000D03*
X129360000Y-47150000D03*
X129360000Y-49270000D03*
X126860000Y-49270000D03*
X82137760Y-48339440D03*
X84637760Y-48339440D03*
D12*
X123240000Y-40200000D03*
X123240000Y-42700000D03*
X121830000Y-50580000D03*
X121830000Y-53080000D03*
D21*
X143430000Y-55780000D03*
X145930000Y-55780000D03*
D12*
X78410000Y-41340000D03*
X78410000Y-38840000D03*
X80600000Y-41340000D03*
X80600000Y-38840000D03*
X116490000Y-57220000D03*
X116490000Y-59720000D03*
X118660000Y-57230000D03*
X118660000Y-59730000D03*
D21*
X123630000Y-60450000D03*
X121130000Y-60450000D03*
D12*
X82820000Y-41320000D03*
X82820000Y-38820000D03*
D23*
X99430000Y-63700000D03*
X103430000Y-63700000D03*
D22*
X112060000Y-66490000D03*
X112060000Y-62490000D03*
D21*
X95020000Y-44930000D03*
X92520000Y-44930000D03*
D22*
X93270000Y-41340000D03*
X93270000Y-37340000D03*
D23*
X152530000Y-57040000D03*
X156530000Y-57040000D03*
X151630000Y-44190000D03*
X155630000Y-44190000D03*
D21*
X88230000Y-43670000D03*
X85730000Y-43670000D03*
D16*
X83160000Y-35640000D03*
X85860000Y-35640000D03*
X88220000Y-35660000D03*
X90920000Y-35660000D03*
D24*
X111549800Y-96745200D03*
X110899800Y-96745200D03*
X110249800Y-96745200D03*
X109599800Y-96745200D03*
X108949800Y-96745200D03*
X108299800Y-96745200D03*
X107649800Y-96745200D03*
X106999800Y-96745200D03*
X106999800Y-103645200D03*
X107649800Y-103645200D03*
X108299800Y-103645200D03*
X108949800Y-103645200D03*
X109599800Y-103645200D03*
X110249800Y-103645200D03*
X110899800Y-103645200D03*
X111549800Y-103645200D03*
D21*
X111555400Y-93730900D03*
X114055400Y-93730900D03*
D12*
X127969200Y-95895300D03*
X127969200Y-93395300D03*
X126026100Y-95895300D03*
X126026100Y-93395300D03*
X122266900Y-92186900D03*
X122266900Y-89686900D03*
X76077000Y-100695900D03*
X76077000Y-98195900D03*
D21*
X90206700Y-98925200D03*
X92706700Y-98925200D03*
X90206700Y-100703200D03*
X92706700Y-100703200D03*
D12*
X95882650Y-94684350D03*
X95882650Y-97184350D03*
X95933450Y-89170650D03*
X95933450Y-86670650D03*
X129010600Y-110972100D03*
X129010600Y-113472100D03*
X109554200Y-110426000D03*
X109554200Y-112926000D03*
X99813300Y-94561800D03*
X99813300Y-92061800D03*
D21*
X110042200Y-106596000D03*
X107542200Y-106596000D03*
D16*
X124955500Y-105364100D03*
X127655500Y-105364100D03*
X127617400Y-103471800D03*
X124917400Y-103471800D03*
X104897100Y-110418700D03*
X102197100Y-110418700D03*
D15*
X102112000Y-104458600D03*
X102112000Y-107158600D03*
D16*
X118079700Y-96931300D03*
X115379700Y-96931300D03*
X115379700Y-98925200D03*
X118079700Y-98925200D03*
X124942800Y-107269100D03*
X127642800Y-107269100D03*
X114744700Y-105275200D03*
X117444700Y-105275200D03*
X117432000Y-103319400D03*
X114732000Y-103319400D03*
D15*
X125645100Y-90293000D03*
X125645100Y-87593000D03*
X91266200Y-105373000D03*
X91266200Y-108073000D03*
D25*
X87508200Y-108060700D03*
X81308200Y-108060700D03*
X81308200Y-111760700D03*
X87508200Y-111760700D03*
D11*
X121408400Y-97833000D03*
X121408400Y-99103000D03*
X121408400Y-100373000D03*
X121408400Y-101643000D03*
X126808400Y-101643000D03*
X126808400Y-100373000D03*
X126808400Y-99103000D03*
X126808400Y-97833000D03*
D26*
X118262950Y-92190750D03*
X118912950Y-92190750D03*
X119562950Y-92190750D03*
X120212950Y-92190750D03*
X120212950Y-87790750D03*
X119562950Y-87790750D03*
X118912950Y-87790750D03*
X118262950Y-87790750D03*
D13*
X102320600Y-87741400D03*
X99820600Y-87741400D03*
X102320600Y-89941400D03*
X99820600Y-89941400D03*
D27*
X93050550Y-94670950D03*
X93050550Y-89145950D03*
D21*
X107554900Y-108424800D03*
X110054900Y-108424800D03*
D12*
X102302500Y-92087200D03*
X102302500Y-94587200D03*
D15*
X107560300Y-110427600D03*
X107560300Y-113127600D03*
D11*
X123239700Y-113987400D03*
X123239700Y-112717400D03*
X123239700Y-111447400D03*
X123239700Y-110177400D03*
X117839700Y-110177400D03*
X117839700Y-111447400D03*
X117839700Y-112717400D03*
X117839700Y-113987400D03*
D28*
X104563100Y-113128700D03*
X104563100Y-115328700D03*
D29*
X87223100Y-102995200D03*
X87223100Y-102195200D03*
X87223100Y-101395200D03*
X87223100Y-100595200D03*
X87223100Y-99795200D03*
X87223100Y-98995200D03*
X87223100Y-98195200D03*
X87223100Y-97395200D03*
D30*
X85773100Y-95945200D03*
X84973100Y-95945200D03*
X84173100Y-95945200D03*
X83373100Y-95945200D03*
X82573100Y-95945200D03*
X81773100Y-95945200D03*
X80973100Y-95945200D03*
X80173100Y-95945200D03*
D29*
X78723100Y-97395200D03*
X78723100Y-98195200D03*
X78723100Y-98995200D03*
X78723100Y-99795200D03*
X78723100Y-100595200D03*
X78723100Y-101395200D03*
X78723100Y-102195200D03*
X78723100Y-102995200D03*
D30*
X80173100Y-104445200D03*
X80973100Y-104445200D03*
X81773100Y-104445200D03*
X82573100Y-104445200D03*
X83373100Y-104445200D03*
X84173100Y-104445200D03*
X84973100Y-104445200D03*
X85773100Y-104445200D03*
D22*
X114964400Y-114184000D03*
X114964400Y-110184000D03*
D16*
X120599400Y-115892400D03*
X123299400Y-115892400D03*
X109563100Y-115320900D03*
X112263100Y-115320900D03*
D15*
X112437100Y-113127600D03*
X112437100Y-110427600D03*
D31*
X154793300Y-83285900D03*
X153523300Y-83285900D03*
X152253300Y-83285900D03*
X150983300Y-83285900D03*
X149713300Y-83285900D03*
X148443300Y-83285900D03*
X147173300Y-83285900D03*
X147173300Y-88685900D03*
X148443300Y-88685900D03*
X149713300Y-88685900D03*
X150983300Y-88685900D03*
X152253300Y-88685900D03*
X153523300Y-88685900D03*
X154793300Y-88685900D03*
D16*
X146110300Y-107702900D03*
X143410300Y-107702900D03*
D32*
X150246700Y-110623900D03*
X150746700Y-110623900D03*
X151246700Y-110623900D03*
X151746700Y-110623900D03*
X152246700Y-110623900D03*
D33*
X152996700Y-109873900D03*
D34*
X151246700Y-108873900D03*
D33*
X152996700Y-109373900D03*
X152996700Y-108873900D03*
X152996700Y-108373900D03*
X152996700Y-107873900D03*
D32*
X152246700Y-107123900D03*
X151746700Y-107123900D03*
X151246700Y-107123900D03*
X150746700Y-107123900D03*
X150246700Y-107123900D03*
D33*
X149496700Y-107873900D03*
X149496700Y-108373900D03*
X149496700Y-108873900D03*
X149496700Y-109373900D03*
X149496700Y-109873900D03*
D28*
X162064050Y-121658750D03*
X162064050Y-123858750D03*
D21*
X152705100Y-113265500D03*
X155205100Y-113265500D03*
D12*
X156342700Y-108662700D03*
X156342700Y-111162700D03*
X159416100Y-103836700D03*
X159416100Y-106336700D03*
D21*
X149667900Y-103511900D03*
X147167900Y-103511900D03*
D12*
X144811100Y-103339500D03*
X144811100Y-100839500D03*
X139604100Y-100737900D03*
X139604100Y-103237900D03*
D21*
X146659900Y-113367100D03*
X149159900Y-113367100D03*
D15*
X155555300Y-117833700D03*
X155555300Y-120533700D03*
X146563700Y-117808300D03*
X146563700Y-120508300D03*
X149357700Y-120533700D03*
X149357700Y-117833700D03*
X152710500Y-120508300D03*
X152710500Y-117808300D03*
X158450900Y-120482900D03*
X158450900Y-117782900D03*
X161905300Y-111542100D03*
X161905300Y-108842100D03*
X159492300Y-111415100D03*
X159492300Y-108715100D03*
X156393500Y-106487500D03*
X156393500Y-103787500D03*
D16*
X156542100Y-101454500D03*
X159242100Y-101454500D03*
D15*
X142779100Y-103388700D03*
X142779100Y-100688700D03*
X141610700Y-113116900D03*
X141610700Y-110416900D03*
X143871300Y-110416900D03*
X143871300Y-113116900D03*
X141102700Y-108240100D03*
X141102700Y-105540100D03*
X164077000Y-108905600D03*
X164077000Y-111605600D03*
D16*
X139835300Y-118843600D03*
X142535300Y-118843600D03*
D21*
X141555300Y-86303600D03*
X144055300Y-86303600D03*
D12*
X159822500Y-91352600D03*
X159822500Y-93852600D03*
X151465900Y-75894800D03*
X151465900Y-73394800D03*
X145992200Y-75894800D03*
X145992200Y-73394800D03*
D21*
X154940300Y-80347100D03*
X157440300Y-80347100D03*
D28*
X142305300Y-121353600D03*
X140105300Y-121353600D03*
X137345300Y-82233600D03*
X139545300Y-82233600D03*
D16*
X150161600Y-99828900D03*
X147461600Y-99828900D03*
D15*
X159784400Y-96142100D03*
X159784400Y-98842100D03*
D16*
X162066600Y-92716900D03*
X164766600Y-92716900D03*
X141538300Y-84157100D03*
X138838300Y-84157100D03*
X155195900Y-74517800D03*
X157895900Y-74517800D03*
D35*
X151688400Y-78950100D03*
X146163400Y-78950100D03*
D36*
X144870300Y-88693600D03*
X143600300Y-88693600D03*
X142330300Y-88693600D03*
X141060300Y-88693600D03*
X141060300Y-94093600D03*
X142330300Y-94093600D03*
X143600300Y-94093600D03*
X144870300Y-94093600D03*
D16*
X141595300Y-96183600D03*
X144295300Y-96183600D03*
X142315300Y-98143600D03*
X145015300Y-98143600D03*
D22*
X139125300Y-94333600D03*
X139125300Y-98333600D03*
M02*
