G04 #@! TF.FileFunction,Other,User*
%FSLAX46Y46*%
G04 Gerber Fmt 4.6, Leading zero omitted, Abs format (unit mm)*
G04 Created by KiCad (PCBNEW 4.0.6) date 05/22/17 17:46:35*
%MOMM*%
%LPD*%
G01*
G04 APERTURE LIST*
%ADD10C,0.100000*%
%ADD11C,0.050000*%
G04 APERTURE END LIST*
D10*
D11*
X108560000Y-52950000D02*
X108560000Y-46900000D01*
X105060000Y-52950000D02*
X105060000Y-46900000D01*
X108560000Y-52950000D02*
X105060000Y-52950000D01*
X108560000Y-46900000D02*
X105060000Y-46900000D01*
X84350000Y-36970000D02*
X84350000Y-42470000D01*
X91850000Y-36970000D02*
X91850000Y-42470000D01*
X84350000Y-36970000D02*
X91850000Y-36970000D01*
X84350000Y-42470000D02*
X91850000Y-42470000D01*
X139790000Y-55520000D02*
X139790000Y-50920000D01*
X141790000Y-55520000D02*
X141790000Y-50920000D01*
X139790000Y-55520000D02*
X141790000Y-55520000D01*
X139790000Y-50920000D02*
X141790000Y-50920000D01*
X94440000Y-67630000D02*
X94440000Y-62830000D01*
X96440000Y-67630000D02*
X96440000Y-62830000D01*
X94440000Y-67630000D02*
X96440000Y-67630000D01*
X94440000Y-62830000D02*
X96440000Y-62830000D01*
X82430000Y-46070000D02*
X77630000Y-46070000D01*
X82430000Y-44070000D02*
X77630000Y-44070000D01*
X82430000Y-46070000D02*
X82430000Y-44070000D01*
X77630000Y-46070000D02*
X77630000Y-44070000D01*
X149020000Y-40060000D02*
X153820000Y-40060000D01*
X149020000Y-42060000D02*
X153820000Y-42060000D01*
X149020000Y-40060000D02*
X149020000Y-42060000D01*
X153820000Y-40060000D02*
X153820000Y-42060000D01*
X76270000Y-46430000D02*
X81070000Y-46430000D01*
X76270000Y-48430000D02*
X81070000Y-48430000D01*
X76270000Y-46430000D02*
X76270000Y-48430000D01*
X81070000Y-46430000D02*
X81070000Y-48430000D01*
X153900000Y-39870000D02*
X149100000Y-39870000D01*
X153900000Y-37870000D02*
X149100000Y-37870000D01*
X153900000Y-39870000D02*
X153900000Y-37870000D01*
X149100000Y-39870000D02*
X149100000Y-37870000D01*
X101920000Y-67560000D02*
X97120000Y-67560000D01*
X101920000Y-65560000D02*
X97120000Y-65560000D01*
X101920000Y-67560000D02*
X101920000Y-65560000D01*
X97120000Y-67560000D02*
X97120000Y-65560000D01*
X150480000Y-47810000D02*
X150480000Y-53310000D01*
X157980000Y-47810000D02*
X157980000Y-53310000D01*
X150480000Y-47810000D02*
X157980000Y-47810000D01*
X150480000Y-53310000D02*
X157980000Y-53310000D01*
X146120000Y-60470000D02*
X146120000Y-56770000D01*
X139720000Y-60470000D02*
X139720000Y-56770000D01*
X146120000Y-60470000D02*
X139720000Y-60470000D01*
X146120000Y-56770000D02*
X139720000Y-56770000D01*
X91250000Y-48030000D02*
G75*
G03X91250000Y-48030000I-1000000J0D01*
G01*
X124280000Y-44780000D02*
G75*
G03X124280000Y-44780000I-1000000J0D01*
G01*
X135110000Y-46770000D02*
G75*
G03X135110000Y-46770000I-1000000J0D01*
G01*
X136860000Y-61700000D02*
G75*
G03X136860000Y-61700000I-1000000J0D01*
G01*
X159860000Y-42710000D02*
G75*
G03X159860000Y-42710000I-1000000J0D01*
G01*
X148880000Y-52700000D02*
G75*
G03X148880000Y-52700000I-1000000J0D01*
G01*
X103280000Y-46040000D02*
X106980000Y-46040000D01*
X103280000Y-39740000D02*
X106980000Y-39740000D01*
X103280000Y-46040000D02*
X103280000Y-39740000D01*
X106980000Y-46040000D02*
X106980000Y-39740000D01*
X97592320Y-48623520D02*
X93892320Y-48623520D01*
X97592320Y-54923520D02*
X93892320Y-54923520D01*
X97592320Y-48623520D02*
X97592320Y-54923520D01*
X93892320Y-48623520D02*
X93892320Y-54923520D01*
X138330000Y-45730000D02*
X142030000Y-45730000D01*
X138330000Y-39430000D02*
X142030000Y-39430000D01*
X138330000Y-45730000D02*
X138330000Y-39430000D01*
X142030000Y-45730000D02*
X142030000Y-39430000D01*
X125640000Y-49040000D02*
X125640000Y-45340000D01*
X119340000Y-49040000D02*
X119340000Y-45340000D01*
X125640000Y-49040000D02*
X119340000Y-49040000D01*
X125640000Y-45340000D02*
X119340000Y-45340000D01*
D10*
X137740000Y-49510000D02*
X133740000Y-49510000D01*
X137740000Y-47510000D02*
X133740000Y-47510000D01*
X137740000Y-49510000D02*
X137740000Y-47510000D01*
X133740000Y-49510000D02*
X133740000Y-47510000D01*
X137610000Y-57470000D02*
X133610000Y-57470000D01*
X137610000Y-55470000D02*
X133610000Y-55470000D01*
X137610000Y-57470000D02*
X137610000Y-55470000D01*
X133610000Y-57470000D02*
X133610000Y-55470000D01*
X127510000Y-54370000D02*
X127510000Y-58370000D01*
X125510000Y-54370000D02*
X125510000Y-58370000D01*
X127510000Y-54370000D02*
X125510000Y-54370000D01*
X127510000Y-58370000D02*
X125510000Y-58370000D01*
D11*
X132020000Y-49770000D02*
X132020000Y-55270000D01*
X139520000Y-49770000D02*
X139520000Y-55270000D01*
X132020000Y-49770000D02*
X139520000Y-49770000D01*
X132020000Y-55270000D02*
X139520000Y-55270000D01*
X119800000Y-59070000D02*
X119800000Y-54470000D01*
X119800000Y-59070000D02*
X125150000Y-59070000D01*
X119800000Y-54470000D02*
X125150000Y-54470000D01*
X125150000Y-59070000D02*
X125150000Y-54470000D01*
D10*
X128450000Y-55980000D02*
X132450000Y-55980000D01*
X128450000Y-57980000D02*
X132450000Y-57980000D01*
X128450000Y-55980000D02*
X128450000Y-57980000D01*
X132450000Y-55980000D02*
X132450000Y-57980000D01*
X76990000Y-46080000D02*
G75*
G03X76990000Y-46080000I-1000000J0D01*
G01*
X160820000Y-38000000D02*
G75*
G03X160820000Y-38000000I-1000000J0D01*
G01*
X139860000Y-64900000D02*
G75*
G03X139860000Y-64900000I-1000000J0D01*
G01*
X124800000Y-54670000D02*
G75*
G03X124800000Y-54670000I-1000000J0D01*
G01*
X131970000Y-55130000D02*
G75*
G03X131970000Y-55130000I-1000000J0D01*
G01*
X137320000Y-58280000D02*
G75*
G03X137320000Y-58280000I-1000000J0D01*
G01*
X102230000Y-43400000D02*
G75*
G03X102230000Y-43400000I-1000000J0D01*
G01*
D11*
X86720300Y-56619900D02*
X86720300Y-60119900D01*
X90220300Y-56619900D02*
X90220300Y-60119900D01*
X86720300Y-56619900D02*
X90220300Y-56619900D01*
X86720300Y-60119900D02*
X90220300Y-60119900D01*
X111210000Y-38990000D02*
X111210000Y-35490000D01*
X100060000Y-38990000D02*
X100060000Y-35490000D01*
X111210000Y-38990000D02*
X100060000Y-38990000D01*
X111210000Y-35490000D02*
X100060000Y-35490000D01*
X147740000Y-38830000D02*
X147740000Y-35330000D01*
X136590000Y-38830000D02*
X136590000Y-35330000D01*
X147740000Y-38830000D02*
X136590000Y-38830000D01*
X147740000Y-35330000D02*
X136590000Y-35330000D01*
X91370000Y-57680000D02*
X91370000Y-61180000D01*
X99970000Y-57680000D02*
X99970000Y-61180000D01*
X91370000Y-57680000D02*
X99970000Y-57680000D01*
X91370000Y-61180000D02*
X99970000Y-61180000D01*
X118970000Y-46930000D02*
X115470000Y-46930000D01*
X118970000Y-55530000D02*
X115470000Y-55530000D01*
X118970000Y-46930000D02*
X118970000Y-55530000D01*
X115470000Y-46930000D02*
X115470000Y-55530000D01*
X85612500Y-56293960D02*
X80812500Y-56293960D01*
X85612500Y-54293960D02*
X80812500Y-54293960D01*
X85612500Y-56293960D02*
X85612500Y-54293960D01*
X80812500Y-56293960D02*
X80812500Y-54293960D01*
X115450000Y-43990000D02*
X115450000Y-39190000D01*
X117450000Y-43990000D02*
X117450000Y-39190000D01*
X115450000Y-43990000D02*
X117450000Y-43990000D01*
X115450000Y-39190000D02*
X117450000Y-39190000D01*
X107150000Y-45250000D02*
X107150000Y-40650000D01*
X109150000Y-45250000D02*
X109150000Y-40650000D01*
X107150000Y-45250000D02*
X109150000Y-45250000D01*
X107150000Y-40650000D02*
X109150000Y-40650000D01*
X104790000Y-62330000D02*
X100190000Y-62330000D01*
X104790000Y-60330000D02*
X100190000Y-60330000D01*
X104790000Y-62330000D02*
X104790000Y-60330000D01*
X100190000Y-62330000D02*
X100190000Y-60330000D01*
X96070000Y-48080000D02*
X91470000Y-48080000D01*
X96070000Y-46080000D02*
X91470000Y-46080000D01*
X96070000Y-48080000D02*
X96070000Y-46080000D01*
X91470000Y-48080000D02*
X91470000Y-46080000D01*
X108660000Y-65820000D02*
X108660000Y-61220000D01*
X110660000Y-65820000D02*
X110660000Y-61220000D01*
X108660000Y-65820000D02*
X110660000Y-65820000D01*
X108660000Y-61220000D02*
X110660000Y-61220000D01*
X104760000Y-46510000D02*
X104760000Y-51110000D01*
X102760000Y-46510000D02*
X102760000Y-51110000D01*
X104760000Y-46510000D02*
X102760000Y-46510000D01*
X104760000Y-51110000D02*
X102760000Y-51110000D01*
X102650000Y-46120000D02*
X102650000Y-50720000D01*
X100650000Y-46120000D02*
X100650000Y-50720000D01*
X102650000Y-46120000D02*
X100650000Y-46120000D01*
X102650000Y-50720000D02*
X100650000Y-50720000D01*
X96420000Y-48030000D02*
X96420000Y-43430000D01*
X98420000Y-48030000D02*
X98420000Y-43430000D01*
X96420000Y-48030000D02*
X98420000Y-48030000D01*
X96420000Y-43430000D02*
X98420000Y-43430000D01*
X99920000Y-52980000D02*
X99920000Y-57580000D01*
X97920000Y-52980000D02*
X97920000Y-57580000D01*
X99920000Y-52980000D02*
X97920000Y-52980000D01*
X99920000Y-57580000D02*
X97920000Y-57580000D01*
X141990000Y-44910000D02*
X141990000Y-40310000D01*
X143990000Y-44910000D02*
X143990000Y-40310000D01*
X141990000Y-44910000D02*
X143990000Y-44910000D01*
X141990000Y-40310000D02*
X143990000Y-40310000D01*
X156120000Y-55680000D02*
X151520000Y-55680000D01*
X156120000Y-53680000D02*
X151520000Y-53680000D01*
X156120000Y-55680000D02*
X156120000Y-53680000D01*
X151520000Y-55680000D02*
X151520000Y-53680000D01*
X151230000Y-45620000D02*
X155830000Y-45620000D01*
X151230000Y-47620000D02*
X155830000Y-47620000D01*
X151230000Y-45620000D02*
X151230000Y-47620000D01*
X155830000Y-45620000D02*
X155830000Y-47620000D01*
X128040000Y-46020000D02*
X128040000Y-41420000D01*
X130040000Y-46020000D02*
X130040000Y-41420000D01*
X128040000Y-46020000D02*
X130040000Y-46020000D01*
X128040000Y-41420000D02*
X130040000Y-41420000D01*
X125880000Y-46010000D02*
X125880000Y-41410000D01*
X127880000Y-46010000D02*
X127880000Y-41410000D01*
X125880000Y-46010000D02*
X127880000Y-46010000D01*
X125880000Y-41410000D02*
X127880000Y-41410000D01*
X136190000Y-44410000D02*
X136190000Y-39810000D01*
X138190000Y-44410000D02*
X138190000Y-39810000D01*
X136190000Y-44410000D02*
X138190000Y-44410000D01*
X136190000Y-39810000D02*
X138190000Y-39810000D01*
X133770000Y-45130000D02*
X133770000Y-38530000D01*
X136070000Y-45130000D02*
X136070000Y-38530000D01*
X133770000Y-45130000D02*
X136070000Y-45130000D01*
X133770000Y-38530000D02*
X136070000Y-38530000D01*
X125810000Y-46150000D02*
X130410000Y-46150000D01*
X125810000Y-48150000D02*
X130410000Y-48150000D01*
X125810000Y-46150000D02*
X125810000Y-48150000D01*
X130410000Y-46150000D02*
X130410000Y-48150000D01*
X130410000Y-50270000D02*
X125810000Y-50270000D01*
X130410000Y-48270000D02*
X125810000Y-48270000D01*
X130410000Y-50270000D02*
X130410000Y-48270000D01*
X125810000Y-50270000D02*
X125810000Y-48270000D01*
X81087760Y-47339440D02*
X85687760Y-47339440D01*
X81087760Y-49339440D02*
X85687760Y-49339440D01*
X81087760Y-47339440D02*
X81087760Y-49339440D01*
X85687760Y-47339440D02*
X85687760Y-49339440D01*
X124240000Y-39150000D02*
X124240000Y-43750000D01*
X122240000Y-39150000D02*
X122240000Y-43750000D01*
X124240000Y-39150000D02*
X122240000Y-39150000D01*
X124240000Y-43750000D02*
X122240000Y-43750000D01*
X122830000Y-49530000D02*
X122830000Y-54130000D01*
X120830000Y-49530000D02*
X120830000Y-54130000D01*
X122830000Y-49530000D02*
X120830000Y-49530000D01*
X122830000Y-54130000D02*
X120830000Y-54130000D01*
X142380000Y-54780000D02*
X146980000Y-54780000D01*
X142380000Y-56780000D02*
X146980000Y-56780000D01*
X142380000Y-54780000D02*
X142380000Y-56780000D01*
X146980000Y-54780000D02*
X146980000Y-56780000D01*
X77410000Y-42390000D02*
X77410000Y-37790000D01*
X79410000Y-42390000D02*
X79410000Y-37790000D01*
X77410000Y-42390000D02*
X79410000Y-42390000D01*
X77410000Y-37790000D02*
X79410000Y-37790000D01*
X79600000Y-42390000D02*
X79600000Y-37790000D01*
X81600000Y-42390000D02*
X81600000Y-37790000D01*
X79600000Y-42390000D02*
X81600000Y-42390000D01*
X79600000Y-37790000D02*
X81600000Y-37790000D01*
X117490000Y-56170000D02*
X117490000Y-60770000D01*
X115490000Y-56170000D02*
X115490000Y-60770000D01*
X117490000Y-56170000D02*
X115490000Y-56170000D01*
X117490000Y-60770000D02*
X115490000Y-60770000D01*
X119660000Y-56180000D02*
X119660000Y-60780000D01*
X117660000Y-56180000D02*
X117660000Y-60780000D01*
X119660000Y-56180000D02*
X117660000Y-56180000D01*
X119660000Y-60780000D02*
X117660000Y-60780000D01*
X124680000Y-61450000D02*
X120080000Y-61450000D01*
X124680000Y-59450000D02*
X120080000Y-59450000D01*
X124680000Y-61450000D02*
X124680000Y-59450000D01*
X120080000Y-61450000D02*
X120080000Y-59450000D01*
X112300000Y-52980000D02*
X112300000Y-46930000D01*
X108800000Y-52980000D02*
X108800000Y-46930000D01*
X112300000Y-52980000D02*
X108800000Y-52980000D01*
X112300000Y-46930000D02*
X108800000Y-46930000D01*
X149840000Y-44640000D02*
X143790000Y-44640000D01*
X149840000Y-48140000D02*
X143790000Y-48140000D01*
X149840000Y-44640000D02*
X149840000Y-48140000D01*
X143790000Y-44640000D02*
X143790000Y-48140000D01*
X149860000Y-48220000D02*
X143810000Y-48220000D01*
X149860000Y-51720000D02*
X143810000Y-51720000D01*
X149860000Y-48220000D02*
X149860000Y-51720000D01*
X143810000Y-48220000D02*
X143810000Y-51720000D01*
X134610000Y-58570000D02*
X128560000Y-58570000D01*
X134610000Y-62070000D02*
X128560000Y-62070000D01*
X134610000Y-58570000D02*
X134610000Y-62070000D01*
X128560000Y-58570000D02*
X128560000Y-62070000D01*
X101070000Y-53680000D02*
X101070000Y-59730000D01*
X104570000Y-53680000D02*
X104570000Y-59730000D01*
X101070000Y-53680000D02*
X104570000Y-53680000D01*
X101070000Y-59730000D02*
X104570000Y-59730000D01*
X159750000Y-44720000D02*
X159750000Y-50770000D01*
X163250000Y-44720000D02*
X163250000Y-50770000D01*
X159750000Y-44720000D02*
X163250000Y-44720000D01*
X159750000Y-50770000D02*
X163250000Y-50770000D01*
X129210000Y-50470000D02*
X123160000Y-50470000D01*
X129210000Y-53970000D02*
X123160000Y-53970000D01*
X129210000Y-50470000D02*
X129210000Y-53970000D01*
X123160000Y-50470000D02*
X123160000Y-53970000D01*
X93042240Y-52441600D02*
X86992240Y-52441600D01*
X93042240Y-55941600D02*
X86992240Y-55941600D01*
X93042240Y-52441600D02*
X93042240Y-55941600D01*
X86992240Y-52441600D02*
X86992240Y-55941600D01*
X93123520Y-48540160D02*
X87073520Y-48540160D01*
X93123520Y-52040160D02*
X87073520Y-52040160D01*
X93123520Y-48540160D02*
X93123520Y-52040160D01*
X87073520Y-48540160D02*
X87073520Y-52040160D01*
X147540000Y-53800000D02*
X147540000Y-59850000D01*
X151040000Y-53800000D02*
X151040000Y-59850000D01*
X147540000Y-53800000D02*
X151040000Y-53800000D01*
X147540000Y-59850000D02*
X151040000Y-59850000D01*
X104930000Y-61370000D02*
X104930000Y-67420000D01*
X108430000Y-61370000D02*
X108430000Y-67420000D01*
X104930000Y-61370000D02*
X108430000Y-61370000D01*
X104930000Y-67420000D02*
X108430000Y-67420000D01*
X158510000Y-51640000D02*
X158510000Y-57690000D01*
X162010000Y-51640000D02*
X162010000Y-57690000D01*
X158510000Y-51640000D02*
X162010000Y-51640000D01*
X158510000Y-57690000D02*
X162010000Y-57690000D01*
X78543920Y-54783360D02*
X78543920Y-48733360D01*
X75043920Y-54783360D02*
X75043920Y-48733360D01*
X78543920Y-54783360D02*
X75043920Y-54783360D01*
X78543920Y-48733360D02*
X75043920Y-48733360D01*
X115290000Y-44120000D02*
X115290000Y-38070000D01*
X111790000Y-44120000D02*
X111790000Y-38070000D01*
X115290000Y-44120000D02*
X111790000Y-44120000D01*
X115290000Y-38070000D02*
X111790000Y-38070000D01*
X94660000Y-35190000D02*
X94660000Y-41240000D01*
X98160000Y-35190000D02*
X98160000Y-41240000D01*
X94660000Y-35190000D02*
X98160000Y-35190000D01*
X94660000Y-41240000D02*
X98160000Y-41240000D01*
X73610000Y-45060000D02*
X77110000Y-45060000D01*
X73610000Y-33910000D02*
X77110000Y-33910000D01*
X73610000Y-45060000D02*
X73610000Y-33910000D01*
X77110000Y-45060000D02*
X77110000Y-33910000D01*
X81820000Y-42370000D02*
X81820000Y-37770000D01*
X83820000Y-42370000D02*
X83820000Y-37770000D01*
X81820000Y-42370000D02*
X83820000Y-42370000D01*
X81820000Y-37770000D02*
X83820000Y-37770000D01*
X98130000Y-62550000D02*
X104730000Y-62550000D01*
X98130000Y-64850000D02*
X104730000Y-64850000D01*
X98130000Y-62550000D02*
X98130000Y-64850000D01*
X104730000Y-62550000D02*
X104730000Y-64850000D01*
X110910000Y-67790000D02*
X110910000Y-61190000D01*
X113210000Y-67790000D02*
X113210000Y-61190000D01*
X110910000Y-67790000D02*
X113210000Y-67790000D01*
X110910000Y-61190000D02*
X113210000Y-61190000D01*
X96070000Y-45930000D02*
X91470000Y-45930000D01*
X96070000Y-43930000D02*
X91470000Y-43930000D01*
X96070000Y-45930000D02*
X96070000Y-43930000D01*
X91470000Y-45930000D02*
X91470000Y-43930000D01*
X92120000Y-42640000D02*
X92120000Y-36040000D01*
X94420000Y-42640000D02*
X94420000Y-36040000D01*
X92120000Y-42640000D02*
X94420000Y-42640000D01*
X92120000Y-36040000D02*
X94420000Y-36040000D01*
X151230000Y-55890000D02*
X157830000Y-55890000D01*
X151230000Y-58190000D02*
X157830000Y-58190000D01*
X151230000Y-55890000D02*
X151230000Y-58190000D01*
X157830000Y-55890000D02*
X157830000Y-58190000D01*
X150330000Y-43040000D02*
X156930000Y-43040000D01*
X150330000Y-45340000D02*
X156930000Y-45340000D01*
X150330000Y-43040000D02*
X150330000Y-45340000D01*
X156930000Y-43040000D02*
X156930000Y-45340000D01*
X137850000Y-68560000D02*
X137850000Y-65060000D01*
X126700000Y-68560000D02*
X126700000Y-65060000D01*
X137850000Y-68560000D02*
X126700000Y-68560000D01*
X137850000Y-65060000D02*
X126700000Y-65060000D01*
X89280000Y-44670000D02*
X84680000Y-44670000D01*
X89280000Y-42670000D02*
X84680000Y-42670000D01*
X89280000Y-44670000D02*
X89280000Y-42670000D01*
X84680000Y-44670000D02*
X84680000Y-42670000D01*
X82110000Y-34640000D02*
X86910000Y-34640000D01*
X82110000Y-36640000D02*
X86910000Y-36640000D01*
X82110000Y-34640000D02*
X82110000Y-36640000D01*
X86910000Y-34640000D02*
X86910000Y-36640000D01*
X87170000Y-34660000D02*
X91970000Y-34660000D01*
X87170000Y-36660000D02*
X91970000Y-36660000D01*
X87170000Y-34660000D02*
X87170000Y-36660000D01*
X91970000Y-34660000D02*
X91970000Y-36660000D01*
X112724800Y-95895200D02*
X105824800Y-95895200D01*
X112724800Y-104495200D02*
X105824800Y-104495200D01*
X112724800Y-95895200D02*
X112724800Y-104495200D01*
X105824800Y-95895200D02*
X105824800Y-104495200D01*
X110555400Y-92850900D02*
X115055400Y-92850900D01*
X110555400Y-92850900D02*
X110555400Y-94600900D01*
X115055400Y-94600900D02*
X115055400Y-92850900D01*
X115055400Y-94600900D02*
X110555400Y-94600900D01*
X127089200Y-96895300D02*
X127089200Y-92395300D01*
X127089200Y-96895300D02*
X128839200Y-96895300D01*
X128839200Y-92395300D02*
X127089200Y-92395300D01*
X128839200Y-92395300D02*
X128839200Y-96895300D01*
X125146100Y-96895300D02*
X125146100Y-92395300D01*
X125146100Y-96895300D02*
X126896100Y-96895300D01*
X126896100Y-92395300D02*
X125146100Y-92395300D01*
X126896100Y-92395300D02*
X126896100Y-96895300D01*
X121386900Y-93186900D02*
X121386900Y-88686900D01*
X121386900Y-93186900D02*
X123136900Y-93186900D01*
X123136900Y-88686900D02*
X121386900Y-88686900D01*
X123136900Y-88686900D02*
X123136900Y-93186900D01*
X75197000Y-101695900D02*
X75197000Y-97195900D01*
X75197000Y-101695900D02*
X76947000Y-101695900D01*
X76947000Y-97195900D02*
X75197000Y-97195900D01*
X76947000Y-97195900D02*
X76947000Y-101695900D01*
X89206700Y-98045200D02*
X93706700Y-98045200D01*
X89206700Y-98045200D02*
X89206700Y-99795200D01*
X93706700Y-99795200D02*
X93706700Y-98045200D01*
X93706700Y-99795200D02*
X89206700Y-99795200D01*
X89206700Y-99823200D02*
X93706700Y-99823200D01*
X89206700Y-99823200D02*
X89206700Y-101573200D01*
X93706700Y-101573200D02*
X93706700Y-99823200D01*
X93706700Y-101573200D02*
X89206700Y-101573200D01*
X96762650Y-93684350D02*
X96762650Y-98184350D01*
X96762650Y-93684350D02*
X95012650Y-93684350D01*
X95012650Y-98184350D02*
X96762650Y-98184350D01*
X95012650Y-98184350D02*
X95012650Y-93684350D01*
X95053450Y-90170650D02*
X95053450Y-85670650D01*
X95053450Y-90170650D02*
X96803450Y-90170650D01*
X96803450Y-85670650D02*
X95053450Y-85670650D01*
X96803450Y-85670650D02*
X96803450Y-90170650D01*
X129890600Y-109972100D02*
X129890600Y-114472100D01*
X129890600Y-109972100D02*
X128140600Y-109972100D01*
X128140600Y-114472100D02*
X129890600Y-114472100D01*
X128140600Y-114472100D02*
X128140600Y-109972100D01*
X110434200Y-109426000D02*
X110434200Y-113926000D01*
X110434200Y-109426000D02*
X108684200Y-109426000D01*
X108684200Y-113926000D02*
X110434200Y-113926000D01*
X108684200Y-113926000D02*
X108684200Y-109426000D01*
X98933300Y-95561800D02*
X98933300Y-91061800D01*
X98933300Y-95561800D02*
X100683300Y-95561800D01*
X100683300Y-91061800D02*
X98933300Y-91061800D01*
X100683300Y-91061800D02*
X100683300Y-95561800D01*
X111042200Y-107476000D02*
X106542200Y-107476000D01*
X111042200Y-107476000D02*
X111042200Y-105726000D01*
X106542200Y-105726000D02*
X106542200Y-107476000D01*
X106542200Y-105726000D02*
X111042200Y-105726000D01*
X133744300Y-107151400D02*
X133744300Y-101001400D01*
X133744300Y-101001400D02*
X130144300Y-101001400D01*
X130144300Y-101001400D02*
X130144300Y-107151400D01*
X130144300Y-107151400D02*
X133744300Y-107151400D01*
X133744300Y-92101900D02*
X133744300Y-85951900D01*
X133744300Y-85951900D02*
X130144300Y-85951900D01*
X130144300Y-85951900D02*
X130144300Y-92101900D01*
X130144300Y-92101900D02*
X133744300Y-92101900D01*
X100902100Y-109101300D02*
X94752100Y-109101300D01*
X94752100Y-109101300D02*
X94752100Y-112701300D01*
X94752100Y-112701300D02*
X100902100Y-112701300D01*
X100902100Y-112701300D02*
X100902100Y-109101300D01*
X100876700Y-105380200D02*
X94726700Y-105380200D01*
X94726700Y-105380200D02*
X94726700Y-108980200D01*
X94726700Y-108980200D02*
X100876700Y-108980200D01*
X100876700Y-108980200D02*
X100876700Y-105380200D01*
X129979200Y-109139400D02*
X129979200Y-115289400D01*
X129979200Y-115289400D02*
X133579200Y-115289400D01*
X133579200Y-115289400D02*
X133579200Y-109139400D01*
X133579200Y-109139400D02*
X129979200Y-109139400D01*
X123955500Y-104464100D02*
X128655500Y-104464100D01*
X123955500Y-104464100D02*
X123955500Y-106264100D01*
X128655500Y-106264100D02*
X128655500Y-104464100D01*
X128655500Y-106264100D02*
X123955500Y-106264100D01*
X128617400Y-104371800D02*
X123917400Y-104371800D01*
X128617400Y-104371800D02*
X128617400Y-102571800D01*
X123917400Y-102571800D02*
X123917400Y-104371800D01*
X123917400Y-102571800D02*
X128617400Y-102571800D01*
X105897100Y-111318700D02*
X101197100Y-111318700D01*
X105897100Y-111318700D02*
X105897100Y-109518700D01*
X101197100Y-109518700D02*
X101197100Y-111318700D01*
X101197100Y-109518700D02*
X105897100Y-109518700D01*
X103012000Y-103458600D02*
X103012000Y-108158600D01*
X103012000Y-103458600D02*
X101212000Y-103458600D01*
X101212000Y-108158600D02*
X103012000Y-108158600D01*
X101212000Y-108158600D02*
X101212000Y-103458600D01*
X119079700Y-97831300D02*
X114379700Y-97831300D01*
X119079700Y-97831300D02*
X119079700Y-96031300D01*
X114379700Y-96031300D02*
X114379700Y-97831300D01*
X114379700Y-96031300D02*
X119079700Y-96031300D01*
X114379700Y-98025200D02*
X119079700Y-98025200D01*
X114379700Y-98025200D02*
X114379700Y-99825200D01*
X119079700Y-99825200D02*
X119079700Y-98025200D01*
X119079700Y-99825200D02*
X114379700Y-99825200D01*
X123942800Y-106369100D02*
X128642800Y-106369100D01*
X123942800Y-106369100D02*
X123942800Y-108169100D01*
X128642800Y-108169100D02*
X128642800Y-106369100D01*
X128642800Y-108169100D02*
X123942800Y-108169100D01*
X113744700Y-104375200D02*
X118444700Y-104375200D01*
X113744700Y-104375200D02*
X113744700Y-106175200D01*
X118444700Y-106175200D02*
X118444700Y-104375200D01*
X118444700Y-106175200D02*
X113744700Y-106175200D01*
X118432000Y-104219400D02*
X113732000Y-104219400D01*
X118432000Y-104219400D02*
X118432000Y-102419400D01*
X113732000Y-102419400D02*
X113732000Y-104219400D01*
X113732000Y-102419400D02*
X118432000Y-102419400D01*
X124745100Y-91293000D02*
X124745100Y-86593000D01*
X124745100Y-91293000D02*
X126545100Y-91293000D01*
X126545100Y-86593000D02*
X124745100Y-86593000D01*
X126545100Y-86593000D02*
X126545100Y-91293000D01*
X92166200Y-104373000D02*
X92166200Y-109073000D01*
X92166200Y-104373000D02*
X90366200Y-104373000D01*
X90366200Y-109073000D02*
X92166200Y-109073000D01*
X90366200Y-109073000D02*
X90366200Y-104373000D01*
X79908200Y-106660700D02*
X88908200Y-106660700D01*
X88908200Y-106660700D02*
X88908200Y-113160700D01*
X88908200Y-113160700D02*
X79908200Y-113160700D01*
X79908200Y-113160700D02*
X79908200Y-106660700D01*
X120378400Y-97038000D02*
X120378400Y-102438000D01*
X127838400Y-97038000D02*
X127838400Y-102438000D01*
X120378400Y-97038000D02*
X127838400Y-97038000D01*
X120378400Y-102438000D02*
X127838400Y-102438000D01*
X117387950Y-93190750D02*
X121087950Y-93190750D01*
X117387950Y-86790750D02*
X121087950Y-86790750D01*
X117387950Y-93190750D02*
X117387950Y-86790750D01*
X121087950Y-93190750D02*
X121087950Y-86790750D01*
X98570600Y-87241400D02*
X98570600Y-90441400D01*
X98570600Y-90441400D02*
X103570600Y-90441400D01*
X103570600Y-90441400D02*
X103570600Y-87241400D01*
X103570600Y-87241400D02*
X98570600Y-87241400D01*
X117348700Y-94721500D02*
G75*
G03X117348700Y-94721500I-1000000J0D01*
G01*
X108839700Y-91165500D02*
G75*
G03X108839700Y-91165500I-1000000J0D01*
G01*
X132944300Y-99814200D02*
G75*
G03X132944300Y-99814200I-1000000J0D01*
G01*
X106312400Y-91152800D02*
G75*
G03X106312400Y-91152800I-1000000J0D01*
G01*
X120739600Y-103370200D02*
G75*
G03X120739600Y-103370200I-1000000J0D01*
G01*
X105893300Y-108374000D02*
G75*
G03X105893300Y-108374000I-1000000J0D01*
G01*
X91150550Y-96608450D02*
X94950550Y-96608450D01*
X94950550Y-96608450D02*
X94950550Y-87208450D01*
X94950550Y-87208450D02*
X91150550Y-87208450D01*
X91150550Y-87208450D02*
X91150550Y-96608450D01*
X106554900Y-107544800D02*
X111054900Y-107544800D01*
X106554900Y-107544800D02*
X106554900Y-109294800D01*
X111054900Y-109294800D02*
X111054900Y-107544800D01*
X111054900Y-109294800D02*
X106554900Y-109294800D01*
X100889400Y-105144800D02*
X100889400Y-98994800D01*
X100889400Y-98994800D02*
X97289400Y-98994800D01*
X97289400Y-98994800D02*
X97289400Y-105144800D01*
X97289400Y-105144800D02*
X100889400Y-105144800D01*
X103182500Y-91087200D02*
X103182500Y-95587200D01*
X103182500Y-91087200D02*
X101432500Y-91087200D01*
X101432500Y-95587200D02*
X103182500Y-95587200D01*
X101432500Y-95587200D02*
X101432500Y-91087200D01*
X108460300Y-109427600D02*
X108460300Y-114127600D01*
X108460300Y-109427600D02*
X106660300Y-109427600D01*
X106660300Y-114127600D02*
X108460300Y-114127600D01*
X106660300Y-114127600D02*
X106660300Y-109427600D01*
X124269700Y-114782400D02*
X124269700Y-109382400D01*
X116809700Y-114782400D02*
X116809700Y-109382400D01*
X124269700Y-114782400D02*
X116809700Y-114782400D01*
X124269700Y-109382400D02*
X116809700Y-109382400D01*
X82766500Y-89530600D02*
X74116500Y-89530600D01*
X74116500Y-89530600D02*
X74116500Y-93130600D01*
X74116500Y-93130600D02*
X82766500Y-93130600D01*
X82766500Y-93130600D02*
X82766500Y-89530600D01*
X78334200Y-111786900D02*
X78334200Y-105636900D01*
X78334200Y-105636900D02*
X74734200Y-105636900D01*
X74734200Y-105636900D02*
X74734200Y-111786900D01*
X74734200Y-111786900D02*
X78334200Y-111786900D01*
X103713100Y-112278700D02*
X105413100Y-112278700D01*
X105413100Y-112278700D02*
X105413100Y-116178700D01*
X105413100Y-116178700D02*
X103713100Y-116178700D01*
X103713100Y-116178700D02*
X103713100Y-112278700D01*
X88273100Y-105495200D02*
X88273100Y-94895200D01*
X77673100Y-105495200D02*
X77673100Y-94895200D01*
X88273100Y-105495200D02*
X77673100Y-105495200D01*
X88273100Y-94895200D02*
X77673100Y-94895200D01*
X110548200Y-92800400D02*
X116698200Y-92800400D01*
X116698200Y-92800400D02*
X116698200Y-89200400D01*
X116698200Y-89200400D02*
X110548200Y-89200400D01*
X110548200Y-89200400D02*
X110548200Y-92800400D01*
X130144300Y-92197600D02*
X130144300Y-98347600D01*
X130144300Y-98347600D02*
X133744300Y-98347600D01*
X133744300Y-98347600D02*
X133744300Y-92197600D01*
X133744300Y-92197600D02*
X130144300Y-92197600D01*
X113914400Y-115434000D02*
X113914400Y-108934000D01*
X113914400Y-115434000D02*
X116014400Y-115434000D01*
X116014400Y-108934000D02*
X113914400Y-108934000D01*
X116014400Y-108934000D02*
X116014400Y-115434000D01*
X119599400Y-114992400D02*
X124299400Y-114992400D01*
X119599400Y-114992400D02*
X119599400Y-116792400D01*
X124299400Y-116792400D02*
X124299400Y-114992400D01*
X124299400Y-116792400D02*
X119599400Y-116792400D01*
X108563100Y-114420900D02*
X113263100Y-114420900D01*
X108563100Y-114420900D02*
X108563100Y-116220900D01*
X113263100Y-116220900D02*
X113263100Y-114420900D01*
X113263100Y-116220900D02*
X108563100Y-116220900D01*
X111537100Y-114127600D02*
X111537100Y-109427600D01*
X111537100Y-114127600D02*
X113337100Y-114127600D01*
X113337100Y-109427600D02*
X111537100Y-109427600D01*
X113337100Y-109427600D02*
X113337100Y-114127600D01*
X128067400Y-116625600D02*
X128067400Y-110475600D01*
X128067400Y-110475600D02*
X124467400Y-110475600D01*
X124467400Y-110475600D02*
X124467400Y-116625600D01*
X124467400Y-116625600D02*
X128067400Y-116625600D01*
X155633300Y-82285900D02*
X146333300Y-82285900D01*
X155633300Y-89685900D02*
X146333300Y-89685900D01*
X155633300Y-82285900D02*
X155633300Y-89685900D01*
X146333300Y-82285900D02*
X146333300Y-89685900D01*
X147110300Y-108602900D02*
X142410300Y-108602900D01*
X147110300Y-108602900D02*
X147110300Y-106802900D01*
X142410300Y-106802900D02*
X142410300Y-108602900D01*
X142410300Y-106802900D02*
X147110300Y-106802900D01*
X161214050Y-120808750D02*
X162914050Y-120808750D01*
X162914050Y-120808750D02*
X162914050Y-124708750D01*
X162914050Y-124708750D02*
X161214050Y-124708750D01*
X161214050Y-124708750D02*
X161214050Y-120808750D01*
X151705100Y-112385500D02*
X156205100Y-112385500D01*
X151705100Y-112385500D02*
X151705100Y-114135500D01*
X156205100Y-114135500D02*
X156205100Y-112385500D01*
X156205100Y-114135500D02*
X151705100Y-114135500D01*
X157222700Y-107662700D02*
X157222700Y-112162700D01*
X157222700Y-107662700D02*
X155472700Y-107662700D01*
X155472700Y-112162700D02*
X157222700Y-112162700D01*
X155472700Y-112162700D02*
X155472700Y-107662700D01*
X160296100Y-102836700D02*
X160296100Y-107336700D01*
X160296100Y-102836700D02*
X158546100Y-102836700D01*
X158546100Y-107336700D02*
X160296100Y-107336700D01*
X158546100Y-107336700D02*
X158546100Y-102836700D01*
X150667900Y-104391900D02*
X146167900Y-104391900D01*
X150667900Y-104391900D02*
X150667900Y-102641900D01*
X146167900Y-102641900D02*
X146167900Y-104391900D01*
X146167900Y-102641900D02*
X150667900Y-102641900D01*
X143931100Y-104339500D02*
X143931100Y-99839500D01*
X143931100Y-104339500D02*
X145681100Y-104339500D01*
X145681100Y-99839500D02*
X143931100Y-99839500D01*
X145681100Y-99839500D02*
X145681100Y-104339500D01*
X140484100Y-99737900D02*
X140484100Y-104237900D01*
X140484100Y-99737900D02*
X138734100Y-99737900D01*
X138734100Y-104237900D02*
X140484100Y-104237900D01*
X138734100Y-104237900D02*
X138734100Y-99737900D01*
X145659900Y-112487100D02*
X150159900Y-112487100D01*
X145659900Y-112487100D02*
X145659900Y-114237100D01*
X150159900Y-114237100D02*
X150159900Y-112487100D01*
X150159900Y-114237100D02*
X145659900Y-114237100D01*
X156455300Y-116833700D02*
X156455300Y-121533700D01*
X156455300Y-116833700D02*
X154655300Y-116833700D01*
X154655300Y-121533700D02*
X156455300Y-121533700D01*
X154655300Y-121533700D02*
X154655300Y-116833700D01*
X147463700Y-116808300D02*
X147463700Y-121508300D01*
X147463700Y-116808300D02*
X145663700Y-116808300D01*
X145663700Y-121508300D02*
X147463700Y-121508300D01*
X145663700Y-121508300D02*
X145663700Y-116808300D01*
X148457700Y-121533700D02*
X148457700Y-116833700D01*
X148457700Y-121533700D02*
X150257700Y-121533700D01*
X150257700Y-116833700D02*
X148457700Y-116833700D01*
X150257700Y-116833700D02*
X150257700Y-121533700D01*
X151810500Y-121508300D02*
X151810500Y-116808300D01*
X151810500Y-121508300D02*
X153610500Y-121508300D01*
X153610500Y-116808300D02*
X151810500Y-116808300D01*
X153610500Y-116808300D02*
X153610500Y-121508300D01*
X157550900Y-121482900D02*
X157550900Y-116782900D01*
X157550900Y-121482900D02*
X159350900Y-121482900D01*
X159350900Y-116782900D02*
X157550900Y-116782900D01*
X159350900Y-116782900D02*
X159350900Y-121482900D01*
X161005300Y-112542100D02*
X161005300Y-107842100D01*
X161005300Y-112542100D02*
X162805300Y-112542100D01*
X162805300Y-107842100D02*
X161005300Y-107842100D01*
X162805300Y-107842100D02*
X162805300Y-112542100D01*
X158592300Y-112415100D02*
X158592300Y-107715100D01*
X158592300Y-112415100D02*
X160392300Y-112415100D01*
X160392300Y-107715100D02*
X158592300Y-107715100D01*
X160392300Y-107715100D02*
X160392300Y-112415100D01*
X155493500Y-107487500D02*
X155493500Y-102787500D01*
X155493500Y-107487500D02*
X157293500Y-107487500D01*
X157293500Y-102787500D02*
X155493500Y-102787500D01*
X157293500Y-102787500D02*
X157293500Y-107487500D01*
X155542100Y-100554500D02*
X160242100Y-100554500D01*
X155542100Y-100554500D02*
X155542100Y-102354500D01*
X160242100Y-102354500D02*
X160242100Y-100554500D01*
X160242100Y-102354500D02*
X155542100Y-102354500D01*
X141879100Y-104388700D02*
X141879100Y-99688700D01*
X141879100Y-104388700D02*
X143679100Y-104388700D01*
X143679100Y-99688700D02*
X141879100Y-99688700D01*
X143679100Y-99688700D02*
X143679100Y-104388700D01*
X140710700Y-114116900D02*
X140710700Y-109416900D01*
X140710700Y-114116900D02*
X142510700Y-114116900D01*
X142510700Y-109416900D02*
X140710700Y-109416900D01*
X142510700Y-109416900D02*
X142510700Y-114116900D01*
X144771300Y-109416900D02*
X144771300Y-114116900D01*
X144771300Y-109416900D02*
X142971300Y-109416900D01*
X142971300Y-114116900D02*
X144771300Y-114116900D01*
X142971300Y-114116900D02*
X142971300Y-109416900D01*
X140202700Y-109240100D02*
X140202700Y-104540100D01*
X140202700Y-109240100D02*
X142002700Y-109240100D01*
X142002700Y-104540100D02*
X140202700Y-104540100D01*
X142002700Y-104540100D02*
X142002700Y-109240100D01*
X164977000Y-107905600D02*
X164977000Y-112605600D01*
X164977000Y-107905600D02*
X163177000Y-107905600D01*
X163177000Y-112605600D02*
X164977000Y-112605600D01*
X163177000Y-112605600D02*
X163177000Y-107905600D01*
X156593300Y-123479700D02*
X147943300Y-123479700D01*
X147943300Y-123479700D02*
X147943300Y-127079700D01*
X147943300Y-127079700D02*
X156593300Y-127079700D01*
X156593300Y-127079700D02*
X156593300Y-123479700D01*
X138835300Y-117943600D02*
X143535300Y-117943600D01*
X138835300Y-117943600D02*
X138835300Y-119743600D01*
X143535300Y-119743600D02*
X143535300Y-117943600D01*
X143535300Y-119743600D02*
X138835300Y-119743600D01*
X140555300Y-85423600D02*
X145055300Y-85423600D01*
X140555300Y-85423600D02*
X140555300Y-87173600D01*
X145055300Y-87173600D02*
X145055300Y-85423600D01*
X145055300Y-87173600D02*
X140555300Y-87173600D01*
X160702500Y-90352600D02*
X160702500Y-94852600D01*
X160702500Y-90352600D02*
X158952500Y-90352600D01*
X158952500Y-94852600D02*
X160702500Y-94852600D01*
X158952500Y-94852600D02*
X158952500Y-90352600D01*
X150585900Y-76894800D02*
X150585900Y-72394800D01*
X150585900Y-76894800D02*
X152335900Y-76894800D01*
X152335900Y-72394800D02*
X150585900Y-72394800D01*
X152335900Y-72394800D02*
X152335900Y-76894800D01*
X145112200Y-76894800D02*
X145112200Y-72394800D01*
X145112200Y-76894800D02*
X146862200Y-76894800D01*
X146862200Y-72394800D02*
X145112200Y-72394800D01*
X146862200Y-72394800D02*
X146862200Y-76894800D01*
X153940300Y-79467100D02*
X158440300Y-79467100D01*
X153940300Y-79467100D02*
X153940300Y-81217100D01*
X158440300Y-81217100D02*
X158440300Y-79467100D01*
X158440300Y-81217100D02*
X153940300Y-81217100D01*
X143155300Y-120503600D02*
X143155300Y-122203600D01*
X143155300Y-122203600D02*
X139255300Y-122203600D01*
X139255300Y-122203600D02*
X139255300Y-120503600D01*
X139255300Y-120503600D02*
X143155300Y-120503600D01*
X136495300Y-83083600D02*
X136495300Y-81383600D01*
X136495300Y-81383600D02*
X140395300Y-81383600D01*
X140395300Y-81383600D02*
X140395300Y-83083600D01*
X140395300Y-83083600D02*
X136495300Y-83083600D01*
X166143700Y-114411900D02*
X159993700Y-114411900D01*
X159993700Y-114411900D02*
X159993700Y-118011900D01*
X159993700Y-118011900D02*
X166143700Y-118011900D01*
X166143700Y-118011900D02*
X166143700Y-114411900D01*
X166143700Y-73289300D02*
X159993700Y-73289300D01*
X159993700Y-73289300D02*
X159993700Y-76889300D01*
X159993700Y-76889300D02*
X166143700Y-76889300D01*
X166143700Y-76889300D02*
X166143700Y-73289300D01*
X164632400Y-100079500D02*
X164632400Y-93929500D01*
X164632400Y-93929500D02*
X161032400Y-93929500D01*
X161032400Y-93929500D02*
X161032400Y-100079500D01*
X161032400Y-100079500D02*
X164632400Y-100079500D01*
X160308500Y-77366000D02*
X160308500Y-91116000D01*
X160308500Y-91116000D02*
X172508500Y-91116000D01*
X172508500Y-91116000D02*
X172508500Y-77366000D01*
X172508500Y-77366000D02*
X160308500Y-77366000D01*
X151161600Y-100728900D02*
X146461600Y-100728900D01*
X151161600Y-100728900D02*
X151161600Y-98928900D01*
X146461600Y-98928900D02*
X146461600Y-100728900D01*
X146461600Y-98928900D02*
X151161600Y-98928900D01*
X160684400Y-95142100D02*
X160684400Y-99842100D01*
X160684400Y-95142100D02*
X158884400Y-95142100D01*
X158884400Y-99842100D02*
X160684400Y-99842100D01*
X158884400Y-99842100D02*
X158884400Y-95142100D01*
X161066600Y-91816900D02*
X165766600Y-91816900D01*
X161066600Y-91816900D02*
X161066600Y-93616900D01*
X165766600Y-93616900D02*
X165766600Y-91816900D01*
X165766600Y-93616900D02*
X161066600Y-93616900D01*
X142538300Y-85057100D02*
X137838300Y-85057100D01*
X142538300Y-85057100D02*
X142538300Y-83257100D01*
X137838300Y-83257100D02*
X137838300Y-85057100D01*
X137838300Y-83257100D02*
X142538300Y-83257100D01*
X154195900Y-73617800D02*
X158895900Y-73617800D01*
X154195900Y-73617800D02*
X154195900Y-75417800D01*
X158895900Y-75417800D02*
X158895900Y-73617800D01*
X158895900Y-75417800D02*
X154195900Y-75417800D01*
X153625900Y-80850100D02*
X153625900Y-77050100D01*
X153625900Y-77050100D02*
X144225900Y-77050100D01*
X144225900Y-77050100D02*
X144225900Y-80850100D01*
X144225900Y-80850100D02*
X153625900Y-80850100D01*
X146295300Y-89883600D02*
X146295300Y-98533600D01*
X146295300Y-98533600D02*
X149895300Y-98533600D01*
X149895300Y-98533600D02*
X149895300Y-89883600D01*
X149895300Y-89883600D02*
X146295300Y-89883600D01*
X145665300Y-87663600D02*
X140265300Y-87663600D01*
X145665300Y-95123600D02*
X140265300Y-95123600D01*
X145665300Y-87663600D02*
X145665300Y-95123600D01*
X140265300Y-87663600D02*
X140265300Y-95123600D01*
X159996900Y-75600700D02*
X153846900Y-75600700D01*
X153846900Y-75600700D02*
X153846900Y-79200700D01*
X153846900Y-79200700D02*
X159996900Y-79200700D01*
X159996900Y-79200700D02*
X159996900Y-75600700D01*
X140015300Y-91353600D02*
X140015300Y-85203600D01*
X140015300Y-85203600D02*
X136415300Y-85203600D01*
X136415300Y-85203600D02*
X136415300Y-91353600D01*
X136415300Y-91353600D02*
X140015300Y-91353600D01*
X161045100Y-100314900D02*
X161045100Y-106464900D01*
X161045100Y-106464900D02*
X164645100Y-106464900D01*
X164645100Y-106464900D02*
X164645100Y-100314900D01*
X164645100Y-100314900D02*
X161045100Y-100314900D01*
X135495300Y-80353600D02*
X144145300Y-80353600D01*
X144145300Y-80353600D02*
X144145300Y-76753600D01*
X144145300Y-76753600D02*
X135495300Y-76753600D01*
X135495300Y-76753600D02*
X135495300Y-80353600D01*
X150021500Y-98568200D02*
X158671500Y-98568200D01*
X158671500Y-98568200D02*
X158671500Y-94968200D01*
X158671500Y-94968200D02*
X150021500Y-94968200D01*
X150021500Y-94968200D02*
X150021500Y-98568200D01*
X140595300Y-95283600D02*
X145295300Y-95283600D01*
X140595300Y-95283600D02*
X140595300Y-97083600D01*
X145295300Y-97083600D02*
X145295300Y-95283600D01*
X145295300Y-97083600D02*
X140595300Y-97083600D01*
X141315300Y-97243600D02*
X146015300Y-97243600D01*
X141315300Y-97243600D02*
X141315300Y-99043600D01*
X146015300Y-99043600D02*
X146015300Y-97243600D01*
X146015300Y-99043600D02*
X141315300Y-99043600D01*
X138125300Y-107493600D02*
G75*
G03X138125300Y-107493600I-1000000J0D01*
G01*
X140175300Y-93083600D02*
X140175300Y-99583600D01*
X140175300Y-93083600D02*
X138075300Y-93083600D01*
X138075300Y-99583600D02*
X140175300Y-99583600D01*
X138075300Y-99583600D02*
X138075300Y-93083600D01*
M02*
