M48
;DRILL file {KiCad 4.0.6} date 05/22/17 18:06:05
;FORMAT={-:-/ absolute / metric / decimal}
FMAT,2
METRIC,TZ
T1C0.300
T2C0.400
T3C0.500
T4C0.600
T5C0.762
T6C0.800
T7C1.000
T8C1.016
T9C2.500
%
G90
G05
M71
T1
X101.69Y-125.569
X101.77Y-119.369
X101.77Y-121.579
X101.77Y-123.559
X101.8Y-128.119
X110.053Y-117.473
X115.031Y-115.009
X115.031Y-116.609
X115.752Y-115.799
X116.479Y-115.06
X116.479Y-116.584
T2
X38.757Y-109.5
X40.154Y-104.014
X40.167Y-105.462
X41.25Y-42.32
X41.437Y-108.599
X41.45Y-109.399
X43.35Y-41.24
X44.01Y-42.53
X45.32Y-41.6
X45.399Y-122.48
X51.61Y-122.493
X52.702Y-108.599
X52.702Y-110.224
X54.937Y-106.16
X54.95Y-53.48
X55.03Y-52.16
X56.372Y-106.173
X57.23Y-41.08
X57.617Y-106.16
X58.315Y-107.735
X58.315Y-109.513
X59.973Y-107.875
X60.023Y-93.987
X60.29Y-62.2
X63.903Y-104.878
X64.792Y-106.16
X65.7Y-107.068
X66.392Y-104.903
X66.405Y-95.124
X66.685Y-108.065
X66.691Y-108.059
X66.723Y-109.412
X66.735Y-110.809
X67.739Y-111.786
X67.904Y-106.948
X69.123Y-105.754
X69.999Y-124.144
X70.16Y-52.74
X72.082Y-124.131
X73.035Y-114.085
X75.44Y-71.15
X75.625Y-115.406
X75.676Y-117.235
X77.022Y-117.374
X79.054Y-116.955
X80.57Y-67.51
X82.42Y-67.51
X83.169Y-124.702
X83.677Y-107.735
X83.944Y-110.453
X85.252Y-104.801
X85.68Y-54.07
X86.776Y-104.801
X86.94Y-53.21
X87.5Y-112.282
X87.576Y-114.174
X88.567Y-101.538
X88.567Y-102.82
X88.567Y-104.217
X90.116Y-100.712
X92.059Y-100.712
X93.101Y-123.826
X94.06Y-52.34
X96.45Y-61.81
X103.48Y-99.199
X103.85Y-114.349
X104.52Y-62.52
X104.92Y-81.519
X105.658Y-107.567
X105.709Y-109.472
X105.74Y-52.63
X105.85Y-133.139
X105.91Y-130.489
X105.94Y-89.109
X106.29Y-80.149
X106.41Y-82.589
X106.573Y-123.594
X107.995Y-122.096
X108.03Y-130.369
X108.31Y-82.509
X108.31Y-106.299
X108.35Y-133.099
X108.492Y-80.32
X108.84Y-128.679
X109.01Y-125.849
X109.26Y-49.72
X109.93Y-47.43
X110.01Y-106.369
X110.23Y-112.367
X110.6Y-132.979
X110.69Y-64.28
X110.69Y-130.239
X110.713Y-116.838
X110.95Y-65.18
X111.119Y-112.367
X111.17Y-122.781
X111.71Y-48.69
X111.905Y-112.332
X112.389Y-83.246
X112.77Y-80.414
X113.12Y-41.9
X113.202Y-82.268
X114.104Y-80.414
X114.32Y-83.284
X114.726Y-112.469
X116.19Y-101.329
X117.838Y-79.728
X117.838Y-81.265
X117.84Y-101.089
X118.282Y-83.132
X118.562Y-117.701
X119.438Y-79.728
X119.85Y-101.089
X119.933Y-122.883
X120.23Y-42.83
X120.746Y-79.728
X121.86Y-100.779
X121.94Y-88.466
X122.372Y-92.987
X122.397Y-114.653
X122.435Y-113.421
X122.651Y-91.4
X122.702Y-79.754
X123.362Y-92.225
X124.264Y-91.171
X124.543Y-79.893
X124.581Y-132.001
X124.861Y-120.902
X124.924Y-125.524
X125.44Y-41.78
X125.7Y-44.43
X126.105Y-79.982
X127.528Y-80.008
X128.04Y-46.7
X128.71Y-43.71
X128.811Y-125.601
X128.861Y-80.033
X129.15Y-96.269
X129.19Y-88.529
X129.23Y-86.019
X129.27Y-91.159
X129.27Y-93.669
X129.42Y-131.582
T3
X37.185Y-134.839
X37.734Y-133.513
X37.734Y-136.164
X37.835Y-84.329
X38.384Y-83.003
X38.384Y-85.654
X38.475Y-73.039
X39.024Y-71.713
X39.024Y-74.364
X39.06Y-132.964
X39.06Y-136.714
X39.37Y-54.14
X39.71Y-82.454
X39.71Y-86.204
X40.35Y-71.164
X40.35Y-74.914
X40.386Y-133.513
X40.386Y-136.164
X40.935Y-134.839
X41.036Y-83.003
X41.036Y-85.654
X41.585Y-84.329
X41.676Y-71.713
X41.676Y-74.364
X42.15Y-43.44
X42.225Y-73.039
X44.36Y-43.48
X45.97Y-43.46
X47.78Y-50.57
X50.06Y-59.25
X50.12Y-61.68
X50.19Y-54.71
X56.33Y-41.54
X59.2Y-68.46
X61.18Y-70.09
X61.87Y-49.34
X63.11Y-67.7
X63.3Y-64.51
X65.37Y-57.55
X67.51Y-58.16
X70.42Y-73.85
X72.08Y-46.66
X74.32Y-59.27
X80.2Y-50.97
X82.179Y-104.293
X82.45Y-51.08
X83.652Y-102.63
X85.15Y-60.95
X86.Y-61.88
X86.357Y-96.889
X88.58Y-49.66
X88.89Y-48.08
X89.815Y-42.469
X90.075Y-85.089
X90.364Y-41.143
X90.364Y-43.794
X90.624Y-83.763
X90.624Y-86.414
X91.69Y-40.594
X91.69Y-44.344
X91.95Y-83.214
X91.95Y-86.964
X93.016Y-41.143
X93.016Y-43.794
X93.276Y-83.763
X93.276Y-86.414
X93.565Y-42.469
X93.825Y-85.089
X96.71Y-63.36
X98.67Y-44.19
X100.94Y-45.49
X107.76Y-46.39
X113.33Y-50.22
X114.24Y-52.97
X118.48Y-44.91
X122.835Y-72.389
X123.384Y-71.063
X123.384Y-73.714
X124.71Y-70.514
X124.71Y-74.264
X126.036Y-71.063
X126.036Y-73.714
X126.585Y-72.389
X128.015Y-42.919
X128.564Y-41.593
X128.564Y-44.244
X129.295Y-134.859
X129.844Y-133.533
X129.844Y-136.184
X129.89Y-41.044
X129.89Y-44.794
X131.17Y-132.984
X131.17Y-136.734
X131.216Y-41.593
X131.216Y-44.244
X131.765Y-42.919
X132.496Y-133.533
X132.496Y-136.184
X133.045Y-134.859
T4
X84.95Y-63.5
X86.22Y-63.5
X87.49Y-63.5
T5
X39.74Y-52.46
X64.98Y-49.78
X87.55Y-61.05
X94.72Y-61.51
X100.07Y-64.66
X102.61Y-71.28
X123.57Y-44.38
T6
X54.Y-54.41
X65.26Y-59.05
X68.983Y-117.184
X69.402Y-99.963
X71.93Y-99.975
X80.439Y-103.531
X83.83Y-112.18
X87.03Y-51.16
X96.034Y-108.624
X97.86Y-53.15
X99.18Y-70.04
X99.61Y-68.08
X100.815Y-70.075
X101.63Y-114.419
X111.63Y-59.08
X122.61Y-49.09
T7
X39.977Y-100.141
X40.624Y-116.257
X40.624Y-118.797
X42.517Y-100.141
X45.056Y-100.141
X60.627Y-115.99
X60.652Y-119.711
X63.167Y-115.99
X63.179Y-109.615
X63.179Y-112.155
X63.192Y-119.711
X76.438Y-99.81
X78.978Y-99.81
X90.357Y-121.096
X90.357Y-123.636
X95.869Y-119.749
X95.869Y-122.289
X96.034Y-96.572
X96.034Y-99.112
X96.034Y-102.808
X96.034Y-105.348
X96.034Y-111.621
X96.034Y-114.161
X101.8Y-85.479
X102.72Y-93.939
X102.72Y-96.479
X104.34Y-85.479
X106.88Y-85.479
X112.6Y-98.609
X112.6Y-101.149
X112.6Y-103.689
X114.218Y-132.205
X116.326Y-103.693
X116.758Y-132.205
X118.866Y-103.693
X119.298Y-132.205
X120.162Y-84.326
X121.406Y-103.693
X122.702Y-84.326
X126.309Y-82.014
X126.309Y-123.137
X126.613Y-86.091
X126.613Y-88.631
X126.613Y-91.171
X126.613Y-93.711
X126.613Y-96.251
X127.337Y-102.664
X127.337Y-105.204
X127.35Y-109.04
X127.35Y-111.58
X128.849Y-82.014
X128.849Y-123.137
T8
X39.11Y-42.07
X39.11Y-44.61
X39.11Y-47.15
X39.11Y-49.69
X40.544Y-56.873
X40.544Y-59.413
X52.22Y-64.75
X52.502Y-60.572
X52.584Y-56.67
X55.042Y-60.572
X55.124Y-56.67
X56.87Y-65.81
X59.41Y-65.81
X60.16Y-43.32
X60.16Y-45.86
X61.95Y-65.81
X65.59Y-43.62
X66.57Y-61.81
X66.57Y-64.35
X68.13Y-43.62
X70.43Y-69.5
X70.43Y-72.04
X70.56Y-55.04
X70.56Y-57.58
X70.67Y-43.62
X73.21Y-43.62
X74.3Y-55.07
X74.3Y-57.61
X77.29Y-46.21
X77.29Y-48.75
X80.97Y-55.06
X80.97Y-57.6
X80.97Y-60.14
X88.67Y-58.6
X91.21Y-58.6
X92.23Y-73.19
X94.07Y-66.7
X94.77Y-73.19
X96.61Y-66.7
X97.31Y-73.19
X99.85Y-73.19
X102.12Y-43.46
X104.66Y-43.46
X107.2Y-43.46
X109.3Y-52.77
X109.32Y-56.35
X109.74Y-43.46
X111.84Y-52.77
X111.86Y-56.35
X113.04Y-61.93
X113.04Y-64.47
X124.01Y-59.77
X124.01Y-62.31
X125.25Y-52.85
X125.25Y-55.39
T9
X39.06Y-134.839
X39.71Y-84.329
X40.35Y-73.039
X91.69Y-42.469
X91.95Y-85.089
X124.71Y-72.389
X129.89Y-42.919
X131.17Y-134.859
T0
M30
