%FSLAX45Y45*%
G04 Gerber Fmt 4.5, Leading zero omitted, Abs format (unit mm)*
G04 Created by KiCad (PCBNEW 4.0.6) date 05/22/17 18:06:06*
%MOMM*%
%LPD*%
G01*
G04 APERTURE LIST*
%ADD10C,0.127000*%
%ADD11C,0.025400*%
%ADD12C,0.200000*%
%ADD13C,0.300000*%
G04 APERTURE END LIST*
D10*
D11*
X3461030Y-13866860D02*
X3461030Y-3866860D01*
X13461030Y-13866860D02*
X3461030Y-13866860D01*
X13461030Y-3866860D02*
X13461030Y-13866860D01*
X3461030Y-3866860D02*
X13461030Y-3866860D01*
D12*
X10154030Y-12541860D02*
X10184030Y-12571860D01*
X10184030Y-12541860D02*
X10154030Y-12571860D01*
X10162030Y-11921860D02*
X10192030Y-11951860D01*
X10192030Y-11921860D02*
X10162030Y-11951860D01*
X10162030Y-12142860D02*
X10192030Y-12172860D01*
X10192030Y-12142860D02*
X10162030Y-12172860D01*
X10162030Y-12340860D02*
X10192030Y-12370860D01*
X10192030Y-12340860D02*
X10162030Y-12370860D01*
X10165030Y-12796860D02*
X10195030Y-12826860D01*
X10195030Y-12796860D02*
X10165030Y-12826860D01*
X10990270Y-11732270D02*
X11020270Y-11762270D01*
X11020270Y-11732270D02*
X10990270Y-11762270D01*
X11488110Y-11485890D02*
X11518110Y-11515890D01*
X11518110Y-11485890D02*
X11488110Y-11515890D01*
X11488110Y-11645910D02*
X11518110Y-11675910D01*
X11518110Y-11645910D02*
X11488110Y-11675910D01*
X11560170Y-11564890D02*
X11590170Y-11594890D01*
X11590170Y-11564890D02*
X11560170Y-11594890D01*
X11632890Y-11490970D02*
X11662890Y-11520970D01*
X11662890Y-11490970D02*
X11632890Y-11520970D01*
X11632890Y-11643370D02*
X11662890Y-11673370D01*
X11662890Y-11643370D02*
X11632890Y-11673370D01*
X3895730Y-10950050D02*
G75*
G03X3895730Y-10950050I-20000J0D01*
G01*
X4035430Y-10401410D02*
G75*
G03X4035430Y-10401410I-20000J0D01*
G01*
X4036700Y-10546190D02*
G75*
G03X4036700Y-10546190I-20000J0D01*
G01*
X4145000Y-4232000D02*
G75*
G03X4145000Y-4232000I-20000J0D01*
G01*
X4163700Y-10859880D02*
G75*
G03X4163700Y-10859880I-20000J0D01*
G01*
X4164970Y-10939890D02*
G75*
G03X4164970Y-10939890I-20000J0D01*
G01*
X4355000Y-4124000D02*
G75*
G03X4355000Y-4124000I-20000J0D01*
G01*
X4421000Y-4253000D02*
G75*
G03X4421000Y-4253000I-20000J0D01*
G01*
X4552000Y-4160000D02*
G75*
G03X4552000Y-4160000I-20000J0D01*
G01*
X4559940Y-12247990D02*
G75*
G03X4559940Y-12247990I-20000J0D01*
G01*
X5180970Y-12249260D02*
G75*
G03X5180970Y-12249260I-20000J0D01*
G01*
X5290190Y-10859880D02*
G75*
G03X5290190Y-10859880I-20000J0D01*
G01*
X5290190Y-11022440D02*
G75*
G03X5290190Y-11022440I-20000J0D01*
G01*
X5513710Y-10616040D02*
G75*
G03X5513710Y-10616040I-20000J0D01*
G01*
X5515000Y-5348000D02*
G75*
G03X5515000Y-5348000I-20000J0D01*
G01*
X5523000Y-5216000D02*
G75*
G03X5523000Y-5216000I-20000J0D01*
G01*
X5657220Y-10617310D02*
G75*
G03X5657220Y-10617310I-20000J0D01*
G01*
X5743000Y-4108000D02*
G75*
G03X5743000Y-4108000I-20000J0D01*
G01*
X5781680Y-10616040D02*
G75*
G03X5781680Y-10616040I-20000J0D01*
G01*
X5851530Y-10773520D02*
G75*
G03X5851530Y-10773520I-20000J0D01*
G01*
X5851530Y-10951320D02*
G75*
G03X5851530Y-10951320I-20000J0D01*
G01*
X6017265Y-10787490D02*
G75*
G03X6017265Y-10787490I-20000J0D01*
G01*
X6022345Y-9398745D02*
G75*
G03X6022345Y-9398745I-20000J0D01*
G01*
X6049000Y-6220000D02*
G75*
G03X6049000Y-6220000I-20000J0D01*
G01*
X6410330Y-10487770D02*
G75*
G03X6410330Y-10487770I-20000J0D01*
G01*
X6499230Y-10616040D02*
G75*
G03X6499230Y-10616040I-20000J0D01*
G01*
X6590035Y-10706845D02*
G75*
G03X6590035Y-10706845I-20000J0D01*
G01*
X6659250Y-10490310D02*
G75*
G03X6659250Y-10490310I-20000J0D01*
G01*
X6660520Y-9512410D02*
G75*
G03X6660520Y-9512410I-20000J0D01*
G01*
X6688460Y-10806540D02*
G75*
G03X6688460Y-10806540I-20000J0D01*
G01*
X6689095Y-10805905D02*
G75*
G03X6689095Y-10805905I-20000J0D01*
G01*
X6692270Y-10941160D02*
G75*
G03X6692270Y-10941160I-20000J0D01*
G01*
X6693540Y-11080860D02*
G75*
G03X6693540Y-11080860I-20000J0D01*
G01*
X6793870Y-11178650D02*
G75*
G03X6793870Y-11178650I-20000J0D01*
G01*
X6810380Y-10694780D02*
G75*
G03X6810380Y-10694780I-20000J0D01*
G01*
X6932300Y-10575400D02*
G75*
G03X6932300Y-10575400I-20000J0D01*
G01*
X7019930Y-12414360D02*
G75*
G03X7019930Y-12414360I-20000J0D01*
G01*
X7036000Y-5274000D02*
G75*
G03X7036000Y-5274000I-20000J0D01*
G01*
X7228210Y-12413090D02*
G75*
G03X7228210Y-12413090I-20000J0D01*
G01*
X7323460Y-11408520D02*
G75*
G03X7323460Y-11408520I-20000J0D01*
G01*
X7564000Y-7115000D02*
G75*
G03X7564000Y-7115000I-20000J0D01*
G01*
X7582540Y-11540600D02*
G75*
G03X7582540Y-11540600I-20000J0D01*
G01*
X7587620Y-11723480D02*
G75*
G03X7587620Y-11723480I-20000J0D01*
G01*
X7722240Y-11737450D02*
G75*
G03X7722240Y-11737450I-20000J0D01*
G01*
X7925440Y-11695540D02*
G75*
G03X7925440Y-11695540I-20000J0D01*
G01*
X8077000Y-6751000D02*
G75*
G03X8077000Y-6751000I-20000J0D01*
G01*
X8262000Y-6751000D02*
G75*
G03X8262000Y-6751000I-20000J0D01*
G01*
X8336920Y-12470240D02*
G75*
G03X8336920Y-12470240I-20000J0D01*
G01*
X8387720Y-10773520D02*
G75*
G03X8387720Y-10773520I-20000J0D01*
G01*
X8414390Y-11045300D02*
G75*
G03X8414390Y-11045300I-20000J0D01*
G01*
X8545200Y-10480150D02*
G75*
G03X8545200Y-10480150I-20000J0D01*
G01*
X8588000Y-5407000D02*
G75*
G03X8588000Y-5407000I-20000J0D01*
G01*
X8697600Y-10480150D02*
G75*
G03X8697600Y-10480150I-20000J0D01*
G01*
X8714000Y-5321000D02*
G75*
G03X8714000Y-5321000I-20000J0D01*
G01*
X8769990Y-11228180D02*
G75*
G03X8769990Y-11228180I-20000J0D01*
G01*
X8777610Y-11417410D02*
G75*
G03X8777610Y-11417410I-20000J0D01*
G01*
X8876670Y-10153760D02*
G75*
G03X8876670Y-10153760I-20000J0D01*
G01*
X8876670Y-10282030D02*
G75*
G03X8876670Y-10282030I-20000J0D01*
G01*
X8876670Y-10421730D02*
G75*
G03X8876670Y-10421730I-20000J0D01*
G01*
X9031610Y-10071210D02*
G75*
G03X9031610Y-10071210I-20000J0D01*
G01*
X9225920Y-10071210D02*
G75*
G03X9225920Y-10071210I-20000J0D01*
G01*
X9330060Y-12382610D02*
G75*
G03X9330060Y-12382610I-20000J0D01*
G01*
X9426000Y-5234000D02*
G75*
G03X9426000Y-5234000I-20000J0D01*
G01*
X9665000Y-6181000D02*
G75*
G03X9665000Y-6181000I-20000J0D01*
G01*
X10368030Y-9919860D02*
G75*
G03X10368030Y-9919860I-20000J0D01*
G01*
X10405030Y-11434860D02*
G75*
G03X10405030Y-11434860I-20000J0D01*
G01*
X10472000Y-6252000D02*
G75*
G03X10472000Y-6252000I-20000J0D01*
G01*
X10512030Y-8151860D02*
G75*
G03X10512030Y-8151860I-20000J0D01*
G01*
X10585850Y-10756670D02*
G75*
G03X10585850Y-10756670I-20000J0D01*
G01*
X10590930Y-10947170D02*
G75*
G03X10590930Y-10947170I-20000J0D01*
G01*
X10594000Y-5263000D02*
G75*
G03X10594000Y-5263000I-20000J0D01*
G01*
X10605030Y-13313860D02*
G75*
G03X10605030Y-13313860I-20000J0D01*
G01*
X10611030Y-13048860D02*
G75*
G03X10611030Y-13048860I-20000J0D01*
G01*
X10614030Y-8910860D02*
G75*
G03X10614030Y-8910860I-20000J0D01*
G01*
X10649030Y-8014860D02*
G75*
G03X10649030Y-8014860I-20000J0D01*
G01*
X10661030Y-8258860D02*
G75*
G03X10661030Y-8258860I-20000J0D01*
G01*
X10677290Y-12359410D02*
G75*
G03X10677290Y-12359410I-20000J0D01*
G01*
X10819530Y-12209550D02*
G75*
G03X10819530Y-12209550I-20000J0D01*
G01*
X10823030Y-13036860D02*
G75*
G03X10823030Y-13036860I-20000J0D01*
G01*
X10851030Y-8250860D02*
G75*
G03X10851030Y-8250860I-20000J0D01*
G01*
X10851030Y-10629860D02*
G75*
G03X10851030Y-10629860I-20000J0D01*
G01*
X10855030Y-13309860D02*
G75*
G03X10855030Y-13309860I-20000J0D01*
G01*
X10869150Y-8031980D02*
G75*
G03X10869150Y-8031980I-20000J0D01*
G01*
X10904030Y-12867860D02*
G75*
G03X10904030Y-12867860I-20000J0D01*
G01*
X10921030Y-12584860D02*
G75*
G03X10921030Y-12584860I-20000J0D01*
G01*
X10946000Y-4972000D02*
G75*
G03X10946000Y-4972000I-20000J0D01*
G01*
X11013000Y-4743000D02*
G75*
G03X11013000Y-4743000I-20000J0D01*
G01*
X11021030Y-10636860D02*
G75*
G03X11021030Y-10636860I-20000J0D01*
G01*
X11043050Y-11236730D02*
G75*
G03X11043050Y-11236730I-20000J0D01*
G01*
X11080030Y-13297860D02*
G75*
G03X11080030Y-13297860I-20000J0D01*
G01*
X11089000Y-6428000D02*
G75*
G03X11089000Y-6428000I-20000J0D01*
G01*
X11089030Y-13023860D02*
G75*
G03X11089030Y-13023860I-20000J0D01*
G01*
X11091310Y-11683770D02*
G75*
G03X11091310Y-11683770I-20000J0D01*
G01*
X11115000Y-6518000D02*
G75*
G03X11115000Y-6518000I-20000J0D01*
G01*
X11131950Y-11236730D02*
G75*
G03X11131950Y-11236730I-20000J0D01*
G01*
X11137030Y-12278130D02*
G75*
G03X11137030Y-12278130I-20000J0D01*
G01*
X11191000Y-4869000D02*
G75*
G03X11191000Y-4869000I-20000J0D01*
G01*
X11210536Y-11233237D02*
G75*
G03X11210536Y-11233237I-20000J0D01*
G01*
X11258950Y-8324620D02*
G75*
G03X11258950Y-8324620I-20000J0D01*
G01*
X11297050Y-8041410D02*
G75*
G03X11297050Y-8041410I-20000J0D01*
G01*
X11332000Y-4190000D02*
G75*
G03X11332000Y-4190000I-20000J0D01*
G01*
X11340230Y-8226830D02*
G75*
G03X11340230Y-8226830I-20000J0D01*
G01*
X11430400Y-8041410D02*
G75*
G03X11430400Y-8041410I-20000J0D01*
G01*
X11451990Y-8328430D02*
G75*
G03X11451990Y-8328430I-20000J0D01*
G01*
X11492630Y-11246890D02*
G75*
G03X11492630Y-11246890I-20000J0D01*
G01*
X11639030Y-10132860D02*
G75*
G03X11639030Y-10132860I-20000J0D01*
G01*
X11803780Y-7972830D02*
G75*
G03X11803780Y-7972830I-20000J0D01*
G01*
X11803780Y-8126500D02*
G75*
G03X11803780Y-8126500I-20000J0D01*
G01*
X11804030Y-10108860D02*
G75*
G03X11804030Y-10108860I-20000J0D01*
G01*
X11848230Y-8313190D02*
G75*
G03X11848230Y-8313190I-20000J0D01*
G01*
X11876170Y-11770130D02*
G75*
G03X11876170Y-11770130I-20000J0D01*
G01*
X11963800Y-7972830D02*
G75*
G03X11963800Y-7972830I-20000J0D01*
G01*
X12005030Y-10108860D02*
G75*
G03X12005030Y-10108860I-20000J0D01*
G01*
X12013330Y-12288290D02*
G75*
G03X12013330Y-12288290I-20000J0D01*
G01*
X12043000Y-4283000D02*
G75*
G03X12043000Y-4283000I-20000J0D01*
G01*
X12094610Y-7972830D02*
G75*
G03X12094610Y-7972830I-20000J0D01*
G01*
X12206030Y-10077860D02*
G75*
G03X12206030Y-10077860I-20000J0D01*
G01*
X12213990Y-8846590D02*
G75*
G03X12213990Y-8846590I-20000J0D01*
G01*
X12257170Y-9298710D02*
G75*
G03X12257170Y-9298710I-20000J0D01*
G01*
X12259710Y-11465330D02*
G75*
G03X12259710Y-11465330I-20000J0D01*
G01*
X12263520Y-11342140D02*
G75*
G03X12263520Y-11342140I-20000J0D01*
G01*
X12285110Y-9139960D02*
G75*
G03X12285110Y-9139960I-20000J0D01*
G01*
X12290190Y-7975370D02*
G75*
G03X12290190Y-7975370I-20000J0D01*
G01*
X12356230Y-9222510D02*
G75*
G03X12356230Y-9222510I-20000J0D01*
G01*
X12446400Y-9117100D02*
G75*
G03X12446400Y-9117100I-20000J0D01*
G01*
X12474340Y-7989340D02*
G75*
G03X12474340Y-7989340I-20000J0D01*
G01*
X12478150Y-13200150D02*
G75*
G03X12478150Y-13200150I-20000J0D01*
G01*
X12506090Y-12090170D02*
G75*
G03X12506090Y-12090170I-20000J0D01*
G01*
X12512440Y-12552450D02*
G75*
G03X12512440Y-12552450I-20000J0D01*
G01*
X12564000Y-4178000D02*
G75*
G03X12564000Y-4178000I-20000J0D01*
G01*
X12590000Y-4443000D02*
G75*
G03X12590000Y-4443000I-20000J0D01*
G01*
X12630550Y-7998230D02*
G75*
G03X12630550Y-7998230I-20000J0D01*
G01*
X12772790Y-8000770D02*
G75*
G03X12772790Y-8000770I-20000J0D01*
G01*
X12824000Y-4670000D02*
G75*
G03X12824000Y-4670000I-20000J0D01*
G01*
X12891000Y-4371000D02*
G75*
G03X12891000Y-4371000I-20000J0D01*
G01*
X12901060Y-12560070D02*
G75*
G03X12901060Y-12560070I-20000J0D01*
G01*
X12906140Y-8003310D02*
G75*
G03X12906140Y-8003310I-20000J0D01*
G01*
X12935030Y-9626860D02*
G75*
G03X12935030Y-9626860I-20000J0D01*
G01*
X12939030Y-8852860D02*
G75*
G03X12939030Y-8852860I-20000J0D01*
G01*
X12943030Y-8601860D02*
G75*
G03X12943030Y-8601860I-20000J0D01*
G01*
X12947030Y-9115860D02*
G75*
G03X12947030Y-9115860I-20000J0D01*
G01*
X12947030Y-9366860D02*
G75*
G03X12947030Y-9366860I-20000J0D01*
G01*
X12962020Y-13158240D02*
G75*
G03X12962020Y-13158240I-20000J0D01*
G01*
X3718530Y-13458860D02*
X3718530Y-13508860D01*
X3693530Y-13483860D02*
X3743530Y-13483860D01*
X3773447Y-13326277D02*
X3773447Y-13376277D01*
X3748447Y-13351277D02*
X3798447Y-13351277D01*
X3773447Y-13591442D02*
X3773447Y-13641442D01*
X3748447Y-13616442D02*
X3798447Y-13616442D01*
X3783530Y-8407860D02*
X3783530Y-8457860D01*
X3758530Y-8432860D02*
X3808530Y-8432860D01*
X3838447Y-8275277D02*
X3838447Y-8325277D01*
X3813447Y-8300277D02*
X3863447Y-8300277D01*
X3838447Y-8540443D02*
X3838447Y-8590443D01*
X3813447Y-8565443D02*
X3863447Y-8565443D01*
X3847530Y-7278860D02*
X3847530Y-7328860D01*
X3822530Y-7303860D02*
X3872530Y-7303860D01*
X3902447Y-7146277D02*
X3902447Y-7196277D01*
X3877447Y-7171277D02*
X3927447Y-7171277D01*
X3902447Y-7411442D02*
X3902447Y-7461442D01*
X3877447Y-7436442D02*
X3927447Y-7436442D01*
X3906030Y-13271360D02*
X3906030Y-13321360D01*
X3881030Y-13296360D02*
X3931030Y-13296360D01*
X3906030Y-13646360D02*
X3906030Y-13696360D01*
X3881030Y-13671360D02*
X3931030Y-13671360D01*
X3937000Y-5389000D02*
X3937000Y-5439000D01*
X3912000Y-5414000D02*
X3962000Y-5414000D01*
X3971030Y-8220360D02*
X3971030Y-8270360D01*
X3946030Y-8245360D02*
X3996030Y-8245360D01*
X3971030Y-8595360D02*
X3971030Y-8645360D01*
X3946030Y-8620360D02*
X3996030Y-8620360D01*
X4035030Y-7091360D02*
X4035030Y-7141360D01*
X4010030Y-7116360D02*
X4060030Y-7116360D01*
X4035030Y-7466360D02*
X4035030Y-7516360D01*
X4010030Y-7491360D02*
X4060030Y-7491360D01*
X4038612Y-13326277D02*
X4038612Y-13376277D01*
X4013612Y-13351277D02*
X4063612Y-13351277D01*
X4038612Y-13591442D02*
X4038612Y-13641442D01*
X4013612Y-13616442D02*
X4063612Y-13616442D01*
X4093530Y-13458860D02*
X4093530Y-13508860D01*
X4068530Y-13483860D02*
X4118530Y-13483860D01*
X4103612Y-8275277D02*
X4103612Y-8325277D01*
X4078612Y-8300277D02*
X4128612Y-8300277D01*
X4103612Y-8540443D02*
X4103612Y-8590443D01*
X4078612Y-8565443D02*
X4128612Y-8565443D01*
X4158530Y-8407860D02*
X4158530Y-8457860D01*
X4133530Y-8432860D02*
X4183530Y-8432860D01*
X4167612Y-7146277D02*
X4167612Y-7196277D01*
X4142612Y-7171277D02*
X4192612Y-7171277D01*
X4167612Y-7411442D02*
X4167612Y-7461442D01*
X4142612Y-7436442D02*
X4192612Y-7436442D01*
X4215000Y-4319000D02*
X4215000Y-4369000D01*
X4190000Y-4344000D02*
X4240000Y-4344000D01*
X4222530Y-7278860D02*
X4222530Y-7328860D01*
X4197530Y-7303860D02*
X4247530Y-7303860D01*
X4436000Y-4323000D02*
X4436000Y-4373000D01*
X4411000Y-4348000D02*
X4461000Y-4348000D01*
X4597000Y-4321000D02*
X4597000Y-4371000D01*
X4572000Y-4346000D02*
X4622000Y-4346000D01*
X4778000Y-5032000D02*
X4778000Y-5082000D01*
X4753000Y-5057000D02*
X4803000Y-5057000D01*
X5006000Y-5900000D02*
X5006000Y-5950000D01*
X4981000Y-5925000D02*
X5031000Y-5925000D01*
X5012000Y-6143000D02*
X5012000Y-6193000D01*
X4987000Y-6168000D02*
X5037000Y-6168000D01*
X5019000Y-5446000D02*
X5019000Y-5496000D01*
X4994000Y-5471000D02*
X5044000Y-5471000D01*
X5633000Y-4129000D02*
X5633000Y-4179000D01*
X5608000Y-4154000D02*
X5658000Y-4154000D01*
X5920000Y-6821000D02*
X5920000Y-6871000D01*
X5895000Y-6846000D02*
X5945000Y-6846000D01*
X6118000Y-6984000D02*
X6118000Y-7034000D01*
X6093000Y-7009000D02*
X6143000Y-7009000D01*
X6187000Y-4909000D02*
X6187000Y-4959000D01*
X6162000Y-4934000D02*
X6212000Y-4934000D01*
X6311000Y-6745000D02*
X6311000Y-6795000D01*
X6286000Y-6770000D02*
X6336000Y-6770000D01*
X6330000Y-6426000D02*
X6330000Y-6476000D01*
X6305000Y-6451000D02*
X6355000Y-6451000D01*
X6537000Y-5730000D02*
X6537000Y-5780000D01*
X6512000Y-5755000D02*
X6562000Y-5755000D01*
X6751000Y-5791000D02*
X6751000Y-5841000D01*
X6726000Y-5816000D02*
X6776000Y-5816000D01*
X7042000Y-7360000D02*
X7042000Y-7410000D01*
X7017000Y-7385000D02*
X7067000Y-7385000D01*
X7208000Y-4641000D02*
X7208000Y-4691000D01*
X7183000Y-4666000D02*
X7233000Y-4666000D01*
X7432000Y-5902000D02*
X7432000Y-5952000D01*
X7407000Y-5927000D02*
X7457000Y-5927000D01*
X8020000Y-5072000D02*
X8020000Y-5122000D01*
X7995000Y-5097000D02*
X8045000Y-5097000D01*
X8217860Y-10404350D02*
X8217860Y-10454350D01*
X8192860Y-10429350D02*
X8242860Y-10429350D01*
X8245000Y-5083000D02*
X8245000Y-5133000D01*
X8220000Y-5108000D02*
X8270000Y-5108000D01*
X8365180Y-10237980D02*
X8365180Y-10287980D01*
X8340180Y-10262980D02*
X8390180Y-10262980D01*
X8515000Y-6070000D02*
X8515000Y-6120000D01*
X8490000Y-6095000D02*
X8540000Y-6095000D01*
X8600000Y-6163000D02*
X8600000Y-6213000D01*
X8575000Y-6188000D02*
X8625000Y-6188000D01*
X8635690Y-9663940D02*
X8635690Y-9713940D01*
X8610690Y-9688940D02*
X8660690Y-9688940D01*
X8858000Y-4941000D02*
X8858000Y-4991000D01*
X8833000Y-4966000D02*
X8883000Y-4966000D01*
X8889000Y-4783000D02*
X8889000Y-4833000D01*
X8864000Y-4808000D02*
X8914000Y-4808000D01*
X8981530Y-4221860D02*
X8981530Y-4271860D01*
X8956530Y-4246860D02*
X9006530Y-4246860D01*
X9007530Y-8483860D02*
X9007530Y-8533860D01*
X8982530Y-8508860D02*
X9032530Y-8508860D01*
X9036448Y-4089277D02*
X9036448Y-4139277D01*
X9011448Y-4114277D02*
X9061448Y-4114277D01*
X9036448Y-4354443D02*
X9036448Y-4404443D01*
X9011448Y-4379443D02*
X9061448Y-4379443D01*
X9062448Y-8351277D02*
X9062448Y-8401278D01*
X9037448Y-8376277D02*
X9087448Y-8376277D01*
X9062448Y-8616443D02*
X9062448Y-8666443D01*
X9037448Y-8641443D02*
X9087448Y-8641443D01*
X9169030Y-4034360D02*
X9169030Y-4084360D01*
X9144030Y-4059360D02*
X9194030Y-4059360D01*
X9169030Y-4409360D02*
X9169030Y-4459360D01*
X9144030Y-4434360D02*
X9194030Y-4434360D01*
X9195030Y-8296360D02*
X9195030Y-8346360D01*
X9170030Y-8321360D02*
X9220030Y-8321360D01*
X9195030Y-8671360D02*
X9195030Y-8721360D01*
X9170030Y-8696360D02*
X9220030Y-8696360D01*
X9301613Y-4089277D02*
X9301613Y-4139277D01*
X9276613Y-4114277D02*
X9326613Y-4114277D01*
X9301613Y-4354443D02*
X9301613Y-4404443D01*
X9276613Y-4379443D02*
X9326613Y-4379443D01*
X9327613Y-8351277D02*
X9327613Y-8401278D01*
X9302613Y-8376277D02*
X9352613Y-8376277D01*
X9327613Y-8616443D02*
X9327613Y-8666443D01*
X9302613Y-8641443D02*
X9352613Y-8641443D01*
X9356530Y-4221860D02*
X9356530Y-4271860D01*
X9331530Y-4246860D02*
X9381530Y-4246860D01*
X9382530Y-8483860D02*
X9382530Y-8533860D01*
X9357530Y-8508860D02*
X9407530Y-8508860D01*
X9671000Y-6311000D02*
X9671000Y-6361000D01*
X9646000Y-6336000D02*
X9696000Y-6336000D01*
X9867000Y-4394000D02*
X9867000Y-4444000D01*
X9842000Y-4419000D02*
X9892000Y-4419000D01*
X10094000Y-4524000D02*
X10094000Y-4574000D01*
X10069000Y-4549000D02*
X10119000Y-4549000D01*
X10776000Y-4614000D02*
X10776000Y-4664000D01*
X10751000Y-4639000D02*
X10801000Y-4639000D01*
X11333000Y-4997000D02*
X11333000Y-5047000D01*
X11308000Y-5022000D02*
X11358000Y-5022000D01*
X11424000Y-5272000D02*
X11424000Y-5322000D01*
X11399000Y-5297000D02*
X11449000Y-5297000D01*
X11848000Y-4466000D02*
X11848000Y-4516000D01*
X11823000Y-4491000D02*
X11873000Y-4491000D01*
X12283530Y-7213860D02*
X12283530Y-7263860D01*
X12258530Y-7238860D02*
X12308530Y-7238860D01*
X12338447Y-7081277D02*
X12338447Y-7131277D01*
X12313447Y-7106277D02*
X12363447Y-7106277D01*
X12338447Y-7346442D02*
X12338447Y-7396442D01*
X12313447Y-7371442D02*
X12363447Y-7371442D01*
X12471030Y-7026360D02*
X12471030Y-7076360D01*
X12446030Y-7051360D02*
X12496030Y-7051360D01*
X12471030Y-7401360D02*
X12471030Y-7451360D01*
X12446030Y-7426360D02*
X12496030Y-7426360D01*
X12603612Y-7081277D02*
X12603612Y-7131277D01*
X12578612Y-7106277D02*
X12628612Y-7106277D01*
X12603612Y-7346442D02*
X12603612Y-7396442D01*
X12578612Y-7371442D02*
X12628612Y-7371442D01*
X12658530Y-7213860D02*
X12658530Y-7263860D01*
X12633530Y-7238860D02*
X12683530Y-7238860D01*
X12801530Y-4266860D02*
X12801530Y-4316860D01*
X12776530Y-4291860D02*
X12826530Y-4291860D01*
X12856447Y-4134277D02*
X12856447Y-4184277D01*
X12831447Y-4159277D02*
X12881447Y-4159277D01*
X12856447Y-4399443D02*
X12856447Y-4449443D01*
X12831447Y-4424443D02*
X12881447Y-4424443D01*
X12929530Y-13460860D02*
X12929530Y-13510860D01*
X12904530Y-13485860D02*
X12954530Y-13485860D01*
X12984447Y-13328277D02*
X12984447Y-13378277D01*
X12959447Y-13353277D02*
X13009447Y-13353277D01*
X12984447Y-13593442D02*
X12984447Y-13643442D01*
X12959447Y-13618442D02*
X13009447Y-13618442D01*
X12989030Y-4079360D02*
X12989030Y-4129360D01*
X12964030Y-4104360D02*
X13014030Y-4104360D01*
X12989030Y-4454360D02*
X12989030Y-4504360D01*
X12964030Y-4479360D02*
X13014030Y-4479360D01*
X13117030Y-13273360D02*
X13117030Y-13323360D01*
X13092030Y-13298360D02*
X13142030Y-13298360D01*
X13117030Y-13648360D02*
X13117030Y-13698360D01*
X13092030Y-13673360D02*
X13142030Y-13673360D01*
X13121612Y-4134277D02*
X13121612Y-4184277D01*
X13096612Y-4159277D02*
X13146612Y-4159277D01*
X13121612Y-4399443D02*
X13121612Y-4449443D01*
X13096612Y-4424443D02*
X13146612Y-4424443D01*
X13176530Y-4266860D02*
X13176530Y-4316860D01*
X13151530Y-4291860D02*
X13201530Y-4291860D01*
X13249612Y-13328277D02*
X13249612Y-13378277D01*
X13224612Y-13353277D02*
X13274612Y-13353277D01*
X13249612Y-13593442D02*
X13249612Y-13643442D01*
X13224612Y-13618442D02*
X13274612Y-13618442D01*
X13304530Y-13460860D02*
X13304530Y-13510860D01*
X13279530Y-13485860D02*
X13329530Y-13485860D01*
X8516213Y-6371213D02*
X8516213Y-6328787D01*
X8473787Y-6328787D01*
X8473787Y-6371213D01*
X8516213Y-6371213D01*
X8643213Y-6371213D02*
X8643213Y-6328787D01*
X8600787Y-6328787D01*
X8600787Y-6371213D01*
X8643213Y-6371213D01*
X8770213Y-6371213D02*
X8770213Y-6328787D01*
X8727787Y-6328787D01*
X8727787Y-6371213D01*
X8770213Y-6371213D01*
X3974000Y-5284100D02*
X4012100Y-5246000D01*
X3974000Y-5207900D01*
X3935900Y-5246000D01*
X3974000Y-5284100D01*
X6498000Y-5016100D02*
X6536100Y-4978000D01*
X6498000Y-4939900D01*
X6459900Y-4978000D01*
X6498000Y-5016100D01*
X8755000Y-6143100D02*
X8793100Y-6105000D01*
X8755000Y-6066900D01*
X8716900Y-6105000D01*
X8755000Y-6143100D01*
X9472000Y-6189100D02*
X9510100Y-6151000D01*
X9472000Y-6112900D01*
X9433900Y-6151000D01*
X9472000Y-6189100D01*
X10007000Y-6504100D02*
X10045100Y-6466000D01*
X10007000Y-6427900D01*
X9968900Y-6466000D01*
X10007000Y-6504100D01*
X10261000Y-7166100D02*
X10299100Y-7128000D01*
X10261000Y-7089900D01*
X10222900Y-7128000D01*
X10261000Y-7166100D01*
X12357000Y-4476100D02*
X12395100Y-4438000D01*
X12357000Y-4399900D01*
X12318900Y-4438000D01*
X12357000Y-4476100D01*
X5360000Y-5401000D02*
X5440000Y-5481000D01*
X5440000Y-5401000D02*
X5360000Y-5481000D01*
X5440000Y-5441000D02*
G75*
G03X5440000Y-5441000I-40000J0D01*
G01*
X6486000Y-5865000D02*
X6566000Y-5945000D01*
X6566000Y-5865000D02*
X6486000Y-5945000D01*
X6566000Y-5905000D02*
G75*
G03X6566000Y-5905000I-40000J0D01*
G01*
X6858330Y-11678400D02*
X6938330Y-11758400D01*
X6938330Y-11678400D02*
X6858330Y-11758400D01*
X6938330Y-11718400D02*
G75*
G03X6938330Y-11718400I-40000J0D01*
G01*
X6900240Y-9956280D02*
X6980240Y-10036280D01*
X6980240Y-9956280D02*
X6900240Y-10036280D01*
X6980240Y-9996280D02*
G75*
G03X6980240Y-9996280I-40000J0D01*
G01*
X7152970Y-9957550D02*
X7232970Y-10037550D01*
X7232970Y-9957550D02*
X7152970Y-10037550D01*
X7232970Y-9997550D02*
G75*
G03X7232970Y-9997550I-40000J0D01*
G01*
X8003870Y-10313150D02*
X8083870Y-10393150D01*
X8083870Y-10313150D02*
X8003870Y-10393150D01*
X8083870Y-10353150D02*
G75*
G03X8083870Y-10353150I-40000J0D01*
G01*
X8342960Y-11178020D02*
X8422960Y-11258020D01*
X8422960Y-11178020D02*
X8342960Y-11258020D01*
X8422960Y-11218020D02*
G75*
G03X8422960Y-11218020I-40000J0D01*
G01*
X8663000Y-5076000D02*
X8743000Y-5156000D01*
X8743000Y-5076000D02*
X8663000Y-5156000D01*
X8743000Y-5116000D02*
G75*
G03X8743000Y-5116000I-40000J0D01*
G01*
X9563430Y-10822420D02*
X9643430Y-10902420D01*
X9643430Y-10822420D02*
X9563430Y-10902420D01*
X9643430Y-10862420D02*
G75*
G03X9643430Y-10862420I-40000J0D01*
G01*
X9746000Y-5275000D02*
X9826000Y-5355000D01*
X9826000Y-5275000D02*
X9746000Y-5355000D01*
X9826000Y-5315000D02*
G75*
G03X9826000Y-5315000I-40000J0D01*
G01*
X9878000Y-6964000D02*
X9958000Y-7044000D01*
X9958000Y-6964000D02*
X9878000Y-7044000D01*
X9958000Y-7004000D02*
G75*
G03X9958000Y-7004000I-40000J0D01*
G01*
X9921000Y-6768000D02*
X10001000Y-6848000D01*
X10001000Y-6768000D02*
X9921000Y-6848000D01*
X10001000Y-6808000D02*
G75*
G03X10001000Y-6808000I-40000J0D01*
G01*
X10041500Y-6967500D02*
X10121500Y-7047500D01*
X10121500Y-6967500D02*
X10041500Y-7047500D01*
X10121500Y-7007500D02*
G75*
G03X10121500Y-7007500I-40000J0D01*
G01*
X10123030Y-11401860D02*
X10203030Y-11481860D01*
X10203030Y-11401860D02*
X10123030Y-11481860D01*
X10203030Y-11441860D02*
G75*
G03X10203030Y-11441860I-40000J0D01*
G01*
X11123000Y-5868000D02*
X11203000Y-5948000D01*
X11203000Y-5868000D02*
X11123000Y-5948000D01*
X11203000Y-5908000D02*
G75*
G03X11203000Y-5908000I-40000J0D01*
G01*
X12221000Y-4869000D02*
X12301000Y-4949000D01*
X12301000Y-4869000D02*
X12221000Y-4949000D01*
X12301000Y-4909000D02*
G75*
G03X12301000Y-4909000I-40000J0D01*
G01*
X3947650Y-9964060D02*
X4047650Y-10064060D01*
X4047650Y-9964060D02*
X3947650Y-10064060D01*
X3997650Y-9964060D02*
X3997650Y-10064060D01*
X3947650Y-10014060D02*
X4047650Y-10014060D01*
X4012420Y-11575690D02*
X4112420Y-11675690D01*
X4112420Y-11575690D02*
X4012420Y-11675690D01*
X4062420Y-11575690D02*
X4062420Y-11675690D01*
X4012420Y-11625690D02*
X4112420Y-11625690D01*
X4012420Y-11829690D02*
X4112420Y-11929690D01*
X4112420Y-11829690D02*
X4012420Y-11929690D01*
X4062420Y-11829690D02*
X4062420Y-11929690D01*
X4012420Y-11879690D02*
X4112420Y-11879690D01*
X4201650Y-9964060D02*
X4301650Y-10064060D01*
X4301650Y-9964060D02*
X4201650Y-10064060D01*
X4251650Y-9964060D02*
X4251650Y-10064060D01*
X4201650Y-10014060D02*
X4301650Y-10014060D01*
X4455650Y-9964060D02*
X4555650Y-10064060D01*
X4555650Y-9964060D02*
X4455650Y-10064060D01*
X4505650Y-9964060D02*
X4505650Y-10064060D01*
X4455650Y-10014060D02*
X4555650Y-10014060D01*
X6012670Y-11549020D02*
X6112670Y-11649020D01*
X6112670Y-11549020D02*
X6012670Y-11649020D01*
X6062670Y-11549020D02*
X6062670Y-11649020D01*
X6012670Y-11599020D02*
X6112670Y-11599020D01*
X6015210Y-11921130D02*
X6115210Y-12021130D01*
X6115210Y-11921130D02*
X6015210Y-12021130D01*
X6065210Y-11921130D02*
X6065210Y-12021130D01*
X6015210Y-11971130D02*
X6115210Y-11971130D01*
X6266670Y-11549020D02*
X6366670Y-11649020D01*
X6366670Y-11549020D02*
X6266670Y-11649020D01*
X6316670Y-11549020D02*
X6316670Y-11649020D01*
X6266670Y-11599020D02*
X6366670Y-11599020D01*
X6267940Y-10911480D02*
X6367940Y-11011480D01*
X6367940Y-10911480D02*
X6267940Y-11011480D01*
X6317940Y-10911480D02*
X6317940Y-11011480D01*
X6267940Y-10961480D02*
X6367940Y-10961480D01*
X6267940Y-11165480D02*
X6367940Y-11265480D01*
X6367940Y-11165480D02*
X6267940Y-11265480D01*
X6317940Y-11165480D02*
X6317940Y-11265480D01*
X6267940Y-11215480D02*
X6367940Y-11215480D01*
X6269210Y-11921130D02*
X6369210Y-12021130D01*
X6369210Y-11921130D02*
X6269210Y-12021130D01*
X6319210Y-11921130D02*
X6319210Y-12021130D01*
X6269210Y-11971130D02*
X6369210Y-11971130D01*
X7593820Y-9931040D02*
X7693820Y-10031040D01*
X7693820Y-9931040D02*
X7593820Y-10031040D01*
X7643820Y-9931040D02*
X7643820Y-10031040D01*
X7593820Y-9981040D02*
X7693820Y-9981040D01*
X7847820Y-9931040D02*
X7947820Y-10031040D01*
X7947820Y-9931040D02*
X7847820Y-10031040D01*
X7897820Y-9931040D02*
X7897820Y-10031040D01*
X7847820Y-9981040D02*
X7947820Y-9981040D01*
X8985740Y-12059560D02*
X9085740Y-12159560D01*
X9085740Y-12059560D02*
X8985740Y-12159560D01*
X9035740Y-12059560D02*
X9035740Y-12159560D01*
X8985740Y-12109560D02*
X9085740Y-12109560D01*
X8985740Y-12313560D02*
X9085740Y-12413560D01*
X9085740Y-12313560D02*
X8985740Y-12413560D01*
X9035740Y-12313560D02*
X9035740Y-12413560D01*
X8985740Y-12363560D02*
X9085740Y-12363560D01*
X9536920Y-11924940D02*
X9636920Y-12024940D01*
X9636920Y-11924940D02*
X9536920Y-12024940D01*
X9586920Y-11924940D02*
X9586920Y-12024940D01*
X9536920Y-11974940D02*
X9636920Y-11974940D01*
X9536920Y-12178940D02*
X9636920Y-12278940D01*
X9636920Y-12178940D02*
X9536920Y-12278940D01*
X9586920Y-12178940D02*
X9586920Y-12278940D01*
X9536920Y-12228940D02*
X9636920Y-12228940D01*
X9553430Y-9607190D02*
X9653430Y-9707190D01*
X9653430Y-9607190D02*
X9553430Y-9707190D01*
X9603430Y-9607190D02*
X9603430Y-9707190D01*
X9553430Y-9657190D02*
X9653430Y-9657190D01*
X9553430Y-9861190D02*
X9653430Y-9961190D01*
X9653430Y-9861190D02*
X9553430Y-9961190D01*
X9603430Y-9861190D02*
X9603430Y-9961190D01*
X9553430Y-9911190D02*
X9653430Y-9911190D01*
X9553430Y-10230760D02*
X9653430Y-10330760D01*
X9653430Y-10230760D02*
X9553430Y-10330760D01*
X9603430Y-10230760D02*
X9603430Y-10330760D01*
X9553430Y-10280760D02*
X9653430Y-10280760D01*
X9553430Y-10484760D02*
X9653430Y-10584760D01*
X9653430Y-10484760D02*
X9553430Y-10584760D01*
X9603430Y-10484760D02*
X9603430Y-10584760D01*
X9553430Y-10534760D02*
X9653430Y-10534760D01*
X9553430Y-11112140D02*
X9653430Y-11212140D01*
X9653430Y-11112140D02*
X9553430Y-11212140D01*
X9603430Y-11112140D02*
X9603430Y-11212140D01*
X9553430Y-11162140D02*
X9653430Y-11162140D01*
X9553430Y-11366140D02*
X9653430Y-11466140D01*
X9653430Y-11366140D02*
X9553430Y-11466140D01*
X9603430Y-11366140D02*
X9603430Y-11466140D01*
X9553430Y-11416140D02*
X9653430Y-11416140D01*
X10130030Y-8497860D02*
X10230030Y-8597860D01*
X10230030Y-8497860D02*
X10130030Y-8597860D01*
X10180030Y-8497860D02*
X10180030Y-8597860D01*
X10130030Y-8547860D02*
X10230030Y-8547860D01*
X10222030Y-9343860D02*
X10322030Y-9443860D01*
X10322030Y-9343860D02*
X10222030Y-9443860D01*
X10272030Y-9343860D02*
X10272030Y-9443860D01*
X10222030Y-9393860D02*
X10322030Y-9393860D01*
X10222030Y-9597860D02*
X10322030Y-9697860D01*
X10322030Y-9597860D02*
X10222030Y-9697860D01*
X10272030Y-9597860D02*
X10272030Y-9697860D01*
X10222030Y-9647860D02*
X10322030Y-9647860D01*
X10384030Y-8497860D02*
X10484030Y-8597860D01*
X10484030Y-8497860D02*
X10384030Y-8597860D01*
X10434030Y-8497860D02*
X10434030Y-8597860D01*
X10384030Y-8547860D02*
X10484030Y-8547860D01*
X10638030Y-8497860D02*
X10738030Y-8597860D01*
X10738030Y-8497860D02*
X10638030Y-8597860D01*
X10688030Y-8497860D02*
X10688030Y-8597860D01*
X10638030Y-8547860D02*
X10738030Y-8547860D01*
X11210030Y-9810860D02*
X11310030Y-9910860D01*
X11310030Y-9810860D02*
X11210030Y-9910860D01*
X11260030Y-9810860D02*
X11260030Y-9910860D01*
X11210030Y-9860860D02*
X11310030Y-9860860D01*
X11210030Y-10064860D02*
X11310030Y-10164860D01*
X11310030Y-10064860D02*
X11210030Y-10164860D01*
X11260030Y-10064860D02*
X11260030Y-10164860D01*
X11210030Y-10114860D02*
X11310030Y-10114860D01*
X11210030Y-10318860D02*
X11310030Y-10418860D01*
X11310030Y-10318860D02*
X11210030Y-10418860D01*
X11260030Y-10318860D02*
X11260030Y-10418860D01*
X11210030Y-10368860D02*
X11310030Y-10368860D01*
X11371830Y-13170470D02*
X11471830Y-13270470D01*
X11471830Y-13170470D02*
X11371830Y-13270470D01*
X11421830Y-13170470D02*
X11421830Y-13270470D01*
X11371830Y-13220470D02*
X11471830Y-13220470D01*
X11582650Y-10319320D02*
X11682650Y-10419320D01*
X11682650Y-10319320D02*
X11582650Y-10419320D01*
X11632650Y-10319320D02*
X11632650Y-10419320D01*
X11582650Y-10369320D02*
X11682650Y-10369320D01*
X11625830Y-13170470D02*
X11725830Y-13270470D01*
X11725830Y-13170470D02*
X11625830Y-13270470D01*
X11675830Y-13170470D02*
X11675830Y-13270470D01*
X11625830Y-13220470D02*
X11725830Y-13220470D01*
X11836650Y-10319320D02*
X11936650Y-10419320D01*
X11936650Y-10319320D02*
X11836650Y-10419320D01*
X11886650Y-10319320D02*
X11886650Y-10419320D01*
X11836650Y-10369320D02*
X11936650Y-10369320D01*
X11879830Y-13170470D02*
X11979830Y-13270470D01*
X11979830Y-13170470D02*
X11879830Y-13270470D01*
X11929830Y-13170470D02*
X11929830Y-13270470D01*
X11879830Y-13220470D02*
X11979830Y-13220470D01*
X11966190Y-8382570D02*
X12066190Y-8482570D01*
X12066190Y-8382570D02*
X11966190Y-8482570D01*
X12016190Y-8382570D02*
X12016190Y-8482570D01*
X11966190Y-8432570D02*
X12066190Y-8432570D01*
X12090650Y-10319320D02*
X12190650Y-10419320D01*
X12190650Y-10319320D02*
X12090650Y-10419320D01*
X12140650Y-10319320D02*
X12140650Y-10419320D01*
X12090650Y-10369320D02*
X12190650Y-10369320D01*
X12220190Y-8382570D02*
X12320190Y-8482570D01*
X12320190Y-8382570D02*
X12220190Y-8482570D01*
X12270190Y-8382570D02*
X12270190Y-8482570D01*
X12220190Y-8432570D02*
X12320190Y-8432570D01*
X12580870Y-8151430D02*
X12680870Y-8251430D01*
X12680870Y-8151430D02*
X12580870Y-8251430D01*
X12630870Y-8151430D02*
X12630870Y-8251430D01*
X12580870Y-8201430D02*
X12680870Y-8201430D01*
X12580870Y-12263690D02*
X12680870Y-12363690D01*
X12680870Y-12263690D02*
X12580870Y-12363690D01*
X12630870Y-12263690D02*
X12630870Y-12363690D01*
X12580870Y-12313690D02*
X12680870Y-12313690D01*
X12611350Y-8559100D02*
X12711350Y-8659100D01*
X12711350Y-8559100D02*
X12611350Y-8659100D01*
X12661350Y-8559100D02*
X12661350Y-8659100D01*
X12611350Y-8609100D02*
X12711350Y-8609100D01*
X12611350Y-8813100D02*
X12711350Y-8913100D01*
X12711350Y-8813100D02*
X12611350Y-8913100D01*
X12661350Y-8813100D02*
X12661350Y-8913100D01*
X12611350Y-8863100D02*
X12711350Y-8863100D01*
X12611350Y-9067100D02*
X12711350Y-9167100D01*
X12711350Y-9067100D02*
X12611350Y-9167100D01*
X12661350Y-9067100D02*
X12661350Y-9167100D01*
X12611350Y-9117100D02*
X12711350Y-9117100D01*
X12611350Y-9321100D02*
X12711350Y-9421100D01*
X12711350Y-9321100D02*
X12611350Y-9421100D01*
X12661350Y-9321100D02*
X12661350Y-9421100D01*
X12611350Y-9371100D02*
X12711350Y-9371100D01*
X12611350Y-9575100D02*
X12711350Y-9675100D01*
X12711350Y-9575100D02*
X12611350Y-9675100D01*
X12661350Y-9575100D02*
X12661350Y-9675100D01*
X12611350Y-9625100D02*
X12711350Y-9625100D01*
X12683740Y-10216450D02*
X12783740Y-10316450D01*
X12783740Y-10216450D02*
X12683740Y-10316450D01*
X12733740Y-10216450D02*
X12733740Y-10316450D01*
X12683740Y-10266450D02*
X12783740Y-10266450D01*
X12683740Y-10470450D02*
X12783740Y-10570450D01*
X12783740Y-10470450D02*
X12683740Y-10570450D01*
X12733740Y-10470450D02*
X12733740Y-10570450D01*
X12683740Y-10520450D02*
X12783740Y-10520450D01*
X12685010Y-10853990D02*
X12785010Y-10953990D01*
X12785010Y-10853990D02*
X12685010Y-10953990D01*
X12735010Y-10853990D02*
X12735010Y-10953990D01*
X12685010Y-10903990D02*
X12785010Y-10903990D01*
X12685010Y-11107990D02*
X12785010Y-11207990D01*
X12785010Y-11107990D02*
X12685010Y-11207990D01*
X12735010Y-11107990D02*
X12735010Y-11207990D01*
X12685010Y-11157990D02*
X12785010Y-11157990D01*
X12834870Y-8151430D02*
X12934870Y-8251430D01*
X12934870Y-8151430D02*
X12834870Y-8251430D01*
X12884870Y-8151430D02*
X12884870Y-8251430D01*
X12834870Y-8201430D02*
X12934870Y-8201430D01*
X12834870Y-12263690D02*
X12934870Y-12363690D01*
X12934870Y-12263690D02*
X12834870Y-12363690D01*
X12884870Y-12263690D02*
X12884870Y-12363690D01*
X12834870Y-12313690D02*
X12934870Y-12313690D01*
X3860200Y-4156200D02*
X3961800Y-4257800D01*
X3961800Y-4156200D02*
X3860200Y-4257800D01*
X3946921Y-4242921D02*
X3946921Y-4171079D01*
X3875079Y-4171079D01*
X3875079Y-4242921D01*
X3946921Y-4242921D01*
X3860200Y-4410200D02*
X3961800Y-4511800D01*
X3961800Y-4410200D02*
X3860200Y-4511800D01*
X3946921Y-4496921D02*
X3946921Y-4425079D01*
X3875079Y-4425079D01*
X3875079Y-4496921D01*
X3946921Y-4496921D01*
X3860200Y-4664200D02*
X3961800Y-4765800D01*
X3961800Y-4664200D02*
X3860200Y-4765800D01*
X3946921Y-4750921D02*
X3946921Y-4679079D01*
X3875079Y-4679079D01*
X3875079Y-4750921D01*
X3946921Y-4750921D01*
X3860200Y-4918200D02*
X3961800Y-5019800D01*
X3961800Y-4918200D02*
X3860200Y-5019800D01*
X3946921Y-5004921D02*
X3946921Y-4933079D01*
X3875079Y-4933079D01*
X3875079Y-5004921D01*
X3946921Y-5004921D01*
X4003592Y-5636536D02*
X4105192Y-5738136D01*
X4105192Y-5636536D02*
X4003592Y-5738136D01*
X4090313Y-5723257D02*
X4090313Y-5651415D01*
X4018471Y-5651415D01*
X4018471Y-5723257D01*
X4090313Y-5723257D01*
X4003592Y-5890536D02*
X4105192Y-5992136D01*
X4105192Y-5890536D02*
X4003592Y-5992136D01*
X4090313Y-5977257D02*
X4090313Y-5905415D01*
X4018471Y-5905415D01*
X4018471Y-5977257D01*
X4090313Y-5977257D01*
X5171230Y-6424190D02*
X5272830Y-6525790D01*
X5272830Y-6424190D02*
X5171230Y-6525790D01*
X5257951Y-6510911D02*
X5257951Y-6439069D01*
X5186109Y-6439069D01*
X5186109Y-6510911D01*
X5257951Y-6510911D01*
X5199424Y-6006360D02*
X5301024Y-6107960D01*
X5301024Y-6006360D02*
X5199424Y-6107960D01*
X5286145Y-6093081D02*
X5286145Y-6021239D01*
X5214303Y-6021239D01*
X5214303Y-6093081D01*
X5286145Y-6093081D01*
X5207552Y-5616216D02*
X5309152Y-5717816D01*
X5309152Y-5616216D02*
X5207552Y-5717816D01*
X5294273Y-5702937D02*
X5294273Y-5631095D01*
X5222431Y-5631095D01*
X5222431Y-5702937D01*
X5294273Y-5702937D01*
X5453424Y-6006360D02*
X5555024Y-6107960D01*
X5555024Y-6006360D02*
X5453424Y-6107960D01*
X5540145Y-6093081D02*
X5540145Y-6021239D01*
X5468303Y-6021239D01*
X5468303Y-6093081D01*
X5540145Y-6093081D01*
X5461552Y-5616216D02*
X5563152Y-5717816D01*
X5563152Y-5616216D02*
X5461552Y-5717816D01*
X5548273Y-5702937D02*
X5548273Y-5631095D01*
X5476431Y-5631095D01*
X5476431Y-5702937D01*
X5548273Y-5702937D01*
X5636200Y-6530200D02*
X5737800Y-6631800D01*
X5737800Y-6530200D02*
X5636200Y-6631800D01*
X5722921Y-6616921D02*
X5722921Y-6545079D01*
X5651079Y-6545079D01*
X5651079Y-6616921D01*
X5722921Y-6616921D01*
X5890200Y-6530200D02*
X5991800Y-6631800D01*
X5991800Y-6530200D02*
X5890200Y-6631800D01*
X5976921Y-6616921D02*
X5976921Y-6545079D01*
X5905079Y-6545079D01*
X5905079Y-6616921D01*
X5976921Y-6616921D01*
X5965200Y-4281200D02*
X6066800Y-4382800D01*
X6066800Y-4281200D02*
X5965200Y-4382800D01*
X6051921Y-4367921D02*
X6051921Y-4296079D01*
X5980079Y-4296079D01*
X5980079Y-4367921D01*
X6051921Y-4367921D01*
X5965200Y-4535200D02*
X6066800Y-4636800D01*
X6066800Y-4535200D02*
X5965200Y-4636800D01*
X6051921Y-4621921D02*
X6051921Y-4550079D01*
X5980079Y-4550079D01*
X5980079Y-4621921D01*
X6051921Y-4621921D01*
X6144200Y-6530200D02*
X6245800Y-6631800D01*
X6245800Y-6530200D02*
X6144200Y-6631800D01*
X6230921Y-6616921D02*
X6230921Y-6545079D01*
X6159079Y-6545079D01*
X6159079Y-6616921D01*
X6230921Y-6616921D01*
X6508200Y-4311200D02*
X6609800Y-4412800D01*
X6609800Y-4311200D02*
X6508200Y-4412800D01*
X6594921Y-4397921D02*
X6594921Y-4326079D01*
X6523079Y-4326079D01*
X6523079Y-4397921D01*
X6594921Y-4397921D01*
X6606200Y-6130200D02*
X6707800Y-6231800D01*
X6707800Y-6130200D02*
X6606200Y-6231800D01*
X6692921Y-6216921D02*
X6692921Y-6145079D01*
X6621079Y-6145079D01*
X6621079Y-6216921D01*
X6692921Y-6216921D01*
X6606200Y-6384200D02*
X6707800Y-6485800D01*
X6707800Y-6384200D02*
X6606200Y-6485800D01*
X6692921Y-6470921D02*
X6692921Y-6399079D01*
X6621079Y-6399079D01*
X6621079Y-6470921D01*
X6692921Y-6470921D01*
X6762200Y-4311200D02*
X6863800Y-4412800D01*
X6863800Y-4311200D02*
X6762200Y-4412800D01*
X6848921Y-4397921D02*
X6848921Y-4326079D01*
X6777079Y-4326079D01*
X6777079Y-4397921D01*
X6848921Y-4397921D01*
X6992200Y-6899200D02*
X7093800Y-7000800D01*
X7093800Y-6899200D02*
X6992200Y-7000800D01*
X7078921Y-6985921D02*
X7078921Y-6914079D01*
X7007079Y-6914079D01*
X7007079Y-6985921D01*
X7078921Y-6985921D01*
X6992200Y-7153200D02*
X7093800Y-7254800D01*
X7093800Y-7153200D02*
X6992200Y-7254800D01*
X7078921Y-7239921D02*
X7078921Y-7168079D01*
X7007079Y-7168079D01*
X7007079Y-7239921D01*
X7078921Y-7239921D01*
X7005200Y-5453200D02*
X7106800Y-5554800D01*
X7106800Y-5453200D02*
X7005200Y-5554800D01*
X7091921Y-5539921D02*
X7091921Y-5468079D01*
X7020079Y-5468079D01*
X7020079Y-5539921D01*
X7091921Y-5539921D01*
X7005200Y-5707200D02*
X7106800Y-5808800D01*
X7106800Y-5707200D02*
X7005200Y-5808800D01*
X7091921Y-5793921D02*
X7091921Y-5722079D01*
X7020079Y-5722079D01*
X7020079Y-5793921D01*
X7091921Y-5793921D01*
X7016200Y-4311200D02*
X7117800Y-4412800D01*
X7117800Y-4311200D02*
X7016200Y-4412800D01*
X7102921Y-4397921D02*
X7102921Y-4326079D01*
X7031079Y-4326079D01*
X7031079Y-4397921D01*
X7102921Y-4397921D01*
X7270200Y-4311200D02*
X7371800Y-4412800D01*
X7371800Y-4311200D02*
X7270200Y-4412800D01*
X7356921Y-4397921D02*
X7356921Y-4326079D01*
X7285079Y-4326079D01*
X7285079Y-4397921D01*
X7356921Y-4397921D01*
X7379200Y-5456200D02*
X7480800Y-5557800D01*
X7480800Y-5456200D02*
X7379200Y-5557800D01*
X7465921Y-5542921D02*
X7465921Y-5471079D01*
X7394079Y-5471079D01*
X7394079Y-5542921D01*
X7465921Y-5542921D01*
X7379200Y-5710200D02*
X7480800Y-5811800D01*
X7480800Y-5710200D02*
X7379200Y-5811800D01*
X7465921Y-5796921D02*
X7465921Y-5725079D01*
X7394079Y-5725079D01*
X7394079Y-5796921D01*
X7465921Y-5796921D01*
X7678200Y-4570200D02*
X7779800Y-4671800D01*
X7779800Y-4570200D02*
X7678200Y-4671800D01*
X7764921Y-4656921D02*
X7764921Y-4585079D01*
X7693079Y-4585079D01*
X7693079Y-4656921D01*
X7764921Y-4656921D01*
X7678200Y-4824200D02*
X7779800Y-4925800D01*
X7779800Y-4824200D02*
X7678200Y-4925800D01*
X7764921Y-4910921D02*
X7764921Y-4839079D01*
X7693079Y-4839079D01*
X7693079Y-4910921D01*
X7764921Y-4910921D01*
X8046200Y-5455200D02*
X8147800Y-5556800D01*
X8147800Y-5455200D02*
X8046200Y-5556800D01*
X8132921Y-5541921D02*
X8132921Y-5470079D01*
X8061079Y-5470079D01*
X8061079Y-5541921D01*
X8132921Y-5541921D01*
X8046200Y-5709200D02*
X8147800Y-5810800D01*
X8147800Y-5709200D02*
X8046200Y-5810800D01*
X8132921Y-5795921D02*
X8132921Y-5724079D01*
X8061079Y-5724079D01*
X8061079Y-5795921D01*
X8132921Y-5795921D01*
X8046200Y-5963200D02*
X8147800Y-6064800D01*
X8147800Y-5963200D02*
X8046200Y-6064800D01*
X8132921Y-6049921D02*
X8132921Y-5978079D01*
X8061079Y-5978079D01*
X8061079Y-6049921D01*
X8132921Y-6049921D01*
X8816200Y-5809200D02*
X8917800Y-5910800D01*
X8917800Y-5809200D02*
X8816200Y-5910800D01*
X8902921Y-5895921D02*
X8902921Y-5824079D01*
X8831079Y-5824079D01*
X8831079Y-5895921D01*
X8902921Y-5895921D01*
X9070200Y-5809200D02*
X9171800Y-5910800D01*
X9171800Y-5809200D02*
X9070200Y-5910800D01*
X9156921Y-5895921D02*
X9156921Y-5824079D01*
X9085079Y-5824079D01*
X9085079Y-5895921D01*
X9156921Y-5895921D01*
X9172200Y-7268200D02*
X9273800Y-7369800D01*
X9273800Y-7268200D02*
X9172200Y-7369800D01*
X9258921Y-7354921D02*
X9258921Y-7283079D01*
X9187079Y-7283079D01*
X9187079Y-7354921D01*
X9258921Y-7354921D01*
X9356200Y-6619200D02*
X9457800Y-6720800D01*
X9457800Y-6619200D02*
X9356200Y-6720800D01*
X9442921Y-6705921D02*
X9442921Y-6634079D01*
X9371079Y-6634079D01*
X9371079Y-6705921D01*
X9442921Y-6705921D01*
X9426200Y-7268200D02*
X9527800Y-7369800D01*
X9527800Y-7268200D02*
X9426200Y-7369800D01*
X9512921Y-7354921D02*
X9512921Y-7283079D01*
X9441079Y-7283079D01*
X9441079Y-7354921D01*
X9512921Y-7354921D01*
X9610200Y-6619200D02*
X9711800Y-6720800D01*
X9711800Y-6619200D02*
X9610200Y-6720800D01*
X9696921Y-6705921D02*
X9696921Y-6634079D01*
X9625079Y-6634079D01*
X9625079Y-6705921D01*
X9696921Y-6705921D01*
X9680200Y-7268200D02*
X9781800Y-7369800D01*
X9781800Y-7268200D02*
X9680200Y-7369800D01*
X9766921Y-7354921D02*
X9766921Y-7283079D01*
X9695079Y-7283079D01*
X9695079Y-7354921D01*
X9766921Y-7354921D01*
X9934200Y-7268200D02*
X10035800Y-7369800D01*
X10035800Y-7268200D02*
X9934200Y-7369800D01*
X10020921Y-7354921D02*
X10020921Y-7283079D01*
X9949079Y-7283079D01*
X9949079Y-7354921D01*
X10020921Y-7354921D01*
X10161200Y-4295200D02*
X10262800Y-4396800D01*
X10262800Y-4295200D02*
X10161200Y-4396800D01*
X10247921Y-4381921D02*
X10247921Y-4310079D01*
X10176079Y-4310079D01*
X10176079Y-4381921D01*
X10247921Y-4381921D01*
X10415200Y-4295200D02*
X10516800Y-4396800D01*
X10516800Y-4295200D02*
X10415200Y-4396800D01*
X10501921Y-4381921D02*
X10501921Y-4310079D01*
X10430079Y-4310079D01*
X10430079Y-4381921D01*
X10501921Y-4381921D01*
X10669200Y-4295200D02*
X10770800Y-4396800D01*
X10770800Y-4295200D02*
X10669200Y-4396800D01*
X10755921Y-4381921D02*
X10755921Y-4310079D01*
X10684079Y-4310079D01*
X10684079Y-4381921D01*
X10755921Y-4381921D01*
X10879200Y-5226200D02*
X10980800Y-5327800D01*
X10980800Y-5226200D02*
X10879200Y-5327800D01*
X10965921Y-5312921D02*
X10965921Y-5241079D01*
X10894079Y-5241079D01*
X10894079Y-5312921D01*
X10965921Y-5312921D01*
X10881200Y-5584200D02*
X10982800Y-5685800D01*
X10982800Y-5584200D02*
X10881200Y-5685800D01*
X10967921Y-5670921D02*
X10967921Y-5599079D01*
X10896079Y-5599079D01*
X10896079Y-5670921D01*
X10967921Y-5670921D01*
X10923200Y-4295200D02*
X11024800Y-4396800D01*
X11024800Y-4295200D02*
X10923200Y-4396800D01*
X11009921Y-4381921D02*
X11009921Y-4310079D01*
X10938079Y-4310079D01*
X10938079Y-4381921D01*
X11009921Y-4381921D01*
X11133200Y-5226200D02*
X11234800Y-5327800D01*
X11234800Y-5226200D02*
X11133200Y-5327800D01*
X11219921Y-5312921D02*
X11219921Y-5241079D01*
X11148079Y-5241079D01*
X11148079Y-5312921D01*
X11219921Y-5312921D01*
X11135200Y-5584200D02*
X11236800Y-5685800D01*
X11236800Y-5584200D02*
X11135200Y-5685800D01*
X11221921Y-5670921D02*
X11221921Y-5599079D01*
X11150079Y-5599079D01*
X11150079Y-5670921D01*
X11221921Y-5670921D01*
X11253200Y-6142200D02*
X11354800Y-6243800D01*
X11354800Y-6142200D02*
X11253200Y-6243800D01*
X11339921Y-6228921D02*
X11339921Y-6157079D01*
X11268079Y-6157079D01*
X11268079Y-6228921D01*
X11339921Y-6228921D01*
X11253200Y-6396200D02*
X11354800Y-6497800D01*
X11354800Y-6396200D02*
X11253200Y-6497800D01*
X11339921Y-6482921D02*
X11339921Y-6411079D01*
X11268079Y-6411079D01*
X11268079Y-6482921D01*
X11339921Y-6482921D01*
X12350200Y-5926200D02*
X12451800Y-6027800D01*
X12451800Y-5926200D02*
X12350200Y-6027800D01*
X12436921Y-6012921D02*
X12436921Y-5941079D01*
X12365079Y-5941079D01*
X12365079Y-6012921D01*
X12436921Y-6012921D01*
X12350200Y-6180200D02*
X12451800Y-6281800D01*
X12451800Y-6180200D02*
X12350200Y-6281800D01*
X12436921Y-6266921D02*
X12436921Y-6195079D01*
X12365079Y-6195079D01*
X12365079Y-6266921D01*
X12436921Y-6266921D01*
X12474200Y-5234200D02*
X12575800Y-5335800D01*
X12575800Y-5234200D02*
X12474200Y-5335800D01*
X12560921Y-5320921D02*
X12560921Y-5249079D01*
X12489079Y-5249079D01*
X12489079Y-5320921D01*
X12560921Y-5320921D01*
X12474200Y-5488200D02*
X12575800Y-5589800D01*
X12575800Y-5488200D02*
X12474200Y-5589800D01*
X12560921Y-5574921D02*
X12560921Y-5503079D01*
X12489079Y-5503079D01*
X12489079Y-5574921D01*
X12560921Y-5574921D01*
X3781030Y-13358860D02*
X4031030Y-13608860D01*
X4031030Y-13358860D02*
X3781030Y-13608860D01*
X3906030Y-13608860D02*
X4031030Y-13483860D01*
X3906030Y-13358860D01*
X3781030Y-13483860D01*
X3906030Y-13608860D01*
X3846030Y-8307860D02*
X4096030Y-8557860D01*
X4096030Y-8307860D02*
X3846030Y-8557860D01*
X3971030Y-8557860D02*
X4096030Y-8432860D01*
X3971030Y-8307860D01*
X3846030Y-8432860D01*
X3971030Y-8557860D01*
X3910030Y-7178860D02*
X4160030Y-7428860D01*
X4160030Y-7178860D02*
X3910030Y-7428860D01*
X4035030Y-7428860D02*
X4160030Y-7303860D01*
X4035030Y-7178860D01*
X3910030Y-7303860D01*
X4035030Y-7428860D01*
X9044030Y-4121860D02*
X9294030Y-4371860D01*
X9294030Y-4121860D02*
X9044030Y-4371860D01*
X9169030Y-4371860D02*
X9294030Y-4246860D01*
X9169030Y-4121860D01*
X9044030Y-4246860D01*
X9169030Y-4371860D01*
X9070030Y-8383860D02*
X9320030Y-8633860D01*
X9320030Y-8383860D02*
X9070030Y-8633860D01*
X9195030Y-8633860D02*
X9320030Y-8508860D01*
X9195030Y-8383860D01*
X9070030Y-8508860D01*
X9195030Y-8633860D01*
X12346030Y-7113860D02*
X12596030Y-7363860D01*
X12596030Y-7113860D02*
X12346030Y-7363860D01*
X12471030Y-7363860D02*
X12596030Y-7238860D01*
X12471030Y-7113860D01*
X12346030Y-7238860D01*
X12471030Y-7363860D01*
X12864030Y-4166860D02*
X13114030Y-4416860D01*
X13114030Y-4166860D02*
X12864030Y-4416860D01*
X12989030Y-4416860D02*
X13114030Y-4291860D01*
X12989030Y-4166860D01*
X12864030Y-4291860D01*
X12989030Y-4416860D01*
X12992030Y-13360860D02*
X13242030Y-13610860D01*
X13242030Y-13360860D02*
X12992030Y-13610860D01*
X13117030Y-13610860D02*
X13242030Y-13485860D01*
X13117030Y-13360860D01*
X12992030Y-13485860D01*
X13117030Y-13610860D01*
D13*
X3731188Y-14333844D02*
X3731188Y-14033844D01*
X3802617Y-14033844D01*
X3845474Y-14048130D01*
X3874046Y-14076701D01*
X3888331Y-14105273D01*
X3902617Y-14162416D01*
X3902617Y-14205273D01*
X3888331Y-14262416D01*
X3874046Y-14290987D01*
X3845474Y-14319559D01*
X3802617Y-14333844D01*
X3731188Y-14333844D01*
X4031188Y-14333844D02*
X4031188Y-14133844D01*
X4031188Y-14190987D02*
X4045474Y-14162416D01*
X4059760Y-14148130D01*
X4088331Y-14133844D01*
X4116903Y-14133844D01*
X4216903Y-14333844D02*
X4216903Y-14133844D01*
X4216903Y-14033844D02*
X4202617Y-14048130D01*
X4216903Y-14062416D01*
X4231189Y-14048130D01*
X4216903Y-14033844D01*
X4216903Y-14062416D01*
X4402617Y-14333844D02*
X4374046Y-14319559D01*
X4359760Y-14290987D01*
X4359760Y-14033844D01*
X4559760Y-14333844D02*
X4531189Y-14319559D01*
X4516903Y-14290987D01*
X4516903Y-14033844D01*
X4902617Y-14333844D02*
X4902617Y-14033844D01*
X5002617Y-14248130D01*
X5102617Y-14033844D01*
X5102617Y-14333844D01*
X5374046Y-14333844D02*
X5374046Y-14176701D01*
X5359760Y-14148130D01*
X5331189Y-14133844D01*
X5274046Y-14133844D01*
X5245474Y-14148130D01*
X5374046Y-14319559D02*
X5345474Y-14333844D01*
X5274046Y-14333844D01*
X5245474Y-14319559D01*
X5231189Y-14290987D01*
X5231189Y-14262416D01*
X5245474Y-14233844D01*
X5274046Y-14219559D01*
X5345474Y-14219559D01*
X5374046Y-14205273D01*
X5516903Y-14133844D02*
X5516903Y-14433844D01*
X5516903Y-14148130D02*
X5545474Y-14133844D01*
X5602617Y-14133844D01*
X5631188Y-14148130D01*
X5645474Y-14162416D01*
X5659760Y-14190987D01*
X5659760Y-14276701D01*
X5645474Y-14305273D01*
X5631188Y-14319559D01*
X5602617Y-14333844D01*
X5545474Y-14333844D01*
X5516903Y-14319559D01*
X5788331Y-14305273D02*
X5802617Y-14319559D01*
X5788331Y-14333844D01*
X5774046Y-14319559D01*
X5788331Y-14305273D01*
X5788331Y-14333844D01*
X5788331Y-14148130D02*
X5802617Y-14162416D01*
X5788331Y-14176701D01*
X5774046Y-14162416D01*
X5788331Y-14148130D01*
X5788331Y-14176701D01*
X3429760Y-14813130D02*
X3459760Y-14843130D01*
X3459760Y-14813130D02*
X3429760Y-14843130D01*
X3788331Y-14663844D02*
X3816903Y-14663844D01*
X3845474Y-14678130D01*
X3859760Y-14692416D01*
X3874046Y-14720987D01*
X3888331Y-14778130D01*
X3888331Y-14849559D01*
X3874046Y-14906701D01*
X3859760Y-14935273D01*
X3845474Y-14949559D01*
X3816903Y-14963844D01*
X3788331Y-14963844D01*
X3759760Y-14949559D01*
X3745474Y-14935273D01*
X3731188Y-14906701D01*
X3716903Y-14849559D01*
X3716903Y-14778130D01*
X3731188Y-14720987D01*
X3745474Y-14692416D01*
X3759760Y-14678130D01*
X3788331Y-14663844D01*
X4016903Y-14935273D02*
X4031188Y-14949559D01*
X4016903Y-14963844D01*
X4002617Y-14949559D01*
X4016903Y-14935273D01*
X4016903Y-14963844D01*
X4131188Y-14663844D02*
X4316903Y-14663844D01*
X4216903Y-14778130D01*
X4259760Y-14778130D01*
X4288331Y-14792416D01*
X4302617Y-14806701D01*
X4316903Y-14835273D01*
X4316903Y-14906701D01*
X4302617Y-14935273D01*
X4288331Y-14949559D01*
X4259760Y-14963844D01*
X4174046Y-14963844D01*
X4145474Y-14949559D01*
X4131188Y-14935273D01*
X4502617Y-14663844D02*
X4531189Y-14663844D01*
X4559760Y-14678130D01*
X4574046Y-14692416D01*
X4588331Y-14720987D01*
X4602617Y-14778130D01*
X4602617Y-14849559D01*
X4588331Y-14906701D01*
X4574046Y-14935273D01*
X4559760Y-14949559D01*
X4531189Y-14963844D01*
X4502617Y-14963844D01*
X4474046Y-14949559D01*
X4459760Y-14935273D01*
X4445474Y-14906701D01*
X4431189Y-14849559D01*
X4431189Y-14778130D01*
X4445474Y-14720987D01*
X4459760Y-14692416D01*
X4474046Y-14678130D01*
X4502617Y-14663844D01*
X4731189Y-14963844D02*
X4731189Y-14763844D01*
X4731189Y-14792416D02*
X4745474Y-14778130D01*
X4774046Y-14763844D01*
X4816903Y-14763844D01*
X4845474Y-14778130D01*
X4859760Y-14806701D01*
X4859760Y-14963844D01*
X4859760Y-14806701D02*
X4874046Y-14778130D01*
X4902617Y-14763844D01*
X4945474Y-14763844D01*
X4974046Y-14778130D01*
X4988331Y-14806701D01*
X4988331Y-14963844D01*
X5131189Y-14963844D02*
X5131189Y-14763844D01*
X5131189Y-14792416D02*
X5145474Y-14778130D01*
X5174046Y-14763844D01*
X5216903Y-14763844D01*
X5245474Y-14778130D01*
X5259760Y-14806701D01*
X5259760Y-14963844D01*
X5259760Y-14806701D02*
X5274046Y-14778130D01*
X5302617Y-14763844D01*
X5345474Y-14763844D01*
X5374046Y-14778130D01*
X5388331Y-14806701D01*
X5388331Y-14963844D01*
X5974046Y-14649559D02*
X5716903Y-15035273D01*
X6359760Y-14663844D02*
X6388331Y-14663844D01*
X6416903Y-14678130D01*
X6431188Y-14692416D01*
X6445474Y-14720987D01*
X6459760Y-14778130D01*
X6459760Y-14849559D01*
X6445474Y-14906701D01*
X6431188Y-14935273D01*
X6416903Y-14949559D01*
X6388331Y-14963844D01*
X6359760Y-14963844D01*
X6331188Y-14949559D01*
X6316903Y-14935273D01*
X6302617Y-14906701D01*
X6288331Y-14849559D01*
X6288331Y-14778130D01*
X6302617Y-14720987D01*
X6316903Y-14692416D01*
X6331188Y-14678130D01*
X6359760Y-14663844D01*
X6588331Y-14935273D02*
X6602617Y-14949559D01*
X6588331Y-14963844D01*
X6574046Y-14949559D01*
X6588331Y-14935273D01*
X6588331Y-14963844D01*
X6788331Y-14663844D02*
X6816903Y-14663844D01*
X6845474Y-14678130D01*
X6859760Y-14692416D01*
X6874045Y-14720987D01*
X6888331Y-14778130D01*
X6888331Y-14849559D01*
X6874045Y-14906701D01*
X6859760Y-14935273D01*
X6845474Y-14949559D01*
X6816903Y-14963844D01*
X6788331Y-14963844D01*
X6759760Y-14949559D01*
X6745474Y-14935273D01*
X6731188Y-14906701D01*
X6716903Y-14849559D01*
X6716903Y-14778130D01*
X6731188Y-14720987D01*
X6745474Y-14692416D01*
X6759760Y-14678130D01*
X6788331Y-14663844D01*
X7174045Y-14963844D02*
X7002617Y-14963844D01*
X7088331Y-14963844D02*
X7088331Y-14663844D01*
X7059760Y-14706701D01*
X7031188Y-14735273D01*
X7002617Y-14749559D01*
X7288331Y-14692416D02*
X7302617Y-14678130D01*
X7331188Y-14663844D01*
X7402617Y-14663844D01*
X7431188Y-14678130D01*
X7445474Y-14692416D01*
X7459760Y-14720987D01*
X7459760Y-14749559D01*
X7445474Y-14792416D01*
X7274045Y-14963844D01*
X7459760Y-14963844D01*
X7574046Y-14663844D02*
X7574046Y-14720987D01*
X7688331Y-14663844D02*
X7688331Y-14720987D01*
X8131188Y-15078130D02*
X8116903Y-15063844D01*
X8088331Y-15020987D01*
X8074045Y-14992416D01*
X8059760Y-14949559D01*
X8045474Y-14878130D01*
X8045474Y-14820987D01*
X8059760Y-14749559D01*
X8074045Y-14706701D01*
X8088331Y-14678130D01*
X8116903Y-14635273D01*
X8131188Y-14620987D01*
X8402617Y-14963844D02*
X8231188Y-14963844D01*
X8316903Y-14963844D02*
X8316903Y-14663844D01*
X8288331Y-14706701D01*
X8259760Y-14735273D01*
X8231188Y-14749559D01*
X8688331Y-14963844D02*
X8516903Y-14963844D01*
X8602617Y-14963844D02*
X8602617Y-14663844D01*
X8574046Y-14706701D01*
X8545474Y-14735273D01*
X8516903Y-14749559D01*
X9045474Y-14963844D02*
X9045474Y-14663844D01*
X9174046Y-14963844D02*
X9174046Y-14806701D01*
X9159760Y-14778130D01*
X9131188Y-14763844D01*
X9088331Y-14763844D01*
X9059760Y-14778130D01*
X9045474Y-14792416D01*
X9359760Y-14963844D02*
X9331188Y-14949559D01*
X9316903Y-14935273D01*
X9302617Y-14906701D01*
X9302617Y-14820987D01*
X9316903Y-14792416D01*
X9331188Y-14778130D01*
X9359760Y-14763844D01*
X9402617Y-14763844D01*
X9431188Y-14778130D01*
X9445474Y-14792416D01*
X9459760Y-14820987D01*
X9459760Y-14906701D01*
X9445474Y-14935273D01*
X9431188Y-14949559D01*
X9402617Y-14963844D01*
X9359760Y-14963844D01*
X9631188Y-14963844D02*
X9602617Y-14949559D01*
X9588331Y-14920987D01*
X9588331Y-14663844D01*
X9859760Y-14949559D02*
X9831189Y-14963844D01*
X9774046Y-14963844D01*
X9745474Y-14949559D01*
X9731189Y-14920987D01*
X9731189Y-14806701D01*
X9745474Y-14778130D01*
X9774046Y-14763844D01*
X9831189Y-14763844D01*
X9859760Y-14778130D01*
X9874046Y-14806701D01*
X9874046Y-14835273D01*
X9731189Y-14863844D01*
X9988331Y-14949559D02*
X10016903Y-14963844D01*
X10074046Y-14963844D01*
X10102617Y-14949559D01*
X10116903Y-14920987D01*
X10116903Y-14906701D01*
X10102617Y-14878130D01*
X10074046Y-14863844D01*
X10031189Y-14863844D01*
X10002617Y-14849559D01*
X9988331Y-14820987D01*
X9988331Y-14806701D01*
X10002617Y-14778130D01*
X10031189Y-14763844D01*
X10074046Y-14763844D01*
X10102617Y-14778130D01*
X10216903Y-15078130D02*
X10231189Y-15063844D01*
X10259760Y-15020987D01*
X10274046Y-14992416D01*
X10288331Y-14949559D01*
X10302617Y-14878130D01*
X10302617Y-14820987D01*
X10288331Y-14749559D01*
X10274046Y-14706701D01*
X10259760Y-14678130D01*
X10231189Y-14635273D01*
X10216903Y-14620987D01*
X3459760Y-15224130D02*
G75*
G03X3459760Y-15224130I-20000J0D01*
G01*
X3788331Y-15059844D02*
X3816903Y-15059844D01*
X3845474Y-15074130D01*
X3859760Y-15088416D01*
X3874046Y-15116987D01*
X3888331Y-15174130D01*
X3888331Y-15245559D01*
X3874046Y-15302701D01*
X3859760Y-15331273D01*
X3845474Y-15345559D01*
X3816903Y-15359844D01*
X3788331Y-15359844D01*
X3759760Y-15345559D01*
X3745474Y-15331273D01*
X3731188Y-15302701D01*
X3716903Y-15245559D01*
X3716903Y-15174130D01*
X3731188Y-15116987D01*
X3745474Y-15088416D01*
X3759760Y-15074130D01*
X3788331Y-15059844D01*
X4016903Y-15331273D02*
X4031188Y-15345559D01*
X4016903Y-15359844D01*
X4002617Y-15345559D01*
X4016903Y-15331273D01*
X4016903Y-15359844D01*
X4288331Y-15159844D02*
X4288331Y-15359844D01*
X4216903Y-15045559D02*
X4145474Y-15259844D01*
X4331188Y-15259844D01*
X4502617Y-15059844D02*
X4531189Y-15059844D01*
X4559760Y-15074130D01*
X4574046Y-15088416D01*
X4588331Y-15116987D01*
X4602617Y-15174130D01*
X4602617Y-15245559D01*
X4588331Y-15302701D01*
X4574046Y-15331273D01*
X4559760Y-15345559D01*
X4531189Y-15359844D01*
X4502617Y-15359844D01*
X4474046Y-15345559D01*
X4459760Y-15331273D01*
X4445474Y-15302701D01*
X4431189Y-15245559D01*
X4431189Y-15174130D01*
X4445474Y-15116987D01*
X4459760Y-15088416D01*
X4474046Y-15074130D01*
X4502617Y-15059844D01*
X4731189Y-15359844D02*
X4731189Y-15159844D01*
X4731189Y-15188416D02*
X4745474Y-15174130D01*
X4774046Y-15159844D01*
X4816903Y-15159844D01*
X4845474Y-15174130D01*
X4859760Y-15202701D01*
X4859760Y-15359844D01*
X4859760Y-15202701D02*
X4874046Y-15174130D01*
X4902617Y-15159844D01*
X4945474Y-15159844D01*
X4974046Y-15174130D01*
X4988331Y-15202701D01*
X4988331Y-15359844D01*
X5131189Y-15359844D02*
X5131189Y-15159844D01*
X5131189Y-15188416D02*
X5145474Y-15174130D01*
X5174046Y-15159844D01*
X5216903Y-15159844D01*
X5245474Y-15174130D01*
X5259760Y-15202701D01*
X5259760Y-15359844D01*
X5259760Y-15202701D02*
X5274046Y-15174130D01*
X5302617Y-15159844D01*
X5345474Y-15159844D01*
X5374046Y-15174130D01*
X5388331Y-15202701D01*
X5388331Y-15359844D01*
X5974046Y-15045559D02*
X5716903Y-15431273D01*
X6359760Y-15059844D02*
X6388331Y-15059844D01*
X6416903Y-15074130D01*
X6431188Y-15088416D01*
X6445474Y-15116987D01*
X6459760Y-15174130D01*
X6459760Y-15245559D01*
X6445474Y-15302701D01*
X6431188Y-15331273D01*
X6416903Y-15345559D01*
X6388331Y-15359844D01*
X6359760Y-15359844D01*
X6331188Y-15345559D01*
X6316903Y-15331273D01*
X6302617Y-15302701D01*
X6288331Y-15245559D01*
X6288331Y-15174130D01*
X6302617Y-15116987D01*
X6316903Y-15088416D01*
X6331188Y-15074130D01*
X6359760Y-15059844D01*
X6588331Y-15331273D02*
X6602617Y-15345559D01*
X6588331Y-15359844D01*
X6574046Y-15345559D01*
X6588331Y-15331273D01*
X6588331Y-15359844D01*
X6788331Y-15059844D02*
X6816903Y-15059844D01*
X6845474Y-15074130D01*
X6859760Y-15088416D01*
X6874045Y-15116987D01*
X6888331Y-15174130D01*
X6888331Y-15245559D01*
X6874045Y-15302701D01*
X6859760Y-15331273D01*
X6845474Y-15345559D01*
X6816903Y-15359844D01*
X6788331Y-15359844D01*
X6759760Y-15345559D01*
X6745474Y-15331273D01*
X6731188Y-15302701D01*
X6716903Y-15245559D01*
X6716903Y-15174130D01*
X6731188Y-15116987D01*
X6745474Y-15088416D01*
X6759760Y-15074130D01*
X6788331Y-15059844D01*
X7174045Y-15359844D02*
X7002617Y-15359844D01*
X7088331Y-15359844D02*
X7088331Y-15059844D01*
X7059760Y-15102701D01*
X7031188Y-15131273D01*
X7002617Y-15145559D01*
X7431188Y-15059844D02*
X7374045Y-15059844D01*
X7345474Y-15074130D01*
X7331188Y-15088416D01*
X7302617Y-15131273D01*
X7288331Y-15188416D01*
X7288331Y-15302701D01*
X7302617Y-15331273D01*
X7316903Y-15345559D01*
X7345474Y-15359844D01*
X7402617Y-15359844D01*
X7431188Y-15345559D01*
X7445474Y-15331273D01*
X7459760Y-15302701D01*
X7459760Y-15231273D01*
X7445474Y-15202701D01*
X7431188Y-15188416D01*
X7402617Y-15174130D01*
X7345474Y-15174130D01*
X7316903Y-15188416D01*
X7302617Y-15202701D01*
X7288331Y-15231273D01*
X7574046Y-15059844D02*
X7574046Y-15116987D01*
X7688331Y-15059844D02*
X7688331Y-15116987D01*
X8131188Y-15474130D02*
X8116903Y-15459844D01*
X8088331Y-15416987D01*
X8074045Y-15388416D01*
X8059760Y-15345559D01*
X8045474Y-15274130D01*
X8045474Y-15216987D01*
X8059760Y-15145559D01*
X8074045Y-15102701D01*
X8088331Y-15074130D01*
X8116903Y-15031273D01*
X8131188Y-15016987D01*
X8402617Y-15359844D02*
X8231188Y-15359844D01*
X8316903Y-15359844D02*
X8316903Y-15059844D01*
X8288331Y-15102701D01*
X8259760Y-15131273D01*
X8231188Y-15145559D01*
X8659760Y-15159844D02*
X8659760Y-15359844D01*
X8588331Y-15045559D02*
X8516903Y-15259844D01*
X8702617Y-15259844D01*
X8788331Y-15059844D02*
X8974046Y-15059844D01*
X8874046Y-15174130D01*
X8916903Y-15174130D01*
X8945474Y-15188416D01*
X8959760Y-15202701D01*
X8974046Y-15231273D01*
X8974046Y-15302701D01*
X8959760Y-15331273D01*
X8945474Y-15345559D01*
X8916903Y-15359844D01*
X8831188Y-15359844D01*
X8802617Y-15345559D01*
X8788331Y-15331273D01*
X9331188Y-15359844D02*
X9331188Y-15059844D01*
X9459760Y-15359844D02*
X9459760Y-15202701D01*
X9445474Y-15174130D01*
X9416903Y-15159844D01*
X9374046Y-15159844D01*
X9345474Y-15174130D01*
X9331188Y-15188416D01*
X9645474Y-15359844D02*
X9616903Y-15345559D01*
X9602617Y-15331273D01*
X9588331Y-15302701D01*
X9588331Y-15216987D01*
X9602617Y-15188416D01*
X9616903Y-15174130D01*
X9645474Y-15159844D01*
X9688331Y-15159844D01*
X9716903Y-15174130D01*
X9731188Y-15188416D01*
X9745474Y-15216987D01*
X9745474Y-15302701D01*
X9731188Y-15331273D01*
X9716903Y-15345559D01*
X9688331Y-15359844D01*
X9645474Y-15359844D01*
X9916903Y-15359844D02*
X9888331Y-15345559D01*
X9874046Y-15316987D01*
X9874046Y-15059844D01*
X10145474Y-15345559D02*
X10116903Y-15359844D01*
X10059760Y-15359844D01*
X10031189Y-15345559D01*
X10016903Y-15316987D01*
X10016903Y-15202701D01*
X10031189Y-15174130D01*
X10059760Y-15159844D01*
X10116903Y-15159844D01*
X10145474Y-15174130D01*
X10159760Y-15202701D01*
X10159760Y-15231273D01*
X10016903Y-15259844D01*
X10274046Y-15345559D02*
X10302617Y-15359844D01*
X10359760Y-15359844D01*
X10388331Y-15345559D01*
X10402617Y-15316987D01*
X10402617Y-15302701D01*
X10388331Y-15274130D01*
X10359760Y-15259844D01*
X10316903Y-15259844D01*
X10288331Y-15245559D01*
X10274046Y-15216987D01*
X10274046Y-15202701D01*
X10288331Y-15174130D01*
X10316903Y-15159844D01*
X10359760Y-15159844D01*
X10388331Y-15174130D01*
X10502617Y-15474130D02*
X10516903Y-15459844D01*
X10545474Y-15416987D01*
X10559760Y-15388416D01*
X10574046Y-15345559D01*
X10588331Y-15274130D01*
X10588331Y-15216987D01*
X10574046Y-15145559D01*
X10559760Y-15102701D01*
X10545474Y-15074130D01*
X10516903Y-15031273D01*
X10502617Y-15016987D01*
X3434760Y-15595130D02*
X3434760Y-15645130D01*
X3409760Y-15620130D02*
X3459760Y-15620130D01*
X3788331Y-15455844D02*
X3816903Y-15455844D01*
X3845474Y-15470130D01*
X3859760Y-15484416D01*
X3874046Y-15512987D01*
X3888331Y-15570130D01*
X3888331Y-15641559D01*
X3874046Y-15698701D01*
X3859760Y-15727273D01*
X3845474Y-15741559D01*
X3816903Y-15755844D01*
X3788331Y-15755844D01*
X3759760Y-15741559D01*
X3745474Y-15727273D01*
X3731188Y-15698701D01*
X3716903Y-15641559D01*
X3716903Y-15570130D01*
X3731188Y-15512987D01*
X3745474Y-15484416D01*
X3759760Y-15470130D01*
X3788331Y-15455844D01*
X4016903Y-15727273D02*
X4031188Y-15741559D01*
X4016903Y-15755844D01*
X4002617Y-15741559D01*
X4016903Y-15727273D01*
X4016903Y-15755844D01*
X4302617Y-15455844D02*
X4159760Y-15455844D01*
X4145474Y-15598701D01*
X4159760Y-15584416D01*
X4188331Y-15570130D01*
X4259760Y-15570130D01*
X4288331Y-15584416D01*
X4302617Y-15598701D01*
X4316903Y-15627273D01*
X4316903Y-15698701D01*
X4302617Y-15727273D01*
X4288331Y-15741559D01*
X4259760Y-15755844D01*
X4188331Y-15755844D01*
X4159760Y-15741559D01*
X4145474Y-15727273D01*
X4502617Y-15455844D02*
X4531189Y-15455844D01*
X4559760Y-15470130D01*
X4574046Y-15484416D01*
X4588331Y-15512987D01*
X4602617Y-15570130D01*
X4602617Y-15641559D01*
X4588331Y-15698701D01*
X4574046Y-15727273D01*
X4559760Y-15741559D01*
X4531189Y-15755844D01*
X4502617Y-15755844D01*
X4474046Y-15741559D01*
X4459760Y-15727273D01*
X4445474Y-15698701D01*
X4431189Y-15641559D01*
X4431189Y-15570130D01*
X4445474Y-15512987D01*
X4459760Y-15484416D01*
X4474046Y-15470130D01*
X4502617Y-15455844D01*
X4731189Y-15755844D02*
X4731189Y-15555844D01*
X4731189Y-15584416D02*
X4745474Y-15570130D01*
X4774046Y-15555844D01*
X4816903Y-15555844D01*
X4845474Y-15570130D01*
X4859760Y-15598701D01*
X4859760Y-15755844D01*
X4859760Y-15598701D02*
X4874046Y-15570130D01*
X4902617Y-15555844D01*
X4945474Y-15555844D01*
X4974046Y-15570130D01*
X4988331Y-15598701D01*
X4988331Y-15755844D01*
X5131189Y-15755844D02*
X5131189Y-15555844D01*
X5131189Y-15584416D02*
X5145474Y-15570130D01*
X5174046Y-15555844D01*
X5216903Y-15555844D01*
X5245474Y-15570130D01*
X5259760Y-15598701D01*
X5259760Y-15755844D01*
X5259760Y-15598701D02*
X5274046Y-15570130D01*
X5302617Y-15555844D01*
X5345474Y-15555844D01*
X5374046Y-15570130D01*
X5388331Y-15598701D01*
X5388331Y-15755844D01*
X5974046Y-15441559D02*
X5716903Y-15827273D01*
X6359760Y-15455844D02*
X6388331Y-15455844D01*
X6416903Y-15470130D01*
X6431188Y-15484416D01*
X6445474Y-15512987D01*
X6459760Y-15570130D01*
X6459760Y-15641559D01*
X6445474Y-15698701D01*
X6431188Y-15727273D01*
X6416903Y-15741559D01*
X6388331Y-15755844D01*
X6359760Y-15755844D01*
X6331188Y-15741559D01*
X6316903Y-15727273D01*
X6302617Y-15698701D01*
X6288331Y-15641559D01*
X6288331Y-15570130D01*
X6302617Y-15512987D01*
X6316903Y-15484416D01*
X6331188Y-15470130D01*
X6359760Y-15455844D01*
X6588331Y-15727273D02*
X6602617Y-15741559D01*
X6588331Y-15755844D01*
X6574046Y-15741559D01*
X6588331Y-15727273D01*
X6588331Y-15755844D01*
X6788331Y-15455844D02*
X6816903Y-15455844D01*
X6845474Y-15470130D01*
X6859760Y-15484416D01*
X6874045Y-15512987D01*
X6888331Y-15570130D01*
X6888331Y-15641559D01*
X6874045Y-15698701D01*
X6859760Y-15727273D01*
X6845474Y-15741559D01*
X6816903Y-15755844D01*
X6788331Y-15755844D01*
X6759760Y-15741559D01*
X6745474Y-15727273D01*
X6731188Y-15698701D01*
X6716903Y-15641559D01*
X6716903Y-15570130D01*
X6731188Y-15512987D01*
X6745474Y-15484416D01*
X6759760Y-15470130D01*
X6788331Y-15455844D01*
X7002617Y-15484416D02*
X7016903Y-15470130D01*
X7045474Y-15455844D01*
X7116903Y-15455844D01*
X7145474Y-15470130D01*
X7159760Y-15484416D01*
X7174045Y-15512987D01*
X7174045Y-15541559D01*
X7159760Y-15584416D01*
X6988331Y-15755844D01*
X7174045Y-15755844D01*
X7359760Y-15455844D02*
X7388331Y-15455844D01*
X7416903Y-15470130D01*
X7431188Y-15484416D01*
X7445474Y-15512987D01*
X7459760Y-15570130D01*
X7459760Y-15641559D01*
X7445474Y-15698701D01*
X7431188Y-15727273D01*
X7416903Y-15741559D01*
X7388331Y-15755844D01*
X7359760Y-15755844D01*
X7331188Y-15741559D01*
X7316903Y-15727273D01*
X7302617Y-15698701D01*
X7288331Y-15641559D01*
X7288331Y-15570130D01*
X7302617Y-15512987D01*
X7316903Y-15484416D01*
X7331188Y-15470130D01*
X7359760Y-15455844D01*
X7574046Y-15455844D02*
X7574046Y-15512987D01*
X7688331Y-15455844D02*
X7688331Y-15512987D01*
X8131188Y-15870130D02*
X8116903Y-15855844D01*
X8088331Y-15812987D01*
X8074045Y-15784416D01*
X8059760Y-15741559D01*
X8045474Y-15670130D01*
X8045474Y-15612987D01*
X8059760Y-15541559D01*
X8074045Y-15498701D01*
X8088331Y-15470130D01*
X8116903Y-15427273D01*
X8131188Y-15412987D01*
X8259760Y-15755844D02*
X8316903Y-15755844D01*
X8345474Y-15741559D01*
X8359760Y-15727273D01*
X8388331Y-15684416D01*
X8402617Y-15627273D01*
X8402617Y-15512987D01*
X8388331Y-15484416D01*
X8374045Y-15470130D01*
X8345474Y-15455844D01*
X8288331Y-15455844D01*
X8259760Y-15470130D01*
X8245474Y-15484416D01*
X8231188Y-15512987D01*
X8231188Y-15584416D01*
X8245474Y-15612987D01*
X8259760Y-15627273D01*
X8288331Y-15641559D01*
X8345474Y-15641559D01*
X8374045Y-15627273D01*
X8388331Y-15612987D01*
X8402617Y-15584416D01*
X8545474Y-15755844D02*
X8602617Y-15755844D01*
X8631188Y-15741559D01*
X8645474Y-15727273D01*
X8674046Y-15684416D01*
X8688331Y-15627273D01*
X8688331Y-15512987D01*
X8674046Y-15484416D01*
X8659760Y-15470130D01*
X8631188Y-15455844D01*
X8574046Y-15455844D01*
X8545474Y-15470130D01*
X8531188Y-15484416D01*
X8516903Y-15512987D01*
X8516903Y-15584416D01*
X8531188Y-15612987D01*
X8545474Y-15627273D01*
X8574046Y-15641559D01*
X8631188Y-15641559D01*
X8659760Y-15627273D01*
X8674046Y-15612987D01*
X8688331Y-15584416D01*
X9045474Y-15755844D02*
X9045474Y-15455844D01*
X9174046Y-15755844D02*
X9174046Y-15598701D01*
X9159760Y-15570130D01*
X9131188Y-15555844D01*
X9088331Y-15555844D01*
X9059760Y-15570130D01*
X9045474Y-15584416D01*
X9359760Y-15755844D02*
X9331188Y-15741559D01*
X9316903Y-15727273D01*
X9302617Y-15698701D01*
X9302617Y-15612987D01*
X9316903Y-15584416D01*
X9331188Y-15570130D01*
X9359760Y-15555844D01*
X9402617Y-15555844D01*
X9431188Y-15570130D01*
X9445474Y-15584416D01*
X9459760Y-15612987D01*
X9459760Y-15698701D01*
X9445474Y-15727273D01*
X9431188Y-15741559D01*
X9402617Y-15755844D01*
X9359760Y-15755844D01*
X9631188Y-15755844D02*
X9602617Y-15741559D01*
X9588331Y-15712987D01*
X9588331Y-15455844D01*
X9859760Y-15741559D02*
X9831189Y-15755844D01*
X9774046Y-15755844D01*
X9745474Y-15741559D01*
X9731189Y-15712987D01*
X9731189Y-15598701D01*
X9745474Y-15570130D01*
X9774046Y-15555844D01*
X9831189Y-15555844D01*
X9859760Y-15570130D01*
X9874046Y-15598701D01*
X9874046Y-15627273D01*
X9731189Y-15655844D01*
X9988331Y-15741559D02*
X10016903Y-15755844D01*
X10074046Y-15755844D01*
X10102617Y-15741559D01*
X10116903Y-15712987D01*
X10116903Y-15698701D01*
X10102617Y-15670130D01*
X10074046Y-15655844D01*
X10031189Y-15655844D01*
X10002617Y-15641559D01*
X9988331Y-15612987D01*
X9988331Y-15598701D01*
X10002617Y-15570130D01*
X10031189Y-15555844D01*
X10074046Y-15555844D01*
X10102617Y-15570130D01*
X10216903Y-15870130D02*
X10231189Y-15855844D01*
X10259760Y-15812987D01*
X10274046Y-15784416D01*
X10288331Y-15741559D01*
X10302617Y-15670130D01*
X10302617Y-15612987D01*
X10288331Y-15541559D01*
X10274046Y-15498701D01*
X10259760Y-15470130D01*
X10231189Y-15427273D01*
X10216903Y-15412987D01*
X3450973Y-16037343D02*
X3450973Y-15994917D01*
X3408546Y-15994917D01*
X3408546Y-16037343D01*
X3450973Y-16037343D01*
X3788331Y-15851844D02*
X3816903Y-15851844D01*
X3845474Y-15866130D01*
X3859760Y-15880416D01*
X3874046Y-15908987D01*
X3888331Y-15966130D01*
X3888331Y-16037559D01*
X3874046Y-16094701D01*
X3859760Y-16123273D01*
X3845474Y-16137559D01*
X3816903Y-16151844D01*
X3788331Y-16151844D01*
X3759760Y-16137559D01*
X3745474Y-16123273D01*
X3731188Y-16094701D01*
X3716903Y-16037559D01*
X3716903Y-15966130D01*
X3731188Y-15908987D01*
X3745474Y-15880416D01*
X3759760Y-15866130D01*
X3788331Y-15851844D01*
X4016903Y-16123273D02*
X4031188Y-16137559D01*
X4016903Y-16151844D01*
X4002617Y-16137559D01*
X4016903Y-16123273D01*
X4016903Y-16151844D01*
X4288331Y-15851844D02*
X4231188Y-15851844D01*
X4202617Y-15866130D01*
X4188331Y-15880416D01*
X4159760Y-15923273D01*
X4145474Y-15980416D01*
X4145474Y-16094701D01*
X4159760Y-16123273D01*
X4174046Y-16137559D01*
X4202617Y-16151844D01*
X4259760Y-16151844D01*
X4288331Y-16137559D01*
X4302617Y-16123273D01*
X4316903Y-16094701D01*
X4316903Y-16023273D01*
X4302617Y-15994701D01*
X4288331Y-15980416D01*
X4259760Y-15966130D01*
X4202617Y-15966130D01*
X4174046Y-15980416D01*
X4159760Y-15994701D01*
X4145474Y-16023273D01*
X4502617Y-15851844D02*
X4531189Y-15851844D01*
X4559760Y-15866130D01*
X4574046Y-15880416D01*
X4588331Y-15908987D01*
X4602617Y-15966130D01*
X4602617Y-16037559D01*
X4588331Y-16094701D01*
X4574046Y-16123273D01*
X4559760Y-16137559D01*
X4531189Y-16151844D01*
X4502617Y-16151844D01*
X4474046Y-16137559D01*
X4459760Y-16123273D01*
X4445474Y-16094701D01*
X4431189Y-16037559D01*
X4431189Y-15966130D01*
X4445474Y-15908987D01*
X4459760Y-15880416D01*
X4474046Y-15866130D01*
X4502617Y-15851844D01*
X4731189Y-16151844D02*
X4731189Y-15951844D01*
X4731189Y-15980416D02*
X4745474Y-15966130D01*
X4774046Y-15951844D01*
X4816903Y-15951844D01*
X4845474Y-15966130D01*
X4859760Y-15994701D01*
X4859760Y-16151844D01*
X4859760Y-15994701D02*
X4874046Y-15966130D01*
X4902617Y-15951844D01*
X4945474Y-15951844D01*
X4974046Y-15966130D01*
X4988331Y-15994701D01*
X4988331Y-16151844D01*
X5131189Y-16151844D02*
X5131189Y-15951844D01*
X5131189Y-15980416D02*
X5145474Y-15966130D01*
X5174046Y-15951844D01*
X5216903Y-15951844D01*
X5245474Y-15966130D01*
X5259760Y-15994701D01*
X5259760Y-16151844D01*
X5259760Y-15994701D02*
X5274046Y-15966130D01*
X5302617Y-15951844D01*
X5345474Y-15951844D01*
X5374046Y-15966130D01*
X5388331Y-15994701D01*
X5388331Y-16151844D01*
X5974046Y-15837559D02*
X5716903Y-16223273D01*
X6359760Y-15851844D02*
X6388331Y-15851844D01*
X6416903Y-15866130D01*
X6431188Y-15880416D01*
X6445474Y-15908987D01*
X6459760Y-15966130D01*
X6459760Y-16037559D01*
X6445474Y-16094701D01*
X6431188Y-16123273D01*
X6416903Y-16137559D01*
X6388331Y-16151844D01*
X6359760Y-16151844D01*
X6331188Y-16137559D01*
X6316903Y-16123273D01*
X6302617Y-16094701D01*
X6288331Y-16037559D01*
X6288331Y-15966130D01*
X6302617Y-15908987D01*
X6316903Y-15880416D01*
X6331188Y-15866130D01*
X6359760Y-15851844D01*
X6588331Y-16123273D02*
X6602617Y-16137559D01*
X6588331Y-16151844D01*
X6574046Y-16137559D01*
X6588331Y-16123273D01*
X6588331Y-16151844D01*
X6788331Y-15851844D02*
X6816903Y-15851844D01*
X6845474Y-15866130D01*
X6859760Y-15880416D01*
X6874045Y-15908987D01*
X6888331Y-15966130D01*
X6888331Y-16037559D01*
X6874045Y-16094701D01*
X6859760Y-16123273D01*
X6845474Y-16137559D01*
X6816903Y-16151844D01*
X6788331Y-16151844D01*
X6759760Y-16137559D01*
X6745474Y-16123273D01*
X6731188Y-16094701D01*
X6716903Y-16037559D01*
X6716903Y-15966130D01*
X6731188Y-15908987D01*
X6745474Y-15880416D01*
X6759760Y-15866130D01*
X6788331Y-15851844D01*
X7002617Y-15880416D02*
X7016903Y-15866130D01*
X7045474Y-15851844D01*
X7116903Y-15851844D01*
X7145474Y-15866130D01*
X7159760Y-15880416D01*
X7174045Y-15908987D01*
X7174045Y-15937559D01*
X7159760Y-15980416D01*
X6988331Y-16151844D01*
X7174045Y-16151844D01*
X7431188Y-15951844D02*
X7431188Y-16151844D01*
X7359760Y-15837559D02*
X7288331Y-16051844D01*
X7474045Y-16051844D01*
X7574046Y-15851844D02*
X7574046Y-15908987D01*
X7688331Y-15851844D02*
X7688331Y-15908987D01*
X8131188Y-16266130D02*
X8116903Y-16251844D01*
X8088331Y-16208987D01*
X8074045Y-16180416D01*
X8059760Y-16137559D01*
X8045474Y-16066130D01*
X8045474Y-16008987D01*
X8059760Y-15937559D01*
X8074045Y-15894701D01*
X8088331Y-15866130D01*
X8116903Y-15823273D01*
X8131188Y-15808987D01*
X8216903Y-15851844D02*
X8402617Y-15851844D01*
X8302617Y-15966130D01*
X8345474Y-15966130D01*
X8374045Y-15980416D01*
X8388331Y-15994701D01*
X8402617Y-16023273D01*
X8402617Y-16094701D01*
X8388331Y-16123273D01*
X8374045Y-16137559D01*
X8345474Y-16151844D01*
X8259760Y-16151844D01*
X8231188Y-16137559D01*
X8216903Y-16123273D01*
X8759760Y-16151844D02*
X8759760Y-15851844D01*
X8888331Y-16151844D02*
X8888331Y-15994701D01*
X8874046Y-15966130D01*
X8845474Y-15951844D01*
X8802617Y-15951844D01*
X8774046Y-15966130D01*
X8759760Y-15980416D01*
X9074046Y-16151844D02*
X9045474Y-16137559D01*
X9031188Y-16123273D01*
X9016903Y-16094701D01*
X9016903Y-16008987D01*
X9031188Y-15980416D01*
X9045474Y-15966130D01*
X9074046Y-15951844D01*
X9116903Y-15951844D01*
X9145474Y-15966130D01*
X9159760Y-15980416D01*
X9174046Y-16008987D01*
X9174046Y-16094701D01*
X9159760Y-16123273D01*
X9145474Y-16137559D01*
X9116903Y-16151844D01*
X9074046Y-16151844D01*
X9345474Y-16151844D02*
X9316903Y-16137559D01*
X9302617Y-16108987D01*
X9302617Y-15851844D01*
X9574046Y-16137559D02*
X9545474Y-16151844D01*
X9488331Y-16151844D01*
X9459760Y-16137559D01*
X9445474Y-16108987D01*
X9445474Y-15994701D01*
X9459760Y-15966130D01*
X9488331Y-15951844D01*
X9545474Y-15951844D01*
X9574046Y-15966130D01*
X9588331Y-15994701D01*
X9588331Y-16023273D01*
X9445474Y-16051844D01*
X9702617Y-16137559D02*
X9731189Y-16151844D01*
X9788331Y-16151844D01*
X9816903Y-16137559D01*
X9831189Y-16108987D01*
X9831189Y-16094701D01*
X9816903Y-16066130D01*
X9788331Y-16051844D01*
X9745474Y-16051844D01*
X9716903Y-16037559D01*
X9702617Y-16008987D01*
X9702617Y-15994701D01*
X9716903Y-15966130D01*
X9745474Y-15951844D01*
X9788331Y-15951844D01*
X9816903Y-15966130D01*
X9931188Y-16266130D02*
X9945474Y-16251844D01*
X9974046Y-16208987D01*
X9988331Y-16180416D01*
X10002617Y-16137559D01*
X10016903Y-16066130D01*
X10016903Y-16008987D01*
X10002617Y-15937559D01*
X9988331Y-15894701D01*
X9974046Y-15866130D01*
X9945474Y-15823273D01*
X9931188Y-15808987D01*
X3421660Y-16450230D02*
X3459760Y-16412130D01*
X3421660Y-16374030D01*
X3383560Y-16412130D01*
X3421660Y-16450230D01*
X3788331Y-16247844D02*
X3816903Y-16247844D01*
X3845474Y-16262130D01*
X3859760Y-16276416D01*
X3874046Y-16304987D01*
X3888331Y-16362130D01*
X3888331Y-16433559D01*
X3874046Y-16490701D01*
X3859760Y-16519273D01*
X3845474Y-16533559D01*
X3816903Y-16547844D01*
X3788331Y-16547844D01*
X3759760Y-16533559D01*
X3745474Y-16519273D01*
X3731188Y-16490701D01*
X3716903Y-16433559D01*
X3716903Y-16362130D01*
X3731188Y-16304987D01*
X3745474Y-16276416D01*
X3759760Y-16262130D01*
X3788331Y-16247844D01*
X4016903Y-16519273D02*
X4031188Y-16533559D01*
X4016903Y-16547844D01*
X4002617Y-16533559D01*
X4016903Y-16519273D01*
X4016903Y-16547844D01*
X4131188Y-16247844D02*
X4331188Y-16247844D01*
X4202617Y-16547844D01*
X4574046Y-16247844D02*
X4516903Y-16247844D01*
X4488331Y-16262130D01*
X4474046Y-16276416D01*
X4445474Y-16319273D01*
X4431189Y-16376416D01*
X4431189Y-16490701D01*
X4445474Y-16519273D01*
X4459760Y-16533559D01*
X4488331Y-16547844D01*
X4545474Y-16547844D01*
X4574046Y-16533559D01*
X4588331Y-16519273D01*
X4602617Y-16490701D01*
X4602617Y-16419273D01*
X4588331Y-16390701D01*
X4574046Y-16376416D01*
X4545474Y-16362130D01*
X4488331Y-16362130D01*
X4459760Y-16376416D01*
X4445474Y-16390701D01*
X4431189Y-16419273D01*
X4731189Y-16547844D02*
X4731189Y-16347844D01*
X4731189Y-16376416D02*
X4745474Y-16362130D01*
X4774046Y-16347844D01*
X4816903Y-16347844D01*
X4845474Y-16362130D01*
X4859760Y-16390701D01*
X4859760Y-16547844D01*
X4859760Y-16390701D02*
X4874046Y-16362130D01*
X4902617Y-16347844D01*
X4945474Y-16347844D01*
X4974046Y-16362130D01*
X4988331Y-16390701D01*
X4988331Y-16547844D01*
X5131189Y-16547844D02*
X5131189Y-16347844D01*
X5131189Y-16376416D02*
X5145474Y-16362130D01*
X5174046Y-16347844D01*
X5216903Y-16347844D01*
X5245474Y-16362130D01*
X5259760Y-16390701D01*
X5259760Y-16547844D01*
X5259760Y-16390701D02*
X5274046Y-16362130D01*
X5302617Y-16347844D01*
X5345474Y-16347844D01*
X5374046Y-16362130D01*
X5388331Y-16390701D01*
X5388331Y-16547844D01*
X5974046Y-16233559D02*
X5716903Y-16619273D01*
X6359760Y-16247844D02*
X6388331Y-16247844D01*
X6416903Y-16262130D01*
X6431188Y-16276416D01*
X6445474Y-16304987D01*
X6459760Y-16362130D01*
X6459760Y-16433559D01*
X6445474Y-16490701D01*
X6431188Y-16519273D01*
X6416903Y-16533559D01*
X6388331Y-16547844D01*
X6359760Y-16547844D01*
X6331188Y-16533559D01*
X6316903Y-16519273D01*
X6302617Y-16490701D01*
X6288331Y-16433559D01*
X6288331Y-16362130D01*
X6302617Y-16304987D01*
X6316903Y-16276416D01*
X6331188Y-16262130D01*
X6359760Y-16247844D01*
X6588331Y-16519273D02*
X6602617Y-16533559D01*
X6588331Y-16547844D01*
X6574046Y-16533559D01*
X6588331Y-16519273D01*
X6588331Y-16547844D01*
X6788331Y-16247844D02*
X6816903Y-16247844D01*
X6845474Y-16262130D01*
X6859760Y-16276416D01*
X6874045Y-16304987D01*
X6888331Y-16362130D01*
X6888331Y-16433559D01*
X6874045Y-16490701D01*
X6859760Y-16519273D01*
X6845474Y-16533559D01*
X6816903Y-16547844D01*
X6788331Y-16547844D01*
X6759760Y-16533559D01*
X6745474Y-16519273D01*
X6731188Y-16490701D01*
X6716903Y-16433559D01*
X6716903Y-16362130D01*
X6731188Y-16304987D01*
X6745474Y-16276416D01*
X6759760Y-16262130D01*
X6788331Y-16247844D01*
X6988331Y-16247844D02*
X7174045Y-16247844D01*
X7074045Y-16362130D01*
X7116903Y-16362130D01*
X7145474Y-16376416D01*
X7159760Y-16390701D01*
X7174045Y-16419273D01*
X7174045Y-16490701D01*
X7159760Y-16519273D01*
X7145474Y-16533559D01*
X7116903Y-16547844D01*
X7031188Y-16547844D01*
X7002617Y-16533559D01*
X6988331Y-16519273D01*
X7359760Y-16247844D02*
X7388331Y-16247844D01*
X7416903Y-16262130D01*
X7431188Y-16276416D01*
X7445474Y-16304987D01*
X7459760Y-16362130D01*
X7459760Y-16433559D01*
X7445474Y-16490701D01*
X7431188Y-16519273D01*
X7416903Y-16533559D01*
X7388331Y-16547844D01*
X7359760Y-16547844D01*
X7331188Y-16533559D01*
X7316903Y-16519273D01*
X7302617Y-16490701D01*
X7288331Y-16433559D01*
X7288331Y-16362130D01*
X7302617Y-16304987D01*
X7316903Y-16276416D01*
X7331188Y-16262130D01*
X7359760Y-16247844D01*
X7574046Y-16247844D02*
X7574046Y-16304987D01*
X7688331Y-16247844D02*
X7688331Y-16304987D01*
X8131188Y-16662130D02*
X8116903Y-16647844D01*
X8088331Y-16604987D01*
X8074045Y-16576416D01*
X8059760Y-16533559D01*
X8045474Y-16462130D01*
X8045474Y-16404987D01*
X8059760Y-16333559D01*
X8074045Y-16290701D01*
X8088331Y-16262130D01*
X8116903Y-16219273D01*
X8131188Y-16204987D01*
X8216903Y-16247844D02*
X8416903Y-16247844D01*
X8288331Y-16547844D01*
X8759760Y-16547844D02*
X8759760Y-16247844D01*
X8888331Y-16547844D02*
X8888331Y-16390701D01*
X8874046Y-16362130D01*
X8845474Y-16347844D01*
X8802617Y-16347844D01*
X8774046Y-16362130D01*
X8759760Y-16376416D01*
X9074046Y-16547844D02*
X9045474Y-16533559D01*
X9031188Y-16519273D01*
X9016903Y-16490701D01*
X9016903Y-16404987D01*
X9031188Y-16376416D01*
X9045474Y-16362130D01*
X9074046Y-16347844D01*
X9116903Y-16347844D01*
X9145474Y-16362130D01*
X9159760Y-16376416D01*
X9174046Y-16404987D01*
X9174046Y-16490701D01*
X9159760Y-16519273D01*
X9145474Y-16533559D01*
X9116903Y-16547844D01*
X9074046Y-16547844D01*
X9345474Y-16547844D02*
X9316903Y-16533559D01*
X9302617Y-16504987D01*
X9302617Y-16247844D01*
X9574046Y-16533559D02*
X9545474Y-16547844D01*
X9488331Y-16547844D01*
X9459760Y-16533559D01*
X9445474Y-16504987D01*
X9445474Y-16390701D01*
X9459760Y-16362130D01*
X9488331Y-16347844D01*
X9545474Y-16347844D01*
X9574046Y-16362130D01*
X9588331Y-16390701D01*
X9588331Y-16419273D01*
X9445474Y-16447844D01*
X9702617Y-16533559D02*
X9731189Y-16547844D01*
X9788331Y-16547844D01*
X9816903Y-16533559D01*
X9831189Y-16504987D01*
X9831189Y-16490701D01*
X9816903Y-16462130D01*
X9788331Y-16447844D01*
X9745474Y-16447844D01*
X9716903Y-16433559D01*
X9702617Y-16404987D01*
X9702617Y-16390701D01*
X9716903Y-16362130D01*
X9745474Y-16347844D01*
X9788331Y-16347844D01*
X9816903Y-16362130D01*
X9931188Y-16662130D02*
X9945474Y-16647844D01*
X9974046Y-16604987D01*
X9988331Y-16576416D01*
X10002617Y-16533559D01*
X10016903Y-16462130D01*
X10016903Y-16404987D01*
X10002617Y-16333559D01*
X9988331Y-16290701D01*
X9974046Y-16262130D01*
X9945474Y-16219273D01*
X9931188Y-16204987D01*
X3379760Y-16768130D02*
X3459760Y-16848130D01*
X3459760Y-16768130D02*
X3379760Y-16848130D01*
X3459760Y-16808130D02*
G75*
G03X3459760Y-16808130I-40000J0D01*
G01*
X3788331Y-16643844D02*
X3816903Y-16643844D01*
X3845474Y-16658130D01*
X3859760Y-16672416D01*
X3874046Y-16700987D01*
X3888331Y-16758130D01*
X3888331Y-16829559D01*
X3874046Y-16886702D01*
X3859760Y-16915273D01*
X3845474Y-16929559D01*
X3816903Y-16943844D01*
X3788331Y-16943844D01*
X3759760Y-16929559D01*
X3745474Y-16915273D01*
X3731188Y-16886702D01*
X3716903Y-16829559D01*
X3716903Y-16758130D01*
X3731188Y-16700987D01*
X3745474Y-16672416D01*
X3759760Y-16658130D01*
X3788331Y-16643844D01*
X4016903Y-16915273D02*
X4031188Y-16929559D01*
X4016903Y-16943844D01*
X4002617Y-16929559D01*
X4016903Y-16915273D01*
X4016903Y-16943844D01*
X4202617Y-16772416D02*
X4174046Y-16758130D01*
X4159760Y-16743844D01*
X4145474Y-16715273D01*
X4145474Y-16700987D01*
X4159760Y-16672416D01*
X4174046Y-16658130D01*
X4202617Y-16643844D01*
X4259760Y-16643844D01*
X4288331Y-16658130D01*
X4302617Y-16672416D01*
X4316903Y-16700987D01*
X4316903Y-16715273D01*
X4302617Y-16743844D01*
X4288331Y-16758130D01*
X4259760Y-16772416D01*
X4202617Y-16772416D01*
X4174046Y-16786702D01*
X4159760Y-16800987D01*
X4145474Y-16829559D01*
X4145474Y-16886702D01*
X4159760Y-16915273D01*
X4174046Y-16929559D01*
X4202617Y-16943844D01*
X4259760Y-16943844D01*
X4288331Y-16929559D01*
X4302617Y-16915273D01*
X4316903Y-16886702D01*
X4316903Y-16829559D01*
X4302617Y-16800987D01*
X4288331Y-16786702D01*
X4259760Y-16772416D01*
X4502617Y-16643844D02*
X4531189Y-16643844D01*
X4559760Y-16658130D01*
X4574046Y-16672416D01*
X4588331Y-16700987D01*
X4602617Y-16758130D01*
X4602617Y-16829559D01*
X4588331Y-16886702D01*
X4574046Y-16915273D01*
X4559760Y-16929559D01*
X4531189Y-16943844D01*
X4502617Y-16943844D01*
X4474046Y-16929559D01*
X4459760Y-16915273D01*
X4445474Y-16886702D01*
X4431189Y-16829559D01*
X4431189Y-16758130D01*
X4445474Y-16700987D01*
X4459760Y-16672416D01*
X4474046Y-16658130D01*
X4502617Y-16643844D01*
X4731189Y-16943844D02*
X4731189Y-16743844D01*
X4731189Y-16772416D02*
X4745474Y-16758130D01*
X4774046Y-16743844D01*
X4816903Y-16743844D01*
X4845474Y-16758130D01*
X4859760Y-16786702D01*
X4859760Y-16943844D01*
X4859760Y-16786702D02*
X4874046Y-16758130D01*
X4902617Y-16743844D01*
X4945474Y-16743844D01*
X4974046Y-16758130D01*
X4988331Y-16786702D01*
X4988331Y-16943844D01*
X5131189Y-16943844D02*
X5131189Y-16743844D01*
X5131189Y-16772416D02*
X5145474Y-16758130D01*
X5174046Y-16743844D01*
X5216903Y-16743844D01*
X5245474Y-16758130D01*
X5259760Y-16786702D01*
X5259760Y-16943844D01*
X5259760Y-16786702D02*
X5274046Y-16758130D01*
X5302617Y-16743844D01*
X5345474Y-16743844D01*
X5374046Y-16758130D01*
X5388331Y-16786702D01*
X5388331Y-16943844D01*
X5974046Y-16629559D02*
X5716903Y-17015273D01*
X6359760Y-16643844D02*
X6388331Y-16643844D01*
X6416903Y-16658130D01*
X6431188Y-16672416D01*
X6445474Y-16700987D01*
X6459760Y-16758130D01*
X6459760Y-16829559D01*
X6445474Y-16886702D01*
X6431188Y-16915273D01*
X6416903Y-16929559D01*
X6388331Y-16943844D01*
X6359760Y-16943844D01*
X6331188Y-16929559D01*
X6316903Y-16915273D01*
X6302617Y-16886702D01*
X6288331Y-16829559D01*
X6288331Y-16758130D01*
X6302617Y-16700987D01*
X6316903Y-16672416D01*
X6331188Y-16658130D01*
X6359760Y-16643844D01*
X6588331Y-16915273D02*
X6602617Y-16929559D01*
X6588331Y-16943844D01*
X6574046Y-16929559D01*
X6588331Y-16915273D01*
X6588331Y-16943844D01*
X6788331Y-16643844D02*
X6816903Y-16643844D01*
X6845474Y-16658130D01*
X6859760Y-16672416D01*
X6874045Y-16700987D01*
X6888331Y-16758130D01*
X6888331Y-16829559D01*
X6874045Y-16886702D01*
X6859760Y-16915273D01*
X6845474Y-16929559D01*
X6816903Y-16943844D01*
X6788331Y-16943844D01*
X6759760Y-16929559D01*
X6745474Y-16915273D01*
X6731188Y-16886702D01*
X6716903Y-16829559D01*
X6716903Y-16758130D01*
X6731188Y-16700987D01*
X6745474Y-16672416D01*
X6759760Y-16658130D01*
X6788331Y-16643844D01*
X6988331Y-16643844D02*
X7174045Y-16643844D01*
X7074045Y-16758130D01*
X7116903Y-16758130D01*
X7145474Y-16772416D01*
X7159760Y-16786702D01*
X7174045Y-16815273D01*
X7174045Y-16886702D01*
X7159760Y-16915273D01*
X7145474Y-16929559D01*
X7116903Y-16943844D01*
X7031188Y-16943844D01*
X7002617Y-16929559D01*
X6988331Y-16915273D01*
X7459760Y-16943844D02*
X7288331Y-16943844D01*
X7374045Y-16943844D02*
X7374045Y-16643844D01*
X7345474Y-16686701D01*
X7316903Y-16715273D01*
X7288331Y-16729559D01*
X7574046Y-16643844D02*
X7574046Y-16700987D01*
X7688331Y-16643844D02*
X7688331Y-16700987D01*
X8131188Y-17058130D02*
X8116903Y-17043844D01*
X8088331Y-17000987D01*
X8074045Y-16972416D01*
X8059760Y-16929559D01*
X8045474Y-16858130D01*
X8045474Y-16800987D01*
X8059760Y-16729559D01*
X8074045Y-16686701D01*
X8088331Y-16658130D01*
X8116903Y-16615273D01*
X8131188Y-16600987D01*
X8402617Y-16943844D02*
X8231188Y-16943844D01*
X8316903Y-16943844D02*
X8316903Y-16643844D01*
X8288331Y-16686701D01*
X8259760Y-16715273D01*
X8231188Y-16729559D01*
X8659760Y-16643844D02*
X8602617Y-16643844D01*
X8574046Y-16658130D01*
X8559760Y-16672416D01*
X8531188Y-16715273D01*
X8516903Y-16772416D01*
X8516903Y-16886702D01*
X8531188Y-16915273D01*
X8545474Y-16929559D01*
X8574046Y-16943844D01*
X8631188Y-16943844D01*
X8659760Y-16929559D01*
X8674046Y-16915273D01*
X8688331Y-16886702D01*
X8688331Y-16815273D01*
X8674046Y-16786702D01*
X8659760Y-16772416D01*
X8631188Y-16758130D01*
X8574046Y-16758130D01*
X8545474Y-16772416D01*
X8531188Y-16786702D01*
X8516903Y-16815273D01*
X9045474Y-16943844D02*
X9045474Y-16643844D01*
X9174046Y-16943844D02*
X9174046Y-16786702D01*
X9159760Y-16758130D01*
X9131188Y-16743844D01*
X9088331Y-16743844D01*
X9059760Y-16758130D01*
X9045474Y-16772416D01*
X9359760Y-16943844D02*
X9331188Y-16929559D01*
X9316903Y-16915273D01*
X9302617Y-16886702D01*
X9302617Y-16800987D01*
X9316903Y-16772416D01*
X9331188Y-16758130D01*
X9359760Y-16743844D01*
X9402617Y-16743844D01*
X9431188Y-16758130D01*
X9445474Y-16772416D01*
X9459760Y-16800987D01*
X9459760Y-16886702D01*
X9445474Y-16915273D01*
X9431188Y-16929559D01*
X9402617Y-16943844D01*
X9359760Y-16943844D01*
X9631188Y-16943844D02*
X9602617Y-16929559D01*
X9588331Y-16900987D01*
X9588331Y-16643844D01*
X9859760Y-16929559D02*
X9831189Y-16943844D01*
X9774046Y-16943844D01*
X9745474Y-16929559D01*
X9731189Y-16900987D01*
X9731189Y-16786702D01*
X9745474Y-16758130D01*
X9774046Y-16743844D01*
X9831189Y-16743844D01*
X9859760Y-16758130D01*
X9874046Y-16786702D01*
X9874046Y-16815273D01*
X9731189Y-16843844D01*
X9988331Y-16929559D02*
X10016903Y-16943844D01*
X10074046Y-16943844D01*
X10102617Y-16929559D01*
X10116903Y-16900987D01*
X10116903Y-16886702D01*
X10102617Y-16858130D01*
X10074046Y-16843844D01*
X10031189Y-16843844D01*
X10002617Y-16829559D01*
X9988331Y-16800987D01*
X9988331Y-16786702D01*
X10002617Y-16758130D01*
X10031189Y-16743844D01*
X10074046Y-16743844D01*
X10102617Y-16758130D01*
X10216903Y-17058130D02*
X10231189Y-17043844D01*
X10259760Y-17000987D01*
X10274046Y-16972416D01*
X10288331Y-16929559D01*
X10302617Y-16858130D01*
X10302617Y-16800987D01*
X10288331Y-16729559D01*
X10274046Y-16686701D01*
X10259760Y-16658130D01*
X10231189Y-16615273D01*
X10216903Y-16600987D01*
X3359760Y-17154130D02*
X3459760Y-17254130D01*
X3459760Y-17154130D02*
X3359760Y-17254130D01*
X3409760Y-17154130D02*
X3409760Y-17254130D01*
X3359760Y-17204130D02*
X3459760Y-17204130D01*
X3888331Y-17339844D02*
X3716903Y-17339844D01*
X3802617Y-17339844D02*
X3802617Y-17039844D01*
X3774046Y-17082702D01*
X3745474Y-17111273D01*
X3716903Y-17125559D01*
X4016903Y-17311273D02*
X4031188Y-17325559D01*
X4016903Y-17339844D01*
X4002617Y-17325559D01*
X4016903Y-17311273D01*
X4016903Y-17339844D01*
X4216903Y-17039844D02*
X4245474Y-17039844D01*
X4274046Y-17054130D01*
X4288331Y-17068416D01*
X4302617Y-17096987D01*
X4316903Y-17154130D01*
X4316903Y-17225559D01*
X4302617Y-17282702D01*
X4288331Y-17311273D01*
X4274046Y-17325559D01*
X4245474Y-17339844D01*
X4216903Y-17339844D01*
X4188331Y-17325559D01*
X4174046Y-17311273D01*
X4159760Y-17282702D01*
X4145474Y-17225559D01*
X4145474Y-17154130D01*
X4159760Y-17096987D01*
X4174046Y-17068416D01*
X4188331Y-17054130D01*
X4216903Y-17039844D01*
X4502617Y-17039844D02*
X4531189Y-17039844D01*
X4559760Y-17054130D01*
X4574046Y-17068416D01*
X4588331Y-17096987D01*
X4602617Y-17154130D01*
X4602617Y-17225559D01*
X4588331Y-17282702D01*
X4574046Y-17311273D01*
X4559760Y-17325559D01*
X4531189Y-17339844D01*
X4502617Y-17339844D01*
X4474046Y-17325559D01*
X4459760Y-17311273D01*
X4445474Y-17282702D01*
X4431189Y-17225559D01*
X4431189Y-17154130D01*
X4445474Y-17096987D01*
X4459760Y-17068416D01*
X4474046Y-17054130D01*
X4502617Y-17039844D01*
X4731189Y-17339844D02*
X4731189Y-17139844D01*
X4731189Y-17168416D02*
X4745474Y-17154130D01*
X4774046Y-17139844D01*
X4816903Y-17139844D01*
X4845474Y-17154130D01*
X4859760Y-17182702D01*
X4859760Y-17339844D01*
X4859760Y-17182702D02*
X4874046Y-17154130D01*
X4902617Y-17139844D01*
X4945474Y-17139844D01*
X4974046Y-17154130D01*
X4988331Y-17182702D01*
X4988331Y-17339844D01*
X5131189Y-17339844D02*
X5131189Y-17139844D01*
X5131189Y-17168416D02*
X5145474Y-17154130D01*
X5174046Y-17139844D01*
X5216903Y-17139844D01*
X5245474Y-17154130D01*
X5259760Y-17182702D01*
X5259760Y-17339844D01*
X5259760Y-17182702D02*
X5274046Y-17154130D01*
X5302617Y-17139844D01*
X5345474Y-17139844D01*
X5374046Y-17154130D01*
X5388331Y-17182702D01*
X5388331Y-17339844D01*
X5974046Y-17025559D02*
X5716903Y-17411273D01*
X6359760Y-17039844D02*
X6388331Y-17039844D01*
X6416903Y-17054130D01*
X6431188Y-17068416D01*
X6445474Y-17096987D01*
X6459760Y-17154130D01*
X6459760Y-17225559D01*
X6445474Y-17282702D01*
X6431188Y-17311273D01*
X6416903Y-17325559D01*
X6388331Y-17339844D01*
X6359760Y-17339844D01*
X6331188Y-17325559D01*
X6316903Y-17311273D01*
X6302617Y-17282702D01*
X6288331Y-17225559D01*
X6288331Y-17154130D01*
X6302617Y-17096987D01*
X6316903Y-17068416D01*
X6331188Y-17054130D01*
X6359760Y-17039844D01*
X6588331Y-17311273D02*
X6602617Y-17325559D01*
X6588331Y-17339844D01*
X6574046Y-17325559D01*
X6588331Y-17311273D01*
X6588331Y-17339844D01*
X6788331Y-17039844D02*
X6816903Y-17039844D01*
X6845474Y-17054130D01*
X6859760Y-17068416D01*
X6874045Y-17096987D01*
X6888331Y-17154130D01*
X6888331Y-17225559D01*
X6874045Y-17282702D01*
X6859760Y-17311273D01*
X6845474Y-17325559D01*
X6816903Y-17339844D01*
X6788331Y-17339844D01*
X6759760Y-17325559D01*
X6745474Y-17311273D01*
X6731188Y-17282702D01*
X6716903Y-17225559D01*
X6716903Y-17154130D01*
X6731188Y-17096987D01*
X6745474Y-17068416D01*
X6759760Y-17054130D01*
X6788331Y-17039844D01*
X6988331Y-17039844D02*
X7174045Y-17039844D01*
X7074045Y-17154130D01*
X7116903Y-17154130D01*
X7145474Y-17168416D01*
X7159760Y-17182702D01*
X7174045Y-17211273D01*
X7174045Y-17282702D01*
X7159760Y-17311273D01*
X7145474Y-17325559D01*
X7116903Y-17339844D01*
X7031188Y-17339844D01*
X7002617Y-17325559D01*
X6988331Y-17311273D01*
X7316903Y-17339844D02*
X7374045Y-17339844D01*
X7402617Y-17325559D01*
X7416903Y-17311273D01*
X7445474Y-17268416D01*
X7459760Y-17211273D01*
X7459760Y-17096987D01*
X7445474Y-17068416D01*
X7431188Y-17054130D01*
X7402617Y-17039844D01*
X7345474Y-17039844D01*
X7316903Y-17054130D01*
X7302617Y-17068416D01*
X7288331Y-17096987D01*
X7288331Y-17168416D01*
X7302617Y-17196987D01*
X7316903Y-17211273D01*
X7345474Y-17225559D01*
X7402617Y-17225559D01*
X7431188Y-17211273D01*
X7445474Y-17196987D01*
X7459760Y-17168416D01*
X7574046Y-17039844D02*
X7574046Y-17096987D01*
X7688331Y-17039844D02*
X7688331Y-17096987D01*
X8131188Y-17454130D02*
X8116903Y-17439844D01*
X8088331Y-17396987D01*
X8074045Y-17368416D01*
X8059760Y-17325559D01*
X8045474Y-17254130D01*
X8045474Y-17196987D01*
X8059760Y-17125559D01*
X8074045Y-17082702D01*
X8088331Y-17054130D01*
X8116903Y-17011273D01*
X8131188Y-16996987D01*
X8388331Y-17039844D02*
X8245474Y-17039844D01*
X8231188Y-17182702D01*
X8245474Y-17168416D01*
X8274045Y-17154130D01*
X8345474Y-17154130D01*
X8374045Y-17168416D01*
X8388331Y-17182702D01*
X8402617Y-17211273D01*
X8402617Y-17282702D01*
X8388331Y-17311273D01*
X8374045Y-17325559D01*
X8345474Y-17339844D01*
X8274045Y-17339844D01*
X8245474Y-17325559D01*
X8231188Y-17311273D01*
X8516903Y-17068416D02*
X8531188Y-17054130D01*
X8559760Y-17039844D01*
X8631188Y-17039844D01*
X8659760Y-17054130D01*
X8674046Y-17068416D01*
X8688331Y-17096987D01*
X8688331Y-17125559D01*
X8674046Y-17168416D01*
X8502617Y-17339844D01*
X8688331Y-17339844D01*
X9045474Y-17339844D02*
X9045474Y-17039844D01*
X9174046Y-17339844D02*
X9174046Y-17182702D01*
X9159760Y-17154130D01*
X9131188Y-17139844D01*
X9088331Y-17139844D01*
X9059760Y-17154130D01*
X9045474Y-17168416D01*
X9359760Y-17339844D02*
X9331188Y-17325559D01*
X9316903Y-17311273D01*
X9302617Y-17282702D01*
X9302617Y-17196987D01*
X9316903Y-17168416D01*
X9331188Y-17154130D01*
X9359760Y-17139844D01*
X9402617Y-17139844D01*
X9431188Y-17154130D01*
X9445474Y-17168416D01*
X9459760Y-17196987D01*
X9459760Y-17282702D01*
X9445474Y-17311273D01*
X9431188Y-17325559D01*
X9402617Y-17339844D01*
X9359760Y-17339844D01*
X9631188Y-17339844D02*
X9602617Y-17325559D01*
X9588331Y-17296987D01*
X9588331Y-17039844D01*
X9859760Y-17325559D02*
X9831189Y-17339844D01*
X9774046Y-17339844D01*
X9745474Y-17325559D01*
X9731189Y-17296987D01*
X9731189Y-17182702D01*
X9745474Y-17154130D01*
X9774046Y-17139844D01*
X9831189Y-17139844D01*
X9859760Y-17154130D01*
X9874046Y-17182702D01*
X9874046Y-17211273D01*
X9731189Y-17239844D01*
X9988331Y-17325559D02*
X10016903Y-17339844D01*
X10074046Y-17339844D01*
X10102617Y-17325559D01*
X10116903Y-17296987D01*
X10116903Y-17282702D01*
X10102617Y-17254130D01*
X10074046Y-17239844D01*
X10031189Y-17239844D01*
X10002617Y-17225559D01*
X9988331Y-17196987D01*
X9988331Y-17182702D01*
X10002617Y-17154130D01*
X10031189Y-17139844D01*
X10074046Y-17139844D01*
X10102617Y-17154130D01*
X10216903Y-17454130D02*
X10231189Y-17439844D01*
X10259760Y-17396987D01*
X10274046Y-17368416D01*
X10288331Y-17325559D01*
X10302617Y-17254130D01*
X10302617Y-17196987D01*
X10288331Y-17125559D01*
X10274046Y-17082702D01*
X10259760Y-17054130D01*
X10231189Y-17011273D01*
X10216903Y-16996987D01*
X3358160Y-17549330D02*
X3459760Y-17650930D01*
X3459760Y-17549330D02*
X3358160Y-17650930D01*
X3444881Y-17636052D02*
X3444881Y-17564209D01*
X3373038Y-17564209D01*
X3373038Y-17636052D01*
X3444881Y-17636052D01*
X3888331Y-17735844D02*
X3716903Y-17735844D01*
X3802617Y-17735844D02*
X3802617Y-17435844D01*
X3774046Y-17478702D01*
X3745474Y-17507273D01*
X3716903Y-17521559D01*
X4016903Y-17707273D02*
X4031188Y-17721559D01*
X4016903Y-17735844D01*
X4002617Y-17721559D01*
X4016903Y-17707273D01*
X4016903Y-17735844D01*
X4216903Y-17435844D02*
X4245474Y-17435844D01*
X4274046Y-17450130D01*
X4288331Y-17464416D01*
X4302617Y-17492987D01*
X4316903Y-17550130D01*
X4316903Y-17621559D01*
X4302617Y-17678702D01*
X4288331Y-17707273D01*
X4274046Y-17721559D01*
X4245474Y-17735844D01*
X4216903Y-17735844D01*
X4188331Y-17721559D01*
X4174046Y-17707273D01*
X4159760Y-17678702D01*
X4145474Y-17621559D01*
X4145474Y-17550130D01*
X4159760Y-17492987D01*
X4174046Y-17464416D01*
X4188331Y-17450130D01*
X4216903Y-17435844D01*
X4431189Y-17464416D02*
X4445474Y-17450130D01*
X4474046Y-17435844D01*
X4545474Y-17435844D01*
X4574046Y-17450130D01*
X4588331Y-17464416D01*
X4602617Y-17492987D01*
X4602617Y-17521559D01*
X4588331Y-17564416D01*
X4416903Y-17735844D01*
X4602617Y-17735844D01*
X4731189Y-17735844D02*
X4731189Y-17535844D01*
X4731189Y-17564416D02*
X4745474Y-17550130D01*
X4774046Y-17535844D01*
X4816903Y-17535844D01*
X4845474Y-17550130D01*
X4859760Y-17578702D01*
X4859760Y-17735844D01*
X4859760Y-17578702D02*
X4874046Y-17550130D01*
X4902617Y-17535844D01*
X4945474Y-17535844D01*
X4974046Y-17550130D01*
X4988331Y-17578702D01*
X4988331Y-17735844D01*
X5131189Y-17735844D02*
X5131189Y-17535844D01*
X5131189Y-17564416D02*
X5145474Y-17550130D01*
X5174046Y-17535844D01*
X5216903Y-17535844D01*
X5245474Y-17550130D01*
X5259760Y-17578702D01*
X5259760Y-17735844D01*
X5259760Y-17578702D02*
X5274046Y-17550130D01*
X5302617Y-17535844D01*
X5345474Y-17535844D01*
X5374046Y-17550130D01*
X5388331Y-17578702D01*
X5388331Y-17735844D01*
X5974046Y-17421559D02*
X5716903Y-17807273D01*
X6359760Y-17435844D02*
X6388331Y-17435844D01*
X6416903Y-17450130D01*
X6431188Y-17464416D01*
X6445474Y-17492987D01*
X6459760Y-17550130D01*
X6459760Y-17621559D01*
X6445474Y-17678702D01*
X6431188Y-17707273D01*
X6416903Y-17721559D01*
X6388331Y-17735844D01*
X6359760Y-17735844D01*
X6331188Y-17721559D01*
X6316903Y-17707273D01*
X6302617Y-17678702D01*
X6288331Y-17621559D01*
X6288331Y-17550130D01*
X6302617Y-17492987D01*
X6316903Y-17464416D01*
X6331188Y-17450130D01*
X6359760Y-17435844D01*
X6588331Y-17707273D02*
X6602617Y-17721559D01*
X6588331Y-17735844D01*
X6574046Y-17721559D01*
X6588331Y-17707273D01*
X6588331Y-17735844D01*
X6788331Y-17435844D02*
X6816903Y-17435844D01*
X6845474Y-17450130D01*
X6859760Y-17464416D01*
X6874045Y-17492987D01*
X6888331Y-17550130D01*
X6888331Y-17621559D01*
X6874045Y-17678702D01*
X6859760Y-17707273D01*
X6845474Y-17721559D01*
X6816903Y-17735844D01*
X6788331Y-17735844D01*
X6759760Y-17721559D01*
X6745474Y-17707273D01*
X6731188Y-17678702D01*
X6716903Y-17621559D01*
X6716903Y-17550130D01*
X6731188Y-17492987D01*
X6745474Y-17464416D01*
X6759760Y-17450130D01*
X6788331Y-17435844D01*
X7145474Y-17535844D02*
X7145474Y-17735844D01*
X7074045Y-17421559D02*
X7002617Y-17635844D01*
X7188331Y-17635844D01*
X7359760Y-17435844D02*
X7388331Y-17435844D01*
X7416903Y-17450130D01*
X7431188Y-17464416D01*
X7445474Y-17492987D01*
X7459760Y-17550130D01*
X7459760Y-17621559D01*
X7445474Y-17678702D01*
X7431188Y-17707273D01*
X7416903Y-17721559D01*
X7388331Y-17735844D01*
X7359760Y-17735844D01*
X7331188Y-17721559D01*
X7316903Y-17707273D01*
X7302617Y-17678702D01*
X7288331Y-17621559D01*
X7288331Y-17550130D01*
X7302617Y-17492987D01*
X7316903Y-17464416D01*
X7331188Y-17450130D01*
X7359760Y-17435844D01*
X7574046Y-17435844D02*
X7574046Y-17492987D01*
X7688331Y-17435844D02*
X7688331Y-17492987D01*
X8131188Y-17850130D02*
X8116903Y-17835844D01*
X8088331Y-17792987D01*
X8074045Y-17764416D01*
X8059760Y-17721559D01*
X8045474Y-17650130D01*
X8045474Y-17592987D01*
X8059760Y-17521559D01*
X8074045Y-17478702D01*
X8088331Y-17450130D01*
X8116903Y-17407273D01*
X8131188Y-17392987D01*
X8388331Y-17435844D02*
X8245474Y-17435844D01*
X8231188Y-17578702D01*
X8245474Y-17564416D01*
X8274045Y-17550130D01*
X8345474Y-17550130D01*
X8374045Y-17564416D01*
X8388331Y-17578702D01*
X8402617Y-17607273D01*
X8402617Y-17678702D01*
X8388331Y-17707273D01*
X8374045Y-17721559D01*
X8345474Y-17735844D01*
X8274045Y-17735844D01*
X8245474Y-17721559D01*
X8231188Y-17707273D01*
X8674046Y-17435844D02*
X8531188Y-17435844D01*
X8516903Y-17578702D01*
X8531188Y-17564416D01*
X8559760Y-17550130D01*
X8631188Y-17550130D01*
X8659760Y-17564416D01*
X8674046Y-17578702D01*
X8688331Y-17607273D01*
X8688331Y-17678702D01*
X8674046Y-17707273D01*
X8659760Y-17721559D01*
X8631188Y-17735844D01*
X8559760Y-17735844D01*
X8531188Y-17721559D01*
X8516903Y-17707273D01*
X9045474Y-17735844D02*
X9045474Y-17435844D01*
X9174046Y-17735844D02*
X9174046Y-17578702D01*
X9159760Y-17550130D01*
X9131188Y-17535844D01*
X9088331Y-17535844D01*
X9059760Y-17550130D01*
X9045474Y-17564416D01*
X9359760Y-17735844D02*
X9331188Y-17721559D01*
X9316903Y-17707273D01*
X9302617Y-17678702D01*
X9302617Y-17592987D01*
X9316903Y-17564416D01*
X9331188Y-17550130D01*
X9359760Y-17535844D01*
X9402617Y-17535844D01*
X9431188Y-17550130D01*
X9445474Y-17564416D01*
X9459760Y-17592987D01*
X9459760Y-17678702D01*
X9445474Y-17707273D01*
X9431188Y-17721559D01*
X9402617Y-17735844D01*
X9359760Y-17735844D01*
X9631188Y-17735844D02*
X9602617Y-17721559D01*
X9588331Y-17692987D01*
X9588331Y-17435844D01*
X9859760Y-17721559D02*
X9831189Y-17735844D01*
X9774046Y-17735844D01*
X9745474Y-17721559D01*
X9731189Y-17692987D01*
X9731189Y-17578702D01*
X9745474Y-17550130D01*
X9774046Y-17535844D01*
X9831189Y-17535844D01*
X9859760Y-17550130D01*
X9874046Y-17578702D01*
X9874046Y-17607273D01*
X9731189Y-17635844D01*
X9988331Y-17721559D02*
X10016903Y-17735844D01*
X10074046Y-17735844D01*
X10102617Y-17721559D01*
X10116903Y-17692987D01*
X10116903Y-17678702D01*
X10102617Y-17650130D01*
X10074046Y-17635844D01*
X10031189Y-17635844D01*
X10002617Y-17621559D01*
X9988331Y-17592987D01*
X9988331Y-17578702D01*
X10002617Y-17550130D01*
X10031189Y-17535844D01*
X10074046Y-17535844D01*
X10102617Y-17550130D01*
X10216903Y-17850130D02*
X10231189Y-17835844D01*
X10259760Y-17792987D01*
X10274046Y-17764416D01*
X10288331Y-17721559D01*
X10302617Y-17650130D01*
X10302617Y-17592987D01*
X10288331Y-17521559D01*
X10274046Y-17478702D01*
X10259760Y-17450130D01*
X10231189Y-17407273D01*
X10216903Y-17392987D01*
X3209760Y-17871130D02*
X3459760Y-18121130D01*
X3459760Y-17871130D02*
X3209760Y-18121130D01*
X3334760Y-18121130D02*
X3459760Y-17996130D01*
X3334760Y-17871130D01*
X3209760Y-17996130D01*
X3334760Y-18121130D01*
X3716903Y-17860416D02*
X3731188Y-17846130D01*
X3759760Y-17831844D01*
X3831188Y-17831844D01*
X3859760Y-17846130D01*
X3874046Y-17860416D01*
X3888331Y-17888987D01*
X3888331Y-17917559D01*
X3874046Y-17960416D01*
X3702617Y-18131844D01*
X3888331Y-18131844D01*
X4016903Y-18103273D02*
X4031188Y-18117559D01*
X4016903Y-18131844D01*
X4002617Y-18117559D01*
X4016903Y-18103273D01*
X4016903Y-18131844D01*
X4302617Y-17831844D02*
X4159760Y-17831844D01*
X4145474Y-17974702D01*
X4159760Y-17960416D01*
X4188331Y-17946130D01*
X4259760Y-17946130D01*
X4288331Y-17960416D01*
X4302617Y-17974702D01*
X4316903Y-18003273D01*
X4316903Y-18074702D01*
X4302617Y-18103273D01*
X4288331Y-18117559D01*
X4259760Y-18131844D01*
X4188331Y-18131844D01*
X4159760Y-18117559D01*
X4145474Y-18103273D01*
X4502617Y-17831844D02*
X4531189Y-17831844D01*
X4559760Y-17846130D01*
X4574046Y-17860416D01*
X4588331Y-17888987D01*
X4602617Y-17946130D01*
X4602617Y-18017559D01*
X4588331Y-18074702D01*
X4574046Y-18103273D01*
X4559760Y-18117559D01*
X4531189Y-18131844D01*
X4502617Y-18131844D01*
X4474046Y-18117559D01*
X4459760Y-18103273D01*
X4445474Y-18074702D01*
X4431189Y-18017559D01*
X4431189Y-17946130D01*
X4445474Y-17888987D01*
X4459760Y-17860416D01*
X4474046Y-17846130D01*
X4502617Y-17831844D01*
X4731189Y-18131844D02*
X4731189Y-17931844D01*
X4731189Y-17960416D02*
X4745474Y-17946130D01*
X4774046Y-17931844D01*
X4816903Y-17931844D01*
X4845474Y-17946130D01*
X4859760Y-17974702D01*
X4859760Y-18131844D01*
X4859760Y-17974702D02*
X4874046Y-17946130D01*
X4902617Y-17931844D01*
X4945474Y-17931844D01*
X4974046Y-17946130D01*
X4988331Y-17974702D01*
X4988331Y-18131844D01*
X5131189Y-18131844D02*
X5131189Y-17931844D01*
X5131189Y-17960416D02*
X5145474Y-17946130D01*
X5174046Y-17931844D01*
X5216903Y-17931844D01*
X5245474Y-17946130D01*
X5259760Y-17974702D01*
X5259760Y-18131844D01*
X5259760Y-17974702D02*
X5274046Y-17946130D01*
X5302617Y-17931844D01*
X5345474Y-17931844D01*
X5374046Y-17946130D01*
X5388331Y-17974702D01*
X5388331Y-18131844D01*
X5974046Y-17817559D02*
X5716903Y-18203273D01*
X6359760Y-17831844D02*
X6388331Y-17831844D01*
X6416903Y-17846130D01*
X6431188Y-17860416D01*
X6445474Y-17888987D01*
X6459760Y-17946130D01*
X6459760Y-18017559D01*
X6445474Y-18074702D01*
X6431188Y-18103273D01*
X6416903Y-18117559D01*
X6388331Y-18131844D01*
X6359760Y-18131844D01*
X6331188Y-18117559D01*
X6316903Y-18103273D01*
X6302617Y-18074702D01*
X6288331Y-18017559D01*
X6288331Y-17946130D01*
X6302617Y-17888987D01*
X6316903Y-17860416D01*
X6331188Y-17846130D01*
X6359760Y-17831844D01*
X6588331Y-18103273D02*
X6602617Y-18117559D01*
X6588331Y-18131844D01*
X6574046Y-18117559D01*
X6588331Y-18103273D01*
X6588331Y-18131844D01*
X6788331Y-17831844D02*
X6816903Y-17831844D01*
X6845474Y-17846130D01*
X6859760Y-17860416D01*
X6874045Y-17888987D01*
X6888331Y-17946130D01*
X6888331Y-18017559D01*
X6874045Y-18074702D01*
X6859760Y-18103273D01*
X6845474Y-18117559D01*
X6816903Y-18131844D01*
X6788331Y-18131844D01*
X6759760Y-18117559D01*
X6745474Y-18103273D01*
X6731188Y-18074702D01*
X6716903Y-18017559D01*
X6716903Y-17946130D01*
X6731188Y-17888987D01*
X6745474Y-17860416D01*
X6759760Y-17846130D01*
X6788331Y-17831844D01*
X7031188Y-18131844D02*
X7088331Y-18131844D01*
X7116903Y-18117559D01*
X7131188Y-18103273D01*
X7159760Y-18060416D01*
X7174045Y-18003273D01*
X7174045Y-17888987D01*
X7159760Y-17860416D01*
X7145474Y-17846130D01*
X7116903Y-17831844D01*
X7059760Y-17831844D01*
X7031188Y-17846130D01*
X7016903Y-17860416D01*
X7002617Y-17888987D01*
X7002617Y-17960416D01*
X7016903Y-17988987D01*
X7031188Y-18003273D01*
X7059760Y-18017559D01*
X7116903Y-18017559D01*
X7145474Y-18003273D01*
X7159760Y-17988987D01*
X7174045Y-17960416D01*
X7345474Y-17960416D02*
X7316903Y-17946130D01*
X7302617Y-17931844D01*
X7288331Y-17903273D01*
X7288331Y-17888987D01*
X7302617Y-17860416D01*
X7316903Y-17846130D01*
X7345474Y-17831844D01*
X7402617Y-17831844D01*
X7431188Y-17846130D01*
X7445474Y-17860416D01*
X7459760Y-17888987D01*
X7459760Y-17903273D01*
X7445474Y-17931844D01*
X7431188Y-17946130D01*
X7402617Y-17960416D01*
X7345474Y-17960416D01*
X7316903Y-17974702D01*
X7302617Y-17988987D01*
X7288331Y-18017559D01*
X7288331Y-18074702D01*
X7302617Y-18103273D01*
X7316903Y-18117559D01*
X7345474Y-18131844D01*
X7402617Y-18131844D01*
X7431188Y-18117559D01*
X7445474Y-18103273D01*
X7459760Y-18074702D01*
X7459760Y-18017559D01*
X7445474Y-17988987D01*
X7431188Y-17974702D01*
X7402617Y-17960416D01*
X7574046Y-17831844D02*
X7574046Y-17888987D01*
X7688331Y-17831844D02*
X7688331Y-17888987D01*
X8131188Y-18246130D02*
X8116903Y-18231844D01*
X8088331Y-18188987D01*
X8074045Y-18160416D01*
X8059760Y-18117559D01*
X8045474Y-18046130D01*
X8045474Y-17988987D01*
X8059760Y-17917559D01*
X8074045Y-17874702D01*
X8088331Y-17846130D01*
X8116903Y-17803273D01*
X8131188Y-17788987D01*
X8288331Y-17960416D02*
X8259760Y-17946130D01*
X8245474Y-17931844D01*
X8231188Y-17903273D01*
X8231188Y-17888987D01*
X8245474Y-17860416D01*
X8259760Y-17846130D01*
X8288331Y-17831844D01*
X8345474Y-17831844D01*
X8374045Y-17846130D01*
X8388331Y-17860416D01*
X8402617Y-17888987D01*
X8402617Y-17903273D01*
X8388331Y-17931844D01*
X8374045Y-17946130D01*
X8345474Y-17960416D01*
X8288331Y-17960416D01*
X8259760Y-17974702D01*
X8245474Y-17988987D01*
X8231188Y-18017559D01*
X8231188Y-18074702D01*
X8245474Y-18103273D01*
X8259760Y-18117559D01*
X8288331Y-18131844D01*
X8345474Y-18131844D01*
X8374045Y-18117559D01*
X8388331Y-18103273D01*
X8402617Y-18074702D01*
X8402617Y-18017559D01*
X8388331Y-17988987D01*
X8374045Y-17974702D01*
X8345474Y-17960416D01*
X8759760Y-18131844D02*
X8759760Y-17831844D01*
X8888331Y-18131844D02*
X8888331Y-17974702D01*
X8874046Y-17946130D01*
X8845474Y-17931844D01*
X8802617Y-17931844D01*
X8774046Y-17946130D01*
X8759760Y-17960416D01*
X9074046Y-18131844D02*
X9045474Y-18117559D01*
X9031188Y-18103273D01*
X9016903Y-18074702D01*
X9016903Y-17988987D01*
X9031188Y-17960416D01*
X9045474Y-17946130D01*
X9074046Y-17931844D01*
X9116903Y-17931844D01*
X9145474Y-17946130D01*
X9159760Y-17960416D01*
X9174046Y-17988987D01*
X9174046Y-18074702D01*
X9159760Y-18103273D01*
X9145474Y-18117559D01*
X9116903Y-18131844D01*
X9074046Y-18131844D01*
X9345474Y-18131844D02*
X9316903Y-18117559D01*
X9302617Y-18088987D01*
X9302617Y-17831844D01*
X9574046Y-18117559D02*
X9545474Y-18131844D01*
X9488331Y-18131844D01*
X9459760Y-18117559D01*
X9445474Y-18088987D01*
X9445474Y-17974702D01*
X9459760Y-17946130D01*
X9488331Y-17931844D01*
X9545474Y-17931844D01*
X9574046Y-17946130D01*
X9588331Y-17974702D01*
X9588331Y-18003273D01*
X9445474Y-18031844D01*
X9702617Y-18117559D02*
X9731189Y-18131844D01*
X9788331Y-18131844D01*
X9816903Y-18117559D01*
X9831189Y-18088987D01*
X9831189Y-18074702D01*
X9816903Y-18046130D01*
X9788331Y-18031844D01*
X9745474Y-18031844D01*
X9716903Y-18017559D01*
X9702617Y-17988987D01*
X9702617Y-17974702D01*
X9716903Y-17946130D01*
X9745474Y-17931844D01*
X9788331Y-17931844D01*
X9816903Y-17946130D01*
X9931188Y-18246130D02*
X9945474Y-18231844D01*
X9974046Y-18188987D01*
X9988331Y-18160416D01*
X10002617Y-18117559D01*
X10016903Y-18046130D01*
X10016903Y-17988987D01*
X10002617Y-17917559D01*
X9988331Y-17874702D01*
X9974046Y-17846130D01*
X9945474Y-17803273D01*
X9931188Y-17788987D01*
M02*
