G04 #@! TF.FileFunction,Soldermask,Bot*
%FSLAX46Y46*%
G04 Gerber Fmt 4.6, Leading zero omitted, Abs format (unit mm)*
G04 Created by KiCad (PCBNEW 4.0.6) date 05/22/17 18:05:56*
%MOMM*%
%LPD*%
G01*
G04 APERTURE LIST*
%ADD10C,0.100000*%
%ADD11C,5.400000*%
%ADD12C,1.000000*%
%ADD13R,2.432000X2.432000*%
%ADD14O,2.432000X2.432000*%
%ADD15C,1.900000*%
%ADD16O,1.299160X1.901140*%
%ADD17C,1.400000*%
%ADD18R,2.635200X2.635200*%
%ADD19R,2.127200X2.432000*%
%ADD20O,2.127200X2.432000*%
%ADD21R,2.432000X2.127200*%
%ADD22O,2.432000X2.127200*%
%ADD23R,2.100000X2.100000*%
%ADD24O,2.100000X2.100000*%
%ADD25R,2.380000X4.360000*%
%ADD26O,2.380000X4.360000*%
%ADD27R,1.650000X1.900000*%
G04 APERTURE END LIST*
D10*
D11*
X91690300Y-42468600D03*
D12*
X93565300Y-42468600D03*
X93016125Y-43794425D03*
X91690300Y-44343600D03*
X90364475Y-43794425D03*
X89815300Y-42468600D03*
X90364475Y-41142775D03*
X91690300Y-40593600D03*
X93016125Y-41142775D03*
D13*
X70560000Y-57580000D03*
D14*
X70560000Y-55040000D03*
D15*
X54000000Y-54410000D03*
X87030000Y-51160000D03*
X65260000Y-59050000D03*
X97860000Y-53150000D03*
X99610000Y-68080000D03*
X122610000Y-49090000D03*
X111630000Y-59080000D03*
D16*
X86220000Y-63500000D03*
X87490000Y-63500000D03*
X84950000Y-63500000D03*
D17*
X39740000Y-52460000D03*
X123570000Y-44380000D03*
X102610000Y-71280000D03*
X87550000Y-61050000D03*
X94720000Y-61510000D03*
X100070000Y-64660000D03*
X64980000Y-49780000D03*
D18*
X52220300Y-64749900D03*
D19*
X73210000Y-43620000D03*
D20*
X70670000Y-43620000D03*
X68130000Y-43620000D03*
X65590000Y-43620000D03*
D19*
X109740000Y-43460000D03*
D20*
X107200000Y-43460000D03*
X104660000Y-43460000D03*
X102120000Y-43460000D03*
D19*
X56870000Y-65810000D03*
D20*
X59410000Y-65810000D03*
X61950000Y-65810000D03*
D21*
X80970000Y-55060000D03*
D22*
X80970000Y-57600000D03*
X80970000Y-60140000D03*
D13*
X74300000Y-57610000D03*
D14*
X74300000Y-55070000D03*
D13*
X111840000Y-52770000D03*
D14*
X109300000Y-52770000D03*
D13*
X111860000Y-56350000D03*
D14*
X109320000Y-56350000D03*
D13*
X96610000Y-66700000D03*
D14*
X94070000Y-66700000D03*
D13*
X66570000Y-61810000D03*
D14*
X66570000Y-64350000D03*
D13*
X125250000Y-52850000D03*
D14*
X125250000Y-55390000D03*
D13*
X91210000Y-58600000D03*
D14*
X88670000Y-58600000D03*
D13*
X55042240Y-60571600D03*
D14*
X52502240Y-60571600D03*
D13*
X55123520Y-56670160D03*
D14*
X52583520Y-56670160D03*
D13*
X113040000Y-61930000D03*
D14*
X113040000Y-64470000D03*
D13*
X70430000Y-69500000D03*
D14*
X70430000Y-72040000D03*
D13*
X124010000Y-59770000D03*
D14*
X124010000Y-62310000D03*
D13*
X40543920Y-59413360D03*
D14*
X40543920Y-56873360D03*
D13*
X77290000Y-48750000D03*
D14*
X77290000Y-46210000D03*
D13*
X60160000Y-43320000D03*
D14*
X60160000Y-45860000D03*
D21*
X39110000Y-49690000D03*
D22*
X39110000Y-47150000D03*
X39110000Y-44610000D03*
X39110000Y-42070000D03*
D19*
X99850000Y-73190000D03*
D20*
X97310000Y-73190000D03*
X94770000Y-73190000D03*
X92230000Y-73190000D03*
D23*
X96034300Y-114161400D03*
D24*
X96034300Y-111621400D03*
D23*
X96034300Y-99111900D03*
D24*
X96034300Y-96571900D03*
D23*
X63192100Y-119711300D03*
D24*
X60652100Y-119711300D03*
D23*
X63166700Y-115990200D03*
D24*
X60626700Y-115990200D03*
D23*
X95869200Y-119749400D03*
D24*
X95869200Y-122289400D03*
D15*
X80438700Y-103531500D03*
X71929700Y-99975500D03*
X96034300Y-108624200D03*
X69402400Y-99962800D03*
X83829600Y-112180200D03*
X68983300Y-117184000D03*
D23*
X63179400Y-112154800D03*
D24*
X63179400Y-109614800D03*
D23*
X45056500Y-100140600D03*
D24*
X42516500Y-100140600D03*
X39976500Y-100140600D03*
D23*
X40624200Y-118796900D03*
D24*
X40624200Y-116256900D03*
D23*
X76438200Y-99810400D03*
D24*
X78978200Y-99810400D03*
D23*
X96034300Y-102807600D03*
D24*
X96034300Y-105347600D03*
D23*
X90357400Y-123635600D03*
D24*
X90357400Y-121095600D03*
D25*
X119298300Y-132204700D03*
D26*
X116758300Y-132204700D03*
X114218300Y-132204700D03*
D23*
X128848700Y-123136900D03*
D24*
X126308700Y-123136900D03*
D23*
X128848700Y-82014300D03*
D24*
X126308700Y-82014300D03*
D23*
X127337400Y-105204500D03*
D24*
X127337400Y-102664500D03*
D23*
X126613500Y-86091000D03*
D24*
X126613500Y-88631000D03*
X126613500Y-91171000D03*
X126613500Y-93711000D03*
X126613500Y-96251000D03*
D27*
X103610300Y-101128600D03*
X103610300Y-103628600D03*
D23*
X112600300Y-98608600D03*
D24*
X112600300Y-101148600D03*
X112600300Y-103688600D03*
D23*
X122701900Y-84325700D03*
D24*
X120161900Y-84325700D03*
D23*
X102720300Y-96478600D03*
D24*
X102720300Y-93938600D03*
D23*
X127350100Y-109039900D03*
D24*
X127350100Y-111579900D03*
D23*
X101800300Y-85478600D03*
D24*
X104340300Y-85478600D03*
X106880300Y-85478600D03*
D23*
X116326500Y-103693200D03*
D24*
X118866500Y-103693200D03*
X121406500Y-103693200D03*
D15*
X101630300Y-114418600D03*
D11*
X129890300Y-42918600D03*
D12*
X131765300Y-42918600D03*
X131216125Y-44244425D03*
X129890300Y-44793600D03*
X128564475Y-44244425D03*
X128015300Y-42918600D03*
X128564475Y-41592775D03*
X129890300Y-41043600D03*
X131216125Y-41592775D03*
D11*
X40350300Y-73038600D03*
D12*
X42225300Y-73038600D03*
X41676125Y-74364425D03*
X40350300Y-74913600D03*
X39024475Y-74364425D03*
X38475300Y-73038600D03*
X39024475Y-71712775D03*
X40350300Y-71163600D03*
X41676125Y-71712775D03*
D11*
X39060300Y-134838600D03*
D12*
X40935300Y-134838600D03*
X40386125Y-136164425D03*
X39060300Y-136713600D03*
X37734475Y-136164425D03*
X37185300Y-134838600D03*
X37734475Y-133512775D03*
X39060300Y-132963600D03*
X40386125Y-133512775D03*
D11*
X124710300Y-72388600D03*
D12*
X126585300Y-72388600D03*
X126036125Y-73714425D03*
X124710300Y-74263600D03*
X123384475Y-73714425D03*
X122835300Y-72388600D03*
X123384475Y-71062775D03*
X124710300Y-70513600D03*
X126036125Y-71062775D03*
D11*
X91950300Y-85088600D03*
D12*
X93825300Y-85088600D03*
X93276125Y-86414425D03*
X91950300Y-86963600D03*
X90624475Y-86414425D03*
X90075300Y-85088600D03*
X90624475Y-83762775D03*
X91950300Y-83213600D03*
X93276125Y-83762775D03*
D11*
X39710300Y-84328600D03*
D12*
X41585300Y-84328600D03*
X41036125Y-85654425D03*
X39710300Y-86203600D03*
X38384475Y-85654425D03*
X37835300Y-84328600D03*
X38384475Y-83002775D03*
X39710300Y-82453600D03*
X41036125Y-83002775D03*
D11*
X131170300Y-134858600D03*
D12*
X133045300Y-134858600D03*
X132496125Y-136184425D03*
X131170300Y-136733600D03*
X129844475Y-136184425D03*
X129295300Y-134858600D03*
X129844475Y-133532775D03*
X131170300Y-132983600D03*
X132496125Y-133532775D03*
M02*
