G04 #@! TF.FileFunction,Other,User*
%FSLAX46Y46*%
G04 Gerber Fmt 4.6, Leading zero omitted, Abs format (unit mm)*
G04 Created by KiCad (PCBNEW 4.0.6) date 05/22/17 18:05:56*
%MOMM*%
%LPD*%
G01*
G04 APERTURE LIST*
%ADD10C,0.100000*%
%ADD11C,0.050000*%
G04 APERTURE END LIST*
D10*
D11*
X94440300Y-42468600D02*
G75*
G03X94440300Y-42468600I-2750000J0D01*
G01*
X72310000Y-59330000D02*
X72310000Y-53280000D01*
X68810000Y-59330000D02*
X68810000Y-53280000D01*
X72310000Y-59330000D02*
X68810000Y-59330000D01*
X72310000Y-53280000D02*
X68810000Y-53280000D01*
X48100000Y-43350000D02*
X48100000Y-48850000D01*
X55600000Y-43350000D02*
X55600000Y-48850000D01*
X48100000Y-43350000D02*
X55600000Y-43350000D01*
X48100000Y-48850000D02*
X55600000Y-48850000D01*
X103540000Y-61900000D02*
X103540000Y-57300000D01*
X105540000Y-61900000D02*
X105540000Y-57300000D01*
X103540000Y-61900000D02*
X105540000Y-61900000D01*
X103540000Y-57300000D02*
X105540000Y-57300000D01*
X58190000Y-74010000D02*
X58190000Y-69210000D01*
X60190000Y-74010000D02*
X60190000Y-69210000D01*
X58190000Y-74010000D02*
X60190000Y-74010000D01*
X58190000Y-69210000D02*
X60190000Y-69210000D01*
X46180000Y-52450000D02*
X41380000Y-52450000D01*
X46180000Y-50450000D02*
X41380000Y-50450000D01*
X46180000Y-52450000D02*
X46180000Y-50450000D01*
X41380000Y-52450000D02*
X41380000Y-50450000D01*
X112770000Y-46440000D02*
X117570000Y-46440000D01*
X112770000Y-48440000D02*
X117570000Y-48440000D01*
X112770000Y-46440000D02*
X112770000Y-48440000D01*
X117570000Y-46440000D02*
X117570000Y-48440000D01*
X40020000Y-52810000D02*
X44820000Y-52810000D01*
X40020000Y-54810000D02*
X44820000Y-54810000D01*
X40020000Y-52810000D02*
X40020000Y-54810000D01*
X44820000Y-52810000D02*
X44820000Y-54810000D01*
X117650000Y-46250000D02*
X112850000Y-46250000D01*
X117650000Y-44250000D02*
X112850000Y-44250000D01*
X117650000Y-46250000D02*
X117650000Y-44250000D01*
X112850000Y-46250000D02*
X112850000Y-44250000D01*
X65670000Y-73940000D02*
X60870000Y-73940000D01*
X65670000Y-71940000D02*
X60870000Y-71940000D01*
X65670000Y-73940000D02*
X65670000Y-71940000D01*
X60870000Y-73940000D02*
X60870000Y-71940000D01*
X74420000Y-59910000D02*
X68920000Y-59910000D01*
X74420000Y-67410000D02*
X68920000Y-67410000D01*
X74420000Y-59910000D02*
X74420000Y-67410000D01*
X68920000Y-59910000D02*
X68920000Y-67410000D01*
X114230000Y-54190000D02*
X114230000Y-59690000D01*
X121730000Y-54190000D02*
X121730000Y-59690000D01*
X114230000Y-54190000D02*
X121730000Y-54190000D01*
X114230000Y-59690000D02*
X121730000Y-59690000D01*
X109870000Y-66850000D02*
X109870000Y-63150000D01*
X103470000Y-66850000D02*
X103470000Y-63150000D01*
X109870000Y-66850000D02*
X103470000Y-66850000D01*
X109870000Y-63150000D02*
X103470000Y-63150000D01*
X55000000Y-54410000D02*
G75*
G03X55000000Y-54410000I-1000000J0D01*
G01*
X88030000Y-51160000D02*
G75*
G03X88030000Y-51160000I-1000000J0D01*
G01*
X66260000Y-59050000D02*
G75*
G03X66260000Y-59050000I-1000000J0D01*
G01*
X98860000Y-53150000D02*
G75*
G03X98860000Y-53150000I-1000000J0D01*
G01*
X100610000Y-68080000D02*
G75*
G03X100610000Y-68080000I-1000000J0D01*
G01*
X123610000Y-49090000D02*
G75*
G03X123610000Y-49090000I-1000000J0D01*
G01*
X112630000Y-59080000D02*
G75*
G03X112630000Y-59080000I-1000000J0D01*
G01*
X67030000Y-52420000D02*
X70730000Y-52420000D01*
X67030000Y-46120000D02*
X70730000Y-46120000D01*
X67030000Y-52420000D02*
X67030000Y-46120000D01*
X70730000Y-52420000D02*
X70730000Y-46120000D01*
X61342320Y-55003520D02*
X57642320Y-55003520D01*
X61342320Y-61303520D02*
X57642320Y-61303520D01*
X61342320Y-55003520D02*
X61342320Y-61303520D01*
X57642320Y-55003520D02*
X57642320Y-61303520D01*
X102080000Y-52110000D02*
X105780000Y-52110000D01*
X102080000Y-45810000D02*
X105780000Y-45810000D01*
X102080000Y-52110000D02*
X102080000Y-45810000D01*
X105780000Y-52110000D02*
X105780000Y-45810000D01*
X89390000Y-55420000D02*
X89390000Y-51720000D01*
X83090000Y-55420000D02*
X83090000Y-51720000D01*
X89390000Y-55420000D02*
X83090000Y-55420000D01*
X89390000Y-51720000D02*
X83090000Y-51720000D01*
D10*
X101490000Y-55890000D02*
X97490000Y-55890000D01*
X101490000Y-53890000D02*
X97490000Y-53890000D01*
X101490000Y-55890000D02*
X101490000Y-53890000D01*
X97490000Y-55890000D02*
X97490000Y-53890000D01*
X101360000Y-63850000D02*
X97360000Y-63850000D01*
X101360000Y-61850000D02*
X97360000Y-61850000D01*
X101360000Y-63850000D02*
X101360000Y-61850000D01*
X97360000Y-63850000D02*
X97360000Y-61850000D01*
X91260000Y-60750000D02*
X91260000Y-64750000D01*
X89260000Y-60750000D02*
X89260000Y-64750000D01*
X91260000Y-60750000D02*
X89260000Y-60750000D01*
X91260000Y-64750000D02*
X89260000Y-64750000D01*
D11*
X95770000Y-56150000D02*
X95770000Y-61650000D01*
X103270000Y-56150000D02*
X103270000Y-61650000D01*
X95770000Y-56150000D02*
X103270000Y-56150000D01*
X95770000Y-61650000D02*
X103270000Y-61650000D01*
X83550000Y-65450000D02*
X83550000Y-60850000D01*
X83550000Y-65450000D02*
X88900000Y-65450000D01*
X83550000Y-60850000D02*
X88900000Y-60850000D01*
X88900000Y-65450000D02*
X88900000Y-60850000D01*
D10*
X92200000Y-62360000D02*
X96200000Y-62360000D01*
X92200000Y-64360000D02*
X96200000Y-64360000D01*
X92200000Y-62360000D02*
X92200000Y-64360000D01*
X96200000Y-62360000D02*
X96200000Y-64360000D01*
X40740000Y-52460000D02*
G75*
G03X40740000Y-52460000I-1000000J0D01*
G01*
X124570000Y-44380000D02*
G75*
G03X124570000Y-44380000I-1000000J0D01*
G01*
X103610000Y-71280000D02*
G75*
G03X103610000Y-71280000I-1000000J0D01*
G01*
X88550000Y-61050000D02*
G75*
G03X88550000Y-61050000I-1000000J0D01*
G01*
X95720000Y-61510000D02*
G75*
G03X95720000Y-61510000I-1000000J0D01*
G01*
X101070000Y-64660000D02*
G75*
G03X101070000Y-64660000I-1000000J0D01*
G01*
X65980000Y-49780000D02*
G75*
G03X65980000Y-49780000I-1000000J0D01*
G01*
D11*
X50470300Y-62999900D02*
X50470300Y-66499900D01*
X53970300Y-62999900D02*
X53970300Y-66499900D01*
X50470300Y-62999900D02*
X53970300Y-62999900D01*
X50470300Y-66499900D02*
X53970300Y-66499900D01*
X74960000Y-45370000D02*
X74960000Y-41870000D01*
X63810000Y-45370000D02*
X63810000Y-41870000D01*
X74960000Y-45370000D02*
X63810000Y-45370000D01*
X74960000Y-41870000D02*
X63810000Y-41870000D01*
X111490000Y-45210000D02*
X111490000Y-41710000D01*
X100340000Y-45210000D02*
X100340000Y-41710000D01*
X111490000Y-45210000D02*
X100340000Y-45210000D01*
X111490000Y-41710000D02*
X100340000Y-41710000D01*
X55120000Y-64060000D02*
X55120000Y-67560000D01*
X63720000Y-64060000D02*
X63720000Y-67560000D01*
X55120000Y-64060000D02*
X63720000Y-64060000D01*
X55120000Y-67560000D02*
X63720000Y-67560000D01*
X82720000Y-53310000D02*
X79220000Y-53310000D01*
X82720000Y-61910000D02*
X79220000Y-61910000D01*
X82720000Y-53310000D02*
X82720000Y-61910000D01*
X79220000Y-53310000D02*
X79220000Y-61910000D01*
X49362500Y-62673960D02*
X44562500Y-62673960D01*
X49362500Y-60673960D02*
X44562500Y-60673960D01*
X49362500Y-62673960D02*
X49362500Y-60673960D01*
X44562500Y-62673960D02*
X44562500Y-60673960D01*
X79200000Y-50370000D02*
X79200000Y-45570000D01*
X81200000Y-50370000D02*
X81200000Y-45570000D01*
X79200000Y-50370000D02*
X81200000Y-50370000D01*
X79200000Y-45570000D02*
X81200000Y-45570000D01*
X70900000Y-51630000D02*
X70900000Y-47030000D01*
X72900000Y-51630000D02*
X72900000Y-47030000D01*
X70900000Y-51630000D02*
X72900000Y-51630000D01*
X70900000Y-47030000D02*
X72900000Y-47030000D01*
X68540000Y-68710000D02*
X63940000Y-68710000D01*
X68540000Y-66710000D02*
X63940000Y-66710000D01*
X68540000Y-68710000D02*
X68540000Y-66710000D01*
X63940000Y-68710000D02*
X63940000Y-66710000D01*
X59820000Y-54460000D02*
X55220000Y-54460000D01*
X59820000Y-52460000D02*
X55220000Y-52460000D01*
X59820000Y-54460000D02*
X59820000Y-52460000D01*
X55220000Y-54460000D02*
X55220000Y-52460000D01*
X72410000Y-72200000D02*
X72410000Y-67600000D01*
X74410000Y-72200000D02*
X74410000Y-67600000D01*
X72410000Y-72200000D02*
X74410000Y-72200000D01*
X72410000Y-67600000D02*
X74410000Y-67600000D01*
X68510000Y-52890000D02*
X68510000Y-57490000D01*
X66510000Y-52890000D02*
X66510000Y-57490000D01*
X68510000Y-52890000D02*
X66510000Y-52890000D01*
X68510000Y-57490000D02*
X66510000Y-57490000D01*
X66400000Y-52500000D02*
X66400000Y-57100000D01*
X64400000Y-52500000D02*
X64400000Y-57100000D01*
X66400000Y-52500000D02*
X64400000Y-52500000D01*
X66400000Y-57100000D02*
X64400000Y-57100000D01*
X60170000Y-54410000D02*
X60170000Y-49810000D01*
X62170000Y-54410000D02*
X62170000Y-49810000D01*
X60170000Y-54410000D02*
X62170000Y-54410000D01*
X60170000Y-49810000D02*
X62170000Y-49810000D01*
X64270000Y-52410000D02*
X64270000Y-57010000D01*
X62270000Y-52410000D02*
X62270000Y-57010000D01*
X64270000Y-52410000D02*
X62270000Y-52410000D01*
X64270000Y-57010000D02*
X62270000Y-57010000D01*
X63670000Y-59360000D02*
X63670000Y-63960000D01*
X61670000Y-59360000D02*
X61670000Y-63960000D01*
X63670000Y-59360000D02*
X61670000Y-59360000D01*
X63670000Y-63960000D02*
X61670000Y-63960000D01*
X105740000Y-51290000D02*
X105740000Y-46690000D01*
X107740000Y-51290000D02*
X107740000Y-46690000D01*
X105740000Y-51290000D02*
X107740000Y-51290000D01*
X105740000Y-46690000D02*
X107740000Y-46690000D01*
X119870000Y-62060000D02*
X115270000Y-62060000D01*
X119870000Y-60060000D02*
X115270000Y-60060000D01*
X119870000Y-62060000D02*
X119870000Y-60060000D01*
X115270000Y-62060000D02*
X115270000Y-60060000D01*
X114980000Y-52000000D02*
X119580000Y-52000000D01*
X114980000Y-54000000D02*
X119580000Y-54000000D01*
X114980000Y-52000000D02*
X114980000Y-54000000D01*
X119580000Y-52000000D02*
X119580000Y-54000000D01*
X91790000Y-52400000D02*
X91790000Y-47800000D01*
X93790000Y-52400000D02*
X93790000Y-47800000D01*
X91790000Y-52400000D02*
X93790000Y-52400000D01*
X91790000Y-47800000D02*
X93790000Y-47800000D01*
X89630000Y-52390000D02*
X89630000Y-47790000D01*
X91630000Y-52390000D02*
X91630000Y-47790000D01*
X89630000Y-52390000D02*
X91630000Y-52390000D01*
X89630000Y-47790000D02*
X91630000Y-47790000D01*
X99940000Y-50790000D02*
X99940000Y-46190000D01*
X101940000Y-50790000D02*
X101940000Y-46190000D01*
X99940000Y-50790000D02*
X101940000Y-50790000D01*
X99940000Y-46190000D02*
X101940000Y-46190000D01*
X97520000Y-51510000D02*
X97520000Y-44910000D01*
X99820000Y-51510000D02*
X99820000Y-44910000D01*
X97520000Y-51510000D02*
X99820000Y-51510000D01*
X97520000Y-44910000D02*
X99820000Y-44910000D01*
X89560000Y-52530000D02*
X94160000Y-52530000D01*
X89560000Y-54530000D02*
X94160000Y-54530000D01*
X89560000Y-52530000D02*
X89560000Y-54530000D01*
X94160000Y-52530000D02*
X94160000Y-54530000D01*
X94160000Y-56650000D02*
X89560000Y-56650000D01*
X94160000Y-54650000D02*
X89560000Y-54650000D01*
X94160000Y-56650000D02*
X94160000Y-54650000D01*
X89560000Y-56650000D02*
X89560000Y-54650000D01*
X44837760Y-53719440D02*
X49437760Y-53719440D01*
X44837760Y-55719440D02*
X49437760Y-55719440D01*
X44837760Y-53719440D02*
X44837760Y-55719440D01*
X49437760Y-53719440D02*
X49437760Y-55719440D01*
X87990000Y-45530000D02*
X87990000Y-50130000D01*
X85990000Y-45530000D02*
X85990000Y-50130000D01*
X87990000Y-45530000D02*
X85990000Y-45530000D01*
X87990000Y-50130000D02*
X85990000Y-50130000D01*
X86580000Y-55910000D02*
X86580000Y-60510000D01*
X84580000Y-55910000D02*
X84580000Y-60510000D01*
X86580000Y-55910000D02*
X84580000Y-55910000D01*
X86580000Y-60510000D02*
X84580000Y-60510000D01*
X106130000Y-61160000D02*
X110730000Y-61160000D01*
X106130000Y-63160000D02*
X110730000Y-63160000D01*
X106130000Y-61160000D02*
X106130000Y-63160000D01*
X110730000Y-61160000D02*
X110730000Y-63160000D01*
X41160000Y-48770000D02*
X41160000Y-44170000D01*
X43160000Y-48770000D02*
X43160000Y-44170000D01*
X41160000Y-48770000D02*
X43160000Y-48770000D01*
X41160000Y-44170000D02*
X43160000Y-44170000D01*
X43350000Y-48770000D02*
X43350000Y-44170000D01*
X45350000Y-48770000D02*
X45350000Y-44170000D01*
X43350000Y-48770000D02*
X45350000Y-48770000D01*
X43350000Y-44170000D02*
X45350000Y-44170000D01*
X81240000Y-62550000D02*
X81240000Y-67150000D01*
X79240000Y-62550000D02*
X79240000Y-67150000D01*
X81240000Y-62550000D02*
X79240000Y-62550000D01*
X81240000Y-67150000D02*
X79240000Y-67150000D01*
X83410000Y-62560000D02*
X83410000Y-67160000D01*
X81410000Y-62560000D02*
X81410000Y-67160000D01*
X83410000Y-62560000D02*
X81410000Y-62560000D01*
X83410000Y-67160000D02*
X81410000Y-67160000D01*
X88430000Y-67830000D02*
X83830000Y-67830000D01*
X88430000Y-65830000D02*
X83830000Y-65830000D01*
X88430000Y-67830000D02*
X88430000Y-65830000D01*
X83830000Y-67830000D02*
X83830000Y-65830000D01*
X76050000Y-59360000D02*
X76050000Y-53310000D01*
X72550000Y-59360000D02*
X72550000Y-53310000D01*
X76050000Y-59360000D02*
X72550000Y-59360000D01*
X76050000Y-53310000D02*
X72550000Y-53310000D01*
X113590000Y-51020000D02*
X107540000Y-51020000D01*
X113590000Y-54520000D02*
X107540000Y-54520000D01*
X113590000Y-51020000D02*
X113590000Y-54520000D01*
X107540000Y-51020000D02*
X107540000Y-54520000D01*
X113610000Y-54600000D02*
X107560000Y-54600000D01*
X113610000Y-58100000D02*
X107560000Y-58100000D01*
X113610000Y-54600000D02*
X113610000Y-58100000D01*
X107560000Y-54600000D02*
X107560000Y-58100000D01*
X98360000Y-64950000D02*
X92310000Y-64950000D01*
X98360000Y-68450000D02*
X92310000Y-68450000D01*
X98360000Y-64950000D02*
X98360000Y-68450000D01*
X92310000Y-64950000D02*
X92310000Y-68450000D01*
X64820000Y-60060000D02*
X64820000Y-66110000D01*
X68320000Y-60060000D02*
X68320000Y-66110000D01*
X64820000Y-60060000D02*
X68320000Y-60060000D01*
X64820000Y-66110000D02*
X68320000Y-66110000D01*
X123500000Y-51100000D02*
X123500000Y-57150000D01*
X127000000Y-51100000D02*
X127000000Y-57150000D01*
X123500000Y-51100000D02*
X127000000Y-51100000D01*
X123500000Y-57150000D02*
X127000000Y-57150000D01*
X92960000Y-56850000D02*
X86910000Y-56850000D01*
X92960000Y-60350000D02*
X86910000Y-60350000D01*
X92960000Y-56850000D02*
X92960000Y-60350000D01*
X86910000Y-56850000D02*
X86910000Y-60350000D01*
X56792240Y-58821600D02*
X50742240Y-58821600D01*
X56792240Y-62321600D02*
X50742240Y-62321600D01*
X56792240Y-58821600D02*
X56792240Y-62321600D01*
X50742240Y-58821600D02*
X50742240Y-62321600D01*
X56873520Y-54920160D02*
X50823520Y-54920160D01*
X56873520Y-58420160D02*
X50823520Y-58420160D01*
X56873520Y-54920160D02*
X56873520Y-58420160D01*
X50823520Y-54920160D02*
X50823520Y-58420160D01*
X111290000Y-60180000D02*
X111290000Y-66230000D01*
X114790000Y-60180000D02*
X114790000Y-66230000D01*
X111290000Y-60180000D02*
X114790000Y-60180000D01*
X111290000Y-66230000D02*
X114790000Y-66230000D01*
X68680000Y-67750000D02*
X68680000Y-73800000D01*
X72180000Y-67750000D02*
X72180000Y-73800000D01*
X68680000Y-67750000D02*
X72180000Y-67750000D01*
X68680000Y-73800000D02*
X72180000Y-73800000D01*
X122260000Y-58020000D02*
X122260000Y-64070000D01*
X125760000Y-58020000D02*
X125760000Y-64070000D01*
X122260000Y-58020000D02*
X125760000Y-58020000D01*
X122260000Y-64070000D02*
X125760000Y-64070000D01*
X42293920Y-61163360D02*
X42293920Y-55113360D01*
X38793920Y-61163360D02*
X38793920Y-55113360D01*
X42293920Y-61163360D02*
X38793920Y-61163360D01*
X42293920Y-55113360D02*
X38793920Y-55113360D01*
X79040000Y-50500000D02*
X79040000Y-44450000D01*
X75540000Y-50500000D02*
X75540000Y-44450000D01*
X79040000Y-50500000D02*
X75540000Y-50500000D01*
X79040000Y-44450000D02*
X75540000Y-44450000D01*
X58410000Y-41570000D02*
X58410000Y-47620000D01*
X61910000Y-41570000D02*
X61910000Y-47620000D01*
X58410000Y-41570000D02*
X61910000Y-41570000D01*
X58410000Y-47620000D02*
X61910000Y-47620000D01*
X37360000Y-51440000D02*
X40860000Y-51440000D01*
X37360000Y-40290000D02*
X40860000Y-40290000D01*
X37360000Y-51440000D02*
X37360000Y-40290000D01*
X40860000Y-51440000D02*
X40860000Y-40290000D01*
X45570000Y-48750000D02*
X45570000Y-44150000D01*
X47570000Y-48750000D02*
X47570000Y-44150000D01*
X45570000Y-48750000D02*
X47570000Y-48750000D01*
X45570000Y-44150000D02*
X47570000Y-44150000D01*
X61880000Y-68930000D02*
X68480000Y-68930000D01*
X61880000Y-71230000D02*
X68480000Y-71230000D01*
X61880000Y-68930000D02*
X61880000Y-71230000D01*
X68480000Y-68930000D02*
X68480000Y-71230000D01*
X74660000Y-74170000D02*
X74660000Y-67570000D01*
X76960000Y-74170000D02*
X76960000Y-67570000D01*
X74660000Y-74170000D02*
X76960000Y-74170000D01*
X74660000Y-67570000D02*
X76960000Y-67570000D01*
X59820000Y-52310000D02*
X55220000Y-52310000D01*
X59820000Y-50310000D02*
X55220000Y-50310000D01*
X59820000Y-52310000D02*
X59820000Y-50310000D01*
X55220000Y-52310000D02*
X55220000Y-50310000D01*
X55870000Y-49020000D02*
X55870000Y-42420000D01*
X58170000Y-49020000D02*
X58170000Y-42420000D01*
X55870000Y-49020000D02*
X58170000Y-49020000D01*
X55870000Y-42420000D02*
X58170000Y-42420000D01*
X114980000Y-62270000D02*
X121580000Y-62270000D01*
X114980000Y-64570000D02*
X121580000Y-64570000D01*
X114980000Y-62270000D02*
X114980000Y-64570000D01*
X121580000Y-62270000D02*
X121580000Y-64570000D01*
X114080000Y-49420000D02*
X120680000Y-49420000D01*
X114080000Y-51720000D02*
X120680000Y-51720000D01*
X114080000Y-49420000D02*
X114080000Y-51720000D01*
X120680000Y-49420000D02*
X120680000Y-51720000D01*
X101600000Y-74940000D02*
X101600000Y-71440000D01*
X90450000Y-74940000D02*
X90450000Y-71440000D01*
X101600000Y-74940000D02*
X90450000Y-74940000D01*
X101600000Y-71440000D02*
X90450000Y-71440000D01*
X53030000Y-51050000D02*
X48430000Y-51050000D01*
X53030000Y-49050000D02*
X48430000Y-49050000D01*
X53030000Y-51050000D02*
X53030000Y-49050000D01*
X48430000Y-51050000D02*
X48430000Y-49050000D01*
X45860000Y-41020000D02*
X50660000Y-41020000D01*
X45860000Y-43020000D02*
X50660000Y-43020000D01*
X45860000Y-41020000D02*
X45860000Y-43020000D01*
X50660000Y-41020000D02*
X50660000Y-43020000D01*
X50920000Y-41040000D02*
X55720000Y-41040000D01*
X50920000Y-43040000D02*
X55720000Y-43040000D01*
X50920000Y-41040000D02*
X50920000Y-43040000D01*
X55720000Y-41040000D02*
X55720000Y-43040000D01*
X76814800Y-104705200D02*
X69914800Y-104705200D01*
X76814800Y-113305200D02*
X69914800Y-113305200D01*
X76814800Y-104705200D02*
X76814800Y-113305200D01*
X69914800Y-104705200D02*
X69914800Y-113305200D01*
X74645400Y-101660900D02*
X79145400Y-101660900D01*
X74645400Y-101660900D02*
X74645400Y-103410900D01*
X79145400Y-103410900D02*
X79145400Y-101660900D01*
X79145400Y-103410900D02*
X74645400Y-103410900D01*
X91179200Y-105705300D02*
X91179200Y-101205300D01*
X91179200Y-105705300D02*
X92929200Y-105705300D01*
X92929200Y-101205300D02*
X91179200Y-101205300D01*
X92929200Y-101205300D02*
X92929200Y-105705300D01*
X89236100Y-105705300D02*
X89236100Y-101205300D01*
X89236100Y-105705300D02*
X90986100Y-105705300D01*
X90986100Y-101205300D02*
X89236100Y-101205300D01*
X90986100Y-101205300D02*
X90986100Y-105705300D01*
X85476900Y-101996900D02*
X85476900Y-97496900D01*
X85476900Y-101996900D02*
X87226900Y-101996900D01*
X87226900Y-97496900D02*
X85476900Y-97496900D01*
X87226900Y-97496900D02*
X87226900Y-101996900D01*
X39287000Y-110505900D02*
X39287000Y-106005900D01*
X39287000Y-110505900D02*
X41037000Y-110505900D01*
X41037000Y-106005900D02*
X39287000Y-106005900D01*
X41037000Y-106005900D02*
X41037000Y-110505900D01*
X53296700Y-106855200D02*
X57796700Y-106855200D01*
X53296700Y-106855200D02*
X53296700Y-108605200D01*
X57796700Y-108605200D02*
X57796700Y-106855200D01*
X57796700Y-108605200D02*
X53296700Y-108605200D01*
X53296700Y-108633200D02*
X57796700Y-108633200D01*
X53296700Y-108633200D02*
X53296700Y-110383200D01*
X57796700Y-110383200D02*
X57796700Y-108633200D01*
X57796700Y-110383200D02*
X53296700Y-110383200D01*
X60852650Y-102494350D02*
X60852650Y-106994350D01*
X60852650Y-102494350D02*
X59102650Y-102494350D01*
X59102650Y-106994350D02*
X60852650Y-106994350D01*
X59102650Y-106994350D02*
X59102650Y-102494350D01*
X59143450Y-98980650D02*
X59143450Y-94480650D01*
X59143450Y-98980650D02*
X60893450Y-98980650D01*
X60893450Y-94480650D02*
X59143450Y-94480650D01*
X60893450Y-94480650D02*
X60893450Y-98980650D01*
X93980600Y-118782100D02*
X93980600Y-123282100D01*
X93980600Y-118782100D02*
X92230600Y-118782100D01*
X92230600Y-123282100D02*
X93980600Y-123282100D01*
X92230600Y-123282100D02*
X92230600Y-118782100D01*
X74524200Y-118236000D02*
X74524200Y-122736000D01*
X74524200Y-118236000D02*
X72774200Y-118236000D01*
X72774200Y-122736000D02*
X74524200Y-122736000D01*
X72774200Y-122736000D02*
X72774200Y-118236000D01*
X63023300Y-104371800D02*
X63023300Y-99871800D01*
X63023300Y-104371800D02*
X64773300Y-104371800D01*
X64773300Y-99871800D02*
X63023300Y-99871800D01*
X64773300Y-99871800D02*
X64773300Y-104371800D01*
X75132200Y-116286000D02*
X70632200Y-116286000D01*
X75132200Y-116286000D02*
X75132200Y-114536000D01*
X70632200Y-114536000D02*
X70632200Y-116286000D01*
X70632200Y-114536000D02*
X75132200Y-114536000D01*
X97834300Y-115961400D02*
X97834300Y-109811400D01*
X97834300Y-109811400D02*
X94234300Y-109811400D01*
X94234300Y-109811400D02*
X94234300Y-115961400D01*
X94234300Y-115961400D02*
X97834300Y-115961400D01*
X97834300Y-100911900D02*
X97834300Y-94761900D01*
X97834300Y-94761900D02*
X94234300Y-94761900D01*
X94234300Y-94761900D02*
X94234300Y-100911900D01*
X94234300Y-100911900D02*
X97834300Y-100911900D01*
X64992100Y-117911300D02*
X58842100Y-117911300D01*
X58842100Y-117911300D02*
X58842100Y-121511300D01*
X58842100Y-121511300D02*
X64992100Y-121511300D01*
X64992100Y-121511300D02*
X64992100Y-117911300D01*
X64966700Y-114190200D02*
X58816700Y-114190200D01*
X58816700Y-114190200D02*
X58816700Y-117790200D01*
X58816700Y-117790200D02*
X64966700Y-117790200D01*
X64966700Y-117790200D02*
X64966700Y-114190200D01*
X94069200Y-117949400D02*
X94069200Y-124099400D01*
X94069200Y-124099400D02*
X97669200Y-124099400D01*
X97669200Y-124099400D02*
X97669200Y-117949400D01*
X97669200Y-117949400D02*
X94069200Y-117949400D01*
X88045500Y-113274100D02*
X92745500Y-113274100D01*
X88045500Y-113274100D02*
X88045500Y-115074100D01*
X92745500Y-115074100D02*
X92745500Y-113274100D01*
X92745500Y-115074100D02*
X88045500Y-115074100D01*
X92707400Y-113181800D02*
X88007400Y-113181800D01*
X92707400Y-113181800D02*
X92707400Y-111381800D01*
X88007400Y-111381800D02*
X88007400Y-113181800D01*
X88007400Y-111381800D02*
X92707400Y-111381800D01*
X69987100Y-120128700D02*
X65287100Y-120128700D01*
X69987100Y-120128700D02*
X69987100Y-118328700D01*
X65287100Y-118328700D02*
X65287100Y-120128700D01*
X65287100Y-118328700D02*
X69987100Y-118328700D01*
X67102000Y-112268600D02*
X67102000Y-116968600D01*
X67102000Y-112268600D02*
X65302000Y-112268600D01*
X65302000Y-116968600D02*
X67102000Y-116968600D01*
X65302000Y-116968600D02*
X65302000Y-112268600D01*
X83169700Y-106641300D02*
X78469700Y-106641300D01*
X83169700Y-106641300D02*
X83169700Y-104841300D01*
X78469700Y-104841300D02*
X78469700Y-106641300D01*
X78469700Y-104841300D02*
X83169700Y-104841300D01*
X78469700Y-106835200D02*
X83169700Y-106835200D01*
X78469700Y-106835200D02*
X78469700Y-108635200D01*
X83169700Y-108635200D02*
X83169700Y-106835200D01*
X83169700Y-108635200D02*
X78469700Y-108635200D01*
X88032800Y-115179100D02*
X92732800Y-115179100D01*
X88032800Y-115179100D02*
X88032800Y-116979100D01*
X92732800Y-116979100D02*
X92732800Y-115179100D01*
X92732800Y-116979100D02*
X88032800Y-116979100D01*
X77834700Y-113185200D02*
X82534700Y-113185200D01*
X77834700Y-113185200D02*
X77834700Y-114985200D01*
X82534700Y-114985200D02*
X82534700Y-113185200D01*
X82534700Y-114985200D02*
X77834700Y-114985200D01*
X82522000Y-113029400D02*
X77822000Y-113029400D01*
X82522000Y-113029400D02*
X82522000Y-111229400D01*
X77822000Y-111229400D02*
X77822000Y-113029400D01*
X77822000Y-111229400D02*
X82522000Y-111229400D01*
X88835100Y-100103000D02*
X88835100Y-95403000D01*
X88835100Y-100103000D02*
X90635100Y-100103000D01*
X90635100Y-95403000D02*
X88835100Y-95403000D01*
X90635100Y-95403000D02*
X90635100Y-100103000D01*
X56256200Y-113183000D02*
X56256200Y-117883000D01*
X56256200Y-113183000D02*
X54456200Y-113183000D01*
X54456200Y-117883000D02*
X56256200Y-117883000D01*
X54456200Y-117883000D02*
X54456200Y-113183000D01*
X43998200Y-115470700D02*
X52998200Y-115470700D01*
X52998200Y-115470700D02*
X52998200Y-121970700D01*
X52998200Y-121970700D02*
X43998200Y-121970700D01*
X43998200Y-121970700D02*
X43998200Y-115470700D01*
X84468400Y-105848000D02*
X84468400Y-111248000D01*
X91928400Y-105848000D02*
X91928400Y-111248000D01*
X84468400Y-105848000D02*
X91928400Y-105848000D01*
X84468400Y-111248000D02*
X91928400Y-111248000D01*
X81477950Y-102000750D02*
X85177950Y-102000750D01*
X81477950Y-95600750D02*
X85177950Y-95600750D01*
X81477950Y-102000750D02*
X81477950Y-95600750D01*
X85177950Y-102000750D02*
X85177950Y-95600750D01*
X62660600Y-96051400D02*
X62660600Y-99251400D01*
X62660600Y-99251400D02*
X67660600Y-99251400D01*
X67660600Y-99251400D02*
X67660600Y-96051400D01*
X67660600Y-96051400D02*
X62660600Y-96051400D01*
X81438700Y-103531500D02*
G75*
G03X81438700Y-103531500I-1000000J0D01*
G01*
X72929700Y-99975500D02*
G75*
G03X72929700Y-99975500I-1000000J0D01*
G01*
X97034300Y-108624200D02*
G75*
G03X97034300Y-108624200I-1000000J0D01*
G01*
X70402400Y-99962800D02*
G75*
G03X70402400Y-99962800I-1000000J0D01*
G01*
X84829600Y-112180200D02*
G75*
G03X84829600Y-112180200I-1000000J0D01*
G01*
X69983300Y-117184000D02*
G75*
G03X69983300Y-117184000I-1000000J0D01*
G01*
X55240550Y-105418450D02*
X59040550Y-105418450D01*
X59040550Y-105418450D02*
X59040550Y-96018450D01*
X59040550Y-96018450D02*
X55240550Y-96018450D01*
X55240550Y-96018450D02*
X55240550Y-105418450D01*
X70644900Y-116354800D02*
X75144900Y-116354800D01*
X70644900Y-116354800D02*
X70644900Y-118104800D01*
X75144900Y-118104800D02*
X75144900Y-116354800D01*
X75144900Y-118104800D02*
X70644900Y-118104800D01*
X64979400Y-113954800D02*
X64979400Y-107804800D01*
X64979400Y-107804800D02*
X61379400Y-107804800D01*
X61379400Y-107804800D02*
X61379400Y-113954800D01*
X61379400Y-113954800D02*
X64979400Y-113954800D01*
X67272500Y-99897200D02*
X67272500Y-104397200D01*
X67272500Y-99897200D02*
X65522500Y-99897200D01*
X65522500Y-104397200D02*
X67272500Y-104397200D01*
X65522500Y-104397200D02*
X65522500Y-99897200D01*
X72550300Y-118237600D02*
X72550300Y-122937600D01*
X72550300Y-118237600D02*
X70750300Y-118237600D01*
X70750300Y-122937600D02*
X72550300Y-122937600D01*
X70750300Y-122937600D02*
X70750300Y-118237600D01*
X88359700Y-123592400D02*
X88359700Y-118192400D01*
X80899700Y-123592400D02*
X80899700Y-118192400D01*
X88359700Y-123592400D02*
X80899700Y-123592400D01*
X88359700Y-118192400D02*
X80899700Y-118192400D01*
X46856500Y-98340600D02*
X38206500Y-98340600D01*
X38206500Y-98340600D02*
X38206500Y-101940600D01*
X38206500Y-101940600D02*
X46856500Y-101940600D01*
X46856500Y-101940600D02*
X46856500Y-98340600D01*
X42424200Y-120596900D02*
X42424200Y-114446900D01*
X42424200Y-114446900D02*
X38824200Y-114446900D01*
X38824200Y-114446900D02*
X38824200Y-120596900D01*
X38824200Y-120596900D02*
X42424200Y-120596900D01*
X67803100Y-121088700D02*
X69503100Y-121088700D01*
X69503100Y-121088700D02*
X69503100Y-124988700D01*
X69503100Y-124988700D02*
X67803100Y-124988700D01*
X67803100Y-124988700D02*
X67803100Y-121088700D01*
X52363100Y-114305200D02*
X52363100Y-103705200D01*
X41763100Y-114305200D02*
X41763100Y-103705200D01*
X52363100Y-114305200D02*
X41763100Y-114305200D01*
X52363100Y-103705200D02*
X41763100Y-103705200D01*
X74638200Y-101610400D02*
X80788200Y-101610400D01*
X80788200Y-101610400D02*
X80788200Y-98010400D01*
X80788200Y-98010400D02*
X74638200Y-98010400D01*
X74638200Y-98010400D02*
X74638200Y-101610400D01*
X94234300Y-101007600D02*
X94234300Y-107157600D01*
X94234300Y-107157600D02*
X97834300Y-107157600D01*
X97834300Y-107157600D02*
X97834300Y-101007600D01*
X97834300Y-101007600D02*
X94234300Y-101007600D01*
X78004400Y-124244000D02*
X78004400Y-117744000D01*
X78004400Y-124244000D02*
X80104400Y-124244000D01*
X80104400Y-117744000D02*
X78004400Y-117744000D01*
X80104400Y-117744000D02*
X80104400Y-124244000D01*
X83689400Y-123802400D02*
X88389400Y-123802400D01*
X83689400Y-123802400D02*
X83689400Y-125602400D01*
X88389400Y-125602400D02*
X88389400Y-123802400D01*
X88389400Y-125602400D02*
X83689400Y-125602400D01*
X72653100Y-123230900D02*
X77353100Y-123230900D01*
X72653100Y-123230900D02*
X72653100Y-125030900D01*
X77353100Y-125030900D02*
X77353100Y-123230900D01*
X77353100Y-125030900D02*
X72653100Y-125030900D01*
X75627100Y-122937600D02*
X75627100Y-118237600D01*
X75627100Y-122937600D02*
X77427100Y-122937600D01*
X77427100Y-118237600D02*
X75627100Y-118237600D01*
X77427100Y-118237600D02*
X77427100Y-122937600D01*
X92157400Y-125435600D02*
X92157400Y-119285600D01*
X92157400Y-119285600D02*
X88557400Y-119285600D01*
X88557400Y-119285600D02*
X88557400Y-125435600D01*
X88557400Y-125435600D02*
X92157400Y-125435600D01*
X120138300Y-89210900D02*
X110838300Y-89210900D01*
X120138300Y-96610900D02*
X110838300Y-96610900D01*
X120138300Y-89210900D02*
X120138300Y-96610900D01*
X110838300Y-89210900D02*
X110838300Y-96610900D01*
X111615300Y-115527900D02*
X106915300Y-115527900D01*
X111615300Y-115527900D02*
X111615300Y-113727900D01*
X106915300Y-113727900D02*
X106915300Y-115527900D01*
X106915300Y-113727900D02*
X111615300Y-113727900D01*
X125719050Y-127733750D02*
X127419050Y-127733750D01*
X127419050Y-127733750D02*
X127419050Y-131633750D01*
X127419050Y-131633750D02*
X125719050Y-131633750D01*
X125719050Y-131633750D02*
X125719050Y-127733750D01*
X116210100Y-119310500D02*
X120710100Y-119310500D01*
X116210100Y-119310500D02*
X116210100Y-121060500D01*
X120710100Y-121060500D02*
X120710100Y-119310500D01*
X120710100Y-121060500D02*
X116210100Y-121060500D01*
X121727700Y-114587700D02*
X121727700Y-119087700D01*
X121727700Y-114587700D02*
X119977700Y-114587700D01*
X119977700Y-119087700D02*
X121727700Y-119087700D01*
X119977700Y-119087700D02*
X119977700Y-114587700D01*
X124801100Y-109761700D02*
X124801100Y-114261700D01*
X124801100Y-109761700D02*
X123051100Y-109761700D01*
X123051100Y-114261700D02*
X124801100Y-114261700D01*
X123051100Y-114261700D02*
X123051100Y-109761700D01*
X115172900Y-111316900D02*
X110672900Y-111316900D01*
X115172900Y-111316900D02*
X115172900Y-109566900D01*
X110672900Y-109566900D02*
X110672900Y-111316900D01*
X110672900Y-109566900D02*
X115172900Y-109566900D01*
X108436100Y-111264500D02*
X108436100Y-106764500D01*
X108436100Y-111264500D02*
X110186100Y-111264500D01*
X110186100Y-106764500D02*
X108436100Y-106764500D01*
X110186100Y-106764500D02*
X110186100Y-111264500D01*
X104989100Y-106662900D02*
X104989100Y-111162900D01*
X104989100Y-106662900D02*
X103239100Y-106662900D01*
X103239100Y-111162900D02*
X104989100Y-111162900D01*
X103239100Y-111162900D02*
X103239100Y-106662900D01*
X110164900Y-119412100D02*
X114664900Y-119412100D01*
X110164900Y-119412100D02*
X110164900Y-121162100D01*
X114664900Y-121162100D02*
X114664900Y-119412100D01*
X114664900Y-121162100D02*
X110164900Y-121162100D01*
X120960300Y-123758700D02*
X120960300Y-128458700D01*
X120960300Y-123758700D02*
X119160300Y-123758700D01*
X119160300Y-128458700D02*
X120960300Y-128458700D01*
X119160300Y-128458700D02*
X119160300Y-123758700D01*
X111968700Y-123733300D02*
X111968700Y-128433300D01*
X111968700Y-123733300D02*
X110168700Y-123733300D01*
X110168700Y-128433300D02*
X111968700Y-128433300D01*
X110168700Y-128433300D02*
X110168700Y-123733300D01*
X112962700Y-128458700D02*
X112962700Y-123758700D01*
X112962700Y-128458700D02*
X114762700Y-128458700D01*
X114762700Y-123758700D02*
X112962700Y-123758700D01*
X114762700Y-123758700D02*
X114762700Y-128458700D01*
X116315500Y-128433300D02*
X116315500Y-123733300D01*
X116315500Y-128433300D02*
X118115500Y-128433300D01*
X118115500Y-123733300D02*
X116315500Y-123733300D01*
X118115500Y-123733300D02*
X118115500Y-128433300D01*
X122055900Y-128407900D02*
X122055900Y-123707900D01*
X122055900Y-128407900D02*
X123855900Y-128407900D01*
X123855900Y-123707900D02*
X122055900Y-123707900D01*
X123855900Y-123707900D02*
X123855900Y-128407900D01*
X125510300Y-119467100D02*
X125510300Y-114767100D01*
X125510300Y-119467100D02*
X127310300Y-119467100D01*
X127310300Y-114767100D02*
X125510300Y-114767100D01*
X127310300Y-114767100D02*
X127310300Y-119467100D01*
X123097300Y-119340100D02*
X123097300Y-114640100D01*
X123097300Y-119340100D02*
X124897300Y-119340100D01*
X124897300Y-114640100D02*
X123097300Y-114640100D01*
X124897300Y-114640100D02*
X124897300Y-119340100D01*
X119998500Y-114412500D02*
X119998500Y-109712500D01*
X119998500Y-114412500D02*
X121798500Y-114412500D01*
X121798500Y-109712500D02*
X119998500Y-109712500D01*
X121798500Y-109712500D02*
X121798500Y-114412500D01*
X120047100Y-107479500D02*
X124747100Y-107479500D01*
X120047100Y-107479500D02*
X120047100Y-109279500D01*
X124747100Y-109279500D02*
X124747100Y-107479500D01*
X124747100Y-109279500D02*
X120047100Y-109279500D01*
X106384100Y-111313700D02*
X106384100Y-106613700D01*
X106384100Y-111313700D02*
X108184100Y-111313700D01*
X108184100Y-106613700D02*
X106384100Y-106613700D01*
X108184100Y-106613700D02*
X108184100Y-111313700D01*
X105215700Y-121041900D02*
X105215700Y-116341900D01*
X105215700Y-121041900D02*
X107015700Y-121041900D01*
X107015700Y-116341900D02*
X105215700Y-116341900D01*
X107015700Y-116341900D02*
X107015700Y-121041900D01*
X109276300Y-116341900D02*
X109276300Y-121041900D01*
X109276300Y-116341900D02*
X107476300Y-116341900D01*
X107476300Y-121041900D02*
X109276300Y-121041900D01*
X107476300Y-121041900D02*
X107476300Y-116341900D01*
X104707700Y-116165100D02*
X104707700Y-111465100D01*
X104707700Y-116165100D02*
X106507700Y-116165100D01*
X106507700Y-111465100D02*
X104707700Y-111465100D01*
X106507700Y-111465100D02*
X106507700Y-116165100D01*
X129482000Y-114830600D02*
X129482000Y-119530600D01*
X129482000Y-114830600D02*
X127682000Y-114830600D01*
X127682000Y-119530600D02*
X129482000Y-119530600D01*
X127682000Y-119530600D02*
X127682000Y-114830600D01*
X121098300Y-130404700D02*
X112448300Y-130404700D01*
X112448300Y-130404700D02*
X112448300Y-134004700D01*
X112448300Y-134004700D02*
X121098300Y-134004700D01*
X121098300Y-134004700D02*
X121098300Y-130404700D01*
X103340300Y-124868600D02*
X108040300Y-124868600D01*
X103340300Y-124868600D02*
X103340300Y-126668600D01*
X108040300Y-126668600D02*
X108040300Y-124868600D01*
X108040300Y-126668600D02*
X103340300Y-126668600D01*
X105060300Y-92348600D02*
X109560300Y-92348600D01*
X105060300Y-92348600D02*
X105060300Y-94098600D01*
X109560300Y-94098600D02*
X109560300Y-92348600D01*
X109560300Y-94098600D02*
X105060300Y-94098600D01*
X125207500Y-97277600D02*
X125207500Y-101777600D01*
X125207500Y-97277600D02*
X123457500Y-97277600D01*
X123457500Y-101777600D02*
X125207500Y-101777600D01*
X123457500Y-101777600D02*
X123457500Y-97277600D01*
X115090900Y-83819800D02*
X115090900Y-79319800D01*
X115090900Y-83819800D02*
X116840900Y-83819800D01*
X116840900Y-79319800D02*
X115090900Y-79319800D01*
X116840900Y-79319800D02*
X116840900Y-83819800D01*
X109617200Y-83819800D02*
X109617200Y-79319800D01*
X109617200Y-83819800D02*
X111367200Y-83819800D01*
X111367200Y-79319800D02*
X109617200Y-79319800D01*
X111367200Y-79319800D02*
X111367200Y-83819800D01*
X118445300Y-86392100D02*
X122945300Y-86392100D01*
X118445300Y-86392100D02*
X118445300Y-88142100D01*
X122945300Y-88142100D02*
X122945300Y-86392100D01*
X122945300Y-88142100D02*
X118445300Y-88142100D01*
X107660300Y-127428600D02*
X107660300Y-129128600D01*
X107660300Y-129128600D02*
X103760300Y-129128600D01*
X103760300Y-129128600D02*
X103760300Y-127428600D01*
X103760300Y-127428600D02*
X107660300Y-127428600D01*
X101000300Y-90008600D02*
X101000300Y-88308600D01*
X101000300Y-88308600D02*
X104900300Y-88308600D01*
X104900300Y-88308600D02*
X104900300Y-90008600D01*
X104900300Y-90008600D02*
X101000300Y-90008600D01*
X130648700Y-121336900D02*
X124498700Y-121336900D01*
X124498700Y-121336900D02*
X124498700Y-124936900D01*
X124498700Y-124936900D02*
X130648700Y-124936900D01*
X130648700Y-124936900D02*
X130648700Y-121336900D01*
X130648700Y-80214300D02*
X124498700Y-80214300D01*
X124498700Y-80214300D02*
X124498700Y-83814300D01*
X124498700Y-83814300D02*
X130648700Y-83814300D01*
X130648700Y-83814300D02*
X130648700Y-80214300D01*
X129137400Y-107004500D02*
X129137400Y-100854500D01*
X129137400Y-100854500D02*
X125537400Y-100854500D01*
X125537400Y-100854500D02*
X125537400Y-107004500D01*
X125537400Y-107004500D02*
X129137400Y-107004500D01*
X124813500Y-84291000D02*
X124813500Y-98041000D01*
X124813500Y-98041000D02*
X137013500Y-98041000D01*
X137013500Y-98041000D02*
X137013500Y-84291000D01*
X137013500Y-84291000D02*
X124813500Y-84291000D01*
X115666600Y-107653900D02*
X110966600Y-107653900D01*
X115666600Y-107653900D02*
X115666600Y-105853900D01*
X110966600Y-105853900D02*
X110966600Y-107653900D01*
X110966600Y-105853900D02*
X115666600Y-105853900D01*
X125189400Y-102067100D02*
X125189400Y-106767100D01*
X125189400Y-102067100D02*
X123389400Y-102067100D01*
X123389400Y-106767100D02*
X125189400Y-106767100D01*
X123389400Y-106767100D02*
X123389400Y-102067100D01*
X125571600Y-98741900D02*
X130271600Y-98741900D01*
X125571600Y-98741900D02*
X125571600Y-100541900D01*
X130271600Y-100541900D02*
X130271600Y-98741900D01*
X130271600Y-100541900D02*
X125571600Y-100541900D01*
X107043300Y-91982100D02*
X102343300Y-91982100D01*
X107043300Y-91982100D02*
X107043300Y-90182100D01*
X102343300Y-90182100D02*
X102343300Y-91982100D01*
X102343300Y-90182100D02*
X107043300Y-90182100D01*
X118700900Y-80542800D02*
X123400900Y-80542800D01*
X118700900Y-80542800D02*
X118700900Y-82342800D01*
X123400900Y-82342800D02*
X123400900Y-80542800D01*
X123400900Y-82342800D02*
X118700900Y-82342800D01*
X118130900Y-87775100D02*
X118130900Y-83975100D01*
X118130900Y-83975100D02*
X108730900Y-83975100D01*
X108730900Y-83975100D02*
X108730900Y-87775100D01*
X108730900Y-87775100D02*
X118130900Y-87775100D01*
X110800300Y-96808600D02*
X110800300Y-105458600D01*
X110800300Y-105458600D02*
X114400300Y-105458600D01*
X114400300Y-105458600D02*
X114400300Y-96808600D01*
X114400300Y-96808600D02*
X110800300Y-96808600D01*
X110170300Y-94588600D02*
X104770300Y-94588600D01*
X110170300Y-102048600D02*
X104770300Y-102048600D01*
X110170300Y-94588600D02*
X110170300Y-102048600D01*
X104770300Y-94588600D02*
X104770300Y-102048600D01*
X124501900Y-82525700D02*
X118351900Y-82525700D01*
X118351900Y-82525700D02*
X118351900Y-86125700D01*
X118351900Y-86125700D02*
X124501900Y-86125700D01*
X124501900Y-86125700D02*
X124501900Y-82525700D01*
X104520300Y-98278600D02*
X104520300Y-92128600D01*
X104520300Y-92128600D02*
X100920300Y-92128600D01*
X100920300Y-92128600D02*
X100920300Y-98278600D01*
X100920300Y-98278600D02*
X104520300Y-98278600D01*
X125550100Y-107239900D02*
X125550100Y-113389900D01*
X125550100Y-113389900D02*
X129150100Y-113389900D01*
X129150100Y-113389900D02*
X129150100Y-107239900D01*
X129150100Y-107239900D02*
X125550100Y-107239900D01*
X100000300Y-87278600D02*
X108650300Y-87278600D01*
X108650300Y-87278600D02*
X108650300Y-83678600D01*
X108650300Y-83678600D02*
X100000300Y-83678600D01*
X100000300Y-83678600D02*
X100000300Y-87278600D01*
X114526500Y-105493200D02*
X123176500Y-105493200D01*
X123176500Y-105493200D02*
X123176500Y-101893200D01*
X123176500Y-101893200D02*
X114526500Y-101893200D01*
X114526500Y-101893200D02*
X114526500Y-105493200D01*
X105100300Y-102208600D02*
X109800300Y-102208600D01*
X105100300Y-102208600D02*
X105100300Y-104008600D01*
X109800300Y-104008600D02*
X109800300Y-102208600D01*
X109800300Y-104008600D02*
X105100300Y-104008600D01*
X105820300Y-104168600D02*
X110520300Y-104168600D01*
X105820300Y-104168600D02*
X105820300Y-105968600D01*
X110520300Y-105968600D02*
X110520300Y-104168600D01*
X110520300Y-105968600D02*
X105820300Y-105968600D01*
X102630300Y-114418600D02*
G75*
G03X102630300Y-114418600I-1000000J0D01*
G01*
X104680300Y-100008600D02*
X104680300Y-106508600D01*
X104680300Y-100008600D02*
X102580300Y-100008600D01*
X102580300Y-106508600D02*
X104680300Y-106508600D01*
X102580300Y-106508600D02*
X102580300Y-100008600D01*
X132640300Y-42918600D02*
G75*
G03X132640300Y-42918600I-2750000J0D01*
G01*
X43100300Y-73038600D02*
G75*
G03X43100300Y-73038600I-2750000J0D01*
G01*
X41810300Y-134838600D02*
G75*
G03X41810300Y-134838600I-2750000J0D01*
G01*
X127460300Y-72388600D02*
G75*
G03X127460300Y-72388600I-2750000J0D01*
G01*
X94700300Y-85088600D02*
G75*
G03X94700300Y-85088600I-2750000J0D01*
G01*
X42460300Y-84328600D02*
G75*
G03X42460300Y-84328600I-2750000J0D01*
G01*
X133920300Y-134858600D02*
G75*
G03X133920300Y-134858600I-2750000J0D01*
G01*
M02*
