G04 #@! TF.FileFunction,Copper,L2,Bot,Signal*
%FSLAX46Y46*%
G04 Gerber Fmt 4.6, Leading zero omitted, Abs format (unit mm)*
G04 Created by KiCad (PCBNEW 4.0.6) date 05/22/17 18:05:56*
%MOMM*%
%LPD*%
G01*
G04 APERTURE LIST*
%ADD10C,0.100000*%
%ADD11C,0.300000*%
%ADD12C,5.000000*%
%ADD13C,0.600000*%
%ADD14R,2.032000X2.032000*%
%ADD15O,2.032000X2.032000*%
%ADD16C,1.500000*%
%ADD17O,0.899160X1.501140*%
%ADD18C,1.000000*%
%ADD19R,2.235200X2.235200*%
%ADD20R,1.727200X2.032000*%
%ADD21O,1.727200X2.032000*%
%ADD22R,2.032000X1.727200*%
%ADD23O,2.032000X1.727200*%
%ADD24R,1.700000X1.700000*%
%ADD25O,1.700000X1.700000*%
%ADD26R,1.980000X3.960000*%
%ADD27O,1.980000X3.960000*%
%ADD28R,1.250000X1.500000*%
%ADD29C,0.700000*%
%ADD30C,0.800000*%
%ADD31C,0.500000*%
%ADD32C,0.550000*%
%ADD33C,0.177800*%
%ADD34C,0.500000*%
%ADD35C,2.000000*%
%ADD36C,1.000000*%
%ADD37C,0.400000*%
%ADD38C,0.250000*%
%ADD39C,1.200000*%
%ADD40C,0.200000*%
%ADD41C,0.254000*%
G04 APERTURE END LIST*
D10*
D11*
X114625062Y-88195743D02*
X114625062Y-88576695D01*
X114720300Y-88767171D01*
X114910776Y-88957648D01*
X115291729Y-89052886D01*
X115958395Y-89052886D01*
X116339348Y-88957648D01*
X116529824Y-88767171D01*
X116625062Y-88576695D01*
X116625062Y-88195743D01*
X116529824Y-88005267D01*
X116339348Y-87814790D01*
X115958395Y-87719552D01*
X115291729Y-87719552D01*
X114910776Y-87814790D01*
X114720300Y-88005267D01*
X114625062Y-88195743D01*
X116625062Y-89910028D02*
X114625062Y-89910028D01*
X116625062Y-91052886D01*
X114625062Y-91052886D01*
X115577443Y-92005266D02*
X115577443Y-92671933D01*
X116625062Y-92957647D02*
X116625062Y-92005266D01*
X114625062Y-92005266D01*
X114625062Y-92957647D01*
D12*
X91690300Y-42468600D03*
D13*
X93565300Y-42468600D03*
X93016125Y-43794425D03*
X91690300Y-44343600D03*
X90364475Y-43794425D03*
X89815300Y-42468600D03*
X90364475Y-41142775D03*
X91690300Y-40593600D03*
X93016125Y-41142775D03*
D14*
X70560000Y-57580000D03*
D15*
X70560000Y-55040000D03*
D16*
X54000000Y-54410000D03*
X87030000Y-51160000D03*
X65260000Y-59050000D03*
X97860000Y-53150000D03*
X99610000Y-68080000D03*
X122610000Y-49090000D03*
X111630000Y-59080000D03*
D17*
X86220000Y-63500000D03*
X87490000Y-63500000D03*
X84950000Y-63500000D03*
D18*
X39740000Y-52460000D03*
X123570000Y-44380000D03*
X102610000Y-71280000D03*
X87550000Y-61050000D03*
X94720000Y-61510000D03*
X100070000Y-64660000D03*
X64980000Y-49780000D03*
D19*
X52220300Y-64749900D03*
D20*
X73210000Y-43620000D03*
D21*
X70670000Y-43620000D03*
X68130000Y-43620000D03*
X65590000Y-43620000D03*
D20*
X109740000Y-43460000D03*
D21*
X107200000Y-43460000D03*
X104660000Y-43460000D03*
X102120000Y-43460000D03*
D20*
X56870000Y-65810000D03*
D21*
X59410000Y-65810000D03*
X61950000Y-65810000D03*
D22*
X80970000Y-55060000D03*
D23*
X80970000Y-57600000D03*
X80970000Y-60140000D03*
D14*
X74300000Y-57610000D03*
D15*
X74300000Y-55070000D03*
D14*
X111840000Y-52770000D03*
D15*
X109300000Y-52770000D03*
D14*
X111860000Y-56350000D03*
D15*
X109320000Y-56350000D03*
D14*
X96610000Y-66700000D03*
D15*
X94070000Y-66700000D03*
D14*
X66570000Y-61810000D03*
D15*
X66570000Y-64350000D03*
D14*
X125250000Y-52850000D03*
D15*
X125250000Y-55390000D03*
D14*
X91210000Y-58600000D03*
D15*
X88670000Y-58600000D03*
D14*
X55042240Y-60571600D03*
D15*
X52502240Y-60571600D03*
D14*
X55123520Y-56670160D03*
D15*
X52583520Y-56670160D03*
D14*
X113040000Y-61930000D03*
D15*
X113040000Y-64470000D03*
D14*
X70430000Y-69500000D03*
D15*
X70430000Y-72040000D03*
D14*
X124010000Y-59770000D03*
D15*
X124010000Y-62310000D03*
D14*
X40543920Y-59413360D03*
D15*
X40543920Y-56873360D03*
D14*
X77290000Y-48750000D03*
D15*
X77290000Y-46210000D03*
D14*
X60160000Y-43320000D03*
D15*
X60160000Y-45860000D03*
D22*
X39110000Y-49690000D03*
D23*
X39110000Y-47150000D03*
X39110000Y-44610000D03*
X39110000Y-42070000D03*
D20*
X99850000Y-73190000D03*
D21*
X97310000Y-73190000D03*
X94770000Y-73190000D03*
X92230000Y-73190000D03*
D24*
X96034300Y-114161400D03*
D25*
X96034300Y-111621400D03*
D24*
X96034300Y-99111900D03*
D25*
X96034300Y-96571900D03*
D24*
X63192100Y-119711300D03*
D25*
X60652100Y-119711300D03*
D24*
X63166700Y-115990200D03*
D25*
X60626700Y-115990200D03*
D24*
X95869200Y-119749400D03*
D25*
X95869200Y-122289400D03*
D16*
X80438700Y-103531500D03*
X71929700Y-99975500D03*
X96034300Y-108624200D03*
X69402400Y-99962800D03*
X83829600Y-112180200D03*
X68983300Y-117184000D03*
D24*
X63179400Y-112154800D03*
D25*
X63179400Y-109614800D03*
D24*
X45056500Y-100140600D03*
D25*
X42516500Y-100140600D03*
X39976500Y-100140600D03*
D24*
X40624200Y-118796900D03*
D25*
X40624200Y-116256900D03*
D24*
X76438200Y-99810400D03*
D25*
X78978200Y-99810400D03*
D24*
X96034300Y-102807600D03*
D25*
X96034300Y-105347600D03*
D24*
X90357400Y-123635600D03*
D25*
X90357400Y-121095600D03*
D26*
X119298300Y-132204700D03*
D27*
X116758300Y-132204700D03*
X114218300Y-132204700D03*
D24*
X128848700Y-123136900D03*
D25*
X126308700Y-123136900D03*
D24*
X128848700Y-82014300D03*
D25*
X126308700Y-82014300D03*
D24*
X127337400Y-105204500D03*
D25*
X127337400Y-102664500D03*
D24*
X126613500Y-86091000D03*
D25*
X126613500Y-88631000D03*
X126613500Y-91171000D03*
X126613500Y-93711000D03*
X126613500Y-96251000D03*
D28*
X103610300Y-101128600D03*
X103610300Y-103628600D03*
D24*
X112600300Y-98608600D03*
D25*
X112600300Y-101148600D03*
X112600300Y-103688600D03*
D24*
X122701900Y-84325700D03*
D25*
X120161900Y-84325700D03*
D24*
X102720300Y-96478600D03*
D25*
X102720300Y-93938600D03*
D24*
X127350100Y-109039900D03*
D25*
X127350100Y-111579900D03*
D24*
X101800300Y-85478600D03*
D25*
X104340300Y-85478600D03*
X106880300Y-85478600D03*
D24*
X116326500Y-103693200D03*
D25*
X118866500Y-103693200D03*
X121406500Y-103693200D03*
D16*
X101630300Y-114418600D03*
D12*
X129890300Y-42918600D03*
D13*
X131765300Y-42918600D03*
X131216125Y-44244425D03*
X129890300Y-44793600D03*
X128564475Y-44244425D03*
X128015300Y-42918600D03*
X128564475Y-41592775D03*
X129890300Y-41043600D03*
X131216125Y-41592775D03*
D12*
X40350300Y-73038600D03*
D13*
X42225300Y-73038600D03*
X41676125Y-74364425D03*
X40350300Y-74913600D03*
X39024475Y-74364425D03*
X38475300Y-73038600D03*
X39024475Y-71712775D03*
X40350300Y-71163600D03*
X41676125Y-71712775D03*
D12*
X39060300Y-134838600D03*
D13*
X40935300Y-134838600D03*
X40386125Y-136164425D03*
X39060300Y-136713600D03*
X37734475Y-136164425D03*
X37185300Y-134838600D03*
X37734475Y-133512775D03*
X39060300Y-132963600D03*
X40386125Y-133512775D03*
D12*
X124710300Y-72388600D03*
D13*
X126585300Y-72388600D03*
X126036125Y-73714425D03*
X124710300Y-74263600D03*
X123384475Y-73714425D03*
X122835300Y-72388600D03*
X123384475Y-71062775D03*
X124710300Y-70513600D03*
X126036125Y-71062775D03*
D12*
X91950300Y-85088600D03*
D13*
X93825300Y-85088600D03*
X93276125Y-86414425D03*
X91950300Y-86963600D03*
X90624475Y-86414425D03*
X90075300Y-85088600D03*
X90624475Y-83762775D03*
X91950300Y-83213600D03*
X93276125Y-83762775D03*
D12*
X39710300Y-84328600D03*
D13*
X41585300Y-84328600D03*
X41036125Y-85654425D03*
X39710300Y-86203600D03*
X38384475Y-85654425D03*
X37835300Y-84328600D03*
X38384475Y-83002775D03*
X39710300Y-82453600D03*
X41036125Y-83002775D03*
D12*
X131170300Y-134858600D03*
D13*
X133045300Y-134858600D03*
X132496125Y-136184425D03*
X131170300Y-136733600D03*
X129844475Y-136184425D03*
X129295300Y-134858600D03*
X129844475Y-133532775D03*
X131170300Y-132983600D03*
X132496125Y-133532775D03*
X105740000Y-52630000D03*
D29*
X56330000Y-41540000D03*
D13*
X57230000Y-41080000D03*
X43350000Y-41240000D03*
X45320000Y-41600000D03*
D29*
X42150000Y-43440000D03*
D13*
X41250000Y-42320000D03*
X44010000Y-42530000D03*
X128040000Y-46700000D03*
X125440000Y-41780000D03*
X120230000Y-42830000D03*
X128710000Y-43710000D03*
X125700000Y-44430000D03*
D30*
X118480000Y-44910000D03*
D13*
X113120000Y-41900000D03*
D30*
X113330000Y-50220000D03*
D13*
X111710000Y-48690000D03*
X109930000Y-47430000D03*
D30*
X107760000Y-46390000D03*
D13*
X109260000Y-49720000D03*
X75440000Y-71150000D03*
D29*
X45970000Y-43460000D03*
X44360000Y-43480000D03*
X47780000Y-50570000D03*
D30*
X72080000Y-46660000D03*
X63300000Y-64510000D03*
X85150000Y-60950000D03*
X86000000Y-61880000D03*
D13*
X110950000Y-65180000D03*
X110690000Y-64280000D03*
X104520000Y-62520000D03*
X96450000Y-61810000D03*
D30*
X96710000Y-63360000D03*
X114240000Y-52970000D03*
D13*
X94060000Y-52340000D03*
D30*
X100940000Y-45490000D03*
X98670000Y-44190000D03*
X88580000Y-49660000D03*
X88890000Y-48080000D03*
X82450000Y-51080000D03*
X80200000Y-50970000D03*
D13*
X86940000Y-53210000D03*
X85680000Y-54070000D03*
D30*
X63110000Y-67700000D03*
X61180000Y-70090000D03*
X59200000Y-68460000D03*
X50120000Y-61680000D03*
X50060000Y-59250000D03*
X50190000Y-54710000D03*
D29*
X39370000Y-54140000D03*
D13*
X54950000Y-53480000D03*
X55030000Y-52160000D03*
D29*
X67510000Y-58160000D03*
D13*
X70160000Y-52740000D03*
D30*
X65370000Y-57550000D03*
D13*
X60290000Y-62200000D03*
D30*
X61870000Y-49340000D03*
X70420000Y-73850000D03*
X74320000Y-59270000D03*
D13*
X80570000Y-67510000D03*
X82420000Y-67510000D03*
X129150300Y-96268600D03*
X129270300Y-93668600D03*
X129270300Y-91158600D03*
X129190300Y-88528600D03*
X129230300Y-86018600D03*
X121860300Y-100778600D03*
X116190300Y-101328600D03*
X117840300Y-101088600D03*
X119850300Y-101088600D03*
D31*
X101770300Y-119368600D03*
X101770300Y-121578600D03*
X101770300Y-123558600D03*
X101690300Y-125568600D03*
X101800300Y-128118600D03*
D13*
X105940300Y-89108600D03*
X110010300Y-106368600D03*
X108310300Y-106298600D03*
X104920300Y-81518600D03*
X106290300Y-80148600D03*
X106410300Y-82588600D03*
X108310300Y-82508600D03*
X109010300Y-125848600D03*
X108840300Y-128678600D03*
X110690300Y-130238600D03*
X110600300Y-132978600D03*
X108350300Y-133098600D03*
X108030300Y-130368600D03*
X105910300Y-130488600D03*
X105850300Y-133138600D03*
X124924400Y-125524500D03*
X124581500Y-132001500D03*
X129420200Y-131582400D03*
X128810600Y-125600700D03*
X128861400Y-80033100D03*
X122371700Y-92987100D03*
X124264000Y-91171000D03*
X122651100Y-91399600D03*
X123362300Y-92225100D03*
X121939900Y-88465900D03*
D31*
X115031100Y-116609100D03*
X116478900Y-115059700D03*
X115031100Y-115008900D03*
X116478900Y-116583700D03*
X115751700Y-115798900D03*
D13*
X118282300Y-83131900D03*
X117837800Y-81265000D03*
X117837800Y-79728300D03*
X119438000Y-79728300D03*
X120746100Y-79728300D03*
X122701900Y-79753700D03*
X124543400Y-79893400D03*
X126105500Y-79982300D03*
X127527900Y-80007700D03*
X114104000Y-80414100D03*
X112389500Y-83246200D03*
X114319900Y-83284300D03*
X113202300Y-82268300D03*
X108491500Y-80319800D03*
X112770500Y-80414100D03*
D18*
X100815000Y-70075000D03*
X99180000Y-70040000D03*
D13*
X87576100Y-114174100D03*
X77022400Y-117374500D03*
X67738700Y-111786500D03*
X79054400Y-116955400D03*
X85252000Y-104801500D03*
X86776000Y-104801500D03*
X67903800Y-106947800D03*
X69123000Y-105754000D03*
D30*
X82178600Y-104293500D03*
D13*
X40154300Y-104014100D03*
X40167000Y-105461900D03*
X57616800Y-106160400D03*
X56372200Y-106173100D03*
X54937100Y-106160400D03*
X88566700Y-101537600D03*
X88566700Y-102820300D03*
X88566700Y-104217300D03*
X64792300Y-106160400D03*
X66722700Y-109411600D03*
X65700350Y-107068450D03*
X66684600Y-108065400D03*
X66690950Y-108059050D03*
X66735400Y-110808600D03*
X93100600Y-123826100D03*
X83169200Y-124702400D03*
X72082100Y-124130900D03*
X69999300Y-124143600D03*
D30*
X83651800Y-102629800D03*
D13*
X41449700Y-109398900D03*
X41437000Y-108598800D03*
X59972650Y-107874900D03*
D30*
X86356900Y-96889400D03*
D13*
X45399400Y-122479900D03*
X51609700Y-122492600D03*
X73034600Y-114085200D03*
X90116100Y-100712100D03*
X92059200Y-100712100D03*
X38757300Y-109500500D03*
X66405200Y-95124100D03*
X63903300Y-104877700D03*
X66392500Y-104903100D03*
X52701900Y-110224400D03*
X52701900Y-108598800D03*
X87499900Y-112281800D03*
X83677200Y-107735200D03*
X83943900Y-110453000D03*
X60023450Y-93987450D03*
X58315300Y-109513200D03*
X58315300Y-107735200D03*
X75676200Y-117234800D03*
X75625400Y-115406000D03*
X122435200Y-113421400D03*
X105658500Y-107566700D03*
X122397100Y-114653300D03*
X105709300Y-109471700D03*
X118561700Y-117701300D03*
X107995300Y-122095500D03*
X124860900Y-120901700D03*
X110713100Y-116837700D03*
D31*
X110052700Y-117472700D03*
D13*
X103480300Y-99198600D03*
D18*
X103850300Y-114348600D03*
D13*
X111905358Y-112332373D03*
X110230500Y-112367300D03*
D18*
X106572900Y-123594100D03*
D13*
X111170300Y-122781300D03*
X119933300Y-122882900D03*
X111119500Y-112367300D03*
D30*
X114726300Y-112468900D03*
D32*
X56330000Y-41540000D02*
X56770000Y-41540000D01*
X56770000Y-41540000D02*
X57230000Y-41080000D01*
X43350000Y-41240000D02*
X44960000Y-41240000D01*
X44960000Y-41240000D02*
X45320000Y-41600000D01*
X43350000Y-41240000D02*
X43350000Y-41870000D01*
X41250000Y-41890000D02*
X41900000Y-41240000D01*
X41900000Y-41240000D02*
X43350000Y-41240000D01*
X42150000Y-43440000D02*
X42150000Y-43220000D01*
X42150000Y-43220000D02*
X41250000Y-42320000D01*
X41250000Y-42320000D02*
X41250000Y-41890000D01*
X43350000Y-41870000D02*
X44010000Y-42530000D01*
X128040000Y-46700000D02*
X127970000Y-46700000D01*
X128710000Y-46030000D02*
X128040000Y-46700000D01*
X125440000Y-41780000D02*
X126780000Y-41780000D01*
X124390000Y-42830000D02*
X125440000Y-41780000D01*
X117630000Y-41900000D02*
X119300000Y-41900000D01*
X119300000Y-41900000D02*
X120230000Y-42830000D01*
X120230000Y-42830000D02*
X124390000Y-42830000D01*
X126780000Y-41780000D02*
X128710000Y-43710000D01*
X128710000Y-43710000D02*
X128710000Y-46030000D01*
X127970000Y-46700000D02*
X125700000Y-44430000D01*
X118480000Y-44910000D02*
X118480000Y-42750000D01*
X117630000Y-41900000D02*
X113120000Y-41900000D01*
X118480000Y-42750000D02*
X117630000Y-41900000D01*
X113330000Y-50220000D02*
X113240000Y-50220000D01*
X113240000Y-50220000D02*
X111710000Y-48690000D01*
X109930000Y-47430000D02*
X109930000Y-49050000D01*
X108890000Y-46390000D02*
X109930000Y-47430000D01*
X107760000Y-46390000D02*
X108890000Y-46390000D01*
X109930000Y-49050000D02*
X109260000Y-49720000D01*
X75440000Y-71150000D02*
X75440000Y-71160000D01*
D33*
X128848700Y-82014300D02*
X128848700Y-85637000D01*
X129150300Y-93788600D02*
X129150300Y-96268600D01*
X129270300Y-93668600D02*
X129150300Y-93788600D01*
X129270300Y-88608600D02*
X129270300Y-91158600D01*
X129190300Y-88528600D02*
X129270300Y-88608600D01*
X128848700Y-85637000D02*
X129230300Y-86018600D01*
X119850300Y-101088600D02*
X117840300Y-101088600D01*
D34*
X101770300Y-123558600D02*
X101770300Y-121578600D01*
X101690300Y-128008600D02*
X101690300Y-125568600D01*
X101800300Y-128118600D02*
X101690300Y-128008600D01*
X108380300Y-106368600D02*
X110010300Y-106368600D01*
X108310300Y-106298600D02*
X108380300Y-106368600D01*
X104770300Y-82508600D02*
X101800300Y-85478600D01*
X104770300Y-81668600D02*
X104770300Y-82508600D01*
X104920300Y-81518600D02*
X104770300Y-81668600D01*
X106290300Y-82468600D02*
X106290300Y-80148600D01*
X106410300Y-82588600D02*
X106290300Y-82468600D01*
X108310300Y-80501000D02*
X108310300Y-82508600D01*
X108491500Y-80319800D02*
X108310300Y-80501000D01*
X109010300Y-128508600D02*
X109010300Y-125848600D01*
X108840300Y-128678600D02*
X109010300Y-128508600D01*
X110690300Y-132888600D02*
X110690300Y-130238600D01*
X110600300Y-132978600D02*
X110690300Y-132888600D01*
X108350300Y-130688600D02*
X108350300Y-133098600D01*
X108030300Y-130368600D02*
X108350300Y-130688600D01*
X105910300Y-133078600D02*
X105910300Y-130488600D01*
X105850300Y-133138600D02*
X105910300Y-133078600D01*
D33*
X124924400Y-128915400D02*
X124924400Y-125524500D01*
X124581500Y-129258300D02*
X124924400Y-128915400D01*
X124581500Y-132001500D02*
X124581500Y-129258300D01*
X129420200Y-126210300D02*
X129420200Y-131582400D01*
X128810600Y-125600700D02*
X129420200Y-126210300D01*
D34*
X126613500Y-91171000D02*
X124264000Y-91171000D01*
X124264000Y-91171000D02*
X124416400Y-91171000D01*
X124416400Y-91171000D02*
X123362300Y-92225100D01*
X115742300Y-115796300D02*
X115749100Y-115796300D01*
X115749100Y-115796300D02*
X115751700Y-115798900D01*
D33*
X118282300Y-81709500D02*
X118282300Y-83131900D01*
X117837800Y-81265000D02*
X118282300Y-81709500D01*
X119438000Y-79728300D02*
X117837800Y-79728300D01*
X122676500Y-79728300D02*
X120746100Y-79728300D01*
X122701900Y-79753700D02*
X122676500Y-79728300D01*
X126016600Y-79893400D02*
X124543400Y-79893400D01*
X126105500Y-79982300D02*
X126016600Y-79893400D01*
X128836000Y-80007700D02*
X127527900Y-80007700D01*
X128861400Y-80033100D02*
X128836000Y-80007700D01*
D34*
X114104000Y-80414100D02*
X112770500Y-80414100D01*
D35*
X100810000Y-70040000D02*
X100810000Y-70070000D01*
X100810000Y-70070000D02*
X100815000Y-70075000D01*
X99180000Y-70040000D02*
X100810000Y-70040000D01*
X100810000Y-70040000D02*
X100930000Y-70040000D01*
X100930000Y-70040000D02*
X101060000Y-70170000D01*
X94770000Y-71140000D02*
X94770000Y-73190000D01*
X95890000Y-70020000D02*
X94770000Y-71140000D01*
X99160000Y-70020000D02*
X95890000Y-70020000D01*
X99180000Y-70040000D02*
X99160000Y-70020000D01*
D36*
X87576100Y-114174100D02*
X80121200Y-114174100D01*
X80121200Y-114174100D02*
X79054400Y-115240900D01*
X79054400Y-116955400D02*
X79041700Y-116955400D01*
X78622600Y-117374500D02*
X77022400Y-117374500D01*
X79041700Y-116955400D02*
X78622600Y-117374500D01*
X79054400Y-116955400D02*
X79054400Y-115240900D01*
X67738700Y-111811900D02*
X68221300Y-112294500D01*
X76108000Y-112294500D02*
X68221300Y-112294500D01*
X79054400Y-115240900D02*
X76108000Y-112294500D01*
X69123000Y-105754000D02*
X69161100Y-105754000D01*
X81873800Y-93904900D02*
X85671100Y-93904900D01*
X80197400Y-95581300D02*
X81873800Y-93904900D01*
X87995200Y-100445400D02*
X87995200Y-101055000D01*
X87995200Y-96229000D02*
X87995200Y-100445400D01*
X85671100Y-93904900D02*
X87995200Y-96229000D01*
X78965500Y-96813200D02*
X80197400Y-95581300D01*
X75701600Y-96813200D02*
X78965500Y-96813200D01*
X74545900Y-97968900D02*
X75701600Y-96813200D01*
X87995200Y-101055000D02*
X88566700Y-101626500D01*
X73720400Y-98794400D02*
X74545900Y-97968900D01*
X73720400Y-101194700D02*
X73720400Y-98794400D01*
X69161100Y-105754000D02*
X73720400Y-101194700D01*
X67738700Y-111811900D02*
X67738700Y-111786500D01*
X67726000Y-111799200D02*
X67738700Y-111786500D01*
X67738700Y-111786500D02*
X67726000Y-111799200D01*
X67903800Y-106947800D02*
X67929200Y-106947800D01*
X67929200Y-106947800D02*
X69123000Y-105754000D01*
X68424500Y-106452500D02*
X69123000Y-105754000D01*
X66811600Y-108065400D02*
X66684600Y-108065400D01*
X66811600Y-108065400D02*
X68424500Y-106452500D01*
X82178600Y-104293500D02*
X82686600Y-104801500D01*
X88541300Y-104217300D02*
X88566700Y-104217300D01*
X87957100Y-104801500D02*
X88541300Y-104217300D01*
X87398300Y-104801500D02*
X87957100Y-104801500D01*
X82686600Y-104801500D02*
X85252000Y-104801500D01*
X85252000Y-104801500D02*
X86776000Y-104801500D01*
X86776000Y-104801500D02*
X87398300Y-104801500D01*
X62582500Y-106160400D02*
X57616800Y-106160400D01*
X40154300Y-104014100D02*
X40167000Y-104026800D01*
X40167000Y-104026800D02*
X40167000Y-104153800D01*
X40167000Y-105461900D02*
X40167000Y-104153800D01*
D34*
X40167000Y-104153800D02*
X40167000Y-104001400D01*
D36*
X54886300Y-106160400D02*
X53451200Y-104725300D01*
X53451200Y-104725300D02*
X53451200Y-103658500D01*
X53451200Y-103658500D02*
X52219300Y-102426600D01*
X52219300Y-102426600D02*
X41741800Y-102426600D01*
X41741800Y-102426600D02*
X40167000Y-104001400D01*
X54937100Y-106160400D02*
X54886300Y-106160400D01*
D34*
X56372200Y-106173100D02*
X56372200Y-106160400D01*
X56372200Y-106160400D02*
X56372200Y-106173100D01*
X56372200Y-106173100D02*
X56372200Y-106160400D01*
D36*
X63242900Y-106160400D02*
X62582500Y-106160400D01*
X63242900Y-106135000D02*
X63242900Y-106160400D01*
X63242900Y-106135000D02*
X63242900Y-106160400D01*
X64792300Y-106160400D02*
X63242900Y-106160400D01*
X57616800Y-106160400D02*
X56372200Y-106160400D01*
X56372200Y-106160400D02*
X54937100Y-106160400D01*
X88566700Y-101537600D02*
X88566700Y-101626500D01*
X88566700Y-101626500D02*
X88566700Y-102820300D01*
X88566700Y-102820300D02*
X88566700Y-104217300D01*
X65700350Y-107068450D02*
X64792300Y-106160400D01*
X67738700Y-111811900D02*
X66735400Y-110808600D01*
X66722700Y-109411600D02*
X66735400Y-109411600D01*
X66735400Y-109411600D02*
X66722700Y-109411600D01*
X66722700Y-109411600D02*
X66735400Y-109411600D01*
X66684600Y-108065400D02*
X66690950Y-108059050D01*
X66735400Y-110745100D02*
X66735400Y-110808600D01*
X66735400Y-108103500D02*
X65700350Y-107068450D01*
X66735400Y-110745100D02*
X66735400Y-109411600D01*
X66735400Y-109411600D02*
X66735400Y-108103500D01*
D37*
X59972650Y-107874900D02*
X59979000Y-107874900D01*
D34*
X105658500Y-107566700D02*
X106191900Y-108100100D01*
X106191900Y-108100100D02*
X118815700Y-108100100D01*
X118815700Y-108100100D02*
X122397100Y-111681500D01*
X122397100Y-111681500D02*
X122397100Y-114653300D01*
X105709300Y-109471700D02*
X106344300Y-108836700D01*
X106344300Y-108836700D02*
X115158100Y-108836700D01*
X115158100Y-108836700D02*
X118561700Y-112240300D01*
X118561700Y-112240300D02*
X118561700Y-117701300D01*
X110332100Y-121562100D02*
X110332100Y-121689100D01*
X110332100Y-121689100D02*
X109925700Y-122095500D01*
X109925700Y-122095500D02*
X107995300Y-122095500D01*
X124860900Y-120901700D02*
X124175100Y-121587500D01*
X124175100Y-121587500D02*
X110357500Y-121587500D01*
X110357500Y-121587500D02*
X110332100Y-121562100D01*
X109709800Y-120939800D02*
X109709800Y-117815600D01*
X110332100Y-121562100D02*
X109709800Y-120939800D01*
D38*
X109709800Y-117815600D02*
X110052700Y-117472700D01*
D34*
X110078100Y-117472700D02*
X110052700Y-117472700D01*
X110713100Y-116837700D02*
X110078100Y-117472700D01*
X109709800Y-117815600D02*
X110052700Y-117472700D01*
D36*
X103610300Y-99328600D02*
X103610300Y-101128600D01*
X103480300Y-99198600D02*
X103610300Y-99328600D01*
X103842400Y-114348600D02*
X103842400Y-114285000D01*
X103850300Y-114348600D02*
X103842400Y-114348600D01*
D34*
X112262500Y-112291100D02*
X112262500Y-112316500D01*
X112262500Y-112291100D02*
X112262500Y-112316500D01*
D39*
X106572900Y-123594100D02*
X103842400Y-120863600D01*
X103842400Y-120863600D02*
X103842400Y-114285000D01*
X103842400Y-114285000D02*
X105810900Y-112316500D01*
X109976500Y-112316500D02*
X110230500Y-112367300D01*
X105810900Y-112316500D02*
X109976500Y-112316500D01*
X110230500Y-112367300D02*
X110357500Y-112367300D01*
D34*
X119831700Y-122781300D02*
X111170300Y-122781300D01*
X119933300Y-122882900D02*
X119831700Y-122781300D01*
D39*
X114726300Y-112468900D02*
X114573900Y-112316500D01*
X114573900Y-112316500D02*
X113557900Y-112316500D01*
X110357500Y-112367300D02*
X111119500Y-112367300D01*
X111119500Y-112367300D02*
X111905358Y-112332373D01*
X111905358Y-112332373D02*
X112262500Y-112316500D01*
X112262500Y-112316500D02*
X113253100Y-112316500D01*
X113557900Y-112316500D02*
X113253100Y-112316500D01*
D36*
X116085200Y-99159300D02*
X115969600Y-99159300D01*
X120619100Y-84782900D02*
X120619100Y-98092500D01*
X119552300Y-99159300D02*
X120619100Y-98092500D01*
X116085200Y-99159300D02*
X119552300Y-99159300D01*
X113980300Y-101148600D02*
X112600300Y-101148600D01*
X115969600Y-99159300D02*
X113980300Y-101148600D01*
D34*
X120619100Y-84782900D02*
X120161900Y-84325700D01*
D39*
X126613500Y-88631000D02*
X124949800Y-88631000D01*
X124111600Y-85735400D02*
X122701900Y-84325700D01*
X124111600Y-87792800D02*
X124111600Y-85735400D01*
X124949800Y-88631000D02*
X124111600Y-87792800D01*
D34*
X123362300Y-84986100D02*
X122701900Y-84325700D01*
D40*
G36*
X89148507Y-40767018D02*
X88690822Y-41869245D01*
X88689781Y-43062719D01*
X89145541Y-44165743D01*
X89988718Y-45010393D01*
X91090945Y-45468078D01*
X92284419Y-45469119D01*
X93387443Y-45013359D01*
X94232093Y-44170182D01*
X94602601Y-43277900D01*
X100756400Y-43277900D01*
X100756400Y-43642100D01*
X100860198Y-44163927D01*
X101155789Y-44606311D01*
X101598173Y-44901902D01*
X102120000Y-45005700D01*
X102641827Y-44901902D01*
X103084211Y-44606311D01*
X103379802Y-44163927D01*
X103390000Y-44112658D01*
X103400198Y-44163927D01*
X103695789Y-44606311D01*
X104138173Y-44901902D01*
X104660000Y-45005700D01*
X105181827Y-44901902D01*
X105624211Y-44606311D01*
X105919802Y-44163927D01*
X105930000Y-44112658D01*
X105940198Y-44163927D01*
X106235789Y-44606311D01*
X106678173Y-44901902D01*
X107200000Y-45005700D01*
X107721827Y-44901902D01*
X108164211Y-44606311D01*
X108366605Y-44303406D01*
X108366605Y-44476000D01*
X108401469Y-44661289D01*
X108510975Y-44831465D01*
X108678061Y-44945630D01*
X108876400Y-44985795D01*
X110603600Y-44985795D01*
X110788889Y-44950931D01*
X110959065Y-44841425D01*
X111073230Y-44674339D01*
X111092731Y-44578040D01*
X122569827Y-44578040D01*
X122721747Y-44945714D01*
X123002806Y-45227264D01*
X123370215Y-45379826D01*
X123768040Y-45380173D01*
X124135714Y-45228253D01*
X124417264Y-44947194D01*
X124569826Y-44579785D01*
X124570173Y-44181960D01*
X124418253Y-43814286D01*
X124137194Y-43532736D01*
X123769785Y-43380174D01*
X123371960Y-43379827D01*
X123004286Y-43531747D01*
X122722736Y-43812806D01*
X122570174Y-44180215D01*
X122569827Y-44578040D01*
X111092731Y-44578040D01*
X111113395Y-44476000D01*
X111113395Y-42444000D01*
X111078531Y-42258711D01*
X110969025Y-42088535D01*
X110801939Y-41974370D01*
X110603600Y-41934205D01*
X108876400Y-41934205D01*
X108691111Y-41969069D01*
X108520935Y-42078575D01*
X108406770Y-42245661D01*
X108366605Y-42444000D01*
X108366605Y-42616594D01*
X108164211Y-42313689D01*
X107721827Y-42018098D01*
X107200000Y-41914300D01*
X106678173Y-42018098D01*
X106235789Y-42313689D01*
X105940198Y-42756073D01*
X105930000Y-42807342D01*
X105919802Y-42756073D01*
X105624211Y-42313689D01*
X105181827Y-42018098D01*
X104660000Y-41914300D01*
X104138173Y-42018098D01*
X103695789Y-42313689D01*
X103400198Y-42756073D01*
X103390000Y-42807342D01*
X103379802Y-42756073D01*
X103084211Y-42313689D01*
X102641827Y-42018098D01*
X102120000Y-41914300D01*
X101598173Y-42018098D01*
X101155789Y-42313689D01*
X100860198Y-42756073D01*
X100756400Y-43277900D01*
X94602601Y-43277900D01*
X94689778Y-43067955D01*
X94690819Y-41874481D01*
X94235059Y-40771457D01*
X93864250Y-40400000D01*
X128166952Y-40400000D01*
X127348507Y-41217018D01*
X126890822Y-42319245D01*
X126889781Y-43512719D01*
X127345541Y-44615743D01*
X128188718Y-45460393D01*
X129290945Y-45918078D01*
X130130000Y-45918810D01*
X130130000Y-76810000D01*
X36480000Y-76810000D01*
X36480000Y-73632719D01*
X37349781Y-73632719D01*
X37805541Y-74735743D01*
X38648718Y-75580393D01*
X39750945Y-76038078D01*
X40944419Y-76039119D01*
X42047443Y-75583359D01*
X42892093Y-74740182D01*
X43349778Y-73637955D01*
X43350818Y-72445009D01*
X68857313Y-72445009D01*
X69031549Y-72865679D01*
X69453973Y-73337992D01*
X70024989Y-73612698D01*
X70276000Y-73504693D01*
X70276000Y-72194000D01*
X70584000Y-72194000D01*
X70584000Y-73504693D01*
X70835011Y-73612698D01*
X70915084Y-73574176D01*
X90776851Y-73574176D01*
X90976162Y-74112629D01*
X91366359Y-74533822D01*
X91848951Y-74763811D01*
X92076000Y-74652983D01*
X92076000Y-73344000D01*
X90910484Y-73344000D01*
X90776851Y-73574176D01*
X70915084Y-73574176D01*
X71406027Y-73337992D01*
X71828451Y-72865679D01*
X71853242Y-72805824D01*
X90776851Y-72805824D01*
X90910484Y-73036000D01*
X92076000Y-73036000D01*
X92076000Y-71727017D01*
X92384000Y-71727017D01*
X92384000Y-73036000D01*
X92404000Y-73036000D01*
X92404000Y-73344000D01*
X92384000Y-73344000D01*
X92384000Y-74652983D01*
X92611049Y-74763811D01*
X93093641Y-74533822D01*
X93483838Y-74112629D01*
X93531348Y-73984277D01*
X93709340Y-74250660D01*
X93780191Y-74298001D01*
X93805789Y-74336311D01*
X94248173Y-74631902D01*
X94770000Y-74735700D01*
X95291827Y-74631902D01*
X95734211Y-74336311D01*
X95759809Y-74298001D01*
X95830660Y-74250660D01*
X96059610Y-73908013D01*
X96345789Y-74336311D01*
X96788173Y-74631902D01*
X97310000Y-74735700D01*
X97831827Y-74631902D01*
X98274211Y-74336311D01*
X98476605Y-74033406D01*
X98476605Y-74206000D01*
X98511469Y-74391289D01*
X98620975Y-74561465D01*
X98788061Y-74675630D01*
X98986400Y-74715795D01*
X100713600Y-74715795D01*
X100898889Y-74680931D01*
X101069065Y-74571425D01*
X101183230Y-74404339D01*
X101223395Y-74206000D01*
X101223395Y-72982719D01*
X121709781Y-72982719D01*
X122165541Y-74085743D01*
X123008718Y-74930393D01*
X124110945Y-75388078D01*
X125304419Y-75389119D01*
X126407443Y-74933359D01*
X127252093Y-74090182D01*
X127709778Y-72987955D01*
X127710819Y-71794481D01*
X127255059Y-70691457D01*
X126411882Y-69846807D01*
X125309655Y-69389122D01*
X124116181Y-69388081D01*
X123013157Y-69843841D01*
X122168507Y-70687018D01*
X121710822Y-71789245D01*
X121709781Y-72982719D01*
X101223395Y-72982719D01*
X101223395Y-72174000D01*
X101188531Y-71988711D01*
X101079025Y-71818535D01*
X100911939Y-71704370D01*
X100713600Y-71664205D01*
X98986400Y-71664205D01*
X98801111Y-71699069D01*
X98630935Y-71808575D01*
X98516770Y-71975661D01*
X98476605Y-72174000D01*
X98476605Y-72346594D01*
X98274211Y-72043689D01*
X97831827Y-71748098D01*
X97310000Y-71644300D01*
X96788173Y-71748098D01*
X96345789Y-72043689D01*
X96270000Y-72157115D01*
X96270000Y-71761320D01*
X96511320Y-71520000D01*
X99079453Y-71520000D01*
X99180000Y-71540000D01*
X100462300Y-71540000D01*
X100485975Y-71555819D01*
X101060000Y-71670000D01*
X101634025Y-71555819D01*
X101640247Y-71551662D01*
X101761747Y-71845714D01*
X102042806Y-72127264D01*
X102410215Y-72279826D01*
X102808040Y-72280173D01*
X103175714Y-72128253D01*
X103457264Y-71847194D01*
X103609826Y-71479785D01*
X103610173Y-71081960D01*
X103458253Y-70714286D01*
X103177194Y-70432736D01*
X102809785Y-70280174D01*
X102538132Y-70279937D01*
X102560000Y-70170000D01*
X102445819Y-69595975D01*
X102120660Y-69109340D01*
X101990660Y-68979340D01*
X101504025Y-68654181D01*
X100930000Y-68540000D01*
X100772472Y-68540000D01*
X100859783Y-68329731D01*
X100860217Y-67832450D01*
X100670316Y-67372857D01*
X100318993Y-67020919D01*
X99859731Y-66830217D01*
X99362450Y-66829783D01*
X98902857Y-67019684D01*
X98550919Y-67371007D01*
X98360217Y-67830269D01*
X98359783Y-68327550D01*
X98439302Y-68520000D01*
X95890000Y-68520000D01*
X95315975Y-68634181D01*
X94829340Y-68959340D01*
X93709340Y-70079340D01*
X93384181Y-70565975D01*
X93270000Y-71140000D01*
X93270000Y-72036546D01*
X93093641Y-71846178D01*
X92611049Y-71616189D01*
X92384000Y-71727017D01*
X92076000Y-71727017D01*
X91848951Y-71616189D01*
X91366359Y-71846178D01*
X90976162Y-72267371D01*
X90776851Y-72805824D01*
X71853242Y-72805824D01*
X72002687Y-72445009D01*
X71893922Y-72194000D01*
X70584000Y-72194000D01*
X70276000Y-72194000D01*
X68966078Y-72194000D01*
X68857313Y-72445009D01*
X43350818Y-72445009D01*
X43350819Y-72444481D01*
X43016345Y-71634991D01*
X68857313Y-71634991D01*
X68966078Y-71886000D01*
X70276000Y-71886000D01*
X70276000Y-71866000D01*
X70584000Y-71866000D01*
X70584000Y-71886000D01*
X71893922Y-71886000D01*
X72002687Y-71634991D01*
X71828451Y-71214321D01*
X71629036Y-70991355D01*
X71631289Y-70990931D01*
X71801465Y-70881425D01*
X71915630Y-70714339D01*
X71955795Y-70516000D01*
X71955795Y-68484000D01*
X71920931Y-68298711D01*
X71811425Y-68128535D01*
X71644339Y-68014370D01*
X71446000Y-67974205D01*
X69414000Y-67974205D01*
X69228711Y-68009069D01*
X69058535Y-68118575D01*
X68944370Y-68285661D01*
X68904205Y-68484000D01*
X68904205Y-70516000D01*
X68939069Y-70701289D01*
X69048575Y-70871465D01*
X69215661Y-70985630D01*
X69232952Y-70989132D01*
X69031549Y-71214321D01*
X68857313Y-71634991D01*
X43016345Y-71634991D01*
X42895059Y-71341457D01*
X42051882Y-70496807D01*
X40949655Y-70039122D01*
X39756181Y-70038081D01*
X38653157Y-70493841D01*
X37808507Y-71337018D01*
X37350822Y-72439245D01*
X37349781Y-73632719D01*
X36480000Y-73632719D01*
X36480000Y-63632300D01*
X50592905Y-63632300D01*
X50592905Y-65867500D01*
X50627769Y-66052789D01*
X50737275Y-66222965D01*
X50904361Y-66337130D01*
X51102700Y-66377295D01*
X53337900Y-66377295D01*
X53523189Y-66342431D01*
X53693365Y-66232925D01*
X53807530Y-66065839D01*
X53847695Y-65867500D01*
X53847695Y-64794000D01*
X55496605Y-64794000D01*
X55496605Y-66826000D01*
X55531469Y-67011289D01*
X55640975Y-67181465D01*
X55808061Y-67295630D01*
X56006400Y-67335795D01*
X57733600Y-67335795D01*
X57918889Y-67300931D01*
X58089065Y-67191425D01*
X58203230Y-67024339D01*
X58243395Y-66826000D01*
X58243395Y-66653406D01*
X58445789Y-66956311D01*
X58888173Y-67251902D01*
X59410000Y-67355700D01*
X59931827Y-67251902D01*
X60374211Y-66956311D01*
X60669802Y-66513927D01*
X60680000Y-66462658D01*
X60690198Y-66513927D01*
X60985789Y-66956311D01*
X61428173Y-67251902D01*
X61950000Y-67355700D01*
X62471827Y-67251902D01*
X62914211Y-66956311D01*
X63105317Y-66670300D01*
X92554000Y-66670300D01*
X92554000Y-66729700D01*
X92669399Y-67309848D01*
X92998026Y-67801674D01*
X93489852Y-68130301D01*
X94070000Y-68245700D01*
X94650148Y-68130301D01*
X95104977Y-67826395D01*
X95119069Y-67901289D01*
X95228575Y-68071465D01*
X95395661Y-68185630D01*
X95594000Y-68225795D01*
X97626000Y-68225795D01*
X97811289Y-68190931D01*
X97981465Y-68081425D01*
X98095630Y-67914339D01*
X98135795Y-67716000D01*
X98135795Y-65684000D01*
X98100931Y-65498711D01*
X97991425Y-65328535D01*
X97824339Y-65214370D01*
X97626000Y-65174205D01*
X95594000Y-65174205D01*
X95408711Y-65209069D01*
X95238535Y-65318575D01*
X95124370Y-65485661D01*
X95106372Y-65574537D01*
X94650148Y-65269699D01*
X94070000Y-65154300D01*
X93489852Y-65269699D01*
X92998026Y-65598326D01*
X92669399Y-66090152D01*
X92554000Y-66670300D01*
X63105317Y-66670300D01*
X63209802Y-66513927D01*
X63313600Y-65992100D01*
X63313600Y-65627900D01*
X63209802Y-65106073D01*
X62914211Y-64663689D01*
X62471827Y-64368098D01*
X61950000Y-64264300D01*
X61428173Y-64368098D01*
X60985789Y-64663689D01*
X60690198Y-65106073D01*
X60680000Y-65157342D01*
X60669802Y-65106073D01*
X60374211Y-64663689D01*
X59931827Y-64368098D01*
X59410000Y-64264300D01*
X58888173Y-64368098D01*
X58445789Y-64663689D01*
X58243395Y-64966594D01*
X58243395Y-64794000D01*
X58208531Y-64608711D01*
X58099025Y-64438535D01*
X57931939Y-64324370D01*
X57733600Y-64284205D01*
X56006400Y-64284205D01*
X55821111Y-64319069D01*
X55650935Y-64428575D01*
X55536770Y-64595661D01*
X55496605Y-64794000D01*
X53847695Y-64794000D01*
X53847695Y-63632300D01*
X53812831Y-63447011D01*
X53703325Y-63276835D01*
X53536239Y-63162670D01*
X53337900Y-63122505D01*
X51102700Y-63122505D01*
X50917411Y-63157369D01*
X50747235Y-63266875D01*
X50633070Y-63433961D01*
X50592905Y-63632300D01*
X36480000Y-63632300D01*
X36480000Y-56873360D01*
X38998220Y-56873360D01*
X39113619Y-57453508D01*
X39417525Y-57908337D01*
X39342631Y-57922429D01*
X39172455Y-58031935D01*
X39058290Y-58199021D01*
X39018125Y-58397360D01*
X39018125Y-60429360D01*
X39052989Y-60614649D01*
X39162495Y-60784825D01*
X39329581Y-60898990D01*
X39527920Y-60939155D01*
X41559920Y-60939155D01*
X41745209Y-60904291D01*
X41915385Y-60794785D01*
X42029550Y-60627699D01*
X42046924Y-60541900D01*
X50986240Y-60541900D01*
X50986240Y-60601300D01*
X51101639Y-61181448D01*
X51430266Y-61673274D01*
X51922092Y-62001901D01*
X52502240Y-62117300D01*
X53082388Y-62001901D01*
X53537217Y-61697995D01*
X53551309Y-61772889D01*
X53660815Y-61943065D01*
X53827901Y-62057230D01*
X54026240Y-62097395D01*
X56058240Y-62097395D01*
X56243529Y-62062531D01*
X56413705Y-61953025D01*
X56527870Y-61785939D01*
X56568035Y-61587600D01*
X56568035Y-59555600D01*
X56533171Y-59370311D01*
X56486351Y-59297550D01*
X64009783Y-59297550D01*
X64199684Y-59757143D01*
X64551007Y-60109081D01*
X65010269Y-60299783D01*
X65469081Y-60300183D01*
X65368711Y-60319069D01*
X65198535Y-60428575D01*
X65084370Y-60595661D01*
X65044205Y-60794000D01*
X65044205Y-62826000D01*
X65079069Y-63011289D01*
X65188575Y-63181465D01*
X65355661Y-63295630D01*
X65444537Y-63313628D01*
X65139699Y-63769852D01*
X65024300Y-64350000D01*
X65139699Y-64930148D01*
X65468326Y-65421974D01*
X65960152Y-65750601D01*
X66540300Y-65866000D01*
X66599700Y-65866000D01*
X67179848Y-65750601D01*
X67671674Y-65421974D01*
X68000301Y-64930148D01*
X68014644Y-64858040D01*
X99069827Y-64858040D01*
X99221747Y-65225714D01*
X99502806Y-65507264D01*
X99870215Y-65659826D01*
X100268040Y-65660173D01*
X100635714Y-65508253D01*
X100917264Y-65227194D01*
X101069826Y-64859785D01*
X101070165Y-64470000D01*
X111494300Y-64470000D01*
X111609699Y-65050148D01*
X111938326Y-65541974D01*
X112430152Y-65870601D01*
X113010300Y-65986000D01*
X113069700Y-65986000D01*
X113649848Y-65870601D01*
X114141674Y-65541974D01*
X114470301Y-65050148D01*
X114585700Y-64470000D01*
X114470301Y-63889852D01*
X114166395Y-63435023D01*
X114241289Y-63420931D01*
X114411465Y-63311425D01*
X114525630Y-63144339D01*
X114565795Y-62946000D01*
X114565795Y-62715009D01*
X122437313Y-62715009D01*
X122611549Y-63135679D01*
X123033973Y-63607992D01*
X123604989Y-63882698D01*
X123856000Y-63774693D01*
X123856000Y-62464000D01*
X124164000Y-62464000D01*
X124164000Y-63774693D01*
X124415011Y-63882698D01*
X124986027Y-63607992D01*
X125408451Y-63135679D01*
X125582687Y-62715009D01*
X125473922Y-62464000D01*
X124164000Y-62464000D01*
X123856000Y-62464000D01*
X122546078Y-62464000D01*
X122437313Y-62715009D01*
X114565795Y-62715009D01*
X114565795Y-61904991D01*
X122437313Y-61904991D01*
X122546078Y-62156000D01*
X123856000Y-62156000D01*
X123856000Y-62136000D01*
X124164000Y-62136000D01*
X124164000Y-62156000D01*
X125473922Y-62156000D01*
X125582687Y-61904991D01*
X125408451Y-61484321D01*
X125209036Y-61261355D01*
X125211289Y-61260931D01*
X125381465Y-61151425D01*
X125495630Y-60984339D01*
X125535795Y-60786000D01*
X125535795Y-58754000D01*
X125500931Y-58568711D01*
X125391425Y-58398535D01*
X125224339Y-58284370D01*
X125026000Y-58244205D01*
X122994000Y-58244205D01*
X122808711Y-58279069D01*
X122638535Y-58388575D01*
X122524370Y-58555661D01*
X122484205Y-58754000D01*
X122484205Y-60786000D01*
X122519069Y-60971289D01*
X122628575Y-61141465D01*
X122795661Y-61255630D01*
X122812952Y-61259132D01*
X122611549Y-61484321D01*
X122437313Y-61904991D01*
X114565795Y-61904991D01*
X114565795Y-60914000D01*
X114530931Y-60728711D01*
X114421425Y-60558535D01*
X114254339Y-60444370D01*
X114056000Y-60404205D01*
X112024000Y-60404205D01*
X111838711Y-60439069D01*
X111668535Y-60548575D01*
X111554370Y-60715661D01*
X111514205Y-60914000D01*
X111514205Y-62946000D01*
X111549069Y-63131289D01*
X111658575Y-63301465D01*
X111825661Y-63415630D01*
X111914537Y-63433628D01*
X111609699Y-63889852D01*
X111494300Y-64470000D01*
X101070165Y-64470000D01*
X101070173Y-64461960D01*
X100918253Y-64094286D01*
X100637194Y-63812736D01*
X100269785Y-63660174D01*
X99871960Y-63659827D01*
X99504286Y-63811747D01*
X99222736Y-64092806D01*
X99070174Y-64460215D01*
X99069827Y-64858040D01*
X68014644Y-64858040D01*
X68115700Y-64350000D01*
X68000301Y-63769852D01*
X67696395Y-63315023D01*
X67771289Y-63300931D01*
X67941465Y-63191425D01*
X67953022Y-63174510D01*
X84000420Y-63174510D01*
X84000420Y-63825490D01*
X84072702Y-64188879D01*
X84278546Y-64496944D01*
X84586611Y-64702788D01*
X84950000Y-64775070D01*
X85313389Y-64702788D01*
X85486366Y-64587208D01*
X85827701Y-64805374D01*
X85904217Y-64810325D01*
X86066000Y-64693380D01*
X86066000Y-63654000D01*
X86046000Y-63654000D01*
X86046000Y-63346000D01*
X86066000Y-63346000D01*
X86066000Y-62306620D01*
X86374000Y-62306620D01*
X86374000Y-63346000D01*
X86394000Y-63346000D01*
X86394000Y-63654000D01*
X86374000Y-63654000D01*
X86374000Y-64693380D01*
X86535783Y-64810325D01*
X86612299Y-64805374D01*
X86953634Y-64587208D01*
X87126611Y-64702788D01*
X87490000Y-64775070D01*
X87853389Y-64702788D01*
X88161454Y-64496944D01*
X88367298Y-64188879D01*
X88439580Y-63825490D01*
X88439580Y-63174510D01*
X88367298Y-62811121D01*
X88161454Y-62503056D01*
X87853389Y-62297212D01*
X87490000Y-62224930D01*
X87126611Y-62297212D01*
X86953634Y-62412792D01*
X86612299Y-62194626D01*
X86535783Y-62189675D01*
X86374000Y-62306620D01*
X86066000Y-62306620D01*
X85904217Y-62189675D01*
X85827701Y-62194626D01*
X85486366Y-62412792D01*
X85313389Y-62297212D01*
X84950000Y-62224930D01*
X84586611Y-62297212D01*
X84278546Y-62503056D01*
X84072702Y-62811121D01*
X84000420Y-63174510D01*
X67953022Y-63174510D01*
X68055630Y-63024339D01*
X68095795Y-62826000D01*
X68095795Y-60794000D01*
X68060931Y-60608711D01*
X67951425Y-60438535D01*
X67784339Y-60324370D01*
X67586000Y-60284205D01*
X65554000Y-60284205D01*
X65539865Y-60286865D01*
X65967143Y-60110316D01*
X66319081Y-59758993D01*
X66509783Y-59299731D01*
X66510217Y-58802450D01*
X66320316Y-58342857D01*
X65968993Y-57990919D01*
X65509731Y-57800217D01*
X65012450Y-57799783D01*
X64552857Y-57989684D01*
X64200919Y-58341007D01*
X64010217Y-58800269D01*
X64009783Y-59297550D01*
X56486351Y-59297550D01*
X56423665Y-59200135D01*
X56256579Y-59085970D01*
X56058240Y-59045805D01*
X54026240Y-59045805D01*
X53840951Y-59080669D01*
X53670775Y-59190175D01*
X53556610Y-59357261D01*
X53538612Y-59446137D01*
X53082388Y-59141299D01*
X52502240Y-59025900D01*
X51922092Y-59141299D01*
X51430266Y-59469926D01*
X51101639Y-59961752D01*
X50986240Y-60541900D01*
X42046924Y-60541900D01*
X42069715Y-60429360D01*
X42069715Y-58397360D01*
X42034851Y-58212071D01*
X41925345Y-58041895D01*
X41758259Y-57927730D01*
X41669383Y-57909732D01*
X41974221Y-57453508D01*
X42089620Y-56873360D01*
X42043294Y-56640460D01*
X51067520Y-56640460D01*
X51067520Y-56699860D01*
X51182919Y-57280008D01*
X51511546Y-57771834D01*
X52003372Y-58100461D01*
X52583520Y-58215860D01*
X53163668Y-58100461D01*
X53618497Y-57796555D01*
X53632589Y-57871449D01*
X53742095Y-58041625D01*
X53909181Y-58155790D01*
X54107520Y-58195955D01*
X56139520Y-58195955D01*
X56324809Y-58161091D01*
X56494985Y-58051585D01*
X56609150Y-57884499D01*
X56649315Y-57686160D01*
X56649315Y-55654160D01*
X56614451Y-55468871D01*
X56504945Y-55298695D01*
X56337859Y-55184530D01*
X56139520Y-55144365D01*
X55033665Y-55144365D01*
X55059081Y-55118993D01*
X55091881Y-55040000D01*
X69014300Y-55040000D01*
X69129699Y-55620148D01*
X69433605Y-56074977D01*
X69358711Y-56089069D01*
X69188535Y-56198575D01*
X69074370Y-56365661D01*
X69034205Y-56564000D01*
X69034205Y-58596000D01*
X69069069Y-58781289D01*
X69178575Y-58951465D01*
X69345661Y-59065630D01*
X69544000Y-59105795D01*
X71576000Y-59105795D01*
X71761289Y-59070931D01*
X71931465Y-58961425D01*
X72045630Y-58794339D01*
X72085795Y-58596000D01*
X72085795Y-56564000D01*
X72050931Y-56378711D01*
X71941425Y-56208535D01*
X71774339Y-56094370D01*
X71685463Y-56076372D01*
X71990301Y-55620148D01*
X72099732Y-55070000D01*
X72754300Y-55070000D01*
X72869699Y-55650148D01*
X73173605Y-56104977D01*
X73098711Y-56119069D01*
X72928535Y-56228575D01*
X72814370Y-56395661D01*
X72774205Y-56594000D01*
X72774205Y-58626000D01*
X72809069Y-58811289D01*
X72918575Y-58981465D01*
X73085661Y-59095630D01*
X73284000Y-59135795D01*
X75316000Y-59135795D01*
X75501289Y-59100931D01*
X75671465Y-58991425D01*
X75785630Y-58824339D01*
X75825795Y-58626000D01*
X75825795Y-57600000D01*
X79424300Y-57600000D01*
X79528098Y-58121827D01*
X79823689Y-58564211D01*
X80266073Y-58859802D01*
X80317342Y-58870000D01*
X80266073Y-58880198D01*
X79823689Y-59175789D01*
X79528098Y-59618173D01*
X79424300Y-60140000D01*
X79528098Y-60661827D01*
X79823689Y-61104211D01*
X80266073Y-61399802D01*
X80787900Y-61503600D01*
X81152100Y-61503600D01*
X81673927Y-61399802D01*
X81901055Y-61248040D01*
X86549827Y-61248040D01*
X86701747Y-61615714D01*
X86982806Y-61897264D01*
X87350215Y-62049826D01*
X87748040Y-62050173D01*
X88115714Y-61898253D01*
X88306259Y-61708040D01*
X93719827Y-61708040D01*
X93871747Y-62075714D01*
X94152806Y-62357264D01*
X94520215Y-62509826D01*
X94918040Y-62510173D01*
X95285714Y-62358253D01*
X95567264Y-62077194D01*
X95719826Y-61709785D01*
X95720173Y-61311960D01*
X95568253Y-60944286D01*
X95287194Y-60662736D01*
X94919785Y-60510174D01*
X94521960Y-60509827D01*
X94154286Y-60661747D01*
X93872736Y-60942806D01*
X93720174Y-61310215D01*
X93719827Y-61708040D01*
X88306259Y-61708040D01*
X88397264Y-61617194D01*
X88549826Y-61249785D01*
X88550173Y-60851960D01*
X88398253Y-60484286D01*
X88117194Y-60202736D01*
X87749785Y-60050174D01*
X87351960Y-60049827D01*
X86984286Y-60201747D01*
X86702736Y-60482806D01*
X86550174Y-60850215D01*
X86549827Y-61248040D01*
X81901055Y-61248040D01*
X82116311Y-61104211D01*
X82411902Y-60661827D01*
X82515700Y-60140000D01*
X82411902Y-59618173D01*
X82116311Y-59175789D01*
X81673927Y-58880198D01*
X81622658Y-58870000D01*
X81673927Y-58859802D01*
X82107198Y-58570300D01*
X87154000Y-58570300D01*
X87154000Y-58629700D01*
X87269399Y-59209848D01*
X87598026Y-59701674D01*
X88089852Y-60030301D01*
X88670000Y-60145700D01*
X89250148Y-60030301D01*
X89704977Y-59726395D01*
X89719069Y-59801289D01*
X89828575Y-59971465D01*
X89995661Y-60085630D01*
X90194000Y-60125795D01*
X92226000Y-60125795D01*
X92411289Y-60090931D01*
X92581465Y-59981425D01*
X92695630Y-59814339D01*
X92735795Y-59616000D01*
X92735795Y-57584000D01*
X92700931Y-57398711D01*
X92591425Y-57228535D01*
X92424339Y-57114370D01*
X92226000Y-57074205D01*
X90194000Y-57074205D01*
X90008711Y-57109069D01*
X89838535Y-57218575D01*
X89724370Y-57385661D01*
X89706372Y-57474537D01*
X89250148Y-57169699D01*
X88670000Y-57054300D01*
X88089852Y-57169699D01*
X87598026Y-57498326D01*
X87269399Y-57990152D01*
X87154000Y-58570300D01*
X82107198Y-58570300D01*
X82116311Y-58564211D01*
X82411902Y-58121827D01*
X82515700Y-57600000D01*
X82411902Y-57078173D01*
X82116311Y-56635789D01*
X81813406Y-56433395D01*
X81986000Y-56433395D01*
X82171289Y-56398531D01*
X82292862Y-56320300D01*
X107804000Y-56320300D01*
X107804000Y-56379700D01*
X107919399Y-56959848D01*
X108248026Y-57451674D01*
X108739852Y-57780301D01*
X109320000Y-57895700D01*
X109900148Y-57780301D01*
X110354977Y-57476395D01*
X110369069Y-57551289D01*
X110478575Y-57721465D01*
X110645661Y-57835630D01*
X110844000Y-57875795D01*
X111271093Y-57875795D01*
X110922857Y-58019684D01*
X110570919Y-58371007D01*
X110380217Y-58830269D01*
X110379783Y-59327550D01*
X110569684Y-59787143D01*
X110921007Y-60139081D01*
X111380269Y-60329783D01*
X111877550Y-60330217D01*
X112337143Y-60140316D01*
X112689081Y-59788993D01*
X112879783Y-59329731D01*
X112880217Y-58832450D01*
X112690316Y-58372857D01*
X112338993Y-58020919D01*
X111989495Y-57875795D01*
X112876000Y-57875795D01*
X113061289Y-57840931D01*
X113231465Y-57731425D01*
X113345630Y-57564339D01*
X113385795Y-57366000D01*
X113385795Y-55390000D01*
X123704300Y-55390000D01*
X123819699Y-55970148D01*
X124148326Y-56461974D01*
X124640152Y-56790601D01*
X125220300Y-56906000D01*
X125279700Y-56906000D01*
X125859848Y-56790601D01*
X126351674Y-56461974D01*
X126680301Y-55970148D01*
X126795700Y-55390000D01*
X126680301Y-54809852D01*
X126376395Y-54355023D01*
X126451289Y-54340931D01*
X126621465Y-54231425D01*
X126735630Y-54064339D01*
X126775795Y-53866000D01*
X126775795Y-51834000D01*
X126740931Y-51648711D01*
X126631425Y-51478535D01*
X126464339Y-51364370D01*
X126266000Y-51324205D01*
X124234000Y-51324205D01*
X124048711Y-51359069D01*
X123878535Y-51468575D01*
X123764370Y-51635661D01*
X123724205Y-51834000D01*
X123724205Y-53866000D01*
X123759069Y-54051289D01*
X123868575Y-54221465D01*
X124035661Y-54335630D01*
X124124537Y-54353628D01*
X123819699Y-54809852D01*
X123704300Y-55390000D01*
X113385795Y-55390000D01*
X113385795Y-55334000D01*
X113350931Y-55148711D01*
X113241425Y-54978535D01*
X113074339Y-54864370D01*
X112876000Y-54824205D01*
X110844000Y-54824205D01*
X110658711Y-54859069D01*
X110488535Y-54968575D01*
X110374370Y-55135661D01*
X110356372Y-55224537D01*
X109900148Y-54919699D01*
X109320000Y-54804300D01*
X108739852Y-54919699D01*
X108248026Y-55248326D01*
X107919399Y-55740152D01*
X107804000Y-56320300D01*
X82292862Y-56320300D01*
X82341465Y-56289025D01*
X82455630Y-56121939D01*
X82495795Y-55923600D01*
X82495795Y-54196400D01*
X82460931Y-54011111D01*
X82351425Y-53840935D01*
X82184339Y-53726770D01*
X81986000Y-53686605D01*
X79954000Y-53686605D01*
X79768711Y-53721469D01*
X79598535Y-53830975D01*
X79484370Y-53998061D01*
X79444205Y-54196400D01*
X79444205Y-55923600D01*
X79479069Y-56108889D01*
X79588575Y-56279065D01*
X79755661Y-56393230D01*
X79954000Y-56433395D01*
X80126594Y-56433395D01*
X79823689Y-56635789D01*
X79528098Y-57078173D01*
X79424300Y-57600000D01*
X75825795Y-57600000D01*
X75825795Y-56594000D01*
X75790931Y-56408711D01*
X75681425Y-56238535D01*
X75514339Y-56124370D01*
X75425463Y-56106372D01*
X75730301Y-55650148D01*
X75845700Y-55070000D01*
X75730301Y-54489852D01*
X75401674Y-53998026D01*
X74909848Y-53669399D01*
X74329700Y-53554000D01*
X74270300Y-53554000D01*
X73690152Y-53669399D01*
X73198326Y-53998026D01*
X72869699Y-54489852D01*
X72754300Y-55070000D01*
X72099732Y-55070000D01*
X72105700Y-55040000D01*
X71990301Y-54459852D01*
X71661674Y-53968026D01*
X71169848Y-53639399D01*
X70589700Y-53524000D01*
X70530300Y-53524000D01*
X69950152Y-53639399D01*
X69458326Y-53968026D01*
X69129699Y-54459852D01*
X69014300Y-55040000D01*
X55091881Y-55040000D01*
X55249783Y-54659731D01*
X55250217Y-54162450D01*
X55060316Y-53702857D01*
X54755543Y-53397550D01*
X96609783Y-53397550D01*
X96799684Y-53857143D01*
X97151007Y-54209081D01*
X97610269Y-54399783D01*
X98107550Y-54400217D01*
X98567143Y-54210316D01*
X98919081Y-53858993D01*
X99109783Y-53399731D01*
X99110217Y-52902450D01*
X99043218Y-52740300D01*
X107784000Y-52740300D01*
X107784000Y-52799700D01*
X107899399Y-53379848D01*
X108228026Y-53871674D01*
X108719852Y-54200301D01*
X109300000Y-54315700D01*
X109880148Y-54200301D01*
X110334977Y-53896395D01*
X110349069Y-53971289D01*
X110458575Y-54141465D01*
X110625661Y-54255630D01*
X110824000Y-54295795D01*
X112856000Y-54295795D01*
X113041289Y-54260931D01*
X113211465Y-54151425D01*
X113325630Y-53984339D01*
X113365795Y-53786000D01*
X113365795Y-51754000D01*
X113330931Y-51568711D01*
X113221425Y-51398535D01*
X113054339Y-51284370D01*
X112856000Y-51244205D01*
X110824000Y-51244205D01*
X110638711Y-51279069D01*
X110468535Y-51388575D01*
X110354370Y-51555661D01*
X110336372Y-51644537D01*
X109880148Y-51339699D01*
X109300000Y-51224300D01*
X108719852Y-51339699D01*
X108228026Y-51668326D01*
X107899399Y-52160152D01*
X107784000Y-52740300D01*
X99043218Y-52740300D01*
X98920316Y-52442857D01*
X98568993Y-52090919D01*
X98109731Y-51900217D01*
X97612450Y-51899783D01*
X97152857Y-52089684D01*
X96800919Y-52441007D01*
X96610217Y-52900269D01*
X96609783Y-53397550D01*
X54755543Y-53397550D01*
X54708993Y-53350919D01*
X54249731Y-53160217D01*
X53752450Y-53159783D01*
X53292857Y-53349684D01*
X52940919Y-53701007D01*
X52750217Y-54160269D01*
X52749783Y-54657550D01*
X52939684Y-55117143D01*
X53037042Y-55214671D01*
X52583520Y-55124460D01*
X52003372Y-55239859D01*
X51511546Y-55568486D01*
X51182919Y-56060312D01*
X51067520Y-56640460D01*
X42043294Y-56640460D01*
X41974221Y-56293212D01*
X41645594Y-55801386D01*
X41153768Y-55472759D01*
X40573620Y-55357360D01*
X40514220Y-55357360D01*
X39934072Y-55472759D01*
X39442246Y-55801386D01*
X39113619Y-56293212D01*
X38998220Y-56873360D01*
X36480000Y-56873360D01*
X36480000Y-52658040D01*
X38739827Y-52658040D01*
X38891747Y-53025714D01*
X39172806Y-53307264D01*
X39540215Y-53459826D01*
X39938040Y-53460173D01*
X40305714Y-53308253D01*
X40587264Y-53027194D01*
X40739826Y-52659785D01*
X40740173Y-52261960D01*
X40588253Y-51894286D01*
X40307194Y-51612736D01*
X39939785Y-51460174D01*
X39541960Y-51459827D01*
X39174286Y-51611747D01*
X38892736Y-51892806D01*
X38740174Y-52260215D01*
X38739827Y-52658040D01*
X36480000Y-52658040D01*
X36480000Y-51407550D01*
X85779783Y-51407550D01*
X85969684Y-51867143D01*
X86321007Y-52219081D01*
X86780269Y-52409783D01*
X87277550Y-52410217D01*
X87737143Y-52220316D01*
X88089081Y-51868993D01*
X88279783Y-51409731D01*
X88280217Y-50912450D01*
X88090316Y-50452857D01*
X87738993Y-50100919D01*
X87279731Y-49910217D01*
X86782450Y-49909783D01*
X86322857Y-50099684D01*
X85970919Y-50451007D01*
X85780217Y-50910269D01*
X85779783Y-51407550D01*
X36480000Y-51407550D01*
X36480000Y-44991049D01*
X37536189Y-44991049D01*
X37766178Y-45473641D01*
X38187371Y-45863838D01*
X38353495Y-45925330D01*
X37963689Y-46185789D01*
X37668098Y-46628173D01*
X37564300Y-47150000D01*
X37668098Y-47671827D01*
X37963689Y-48114211D01*
X38266594Y-48316605D01*
X38094000Y-48316605D01*
X37908711Y-48351469D01*
X37738535Y-48460975D01*
X37624370Y-48628061D01*
X37584205Y-48826400D01*
X37584205Y-50553600D01*
X37619069Y-50738889D01*
X37728575Y-50909065D01*
X37895661Y-51023230D01*
X38094000Y-51063395D01*
X40126000Y-51063395D01*
X40311289Y-51028531D01*
X40481465Y-50919025D01*
X40595630Y-50751939D01*
X40635795Y-50553600D01*
X40635795Y-49978040D01*
X63979827Y-49978040D01*
X64131747Y-50345714D01*
X64412806Y-50627264D01*
X64780215Y-50779826D01*
X65178040Y-50780173D01*
X65545714Y-50628253D01*
X65827264Y-50347194D01*
X65979826Y-49979785D01*
X65980173Y-49581960D01*
X65828253Y-49214286D01*
X65547194Y-48932736D01*
X65179785Y-48780174D01*
X64781960Y-48779827D01*
X64414286Y-48931747D01*
X64132736Y-49212806D01*
X63980174Y-49580215D01*
X63979827Y-49978040D01*
X40635795Y-49978040D01*
X40635795Y-48826400D01*
X40600931Y-48641111D01*
X40491425Y-48470935D01*
X40324339Y-48356770D01*
X40126000Y-48316605D01*
X39953406Y-48316605D01*
X40256311Y-48114211D01*
X40551902Y-47671827D01*
X40655700Y-47150000D01*
X40551902Y-46628173D01*
X40256311Y-46185789D01*
X39866505Y-45925330D01*
X40032629Y-45863838D01*
X40036771Y-45860000D01*
X58614300Y-45860000D01*
X58729699Y-46440148D01*
X59058326Y-46931974D01*
X59550152Y-47260601D01*
X60130300Y-47376000D01*
X60189700Y-47376000D01*
X60769848Y-47260601D01*
X61261674Y-46931974D01*
X61590301Y-46440148D01*
X61636080Y-46210000D01*
X75744300Y-46210000D01*
X75859699Y-46790148D01*
X76163605Y-47244977D01*
X76088711Y-47259069D01*
X75918535Y-47368575D01*
X75804370Y-47535661D01*
X75764205Y-47734000D01*
X75764205Y-49766000D01*
X75799069Y-49951289D01*
X75908575Y-50121465D01*
X76075661Y-50235630D01*
X76274000Y-50275795D01*
X78306000Y-50275795D01*
X78491289Y-50240931D01*
X78661465Y-50131425D01*
X78775630Y-49964339D01*
X78815795Y-49766000D01*
X78815795Y-49337550D01*
X121359783Y-49337550D01*
X121549684Y-49797143D01*
X121901007Y-50149081D01*
X122360269Y-50339783D01*
X122857550Y-50340217D01*
X123317143Y-50150316D01*
X123669081Y-49798993D01*
X123859783Y-49339731D01*
X123860217Y-48842450D01*
X123670316Y-48382857D01*
X123318993Y-48030919D01*
X122859731Y-47840217D01*
X122362450Y-47839783D01*
X121902857Y-48029684D01*
X121550919Y-48381007D01*
X121360217Y-48840269D01*
X121359783Y-49337550D01*
X78815795Y-49337550D01*
X78815795Y-47734000D01*
X78780931Y-47548711D01*
X78671425Y-47378535D01*
X78504339Y-47264370D01*
X78415463Y-47246372D01*
X78720301Y-46790148D01*
X78835700Y-46210000D01*
X78720301Y-45629852D01*
X78391674Y-45138026D01*
X77899848Y-44809399D01*
X77319700Y-44694000D01*
X77260300Y-44694000D01*
X76680152Y-44809399D01*
X76188326Y-45138026D01*
X75859699Y-45629852D01*
X75744300Y-46210000D01*
X61636080Y-46210000D01*
X61705700Y-45860000D01*
X61590301Y-45279852D01*
X61286395Y-44825023D01*
X61361289Y-44810931D01*
X61531465Y-44701425D01*
X61645630Y-44534339D01*
X61685795Y-44336000D01*
X61685795Y-43437900D01*
X64226400Y-43437900D01*
X64226400Y-43802100D01*
X64330198Y-44323927D01*
X64625789Y-44766311D01*
X65068173Y-45061902D01*
X65590000Y-45165700D01*
X66111827Y-45061902D01*
X66554211Y-44766311D01*
X66849802Y-44323927D01*
X66860000Y-44272658D01*
X66870198Y-44323927D01*
X67165789Y-44766311D01*
X67608173Y-45061902D01*
X68130000Y-45165700D01*
X68651827Y-45061902D01*
X69094211Y-44766311D01*
X69389802Y-44323927D01*
X69400000Y-44272658D01*
X69410198Y-44323927D01*
X69705789Y-44766311D01*
X70148173Y-45061902D01*
X70670000Y-45165700D01*
X71191827Y-45061902D01*
X71634211Y-44766311D01*
X71836605Y-44463406D01*
X71836605Y-44636000D01*
X71871469Y-44821289D01*
X71980975Y-44991465D01*
X72148061Y-45105630D01*
X72346400Y-45145795D01*
X74073600Y-45145795D01*
X74258889Y-45110931D01*
X74429065Y-45001425D01*
X74543230Y-44834339D01*
X74583395Y-44636000D01*
X74583395Y-42604000D01*
X74548531Y-42418711D01*
X74439025Y-42248535D01*
X74271939Y-42134370D01*
X74073600Y-42094205D01*
X72346400Y-42094205D01*
X72161111Y-42129069D01*
X71990935Y-42238575D01*
X71876770Y-42405661D01*
X71836605Y-42604000D01*
X71836605Y-42776594D01*
X71634211Y-42473689D01*
X71191827Y-42178098D01*
X70670000Y-42074300D01*
X70148173Y-42178098D01*
X69705789Y-42473689D01*
X69410198Y-42916073D01*
X69400000Y-42967342D01*
X69389802Y-42916073D01*
X69094211Y-42473689D01*
X68651827Y-42178098D01*
X68130000Y-42074300D01*
X67608173Y-42178098D01*
X67165789Y-42473689D01*
X66870198Y-42916073D01*
X66860000Y-42967342D01*
X66849802Y-42916073D01*
X66554211Y-42473689D01*
X66111827Y-42178098D01*
X65590000Y-42074300D01*
X65068173Y-42178098D01*
X64625789Y-42473689D01*
X64330198Y-42916073D01*
X64226400Y-43437900D01*
X61685795Y-43437900D01*
X61685795Y-42304000D01*
X61650931Y-42118711D01*
X61541425Y-41948535D01*
X61374339Y-41834370D01*
X61176000Y-41794205D01*
X59144000Y-41794205D01*
X58958711Y-41829069D01*
X58788535Y-41938575D01*
X58674370Y-42105661D01*
X58634205Y-42304000D01*
X58634205Y-44336000D01*
X58669069Y-44521289D01*
X58778575Y-44691465D01*
X58945661Y-44805630D01*
X59034537Y-44823628D01*
X58729699Y-45279852D01*
X58614300Y-45860000D01*
X40036771Y-45860000D01*
X40453822Y-45473641D01*
X40683811Y-44991049D01*
X40572983Y-44764000D01*
X39264000Y-44764000D01*
X39264000Y-44784000D01*
X38956000Y-44784000D01*
X38956000Y-44764000D01*
X37647017Y-44764000D01*
X37536189Y-44991049D01*
X36480000Y-44991049D01*
X36480000Y-42451049D01*
X37536189Y-42451049D01*
X37766178Y-42933641D01*
X38187371Y-43323838D01*
X38231034Y-43340000D01*
X38187371Y-43356162D01*
X37766178Y-43746359D01*
X37536189Y-44228951D01*
X37647017Y-44456000D01*
X38956000Y-44456000D01*
X38956000Y-42224000D01*
X39264000Y-42224000D01*
X39264000Y-44456000D01*
X40572983Y-44456000D01*
X40683811Y-44228951D01*
X40453822Y-43746359D01*
X40032629Y-43356162D01*
X39988966Y-43340000D01*
X40032629Y-43323838D01*
X40453822Y-42933641D01*
X40683811Y-42451049D01*
X40572983Y-42224000D01*
X39264000Y-42224000D01*
X38956000Y-42224000D01*
X37647017Y-42224000D01*
X37536189Y-42451049D01*
X36480000Y-42451049D01*
X36480000Y-41688951D01*
X37536189Y-41688951D01*
X37647017Y-41916000D01*
X38956000Y-41916000D01*
X38956000Y-40750484D01*
X39264000Y-40750484D01*
X39264000Y-41916000D01*
X40572983Y-41916000D01*
X40683811Y-41688951D01*
X40453822Y-41206359D01*
X40032629Y-40816162D01*
X39494176Y-40616851D01*
X39264000Y-40750484D01*
X38956000Y-40750484D01*
X38725824Y-40616851D01*
X38187371Y-40816162D01*
X37766178Y-41206359D01*
X37536189Y-41688951D01*
X36480000Y-41688951D01*
X36480000Y-40400000D01*
X89516166Y-40400000D01*
X89148507Y-40767018D01*
X89148507Y-40767018D01*
G37*
X89148507Y-40767018D02*
X88690822Y-41869245D01*
X88689781Y-43062719D01*
X89145541Y-44165743D01*
X89988718Y-45010393D01*
X91090945Y-45468078D01*
X92284419Y-45469119D01*
X93387443Y-45013359D01*
X94232093Y-44170182D01*
X94602601Y-43277900D01*
X100756400Y-43277900D01*
X100756400Y-43642100D01*
X100860198Y-44163927D01*
X101155789Y-44606311D01*
X101598173Y-44901902D01*
X102120000Y-45005700D01*
X102641827Y-44901902D01*
X103084211Y-44606311D01*
X103379802Y-44163927D01*
X103390000Y-44112658D01*
X103400198Y-44163927D01*
X103695789Y-44606311D01*
X104138173Y-44901902D01*
X104660000Y-45005700D01*
X105181827Y-44901902D01*
X105624211Y-44606311D01*
X105919802Y-44163927D01*
X105930000Y-44112658D01*
X105940198Y-44163927D01*
X106235789Y-44606311D01*
X106678173Y-44901902D01*
X107200000Y-45005700D01*
X107721827Y-44901902D01*
X108164211Y-44606311D01*
X108366605Y-44303406D01*
X108366605Y-44476000D01*
X108401469Y-44661289D01*
X108510975Y-44831465D01*
X108678061Y-44945630D01*
X108876400Y-44985795D01*
X110603600Y-44985795D01*
X110788889Y-44950931D01*
X110959065Y-44841425D01*
X111073230Y-44674339D01*
X111092731Y-44578040D01*
X122569827Y-44578040D01*
X122721747Y-44945714D01*
X123002806Y-45227264D01*
X123370215Y-45379826D01*
X123768040Y-45380173D01*
X124135714Y-45228253D01*
X124417264Y-44947194D01*
X124569826Y-44579785D01*
X124570173Y-44181960D01*
X124418253Y-43814286D01*
X124137194Y-43532736D01*
X123769785Y-43380174D01*
X123371960Y-43379827D01*
X123004286Y-43531747D01*
X122722736Y-43812806D01*
X122570174Y-44180215D01*
X122569827Y-44578040D01*
X111092731Y-44578040D01*
X111113395Y-44476000D01*
X111113395Y-42444000D01*
X111078531Y-42258711D01*
X110969025Y-42088535D01*
X110801939Y-41974370D01*
X110603600Y-41934205D01*
X108876400Y-41934205D01*
X108691111Y-41969069D01*
X108520935Y-42078575D01*
X108406770Y-42245661D01*
X108366605Y-42444000D01*
X108366605Y-42616594D01*
X108164211Y-42313689D01*
X107721827Y-42018098D01*
X107200000Y-41914300D01*
X106678173Y-42018098D01*
X106235789Y-42313689D01*
X105940198Y-42756073D01*
X105930000Y-42807342D01*
X105919802Y-42756073D01*
X105624211Y-42313689D01*
X105181827Y-42018098D01*
X104660000Y-41914300D01*
X104138173Y-42018098D01*
X103695789Y-42313689D01*
X103400198Y-42756073D01*
X103390000Y-42807342D01*
X103379802Y-42756073D01*
X103084211Y-42313689D01*
X102641827Y-42018098D01*
X102120000Y-41914300D01*
X101598173Y-42018098D01*
X101155789Y-42313689D01*
X100860198Y-42756073D01*
X100756400Y-43277900D01*
X94602601Y-43277900D01*
X94689778Y-43067955D01*
X94690819Y-41874481D01*
X94235059Y-40771457D01*
X93864250Y-40400000D01*
X128166952Y-40400000D01*
X127348507Y-41217018D01*
X126890822Y-42319245D01*
X126889781Y-43512719D01*
X127345541Y-44615743D01*
X128188718Y-45460393D01*
X129290945Y-45918078D01*
X130130000Y-45918810D01*
X130130000Y-76810000D01*
X36480000Y-76810000D01*
X36480000Y-73632719D01*
X37349781Y-73632719D01*
X37805541Y-74735743D01*
X38648718Y-75580393D01*
X39750945Y-76038078D01*
X40944419Y-76039119D01*
X42047443Y-75583359D01*
X42892093Y-74740182D01*
X43349778Y-73637955D01*
X43350818Y-72445009D01*
X68857313Y-72445009D01*
X69031549Y-72865679D01*
X69453973Y-73337992D01*
X70024989Y-73612698D01*
X70276000Y-73504693D01*
X70276000Y-72194000D01*
X70584000Y-72194000D01*
X70584000Y-73504693D01*
X70835011Y-73612698D01*
X70915084Y-73574176D01*
X90776851Y-73574176D01*
X90976162Y-74112629D01*
X91366359Y-74533822D01*
X91848951Y-74763811D01*
X92076000Y-74652983D01*
X92076000Y-73344000D01*
X90910484Y-73344000D01*
X90776851Y-73574176D01*
X70915084Y-73574176D01*
X71406027Y-73337992D01*
X71828451Y-72865679D01*
X71853242Y-72805824D01*
X90776851Y-72805824D01*
X90910484Y-73036000D01*
X92076000Y-73036000D01*
X92076000Y-71727017D01*
X92384000Y-71727017D01*
X92384000Y-73036000D01*
X92404000Y-73036000D01*
X92404000Y-73344000D01*
X92384000Y-73344000D01*
X92384000Y-74652983D01*
X92611049Y-74763811D01*
X93093641Y-74533822D01*
X93483838Y-74112629D01*
X93531348Y-73984277D01*
X93709340Y-74250660D01*
X93780191Y-74298001D01*
X93805789Y-74336311D01*
X94248173Y-74631902D01*
X94770000Y-74735700D01*
X95291827Y-74631902D01*
X95734211Y-74336311D01*
X95759809Y-74298001D01*
X95830660Y-74250660D01*
X96059610Y-73908013D01*
X96345789Y-74336311D01*
X96788173Y-74631902D01*
X97310000Y-74735700D01*
X97831827Y-74631902D01*
X98274211Y-74336311D01*
X98476605Y-74033406D01*
X98476605Y-74206000D01*
X98511469Y-74391289D01*
X98620975Y-74561465D01*
X98788061Y-74675630D01*
X98986400Y-74715795D01*
X100713600Y-74715795D01*
X100898889Y-74680931D01*
X101069065Y-74571425D01*
X101183230Y-74404339D01*
X101223395Y-74206000D01*
X101223395Y-72982719D01*
X121709781Y-72982719D01*
X122165541Y-74085743D01*
X123008718Y-74930393D01*
X124110945Y-75388078D01*
X125304419Y-75389119D01*
X126407443Y-74933359D01*
X127252093Y-74090182D01*
X127709778Y-72987955D01*
X127710819Y-71794481D01*
X127255059Y-70691457D01*
X126411882Y-69846807D01*
X125309655Y-69389122D01*
X124116181Y-69388081D01*
X123013157Y-69843841D01*
X122168507Y-70687018D01*
X121710822Y-71789245D01*
X121709781Y-72982719D01*
X101223395Y-72982719D01*
X101223395Y-72174000D01*
X101188531Y-71988711D01*
X101079025Y-71818535D01*
X100911939Y-71704370D01*
X100713600Y-71664205D01*
X98986400Y-71664205D01*
X98801111Y-71699069D01*
X98630935Y-71808575D01*
X98516770Y-71975661D01*
X98476605Y-72174000D01*
X98476605Y-72346594D01*
X98274211Y-72043689D01*
X97831827Y-71748098D01*
X97310000Y-71644300D01*
X96788173Y-71748098D01*
X96345789Y-72043689D01*
X96270000Y-72157115D01*
X96270000Y-71761320D01*
X96511320Y-71520000D01*
X99079453Y-71520000D01*
X99180000Y-71540000D01*
X100462300Y-71540000D01*
X100485975Y-71555819D01*
X101060000Y-71670000D01*
X101634025Y-71555819D01*
X101640247Y-71551662D01*
X101761747Y-71845714D01*
X102042806Y-72127264D01*
X102410215Y-72279826D01*
X102808040Y-72280173D01*
X103175714Y-72128253D01*
X103457264Y-71847194D01*
X103609826Y-71479785D01*
X103610173Y-71081960D01*
X103458253Y-70714286D01*
X103177194Y-70432736D01*
X102809785Y-70280174D01*
X102538132Y-70279937D01*
X102560000Y-70170000D01*
X102445819Y-69595975D01*
X102120660Y-69109340D01*
X101990660Y-68979340D01*
X101504025Y-68654181D01*
X100930000Y-68540000D01*
X100772472Y-68540000D01*
X100859783Y-68329731D01*
X100860217Y-67832450D01*
X100670316Y-67372857D01*
X100318993Y-67020919D01*
X99859731Y-66830217D01*
X99362450Y-66829783D01*
X98902857Y-67019684D01*
X98550919Y-67371007D01*
X98360217Y-67830269D01*
X98359783Y-68327550D01*
X98439302Y-68520000D01*
X95890000Y-68520000D01*
X95315975Y-68634181D01*
X94829340Y-68959340D01*
X93709340Y-70079340D01*
X93384181Y-70565975D01*
X93270000Y-71140000D01*
X93270000Y-72036546D01*
X93093641Y-71846178D01*
X92611049Y-71616189D01*
X92384000Y-71727017D01*
X92076000Y-71727017D01*
X91848951Y-71616189D01*
X91366359Y-71846178D01*
X90976162Y-72267371D01*
X90776851Y-72805824D01*
X71853242Y-72805824D01*
X72002687Y-72445009D01*
X71893922Y-72194000D01*
X70584000Y-72194000D01*
X70276000Y-72194000D01*
X68966078Y-72194000D01*
X68857313Y-72445009D01*
X43350818Y-72445009D01*
X43350819Y-72444481D01*
X43016345Y-71634991D01*
X68857313Y-71634991D01*
X68966078Y-71886000D01*
X70276000Y-71886000D01*
X70276000Y-71866000D01*
X70584000Y-71866000D01*
X70584000Y-71886000D01*
X71893922Y-71886000D01*
X72002687Y-71634991D01*
X71828451Y-71214321D01*
X71629036Y-70991355D01*
X71631289Y-70990931D01*
X71801465Y-70881425D01*
X71915630Y-70714339D01*
X71955795Y-70516000D01*
X71955795Y-68484000D01*
X71920931Y-68298711D01*
X71811425Y-68128535D01*
X71644339Y-68014370D01*
X71446000Y-67974205D01*
X69414000Y-67974205D01*
X69228711Y-68009069D01*
X69058535Y-68118575D01*
X68944370Y-68285661D01*
X68904205Y-68484000D01*
X68904205Y-70516000D01*
X68939069Y-70701289D01*
X69048575Y-70871465D01*
X69215661Y-70985630D01*
X69232952Y-70989132D01*
X69031549Y-71214321D01*
X68857313Y-71634991D01*
X43016345Y-71634991D01*
X42895059Y-71341457D01*
X42051882Y-70496807D01*
X40949655Y-70039122D01*
X39756181Y-70038081D01*
X38653157Y-70493841D01*
X37808507Y-71337018D01*
X37350822Y-72439245D01*
X37349781Y-73632719D01*
X36480000Y-73632719D01*
X36480000Y-63632300D01*
X50592905Y-63632300D01*
X50592905Y-65867500D01*
X50627769Y-66052789D01*
X50737275Y-66222965D01*
X50904361Y-66337130D01*
X51102700Y-66377295D01*
X53337900Y-66377295D01*
X53523189Y-66342431D01*
X53693365Y-66232925D01*
X53807530Y-66065839D01*
X53847695Y-65867500D01*
X53847695Y-64794000D01*
X55496605Y-64794000D01*
X55496605Y-66826000D01*
X55531469Y-67011289D01*
X55640975Y-67181465D01*
X55808061Y-67295630D01*
X56006400Y-67335795D01*
X57733600Y-67335795D01*
X57918889Y-67300931D01*
X58089065Y-67191425D01*
X58203230Y-67024339D01*
X58243395Y-66826000D01*
X58243395Y-66653406D01*
X58445789Y-66956311D01*
X58888173Y-67251902D01*
X59410000Y-67355700D01*
X59931827Y-67251902D01*
X60374211Y-66956311D01*
X60669802Y-66513927D01*
X60680000Y-66462658D01*
X60690198Y-66513927D01*
X60985789Y-66956311D01*
X61428173Y-67251902D01*
X61950000Y-67355700D01*
X62471827Y-67251902D01*
X62914211Y-66956311D01*
X63105317Y-66670300D01*
X92554000Y-66670300D01*
X92554000Y-66729700D01*
X92669399Y-67309848D01*
X92998026Y-67801674D01*
X93489852Y-68130301D01*
X94070000Y-68245700D01*
X94650148Y-68130301D01*
X95104977Y-67826395D01*
X95119069Y-67901289D01*
X95228575Y-68071465D01*
X95395661Y-68185630D01*
X95594000Y-68225795D01*
X97626000Y-68225795D01*
X97811289Y-68190931D01*
X97981465Y-68081425D01*
X98095630Y-67914339D01*
X98135795Y-67716000D01*
X98135795Y-65684000D01*
X98100931Y-65498711D01*
X97991425Y-65328535D01*
X97824339Y-65214370D01*
X97626000Y-65174205D01*
X95594000Y-65174205D01*
X95408711Y-65209069D01*
X95238535Y-65318575D01*
X95124370Y-65485661D01*
X95106372Y-65574537D01*
X94650148Y-65269699D01*
X94070000Y-65154300D01*
X93489852Y-65269699D01*
X92998026Y-65598326D01*
X92669399Y-66090152D01*
X92554000Y-66670300D01*
X63105317Y-66670300D01*
X63209802Y-66513927D01*
X63313600Y-65992100D01*
X63313600Y-65627900D01*
X63209802Y-65106073D01*
X62914211Y-64663689D01*
X62471827Y-64368098D01*
X61950000Y-64264300D01*
X61428173Y-64368098D01*
X60985789Y-64663689D01*
X60690198Y-65106073D01*
X60680000Y-65157342D01*
X60669802Y-65106073D01*
X60374211Y-64663689D01*
X59931827Y-64368098D01*
X59410000Y-64264300D01*
X58888173Y-64368098D01*
X58445789Y-64663689D01*
X58243395Y-64966594D01*
X58243395Y-64794000D01*
X58208531Y-64608711D01*
X58099025Y-64438535D01*
X57931939Y-64324370D01*
X57733600Y-64284205D01*
X56006400Y-64284205D01*
X55821111Y-64319069D01*
X55650935Y-64428575D01*
X55536770Y-64595661D01*
X55496605Y-64794000D01*
X53847695Y-64794000D01*
X53847695Y-63632300D01*
X53812831Y-63447011D01*
X53703325Y-63276835D01*
X53536239Y-63162670D01*
X53337900Y-63122505D01*
X51102700Y-63122505D01*
X50917411Y-63157369D01*
X50747235Y-63266875D01*
X50633070Y-63433961D01*
X50592905Y-63632300D01*
X36480000Y-63632300D01*
X36480000Y-56873360D01*
X38998220Y-56873360D01*
X39113619Y-57453508D01*
X39417525Y-57908337D01*
X39342631Y-57922429D01*
X39172455Y-58031935D01*
X39058290Y-58199021D01*
X39018125Y-58397360D01*
X39018125Y-60429360D01*
X39052989Y-60614649D01*
X39162495Y-60784825D01*
X39329581Y-60898990D01*
X39527920Y-60939155D01*
X41559920Y-60939155D01*
X41745209Y-60904291D01*
X41915385Y-60794785D01*
X42029550Y-60627699D01*
X42046924Y-60541900D01*
X50986240Y-60541900D01*
X50986240Y-60601300D01*
X51101639Y-61181448D01*
X51430266Y-61673274D01*
X51922092Y-62001901D01*
X52502240Y-62117300D01*
X53082388Y-62001901D01*
X53537217Y-61697995D01*
X53551309Y-61772889D01*
X53660815Y-61943065D01*
X53827901Y-62057230D01*
X54026240Y-62097395D01*
X56058240Y-62097395D01*
X56243529Y-62062531D01*
X56413705Y-61953025D01*
X56527870Y-61785939D01*
X56568035Y-61587600D01*
X56568035Y-59555600D01*
X56533171Y-59370311D01*
X56486351Y-59297550D01*
X64009783Y-59297550D01*
X64199684Y-59757143D01*
X64551007Y-60109081D01*
X65010269Y-60299783D01*
X65469081Y-60300183D01*
X65368711Y-60319069D01*
X65198535Y-60428575D01*
X65084370Y-60595661D01*
X65044205Y-60794000D01*
X65044205Y-62826000D01*
X65079069Y-63011289D01*
X65188575Y-63181465D01*
X65355661Y-63295630D01*
X65444537Y-63313628D01*
X65139699Y-63769852D01*
X65024300Y-64350000D01*
X65139699Y-64930148D01*
X65468326Y-65421974D01*
X65960152Y-65750601D01*
X66540300Y-65866000D01*
X66599700Y-65866000D01*
X67179848Y-65750601D01*
X67671674Y-65421974D01*
X68000301Y-64930148D01*
X68014644Y-64858040D01*
X99069827Y-64858040D01*
X99221747Y-65225714D01*
X99502806Y-65507264D01*
X99870215Y-65659826D01*
X100268040Y-65660173D01*
X100635714Y-65508253D01*
X100917264Y-65227194D01*
X101069826Y-64859785D01*
X101070165Y-64470000D01*
X111494300Y-64470000D01*
X111609699Y-65050148D01*
X111938326Y-65541974D01*
X112430152Y-65870601D01*
X113010300Y-65986000D01*
X113069700Y-65986000D01*
X113649848Y-65870601D01*
X114141674Y-65541974D01*
X114470301Y-65050148D01*
X114585700Y-64470000D01*
X114470301Y-63889852D01*
X114166395Y-63435023D01*
X114241289Y-63420931D01*
X114411465Y-63311425D01*
X114525630Y-63144339D01*
X114565795Y-62946000D01*
X114565795Y-62715009D01*
X122437313Y-62715009D01*
X122611549Y-63135679D01*
X123033973Y-63607992D01*
X123604989Y-63882698D01*
X123856000Y-63774693D01*
X123856000Y-62464000D01*
X124164000Y-62464000D01*
X124164000Y-63774693D01*
X124415011Y-63882698D01*
X124986027Y-63607992D01*
X125408451Y-63135679D01*
X125582687Y-62715009D01*
X125473922Y-62464000D01*
X124164000Y-62464000D01*
X123856000Y-62464000D01*
X122546078Y-62464000D01*
X122437313Y-62715009D01*
X114565795Y-62715009D01*
X114565795Y-61904991D01*
X122437313Y-61904991D01*
X122546078Y-62156000D01*
X123856000Y-62156000D01*
X123856000Y-62136000D01*
X124164000Y-62136000D01*
X124164000Y-62156000D01*
X125473922Y-62156000D01*
X125582687Y-61904991D01*
X125408451Y-61484321D01*
X125209036Y-61261355D01*
X125211289Y-61260931D01*
X125381465Y-61151425D01*
X125495630Y-60984339D01*
X125535795Y-60786000D01*
X125535795Y-58754000D01*
X125500931Y-58568711D01*
X125391425Y-58398535D01*
X125224339Y-58284370D01*
X125026000Y-58244205D01*
X122994000Y-58244205D01*
X122808711Y-58279069D01*
X122638535Y-58388575D01*
X122524370Y-58555661D01*
X122484205Y-58754000D01*
X122484205Y-60786000D01*
X122519069Y-60971289D01*
X122628575Y-61141465D01*
X122795661Y-61255630D01*
X122812952Y-61259132D01*
X122611549Y-61484321D01*
X122437313Y-61904991D01*
X114565795Y-61904991D01*
X114565795Y-60914000D01*
X114530931Y-60728711D01*
X114421425Y-60558535D01*
X114254339Y-60444370D01*
X114056000Y-60404205D01*
X112024000Y-60404205D01*
X111838711Y-60439069D01*
X111668535Y-60548575D01*
X111554370Y-60715661D01*
X111514205Y-60914000D01*
X111514205Y-62946000D01*
X111549069Y-63131289D01*
X111658575Y-63301465D01*
X111825661Y-63415630D01*
X111914537Y-63433628D01*
X111609699Y-63889852D01*
X111494300Y-64470000D01*
X101070165Y-64470000D01*
X101070173Y-64461960D01*
X100918253Y-64094286D01*
X100637194Y-63812736D01*
X100269785Y-63660174D01*
X99871960Y-63659827D01*
X99504286Y-63811747D01*
X99222736Y-64092806D01*
X99070174Y-64460215D01*
X99069827Y-64858040D01*
X68014644Y-64858040D01*
X68115700Y-64350000D01*
X68000301Y-63769852D01*
X67696395Y-63315023D01*
X67771289Y-63300931D01*
X67941465Y-63191425D01*
X67953022Y-63174510D01*
X84000420Y-63174510D01*
X84000420Y-63825490D01*
X84072702Y-64188879D01*
X84278546Y-64496944D01*
X84586611Y-64702788D01*
X84950000Y-64775070D01*
X85313389Y-64702788D01*
X85486366Y-64587208D01*
X85827701Y-64805374D01*
X85904217Y-64810325D01*
X86066000Y-64693380D01*
X86066000Y-63654000D01*
X86046000Y-63654000D01*
X86046000Y-63346000D01*
X86066000Y-63346000D01*
X86066000Y-62306620D01*
X86374000Y-62306620D01*
X86374000Y-63346000D01*
X86394000Y-63346000D01*
X86394000Y-63654000D01*
X86374000Y-63654000D01*
X86374000Y-64693380D01*
X86535783Y-64810325D01*
X86612299Y-64805374D01*
X86953634Y-64587208D01*
X87126611Y-64702788D01*
X87490000Y-64775070D01*
X87853389Y-64702788D01*
X88161454Y-64496944D01*
X88367298Y-64188879D01*
X88439580Y-63825490D01*
X88439580Y-63174510D01*
X88367298Y-62811121D01*
X88161454Y-62503056D01*
X87853389Y-62297212D01*
X87490000Y-62224930D01*
X87126611Y-62297212D01*
X86953634Y-62412792D01*
X86612299Y-62194626D01*
X86535783Y-62189675D01*
X86374000Y-62306620D01*
X86066000Y-62306620D01*
X85904217Y-62189675D01*
X85827701Y-62194626D01*
X85486366Y-62412792D01*
X85313389Y-62297212D01*
X84950000Y-62224930D01*
X84586611Y-62297212D01*
X84278546Y-62503056D01*
X84072702Y-62811121D01*
X84000420Y-63174510D01*
X67953022Y-63174510D01*
X68055630Y-63024339D01*
X68095795Y-62826000D01*
X68095795Y-60794000D01*
X68060931Y-60608711D01*
X67951425Y-60438535D01*
X67784339Y-60324370D01*
X67586000Y-60284205D01*
X65554000Y-60284205D01*
X65539865Y-60286865D01*
X65967143Y-60110316D01*
X66319081Y-59758993D01*
X66509783Y-59299731D01*
X66510217Y-58802450D01*
X66320316Y-58342857D01*
X65968993Y-57990919D01*
X65509731Y-57800217D01*
X65012450Y-57799783D01*
X64552857Y-57989684D01*
X64200919Y-58341007D01*
X64010217Y-58800269D01*
X64009783Y-59297550D01*
X56486351Y-59297550D01*
X56423665Y-59200135D01*
X56256579Y-59085970D01*
X56058240Y-59045805D01*
X54026240Y-59045805D01*
X53840951Y-59080669D01*
X53670775Y-59190175D01*
X53556610Y-59357261D01*
X53538612Y-59446137D01*
X53082388Y-59141299D01*
X52502240Y-59025900D01*
X51922092Y-59141299D01*
X51430266Y-59469926D01*
X51101639Y-59961752D01*
X50986240Y-60541900D01*
X42046924Y-60541900D01*
X42069715Y-60429360D01*
X42069715Y-58397360D01*
X42034851Y-58212071D01*
X41925345Y-58041895D01*
X41758259Y-57927730D01*
X41669383Y-57909732D01*
X41974221Y-57453508D01*
X42089620Y-56873360D01*
X42043294Y-56640460D01*
X51067520Y-56640460D01*
X51067520Y-56699860D01*
X51182919Y-57280008D01*
X51511546Y-57771834D01*
X52003372Y-58100461D01*
X52583520Y-58215860D01*
X53163668Y-58100461D01*
X53618497Y-57796555D01*
X53632589Y-57871449D01*
X53742095Y-58041625D01*
X53909181Y-58155790D01*
X54107520Y-58195955D01*
X56139520Y-58195955D01*
X56324809Y-58161091D01*
X56494985Y-58051585D01*
X56609150Y-57884499D01*
X56649315Y-57686160D01*
X56649315Y-55654160D01*
X56614451Y-55468871D01*
X56504945Y-55298695D01*
X56337859Y-55184530D01*
X56139520Y-55144365D01*
X55033665Y-55144365D01*
X55059081Y-55118993D01*
X55091881Y-55040000D01*
X69014300Y-55040000D01*
X69129699Y-55620148D01*
X69433605Y-56074977D01*
X69358711Y-56089069D01*
X69188535Y-56198575D01*
X69074370Y-56365661D01*
X69034205Y-56564000D01*
X69034205Y-58596000D01*
X69069069Y-58781289D01*
X69178575Y-58951465D01*
X69345661Y-59065630D01*
X69544000Y-59105795D01*
X71576000Y-59105795D01*
X71761289Y-59070931D01*
X71931465Y-58961425D01*
X72045630Y-58794339D01*
X72085795Y-58596000D01*
X72085795Y-56564000D01*
X72050931Y-56378711D01*
X71941425Y-56208535D01*
X71774339Y-56094370D01*
X71685463Y-56076372D01*
X71990301Y-55620148D01*
X72099732Y-55070000D01*
X72754300Y-55070000D01*
X72869699Y-55650148D01*
X73173605Y-56104977D01*
X73098711Y-56119069D01*
X72928535Y-56228575D01*
X72814370Y-56395661D01*
X72774205Y-56594000D01*
X72774205Y-58626000D01*
X72809069Y-58811289D01*
X72918575Y-58981465D01*
X73085661Y-59095630D01*
X73284000Y-59135795D01*
X75316000Y-59135795D01*
X75501289Y-59100931D01*
X75671465Y-58991425D01*
X75785630Y-58824339D01*
X75825795Y-58626000D01*
X75825795Y-57600000D01*
X79424300Y-57600000D01*
X79528098Y-58121827D01*
X79823689Y-58564211D01*
X80266073Y-58859802D01*
X80317342Y-58870000D01*
X80266073Y-58880198D01*
X79823689Y-59175789D01*
X79528098Y-59618173D01*
X79424300Y-60140000D01*
X79528098Y-60661827D01*
X79823689Y-61104211D01*
X80266073Y-61399802D01*
X80787900Y-61503600D01*
X81152100Y-61503600D01*
X81673927Y-61399802D01*
X81901055Y-61248040D01*
X86549827Y-61248040D01*
X86701747Y-61615714D01*
X86982806Y-61897264D01*
X87350215Y-62049826D01*
X87748040Y-62050173D01*
X88115714Y-61898253D01*
X88306259Y-61708040D01*
X93719827Y-61708040D01*
X93871747Y-62075714D01*
X94152806Y-62357264D01*
X94520215Y-62509826D01*
X94918040Y-62510173D01*
X95285714Y-62358253D01*
X95567264Y-62077194D01*
X95719826Y-61709785D01*
X95720173Y-61311960D01*
X95568253Y-60944286D01*
X95287194Y-60662736D01*
X94919785Y-60510174D01*
X94521960Y-60509827D01*
X94154286Y-60661747D01*
X93872736Y-60942806D01*
X93720174Y-61310215D01*
X93719827Y-61708040D01*
X88306259Y-61708040D01*
X88397264Y-61617194D01*
X88549826Y-61249785D01*
X88550173Y-60851960D01*
X88398253Y-60484286D01*
X88117194Y-60202736D01*
X87749785Y-60050174D01*
X87351960Y-60049827D01*
X86984286Y-60201747D01*
X86702736Y-60482806D01*
X86550174Y-60850215D01*
X86549827Y-61248040D01*
X81901055Y-61248040D01*
X82116311Y-61104211D01*
X82411902Y-60661827D01*
X82515700Y-60140000D01*
X82411902Y-59618173D01*
X82116311Y-59175789D01*
X81673927Y-58880198D01*
X81622658Y-58870000D01*
X81673927Y-58859802D01*
X82107198Y-58570300D01*
X87154000Y-58570300D01*
X87154000Y-58629700D01*
X87269399Y-59209848D01*
X87598026Y-59701674D01*
X88089852Y-60030301D01*
X88670000Y-60145700D01*
X89250148Y-60030301D01*
X89704977Y-59726395D01*
X89719069Y-59801289D01*
X89828575Y-59971465D01*
X89995661Y-60085630D01*
X90194000Y-60125795D01*
X92226000Y-60125795D01*
X92411289Y-60090931D01*
X92581465Y-59981425D01*
X92695630Y-59814339D01*
X92735795Y-59616000D01*
X92735795Y-57584000D01*
X92700931Y-57398711D01*
X92591425Y-57228535D01*
X92424339Y-57114370D01*
X92226000Y-57074205D01*
X90194000Y-57074205D01*
X90008711Y-57109069D01*
X89838535Y-57218575D01*
X89724370Y-57385661D01*
X89706372Y-57474537D01*
X89250148Y-57169699D01*
X88670000Y-57054300D01*
X88089852Y-57169699D01*
X87598026Y-57498326D01*
X87269399Y-57990152D01*
X87154000Y-58570300D01*
X82107198Y-58570300D01*
X82116311Y-58564211D01*
X82411902Y-58121827D01*
X82515700Y-57600000D01*
X82411902Y-57078173D01*
X82116311Y-56635789D01*
X81813406Y-56433395D01*
X81986000Y-56433395D01*
X82171289Y-56398531D01*
X82292862Y-56320300D01*
X107804000Y-56320300D01*
X107804000Y-56379700D01*
X107919399Y-56959848D01*
X108248026Y-57451674D01*
X108739852Y-57780301D01*
X109320000Y-57895700D01*
X109900148Y-57780301D01*
X110354977Y-57476395D01*
X110369069Y-57551289D01*
X110478575Y-57721465D01*
X110645661Y-57835630D01*
X110844000Y-57875795D01*
X111271093Y-57875795D01*
X110922857Y-58019684D01*
X110570919Y-58371007D01*
X110380217Y-58830269D01*
X110379783Y-59327550D01*
X110569684Y-59787143D01*
X110921007Y-60139081D01*
X111380269Y-60329783D01*
X111877550Y-60330217D01*
X112337143Y-60140316D01*
X112689081Y-59788993D01*
X112879783Y-59329731D01*
X112880217Y-58832450D01*
X112690316Y-58372857D01*
X112338993Y-58020919D01*
X111989495Y-57875795D01*
X112876000Y-57875795D01*
X113061289Y-57840931D01*
X113231465Y-57731425D01*
X113345630Y-57564339D01*
X113385795Y-57366000D01*
X113385795Y-55390000D01*
X123704300Y-55390000D01*
X123819699Y-55970148D01*
X124148326Y-56461974D01*
X124640152Y-56790601D01*
X125220300Y-56906000D01*
X125279700Y-56906000D01*
X125859848Y-56790601D01*
X126351674Y-56461974D01*
X126680301Y-55970148D01*
X126795700Y-55390000D01*
X126680301Y-54809852D01*
X126376395Y-54355023D01*
X126451289Y-54340931D01*
X126621465Y-54231425D01*
X126735630Y-54064339D01*
X126775795Y-53866000D01*
X126775795Y-51834000D01*
X126740931Y-51648711D01*
X126631425Y-51478535D01*
X126464339Y-51364370D01*
X126266000Y-51324205D01*
X124234000Y-51324205D01*
X124048711Y-51359069D01*
X123878535Y-51468575D01*
X123764370Y-51635661D01*
X123724205Y-51834000D01*
X123724205Y-53866000D01*
X123759069Y-54051289D01*
X123868575Y-54221465D01*
X124035661Y-54335630D01*
X124124537Y-54353628D01*
X123819699Y-54809852D01*
X123704300Y-55390000D01*
X113385795Y-55390000D01*
X113385795Y-55334000D01*
X113350931Y-55148711D01*
X113241425Y-54978535D01*
X113074339Y-54864370D01*
X112876000Y-54824205D01*
X110844000Y-54824205D01*
X110658711Y-54859069D01*
X110488535Y-54968575D01*
X110374370Y-55135661D01*
X110356372Y-55224537D01*
X109900148Y-54919699D01*
X109320000Y-54804300D01*
X108739852Y-54919699D01*
X108248026Y-55248326D01*
X107919399Y-55740152D01*
X107804000Y-56320300D01*
X82292862Y-56320300D01*
X82341465Y-56289025D01*
X82455630Y-56121939D01*
X82495795Y-55923600D01*
X82495795Y-54196400D01*
X82460931Y-54011111D01*
X82351425Y-53840935D01*
X82184339Y-53726770D01*
X81986000Y-53686605D01*
X79954000Y-53686605D01*
X79768711Y-53721469D01*
X79598535Y-53830975D01*
X79484370Y-53998061D01*
X79444205Y-54196400D01*
X79444205Y-55923600D01*
X79479069Y-56108889D01*
X79588575Y-56279065D01*
X79755661Y-56393230D01*
X79954000Y-56433395D01*
X80126594Y-56433395D01*
X79823689Y-56635789D01*
X79528098Y-57078173D01*
X79424300Y-57600000D01*
X75825795Y-57600000D01*
X75825795Y-56594000D01*
X75790931Y-56408711D01*
X75681425Y-56238535D01*
X75514339Y-56124370D01*
X75425463Y-56106372D01*
X75730301Y-55650148D01*
X75845700Y-55070000D01*
X75730301Y-54489852D01*
X75401674Y-53998026D01*
X74909848Y-53669399D01*
X74329700Y-53554000D01*
X74270300Y-53554000D01*
X73690152Y-53669399D01*
X73198326Y-53998026D01*
X72869699Y-54489852D01*
X72754300Y-55070000D01*
X72099732Y-55070000D01*
X72105700Y-55040000D01*
X71990301Y-54459852D01*
X71661674Y-53968026D01*
X71169848Y-53639399D01*
X70589700Y-53524000D01*
X70530300Y-53524000D01*
X69950152Y-53639399D01*
X69458326Y-53968026D01*
X69129699Y-54459852D01*
X69014300Y-55040000D01*
X55091881Y-55040000D01*
X55249783Y-54659731D01*
X55250217Y-54162450D01*
X55060316Y-53702857D01*
X54755543Y-53397550D01*
X96609783Y-53397550D01*
X96799684Y-53857143D01*
X97151007Y-54209081D01*
X97610269Y-54399783D01*
X98107550Y-54400217D01*
X98567143Y-54210316D01*
X98919081Y-53858993D01*
X99109783Y-53399731D01*
X99110217Y-52902450D01*
X99043218Y-52740300D01*
X107784000Y-52740300D01*
X107784000Y-52799700D01*
X107899399Y-53379848D01*
X108228026Y-53871674D01*
X108719852Y-54200301D01*
X109300000Y-54315700D01*
X109880148Y-54200301D01*
X110334977Y-53896395D01*
X110349069Y-53971289D01*
X110458575Y-54141465D01*
X110625661Y-54255630D01*
X110824000Y-54295795D01*
X112856000Y-54295795D01*
X113041289Y-54260931D01*
X113211465Y-54151425D01*
X113325630Y-53984339D01*
X113365795Y-53786000D01*
X113365795Y-51754000D01*
X113330931Y-51568711D01*
X113221425Y-51398535D01*
X113054339Y-51284370D01*
X112856000Y-51244205D01*
X110824000Y-51244205D01*
X110638711Y-51279069D01*
X110468535Y-51388575D01*
X110354370Y-51555661D01*
X110336372Y-51644537D01*
X109880148Y-51339699D01*
X109300000Y-51224300D01*
X108719852Y-51339699D01*
X108228026Y-51668326D01*
X107899399Y-52160152D01*
X107784000Y-52740300D01*
X99043218Y-52740300D01*
X98920316Y-52442857D01*
X98568993Y-52090919D01*
X98109731Y-51900217D01*
X97612450Y-51899783D01*
X97152857Y-52089684D01*
X96800919Y-52441007D01*
X96610217Y-52900269D01*
X96609783Y-53397550D01*
X54755543Y-53397550D01*
X54708993Y-53350919D01*
X54249731Y-53160217D01*
X53752450Y-53159783D01*
X53292857Y-53349684D01*
X52940919Y-53701007D01*
X52750217Y-54160269D01*
X52749783Y-54657550D01*
X52939684Y-55117143D01*
X53037042Y-55214671D01*
X52583520Y-55124460D01*
X52003372Y-55239859D01*
X51511546Y-55568486D01*
X51182919Y-56060312D01*
X51067520Y-56640460D01*
X42043294Y-56640460D01*
X41974221Y-56293212D01*
X41645594Y-55801386D01*
X41153768Y-55472759D01*
X40573620Y-55357360D01*
X40514220Y-55357360D01*
X39934072Y-55472759D01*
X39442246Y-55801386D01*
X39113619Y-56293212D01*
X38998220Y-56873360D01*
X36480000Y-56873360D01*
X36480000Y-52658040D01*
X38739827Y-52658040D01*
X38891747Y-53025714D01*
X39172806Y-53307264D01*
X39540215Y-53459826D01*
X39938040Y-53460173D01*
X40305714Y-53308253D01*
X40587264Y-53027194D01*
X40739826Y-52659785D01*
X40740173Y-52261960D01*
X40588253Y-51894286D01*
X40307194Y-51612736D01*
X39939785Y-51460174D01*
X39541960Y-51459827D01*
X39174286Y-51611747D01*
X38892736Y-51892806D01*
X38740174Y-52260215D01*
X38739827Y-52658040D01*
X36480000Y-52658040D01*
X36480000Y-51407550D01*
X85779783Y-51407550D01*
X85969684Y-51867143D01*
X86321007Y-52219081D01*
X86780269Y-52409783D01*
X87277550Y-52410217D01*
X87737143Y-52220316D01*
X88089081Y-51868993D01*
X88279783Y-51409731D01*
X88280217Y-50912450D01*
X88090316Y-50452857D01*
X87738993Y-50100919D01*
X87279731Y-49910217D01*
X86782450Y-49909783D01*
X86322857Y-50099684D01*
X85970919Y-50451007D01*
X85780217Y-50910269D01*
X85779783Y-51407550D01*
X36480000Y-51407550D01*
X36480000Y-44991049D01*
X37536189Y-44991049D01*
X37766178Y-45473641D01*
X38187371Y-45863838D01*
X38353495Y-45925330D01*
X37963689Y-46185789D01*
X37668098Y-46628173D01*
X37564300Y-47150000D01*
X37668098Y-47671827D01*
X37963689Y-48114211D01*
X38266594Y-48316605D01*
X38094000Y-48316605D01*
X37908711Y-48351469D01*
X37738535Y-48460975D01*
X37624370Y-48628061D01*
X37584205Y-48826400D01*
X37584205Y-50553600D01*
X37619069Y-50738889D01*
X37728575Y-50909065D01*
X37895661Y-51023230D01*
X38094000Y-51063395D01*
X40126000Y-51063395D01*
X40311289Y-51028531D01*
X40481465Y-50919025D01*
X40595630Y-50751939D01*
X40635795Y-50553600D01*
X40635795Y-49978040D01*
X63979827Y-49978040D01*
X64131747Y-50345714D01*
X64412806Y-50627264D01*
X64780215Y-50779826D01*
X65178040Y-50780173D01*
X65545714Y-50628253D01*
X65827264Y-50347194D01*
X65979826Y-49979785D01*
X65980173Y-49581960D01*
X65828253Y-49214286D01*
X65547194Y-48932736D01*
X65179785Y-48780174D01*
X64781960Y-48779827D01*
X64414286Y-48931747D01*
X64132736Y-49212806D01*
X63980174Y-49580215D01*
X63979827Y-49978040D01*
X40635795Y-49978040D01*
X40635795Y-48826400D01*
X40600931Y-48641111D01*
X40491425Y-48470935D01*
X40324339Y-48356770D01*
X40126000Y-48316605D01*
X39953406Y-48316605D01*
X40256311Y-48114211D01*
X40551902Y-47671827D01*
X40655700Y-47150000D01*
X40551902Y-46628173D01*
X40256311Y-46185789D01*
X39866505Y-45925330D01*
X40032629Y-45863838D01*
X40036771Y-45860000D01*
X58614300Y-45860000D01*
X58729699Y-46440148D01*
X59058326Y-46931974D01*
X59550152Y-47260601D01*
X60130300Y-47376000D01*
X60189700Y-47376000D01*
X60769848Y-47260601D01*
X61261674Y-46931974D01*
X61590301Y-46440148D01*
X61636080Y-46210000D01*
X75744300Y-46210000D01*
X75859699Y-46790148D01*
X76163605Y-47244977D01*
X76088711Y-47259069D01*
X75918535Y-47368575D01*
X75804370Y-47535661D01*
X75764205Y-47734000D01*
X75764205Y-49766000D01*
X75799069Y-49951289D01*
X75908575Y-50121465D01*
X76075661Y-50235630D01*
X76274000Y-50275795D01*
X78306000Y-50275795D01*
X78491289Y-50240931D01*
X78661465Y-50131425D01*
X78775630Y-49964339D01*
X78815795Y-49766000D01*
X78815795Y-49337550D01*
X121359783Y-49337550D01*
X121549684Y-49797143D01*
X121901007Y-50149081D01*
X122360269Y-50339783D01*
X122857550Y-50340217D01*
X123317143Y-50150316D01*
X123669081Y-49798993D01*
X123859783Y-49339731D01*
X123860217Y-48842450D01*
X123670316Y-48382857D01*
X123318993Y-48030919D01*
X122859731Y-47840217D01*
X122362450Y-47839783D01*
X121902857Y-48029684D01*
X121550919Y-48381007D01*
X121360217Y-48840269D01*
X121359783Y-49337550D01*
X78815795Y-49337550D01*
X78815795Y-47734000D01*
X78780931Y-47548711D01*
X78671425Y-47378535D01*
X78504339Y-47264370D01*
X78415463Y-47246372D01*
X78720301Y-46790148D01*
X78835700Y-46210000D01*
X78720301Y-45629852D01*
X78391674Y-45138026D01*
X77899848Y-44809399D01*
X77319700Y-44694000D01*
X77260300Y-44694000D01*
X76680152Y-44809399D01*
X76188326Y-45138026D01*
X75859699Y-45629852D01*
X75744300Y-46210000D01*
X61636080Y-46210000D01*
X61705700Y-45860000D01*
X61590301Y-45279852D01*
X61286395Y-44825023D01*
X61361289Y-44810931D01*
X61531465Y-44701425D01*
X61645630Y-44534339D01*
X61685795Y-44336000D01*
X61685795Y-43437900D01*
X64226400Y-43437900D01*
X64226400Y-43802100D01*
X64330198Y-44323927D01*
X64625789Y-44766311D01*
X65068173Y-45061902D01*
X65590000Y-45165700D01*
X66111827Y-45061902D01*
X66554211Y-44766311D01*
X66849802Y-44323927D01*
X66860000Y-44272658D01*
X66870198Y-44323927D01*
X67165789Y-44766311D01*
X67608173Y-45061902D01*
X68130000Y-45165700D01*
X68651827Y-45061902D01*
X69094211Y-44766311D01*
X69389802Y-44323927D01*
X69400000Y-44272658D01*
X69410198Y-44323927D01*
X69705789Y-44766311D01*
X70148173Y-45061902D01*
X70670000Y-45165700D01*
X71191827Y-45061902D01*
X71634211Y-44766311D01*
X71836605Y-44463406D01*
X71836605Y-44636000D01*
X71871469Y-44821289D01*
X71980975Y-44991465D01*
X72148061Y-45105630D01*
X72346400Y-45145795D01*
X74073600Y-45145795D01*
X74258889Y-45110931D01*
X74429065Y-45001425D01*
X74543230Y-44834339D01*
X74583395Y-44636000D01*
X74583395Y-42604000D01*
X74548531Y-42418711D01*
X74439025Y-42248535D01*
X74271939Y-42134370D01*
X74073600Y-42094205D01*
X72346400Y-42094205D01*
X72161111Y-42129069D01*
X71990935Y-42238575D01*
X71876770Y-42405661D01*
X71836605Y-42604000D01*
X71836605Y-42776594D01*
X71634211Y-42473689D01*
X71191827Y-42178098D01*
X70670000Y-42074300D01*
X70148173Y-42178098D01*
X69705789Y-42473689D01*
X69410198Y-42916073D01*
X69400000Y-42967342D01*
X69389802Y-42916073D01*
X69094211Y-42473689D01*
X68651827Y-42178098D01*
X68130000Y-42074300D01*
X67608173Y-42178098D01*
X67165789Y-42473689D01*
X66870198Y-42916073D01*
X66860000Y-42967342D01*
X66849802Y-42916073D01*
X66554211Y-42473689D01*
X66111827Y-42178098D01*
X65590000Y-42074300D01*
X65068173Y-42178098D01*
X64625789Y-42473689D01*
X64330198Y-42916073D01*
X64226400Y-43437900D01*
X61685795Y-43437900D01*
X61685795Y-42304000D01*
X61650931Y-42118711D01*
X61541425Y-41948535D01*
X61374339Y-41834370D01*
X61176000Y-41794205D01*
X59144000Y-41794205D01*
X58958711Y-41829069D01*
X58788535Y-41938575D01*
X58674370Y-42105661D01*
X58634205Y-42304000D01*
X58634205Y-44336000D01*
X58669069Y-44521289D01*
X58778575Y-44691465D01*
X58945661Y-44805630D01*
X59034537Y-44823628D01*
X58729699Y-45279852D01*
X58614300Y-45860000D01*
X40036771Y-45860000D01*
X40453822Y-45473641D01*
X40683811Y-44991049D01*
X40572983Y-44764000D01*
X39264000Y-44764000D01*
X39264000Y-44784000D01*
X38956000Y-44784000D01*
X38956000Y-44764000D01*
X37647017Y-44764000D01*
X37536189Y-44991049D01*
X36480000Y-44991049D01*
X36480000Y-42451049D01*
X37536189Y-42451049D01*
X37766178Y-42933641D01*
X38187371Y-43323838D01*
X38231034Y-43340000D01*
X38187371Y-43356162D01*
X37766178Y-43746359D01*
X37536189Y-44228951D01*
X37647017Y-44456000D01*
X38956000Y-44456000D01*
X38956000Y-42224000D01*
X39264000Y-42224000D01*
X39264000Y-44456000D01*
X40572983Y-44456000D01*
X40683811Y-44228951D01*
X40453822Y-43746359D01*
X40032629Y-43356162D01*
X39988966Y-43340000D01*
X40032629Y-43323838D01*
X40453822Y-42933641D01*
X40683811Y-42451049D01*
X40572983Y-42224000D01*
X39264000Y-42224000D01*
X38956000Y-42224000D01*
X37647017Y-42224000D01*
X37536189Y-42451049D01*
X36480000Y-42451049D01*
X36480000Y-41688951D01*
X37536189Y-41688951D01*
X37647017Y-41916000D01*
X38956000Y-41916000D01*
X38956000Y-40750484D01*
X39264000Y-40750484D01*
X39264000Y-41916000D01*
X40572983Y-41916000D01*
X40683811Y-41688951D01*
X40453822Y-41206359D01*
X40032629Y-40816162D01*
X39494176Y-40616851D01*
X39264000Y-40750484D01*
X38956000Y-40750484D01*
X38725824Y-40616851D01*
X38187371Y-40816162D01*
X37766178Y-41206359D01*
X37536189Y-41688951D01*
X36480000Y-41688951D01*
X36480000Y-40400000D01*
X89516166Y-40400000D01*
X89148507Y-40767018D01*
D41*
G36*
X98002800Y-126569300D02*
X37284100Y-126569300D01*
X37284100Y-116256900D01*
X39110107Y-116256900D01*
X39223146Y-116825185D01*
X39545053Y-117306954D01*
X39586652Y-117334750D01*
X39538883Y-117343738D01*
X39322759Y-117482810D01*
X39177769Y-117695010D01*
X39126760Y-117946900D01*
X39126760Y-119646900D01*
X39171038Y-119882217D01*
X39310110Y-120098341D01*
X39522310Y-120243331D01*
X39774200Y-120294340D01*
X41474200Y-120294340D01*
X41709517Y-120250062D01*
X41925641Y-120110990D01*
X42070631Y-119898790D01*
X42114490Y-119682207D01*
X59167100Y-119682207D01*
X59167100Y-119740393D01*
X59280139Y-120308678D01*
X59602046Y-120790447D01*
X60083815Y-121112354D01*
X60652100Y-121225393D01*
X61220385Y-121112354D01*
X61702154Y-120790447D01*
X61729950Y-120748848D01*
X61738938Y-120796617D01*
X61878010Y-121012741D01*
X62090210Y-121157731D01*
X62342100Y-121208740D01*
X64042100Y-121208740D01*
X64277417Y-121164462D01*
X64384431Y-121095600D01*
X88843307Y-121095600D01*
X88956346Y-121663885D01*
X89278253Y-122145654D01*
X89319852Y-122173450D01*
X89272083Y-122182438D01*
X89055959Y-122321510D01*
X88910969Y-122533710D01*
X88859960Y-122785600D01*
X88859960Y-124485600D01*
X88904238Y-124720917D01*
X89043310Y-124937041D01*
X89255510Y-125082031D01*
X89507400Y-125133040D01*
X91207400Y-125133040D01*
X91442717Y-125088762D01*
X91658841Y-124949690D01*
X91803831Y-124737490D01*
X91854840Y-124485600D01*
X91854840Y-122785600D01*
X91828627Y-122646290D01*
X94427724Y-122646290D01*
X94597555Y-123056324D01*
X94987842Y-123484583D01*
X95512308Y-123730886D01*
X95742200Y-123610219D01*
X95742200Y-122416400D01*
X95996200Y-122416400D01*
X95996200Y-123610219D01*
X96226092Y-123730886D01*
X96750558Y-123484583D01*
X97140845Y-123056324D01*
X97310676Y-122646290D01*
X97189355Y-122416400D01*
X95996200Y-122416400D01*
X95742200Y-122416400D01*
X94549045Y-122416400D01*
X94427724Y-122646290D01*
X91828627Y-122646290D01*
X91810562Y-122550283D01*
X91671490Y-122334159D01*
X91459290Y-122189169D01*
X91391859Y-122175514D01*
X91436547Y-122145654D01*
X91758454Y-121663885D01*
X91871493Y-121095600D01*
X91758454Y-120527315D01*
X91436547Y-120045546D01*
X90954778Y-119723639D01*
X90386493Y-119610600D01*
X90328307Y-119610600D01*
X89760022Y-119723639D01*
X89278253Y-120045546D01*
X88956346Y-120527315D01*
X88843307Y-121095600D01*
X64384431Y-121095600D01*
X64493541Y-121025390D01*
X64638531Y-120813190D01*
X64689540Y-120561300D01*
X64689540Y-118899400D01*
X94371760Y-118899400D01*
X94371760Y-120599400D01*
X94416038Y-120834717D01*
X94555110Y-121050841D01*
X94767310Y-121195831D01*
X94875307Y-121217701D01*
X94597555Y-121522476D01*
X94427724Y-121932510D01*
X94549045Y-122162400D01*
X95742200Y-122162400D01*
X95742200Y-122142400D01*
X95996200Y-122142400D01*
X95996200Y-122162400D01*
X97189355Y-122162400D01*
X97310676Y-121932510D01*
X97140845Y-121522476D01*
X96864699Y-121219463D01*
X96954517Y-121202562D01*
X97170641Y-121063490D01*
X97315631Y-120851290D01*
X97366640Y-120599400D01*
X97366640Y-118899400D01*
X97322362Y-118664083D01*
X97183290Y-118447959D01*
X96971090Y-118302969D01*
X96719200Y-118251960D01*
X95019200Y-118251960D01*
X94783883Y-118296238D01*
X94567759Y-118435310D01*
X94422769Y-118647510D01*
X94371760Y-118899400D01*
X64689540Y-118899400D01*
X64689540Y-118861300D01*
X64645262Y-118625983D01*
X64506190Y-118409859D01*
X64293990Y-118264869D01*
X64042100Y-118213860D01*
X62342100Y-118213860D01*
X62106783Y-118258138D01*
X61890659Y-118397210D01*
X61745669Y-118609410D01*
X61732014Y-118676841D01*
X61702154Y-118632153D01*
X61220385Y-118310246D01*
X60652100Y-118197207D01*
X60083815Y-118310246D01*
X59602046Y-118632153D01*
X59280139Y-119113922D01*
X59167100Y-119682207D01*
X42114490Y-119682207D01*
X42121640Y-119646900D01*
X42121640Y-117946900D01*
X42077362Y-117711583D01*
X41938290Y-117495459D01*
X41726090Y-117350469D01*
X41658659Y-117336814D01*
X41703347Y-117306954D01*
X42025254Y-116825185D01*
X42138293Y-116256900D01*
X42079457Y-115961107D01*
X59141700Y-115961107D01*
X59141700Y-116019293D01*
X59254739Y-116587578D01*
X59576646Y-117069347D01*
X60058415Y-117391254D01*
X60626700Y-117504293D01*
X61194985Y-117391254D01*
X61676754Y-117069347D01*
X61704550Y-117027748D01*
X61713538Y-117075517D01*
X61852610Y-117291641D01*
X62064810Y-117436631D01*
X62316700Y-117487640D01*
X64016700Y-117487640D01*
X64172708Y-117458285D01*
X67598060Y-117458285D01*
X67808469Y-117967515D01*
X68197736Y-118357461D01*
X68706598Y-118568759D01*
X69257585Y-118569240D01*
X69766815Y-118358831D01*
X70156761Y-117969564D01*
X70368059Y-117460702D01*
X70368540Y-116909715D01*
X70158131Y-116400485D01*
X69768864Y-116010539D01*
X69260002Y-115799241D01*
X68709015Y-115798760D01*
X68199785Y-116009169D01*
X67809839Y-116398436D01*
X67598541Y-116907298D01*
X67598060Y-117458285D01*
X64172708Y-117458285D01*
X64252017Y-117443362D01*
X64468141Y-117304290D01*
X64613131Y-117092090D01*
X64664140Y-116840200D01*
X64664140Y-115140200D01*
X64619862Y-114904883D01*
X64480790Y-114688759D01*
X64268590Y-114543769D01*
X64016700Y-114492760D01*
X62316700Y-114492760D01*
X62081383Y-114537038D01*
X61865259Y-114676110D01*
X61720269Y-114888310D01*
X61706614Y-114955741D01*
X61676754Y-114911053D01*
X61194985Y-114589146D01*
X60626700Y-114476107D01*
X60058415Y-114589146D01*
X59576646Y-114911053D01*
X59254739Y-115392822D01*
X59141700Y-115961107D01*
X42079457Y-115961107D01*
X42025254Y-115688615D01*
X41703347Y-115206846D01*
X41221578Y-114884939D01*
X40653293Y-114771900D01*
X40595107Y-114771900D01*
X40026822Y-114884939D01*
X39545053Y-115206846D01*
X39223146Y-115688615D01*
X39110107Y-116256900D01*
X37284100Y-116256900D01*
X37284100Y-109614800D01*
X61665307Y-109614800D01*
X61778346Y-110183085D01*
X62100253Y-110664854D01*
X62141852Y-110692650D01*
X62094083Y-110701638D01*
X61877959Y-110840710D01*
X61732969Y-111052910D01*
X61681960Y-111304800D01*
X61681960Y-113004800D01*
X61726238Y-113240117D01*
X61865310Y-113456241D01*
X62077510Y-113601231D01*
X62329400Y-113652240D01*
X64029400Y-113652240D01*
X64264717Y-113607962D01*
X64480841Y-113468890D01*
X64625831Y-113256690D01*
X64676840Y-113004800D01*
X64676840Y-111304800D01*
X64632562Y-111069483D01*
X64493490Y-110853359D01*
X64281290Y-110708369D01*
X64213859Y-110694714D01*
X64258547Y-110664854D01*
X64580454Y-110183085D01*
X64693493Y-109614800D01*
X64580454Y-109046515D01*
X64258547Y-108564746D01*
X63776778Y-108242839D01*
X63208493Y-108129800D01*
X63150307Y-108129800D01*
X62582022Y-108242839D01*
X62100253Y-108564746D01*
X61778346Y-109046515D01*
X61665307Y-109614800D01*
X37284100Y-109614800D01*
X37284100Y-100111507D01*
X38491500Y-100111507D01*
X38491500Y-100169693D01*
X38604539Y-100737978D01*
X38926446Y-101219747D01*
X39408215Y-101541654D01*
X39976500Y-101654693D01*
X40544785Y-101541654D01*
X41026554Y-101219747D01*
X41246500Y-100890574D01*
X41466446Y-101219747D01*
X41612480Y-101317323D01*
X41307455Y-101377996D01*
X40939234Y-101624033D01*
X39364434Y-103198834D01*
X39359347Y-103206447D01*
X39351734Y-103211534D01*
X39105697Y-103579755D01*
X39019300Y-104014100D01*
X39032000Y-104077947D01*
X39032000Y-105461900D01*
X39118397Y-105896246D01*
X39364434Y-106264466D01*
X39732654Y-106510503D01*
X40167000Y-106596900D01*
X40601346Y-106510503D01*
X40969566Y-106264466D01*
X41215603Y-105896246D01*
X41302000Y-105461900D01*
X41302000Y-104471532D01*
X42211933Y-103561600D01*
X51749168Y-103561600D01*
X52316200Y-104128632D01*
X52316200Y-104725300D01*
X52402597Y-105159646D01*
X52604557Y-105461900D01*
X52648634Y-105527866D01*
X54083734Y-106962966D01*
X54451954Y-107209003D01*
X54886300Y-107295400D01*
X64322168Y-107295400D01*
X65600400Y-108573632D01*
X65600400Y-109347753D01*
X65587700Y-109411600D01*
X65600400Y-109475447D01*
X65600400Y-110808600D01*
X65686797Y-111242946D01*
X65853165Y-111491933D01*
X65932834Y-111611166D01*
X66936133Y-112614466D01*
X66936136Y-112614468D01*
X67418733Y-113097066D01*
X67657628Y-113256690D01*
X67786954Y-113343103D01*
X68221300Y-113429500D01*
X75637868Y-113429500D01*
X77919400Y-115711032D01*
X77919400Y-116239500D01*
X77022400Y-116239500D01*
X76588054Y-116325897D01*
X76219834Y-116571934D01*
X75973797Y-116940154D01*
X75887400Y-117374500D01*
X75973797Y-117808846D01*
X76219834Y-118177066D01*
X76588054Y-118423103D01*
X77022400Y-118509500D01*
X78622600Y-118509500D01*
X79056946Y-118423103D01*
X79425166Y-118177066D01*
X79818692Y-117783540D01*
X79856966Y-117757966D01*
X80103003Y-117389746D01*
X80189400Y-116955400D01*
X80189400Y-115711032D01*
X80591332Y-115309100D01*
X87576100Y-115309100D01*
X88010446Y-115222703D01*
X88378666Y-114976666D01*
X88624703Y-114608446D01*
X88711100Y-114174100D01*
X88624703Y-113739754D01*
X88378666Y-113371534D01*
X88010446Y-113125497D01*
X87576100Y-113039100D01*
X84929597Y-113039100D01*
X85003061Y-112965764D01*
X85214359Y-112456902D01*
X85214840Y-111905915D01*
X85097282Y-111621400D01*
X94520207Y-111621400D01*
X94633246Y-112189685D01*
X94955153Y-112671454D01*
X94996752Y-112699250D01*
X94948983Y-112708238D01*
X94732859Y-112847310D01*
X94587869Y-113059510D01*
X94536860Y-113311400D01*
X94536860Y-115011400D01*
X94581138Y-115246717D01*
X94720210Y-115462841D01*
X94932410Y-115607831D01*
X95184300Y-115658840D01*
X96884300Y-115658840D01*
X97119617Y-115614562D01*
X97335741Y-115475490D01*
X97480731Y-115263290D01*
X97531740Y-115011400D01*
X97531740Y-113311400D01*
X97487462Y-113076083D01*
X97348390Y-112859959D01*
X97136190Y-112714969D01*
X97068759Y-112701314D01*
X97113447Y-112671454D01*
X97435354Y-112189685D01*
X97548393Y-111621400D01*
X97435354Y-111053115D01*
X97113447Y-110571346D01*
X96631678Y-110249439D01*
X96063393Y-110136400D01*
X96005207Y-110136400D01*
X95436922Y-110249439D01*
X94955153Y-110571346D01*
X94633246Y-111053115D01*
X94520207Y-111621400D01*
X85097282Y-111621400D01*
X85004431Y-111396685D01*
X84615164Y-111006739D01*
X84106302Y-110795441D01*
X83555315Y-110794960D01*
X83046085Y-111005369D01*
X82656139Y-111394636D01*
X82444841Y-111903498D01*
X82444360Y-112454485D01*
X82654769Y-112963715D01*
X82730023Y-113039100D01*
X80121200Y-113039100D01*
X79686854Y-113125497D01*
X79318634Y-113371534D01*
X79054400Y-113635768D01*
X76910566Y-111491934D01*
X76764949Y-111394636D01*
X76542346Y-111245897D01*
X76108000Y-111159500D01*
X68691432Y-111159500D01*
X68592418Y-111060486D01*
X68541267Y-110983933D01*
X68464717Y-110932784D01*
X67870400Y-110338468D01*
X67870400Y-108898485D01*
X94649060Y-108898485D01*
X94859469Y-109407715D01*
X95248736Y-109797661D01*
X95757598Y-110008959D01*
X96308585Y-110009440D01*
X96817815Y-109799031D01*
X97207761Y-109409764D01*
X97419059Y-108900902D01*
X97419540Y-108349915D01*
X97209131Y-107840685D01*
X96819864Y-107450739D01*
X96311002Y-107239441D01*
X95760015Y-107238960D01*
X95250785Y-107449369D01*
X94860839Y-107838636D01*
X94649541Y-108347498D01*
X94649060Y-108898485D01*
X67870400Y-108898485D01*
X67870400Y-108611732D01*
X69848845Y-106633287D01*
X69963666Y-106556566D01*
X74522966Y-101997266D01*
X74597671Y-101885462D01*
X74769003Y-101629046D01*
X74855400Y-101194700D01*
X74855400Y-99264532D01*
X74940760Y-99179172D01*
X74940760Y-100660400D01*
X74985038Y-100895717D01*
X75124110Y-101111841D01*
X75336310Y-101256831D01*
X75588200Y-101307840D01*
X77288200Y-101307840D01*
X77523517Y-101263562D01*
X77739641Y-101124490D01*
X77884631Y-100912290D01*
X77898286Y-100844859D01*
X77928146Y-100889547D01*
X78409915Y-101211454D01*
X78978200Y-101324493D01*
X79546485Y-101211454D01*
X80028254Y-100889547D01*
X80350161Y-100407778D01*
X80463200Y-99839493D01*
X80463200Y-99781307D01*
X80350161Y-99213022D01*
X80028254Y-98731253D01*
X79546485Y-98409346D01*
X78978200Y-98296307D01*
X78409915Y-98409346D01*
X77928146Y-98731253D01*
X77900350Y-98772852D01*
X77891362Y-98725083D01*
X77752290Y-98508959D01*
X77540090Y-98363969D01*
X77288200Y-98312960D01*
X75806972Y-98312960D01*
X76171732Y-97948200D01*
X78965500Y-97948200D01*
X79399846Y-97861803D01*
X79768066Y-97615766D01*
X82343932Y-95039900D01*
X85200968Y-95039900D01*
X86860200Y-96699132D01*
X86860200Y-101055000D01*
X86946597Y-101489346D01*
X87091167Y-101705710D01*
X87192634Y-101857566D01*
X87431700Y-102096632D01*
X87431700Y-103666500D01*
X83156732Y-103666500D01*
X82981166Y-103490934D01*
X82612945Y-103244897D01*
X82178600Y-103158500D01*
X81813185Y-103231186D01*
X81613531Y-102747985D01*
X81224264Y-102358039D01*
X80715402Y-102146741D01*
X80164415Y-102146260D01*
X79655185Y-102356669D01*
X79265239Y-102745936D01*
X79053941Y-103254798D01*
X79053460Y-103805785D01*
X79263869Y-104315015D01*
X79653136Y-104704961D01*
X80161998Y-104916259D01*
X80712985Y-104916740D01*
X81138684Y-104740845D01*
X81376034Y-105096066D01*
X81884033Y-105604066D01*
X82196426Y-105812800D01*
X82252254Y-105850103D01*
X82686600Y-105936500D01*
X87957100Y-105936500D01*
X88391446Y-105850103D01*
X88759666Y-105604066D01*
X89016132Y-105347600D01*
X94520207Y-105347600D01*
X94633246Y-105915885D01*
X94955153Y-106397654D01*
X95436922Y-106719561D01*
X96005207Y-106832600D01*
X96063393Y-106832600D01*
X96631678Y-106719561D01*
X97113447Y-106397654D01*
X97435354Y-105915885D01*
X97548393Y-105347600D01*
X97435354Y-104779315D01*
X97113447Y-104297546D01*
X97071848Y-104269750D01*
X97119617Y-104260762D01*
X97335741Y-104121690D01*
X97480731Y-103909490D01*
X97531740Y-103657600D01*
X97531740Y-101957600D01*
X97487462Y-101722283D01*
X97348390Y-101506159D01*
X97136190Y-101361169D01*
X96884300Y-101310160D01*
X95184300Y-101310160D01*
X94948983Y-101354438D01*
X94732859Y-101493510D01*
X94587869Y-101705710D01*
X94536860Y-101957600D01*
X94536860Y-103657600D01*
X94581138Y-103892917D01*
X94720210Y-104109041D01*
X94932410Y-104254031D01*
X94999841Y-104267686D01*
X94955153Y-104297546D01*
X94633246Y-104779315D01*
X94520207Y-105347600D01*
X89016132Y-105347600D01*
X89292721Y-105071012D01*
X89369266Y-105019866D01*
X89615303Y-104651646D01*
X89701700Y-104217300D01*
X89701700Y-101537600D01*
X89615303Y-101103254D01*
X89369266Y-100735034D01*
X89130200Y-100575295D01*
X89130200Y-96571900D01*
X94520207Y-96571900D01*
X94633246Y-97140185D01*
X94955153Y-97621954D01*
X94996752Y-97649750D01*
X94948983Y-97658738D01*
X94732859Y-97797810D01*
X94587869Y-98010010D01*
X94536860Y-98261900D01*
X94536860Y-99961900D01*
X94581138Y-100197217D01*
X94720210Y-100413341D01*
X94932410Y-100558331D01*
X95184300Y-100609340D01*
X96884300Y-100609340D01*
X97119617Y-100565062D01*
X97335741Y-100425990D01*
X97480731Y-100213790D01*
X97531740Y-99961900D01*
X97531740Y-98261900D01*
X97487462Y-98026583D01*
X97348390Y-97810459D01*
X97136190Y-97665469D01*
X97068759Y-97651814D01*
X97113447Y-97621954D01*
X97435354Y-97140185D01*
X97548393Y-96571900D01*
X97435354Y-96003615D01*
X97113447Y-95521846D01*
X96631678Y-95199939D01*
X96063393Y-95086900D01*
X96005207Y-95086900D01*
X95436922Y-95199939D01*
X94955153Y-95521846D01*
X94633246Y-96003615D01*
X94520207Y-96571900D01*
X89130200Y-96571900D01*
X89130200Y-96229000D01*
X89043803Y-95794654D01*
X88797766Y-95426434D01*
X86473666Y-93102334D01*
X86105446Y-92856297D01*
X85671100Y-92769900D01*
X81873800Y-92769900D01*
X81439455Y-92856296D01*
X81071234Y-93102334D01*
X78495368Y-95678200D01*
X75701600Y-95678200D01*
X75267255Y-95764596D01*
X74899034Y-96010634D01*
X72917834Y-97991834D01*
X72671797Y-98360054D01*
X72593904Y-98751646D01*
X72206402Y-98590741D01*
X71655415Y-98590260D01*
X71146185Y-98800669D01*
X70756239Y-99189936D01*
X70668720Y-99400705D01*
X70577231Y-99179285D01*
X70187964Y-98789339D01*
X69679102Y-98578041D01*
X69128115Y-98577560D01*
X68618885Y-98787969D01*
X68228939Y-99177236D01*
X68017641Y-99686098D01*
X68017160Y-100237085D01*
X68227569Y-100746315D01*
X68616836Y-101136261D01*
X69125698Y-101347559D01*
X69676685Y-101348040D01*
X70185915Y-101137631D01*
X70575861Y-100748364D01*
X70663380Y-100537595D01*
X70754869Y-100759015D01*
X71144136Y-101148961D01*
X71652998Y-101360259D01*
X71949450Y-101360518D01*
X68435255Y-104874713D01*
X68373077Y-104916259D01*
X68320434Y-104951434D01*
X67177781Y-106094087D01*
X67101234Y-106145234D01*
X67050087Y-106221781D01*
X66754450Y-106517418D01*
X65594866Y-105357834D01*
X65555944Y-105331827D01*
X65226646Y-105111797D01*
X64792300Y-105025400D01*
X63370594Y-105025400D01*
X63242900Y-105000000D01*
X63115206Y-105025400D01*
X55356432Y-105025400D01*
X54586200Y-104255168D01*
X54586200Y-103658500D01*
X54577232Y-103613417D01*
X54499804Y-103224155D01*
X54253766Y-102855934D01*
X53021866Y-101624034D01*
X52956563Y-101580400D01*
X52653646Y-101377997D01*
X52219300Y-101291600D01*
X46469376Y-101291600D01*
X46502931Y-101242490D01*
X46553940Y-100990600D01*
X46553940Y-99290600D01*
X46509662Y-99055283D01*
X46370590Y-98839159D01*
X46158390Y-98694169D01*
X45906500Y-98643160D01*
X44206500Y-98643160D01*
X43971183Y-98687438D01*
X43755059Y-98826510D01*
X43610069Y-99038710D01*
X43596414Y-99106141D01*
X43566554Y-99061453D01*
X43084785Y-98739546D01*
X42516500Y-98626507D01*
X41948215Y-98739546D01*
X41466446Y-99061453D01*
X41246500Y-99390626D01*
X41026554Y-99061453D01*
X40544785Y-98739546D01*
X39976500Y-98626507D01*
X39408215Y-98739546D01*
X38926446Y-99061453D01*
X38604539Y-99543222D01*
X38491500Y-100111507D01*
X37284100Y-100111507D01*
X37284100Y-91580800D01*
X98002800Y-91580800D01*
X98002800Y-126569300D01*
X98002800Y-126569300D01*
G37*
X98002800Y-126569300D02*
X37284100Y-126569300D01*
X37284100Y-116256900D01*
X39110107Y-116256900D01*
X39223146Y-116825185D01*
X39545053Y-117306954D01*
X39586652Y-117334750D01*
X39538883Y-117343738D01*
X39322759Y-117482810D01*
X39177769Y-117695010D01*
X39126760Y-117946900D01*
X39126760Y-119646900D01*
X39171038Y-119882217D01*
X39310110Y-120098341D01*
X39522310Y-120243331D01*
X39774200Y-120294340D01*
X41474200Y-120294340D01*
X41709517Y-120250062D01*
X41925641Y-120110990D01*
X42070631Y-119898790D01*
X42114490Y-119682207D01*
X59167100Y-119682207D01*
X59167100Y-119740393D01*
X59280139Y-120308678D01*
X59602046Y-120790447D01*
X60083815Y-121112354D01*
X60652100Y-121225393D01*
X61220385Y-121112354D01*
X61702154Y-120790447D01*
X61729950Y-120748848D01*
X61738938Y-120796617D01*
X61878010Y-121012741D01*
X62090210Y-121157731D01*
X62342100Y-121208740D01*
X64042100Y-121208740D01*
X64277417Y-121164462D01*
X64384431Y-121095600D01*
X88843307Y-121095600D01*
X88956346Y-121663885D01*
X89278253Y-122145654D01*
X89319852Y-122173450D01*
X89272083Y-122182438D01*
X89055959Y-122321510D01*
X88910969Y-122533710D01*
X88859960Y-122785600D01*
X88859960Y-124485600D01*
X88904238Y-124720917D01*
X89043310Y-124937041D01*
X89255510Y-125082031D01*
X89507400Y-125133040D01*
X91207400Y-125133040D01*
X91442717Y-125088762D01*
X91658841Y-124949690D01*
X91803831Y-124737490D01*
X91854840Y-124485600D01*
X91854840Y-122785600D01*
X91828627Y-122646290D01*
X94427724Y-122646290D01*
X94597555Y-123056324D01*
X94987842Y-123484583D01*
X95512308Y-123730886D01*
X95742200Y-123610219D01*
X95742200Y-122416400D01*
X95996200Y-122416400D01*
X95996200Y-123610219D01*
X96226092Y-123730886D01*
X96750558Y-123484583D01*
X97140845Y-123056324D01*
X97310676Y-122646290D01*
X97189355Y-122416400D01*
X95996200Y-122416400D01*
X95742200Y-122416400D01*
X94549045Y-122416400D01*
X94427724Y-122646290D01*
X91828627Y-122646290D01*
X91810562Y-122550283D01*
X91671490Y-122334159D01*
X91459290Y-122189169D01*
X91391859Y-122175514D01*
X91436547Y-122145654D01*
X91758454Y-121663885D01*
X91871493Y-121095600D01*
X91758454Y-120527315D01*
X91436547Y-120045546D01*
X90954778Y-119723639D01*
X90386493Y-119610600D01*
X90328307Y-119610600D01*
X89760022Y-119723639D01*
X89278253Y-120045546D01*
X88956346Y-120527315D01*
X88843307Y-121095600D01*
X64384431Y-121095600D01*
X64493541Y-121025390D01*
X64638531Y-120813190D01*
X64689540Y-120561300D01*
X64689540Y-118899400D01*
X94371760Y-118899400D01*
X94371760Y-120599400D01*
X94416038Y-120834717D01*
X94555110Y-121050841D01*
X94767310Y-121195831D01*
X94875307Y-121217701D01*
X94597555Y-121522476D01*
X94427724Y-121932510D01*
X94549045Y-122162400D01*
X95742200Y-122162400D01*
X95742200Y-122142400D01*
X95996200Y-122142400D01*
X95996200Y-122162400D01*
X97189355Y-122162400D01*
X97310676Y-121932510D01*
X97140845Y-121522476D01*
X96864699Y-121219463D01*
X96954517Y-121202562D01*
X97170641Y-121063490D01*
X97315631Y-120851290D01*
X97366640Y-120599400D01*
X97366640Y-118899400D01*
X97322362Y-118664083D01*
X97183290Y-118447959D01*
X96971090Y-118302969D01*
X96719200Y-118251960D01*
X95019200Y-118251960D01*
X94783883Y-118296238D01*
X94567759Y-118435310D01*
X94422769Y-118647510D01*
X94371760Y-118899400D01*
X64689540Y-118899400D01*
X64689540Y-118861300D01*
X64645262Y-118625983D01*
X64506190Y-118409859D01*
X64293990Y-118264869D01*
X64042100Y-118213860D01*
X62342100Y-118213860D01*
X62106783Y-118258138D01*
X61890659Y-118397210D01*
X61745669Y-118609410D01*
X61732014Y-118676841D01*
X61702154Y-118632153D01*
X61220385Y-118310246D01*
X60652100Y-118197207D01*
X60083815Y-118310246D01*
X59602046Y-118632153D01*
X59280139Y-119113922D01*
X59167100Y-119682207D01*
X42114490Y-119682207D01*
X42121640Y-119646900D01*
X42121640Y-117946900D01*
X42077362Y-117711583D01*
X41938290Y-117495459D01*
X41726090Y-117350469D01*
X41658659Y-117336814D01*
X41703347Y-117306954D01*
X42025254Y-116825185D01*
X42138293Y-116256900D01*
X42079457Y-115961107D01*
X59141700Y-115961107D01*
X59141700Y-116019293D01*
X59254739Y-116587578D01*
X59576646Y-117069347D01*
X60058415Y-117391254D01*
X60626700Y-117504293D01*
X61194985Y-117391254D01*
X61676754Y-117069347D01*
X61704550Y-117027748D01*
X61713538Y-117075517D01*
X61852610Y-117291641D01*
X62064810Y-117436631D01*
X62316700Y-117487640D01*
X64016700Y-117487640D01*
X64172708Y-117458285D01*
X67598060Y-117458285D01*
X67808469Y-117967515D01*
X68197736Y-118357461D01*
X68706598Y-118568759D01*
X69257585Y-118569240D01*
X69766815Y-118358831D01*
X70156761Y-117969564D01*
X70368059Y-117460702D01*
X70368540Y-116909715D01*
X70158131Y-116400485D01*
X69768864Y-116010539D01*
X69260002Y-115799241D01*
X68709015Y-115798760D01*
X68199785Y-116009169D01*
X67809839Y-116398436D01*
X67598541Y-116907298D01*
X67598060Y-117458285D01*
X64172708Y-117458285D01*
X64252017Y-117443362D01*
X64468141Y-117304290D01*
X64613131Y-117092090D01*
X64664140Y-116840200D01*
X64664140Y-115140200D01*
X64619862Y-114904883D01*
X64480790Y-114688759D01*
X64268590Y-114543769D01*
X64016700Y-114492760D01*
X62316700Y-114492760D01*
X62081383Y-114537038D01*
X61865259Y-114676110D01*
X61720269Y-114888310D01*
X61706614Y-114955741D01*
X61676754Y-114911053D01*
X61194985Y-114589146D01*
X60626700Y-114476107D01*
X60058415Y-114589146D01*
X59576646Y-114911053D01*
X59254739Y-115392822D01*
X59141700Y-115961107D01*
X42079457Y-115961107D01*
X42025254Y-115688615D01*
X41703347Y-115206846D01*
X41221578Y-114884939D01*
X40653293Y-114771900D01*
X40595107Y-114771900D01*
X40026822Y-114884939D01*
X39545053Y-115206846D01*
X39223146Y-115688615D01*
X39110107Y-116256900D01*
X37284100Y-116256900D01*
X37284100Y-109614800D01*
X61665307Y-109614800D01*
X61778346Y-110183085D01*
X62100253Y-110664854D01*
X62141852Y-110692650D01*
X62094083Y-110701638D01*
X61877959Y-110840710D01*
X61732969Y-111052910D01*
X61681960Y-111304800D01*
X61681960Y-113004800D01*
X61726238Y-113240117D01*
X61865310Y-113456241D01*
X62077510Y-113601231D01*
X62329400Y-113652240D01*
X64029400Y-113652240D01*
X64264717Y-113607962D01*
X64480841Y-113468890D01*
X64625831Y-113256690D01*
X64676840Y-113004800D01*
X64676840Y-111304800D01*
X64632562Y-111069483D01*
X64493490Y-110853359D01*
X64281290Y-110708369D01*
X64213859Y-110694714D01*
X64258547Y-110664854D01*
X64580454Y-110183085D01*
X64693493Y-109614800D01*
X64580454Y-109046515D01*
X64258547Y-108564746D01*
X63776778Y-108242839D01*
X63208493Y-108129800D01*
X63150307Y-108129800D01*
X62582022Y-108242839D01*
X62100253Y-108564746D01*
X61778346Y-109046515D01*
X61665307Y-109614800D01*
X37284100Y-109614800D01*
X37284100Y-100111507D01*
X38491500Y-100111507D01*
X38491500Y-100169693D01*
X38604539Y-100737978D01*
X38926446Y-101219747D01*
X39408215Y-101541654D01*
X39976500Y-101654693D01*
X40544785Y-101541654D01*
X41026554Y-101219747D01*
X41246500Y-100890574D01*
X41466446Y-101219747D01*
X41612480Y-101317323D01*
X41307455Y-101377996D01*
X40939234Y-101624033D01*
X39364434Y-103198834D01*
X39359347Y-103206447D01*
X39351734Y-103211534D01*
X39105697Y-103579755D01*
X39019300Y-104014100D01*
X39032000Y-104077947D01*
X39032000Y-105461900D01*
X39118397Y-105896246D01*
X39364434Y-106264466D01*
X39732654Y-106510503D01*
X40167000Y-106596900D01*
X40601346Y-106510503D01*
X40969566Y-106264466D01*
X41215603Y-105896246D01*
X41302000Y-105461900D01*
X41302000Y-104471532D01*
X42211933Y-103561600D01*
X51749168Y-103561600D01*
X52316200Y-104128632D01*
X52316200Y-104725300D01*
X52402597Y-105159646D01*
X52604557Y-105461900D01*
X52648634Y-105527866D01*
X54083734Y-106962966D01*
X54451954Y-107209003D01*
X54886300Y-107295400D01*
X64322168Y-107295400D01*
X65600400Y-108573632D01*
X65600400Y-109347753D01*
X65587700Y-109411600D01*
X65600400Y-109475447D01*
X65600400Y-110808600D01*
X65686797Y-111242946D01*
X65853165Y-111491933D01*
X65932834Y-111611166D01*
X66936133Y-112614466D01*
X66936136Y-112614468D01*
X67418733Y-113097066D01*
X67657628Y-113256690D01*
X67786954Y-113343103D01*
X68221300Y-113429500D01*
X75637868Y-113429500D01*
X77919400Y-115711032D01*
X77919400Y-116239500D01*
X77022400Y-116239500D01*
X76588054Y-116325897D01*
X76219834Y-116571934D01*
X75973797Y-116940154D01*
X75887400Y-117374500D01*
X75973797Y-117808846D01*
X76219834Y-118177066D01*
X76588054Y-118423103D01*
X77022400Y-118509500D01*
X78622600Y-118509500D01*
X79056946Y-118423103D01*
X79425166Y-118177066D01*
X79818692Y-117783540D01*
X79856966Y-117757966D01*
X80103003Y-117389746D01*
X80189400Y-116955400D01*
X80189400Y-115711032D01*
X80591332Y-115309100D01*
X87576100Y-115309100D01*
X88010446Y-115222703D01*
X88378666Y-114976666D01*
X88624703Y-114608446D01*
X88711100Y-114174100D01*
X88624703Y-113739754D01*
X88378666Y-113371534D01*
X88010446Y-113125497D01*
X87576100Y-113039100D01*
X84929597Y-113039100D01*
X85003061Y-112965764D01*
X85214359Y-112456902D01*
X85214840Y-111905915D01*
X85097282Y-111621400D01*
X94520207Y-111621400D01*
X94633246Y-112189685D01*
X94955153Y-112671454D01*
X94996752Y-112699250D01*
X94948983Y-112708238D01*
X94732859Y-112847310D01*
X94587869Y-113059510D01*
X94536860Y-113311400D01*
X94536860Y-115011400D01*
X94581138Y-115246717D01*
X94720210Y-115462841D01*
X94932410Y-115607831D01*
X95184300Y-115658840D01*
X96884300Y-115658840D01*
X97119617Y-115614562D01*
X97335741Y-115475490D01*
X97480731Y-115263290D01*
X97531740Y-115011400D01*
X97531740Y-113311400D01*
X97487462Y-113076083D01*
X97348390Y-112859959D01*
X97136190Y-112714969D01*
X97068759Y-112701314D01*
X97113447Y-112671454D01*
X97435354Y-112189685D01*
X97548393Y-111621400D01*
X97435354Y-111053115D01*
X97113447Y-110571346D01*
X96631678Y-110249439D01*
X96063393Y-110136400D01*
X96005207Y-110136400D01*
X95436922Y-110249439D01*
X94955153Y-110571346D01*
X94633246Y-111053115D01*
X94520207Y-111621400D01*
X85097282Y-111621400D01*
X85004431Y-111396685D01*
X84615164Y-111006739D01*
X84106302Y-110795441D01*
X83555315Y-110794960D01*
X83046085Y-111005369D01*
X82656139Y-111394636D01*
X82444841Y-111903498D01*
X82444360Y-112454485D01*
X82654769Y-112963715D01*
X82730023Y-113039100D01*
X80121200Y-113039100D01*
X79686854Y-113125497D01*
X79318634Y-113371534D01*
X79054400Y-113635768D01*
X76910566Y-111491934D01*
X76764949Y-111394636D01*
X76542346Y-111245897D01*
X76108000Y-111159500D01*
X68691432Y-111159500D01*
X68592418Y-111060486D01*
X68541267Y-110983933D01*
X68464717Y-110932784D01*
X67870400Y-110338468D01*
X67870400Y-108898485D01*
X94649060Y-108898485D01*
X94859469Y-109407715D01*
X95248736Y-109797661D01*
X95757598Y-110008959D01*
X96308585Y-110009440D01*
X96817815Y-109799031D01*
X97207761Y-109409764D01*
X97419059Y-108900902D01*
X97419540Y-108349915D01*
X97209131Y-107840685D01*
X96819864Y-107450739D01*
X96311002Y-107239441D01*
X95760015Y-107238960D01*
X95250785Y-107449369D01*
X94860839Y-107838636D01*
X94649541Y-108347498D01*
X94649060Y-108898485D01*
X67870400Y-108898485D01*
X67870400Y-108611732D01*
X69848845Y-106633287D01*
X69963666Y-106556566D01*
X74522966Y-101997266D01*
X74597671Y-101885462D01*
X74769003Y-101629046D01*
X74855400Y-101194700D01*
X74855400Y-99264532D01*
X74940760Y-99179172D01*
X74940760Y-100660400D01*
X74985038Y-100895717D01*
X75124110Y-101111841D01*
X75336310Y-101256831D01*
X75588200Y-101307840D01*
X77288200Y-101307840D01*
X77523517Y-101263562D01*
X77739641Y-101124490D01*
X77884631Y-100912290D01*
X77898286Y-100844859D01*
X77928146Y-100889547D01*
X78409915Y-101211454D01*
X78978200Y-101324493D01*
X79546485Y-101211454D01*
X80028254Y-100889547D01*
X80350161Y-100407778D01*
X80463200Y-99839493D01*
X80463200Y-99781307D01*
X80350161Y-99213022D01*
X80028254Y-98731253D01*
X79546485Y-98409346D01*
X78978200Y-98296307D01*
X78409915Y-98409346D01*
X77928146Y-98731253D01*
X77900350Y-98772852D01*
X77891362Y-98725083D01*
X77752290Y-98508959D01*
X77540090Y-98363969D01*
X77288200Y-98312960D01*
X75806972Y-98312960D01*
X76171732Y-97948200D01*
X78965500Y-97948200D01*
X79399846Y-97861803D01*
X79768066Y-97615766D01*
X82343932Y-95039900D01*
X85200968Y-95039900D01*
X86860200Y-96699132D01*
X86860200Y-101055000D01*
X86946597Y-101489346D01*
X87091167Y-101705710D01*
X87192634Y-101857566D01*
X87431700Y-102096632D01*
X87431700Y-103666500D01*
X83156732Y-103666500D01*
X82981166Y-103490934D01*
X82612945Y-103244897D01*
X82178600Y-103158500D01*
X81813185Y-103231186D01*
X81613531Y-102747985D01*
X81224264Y-102358039D01*
X80715402Y-102146741D01*
X80164415Y-102146260D01*
X79655185Y-102356669D01*
X79265239Y-102745936D01*
X79053941Y-103254798D01*
X79053460Y-103805785D01*
X79263869Y-104315015D01*
X79653136Y-104704961D01*
X80161998Y-104916259D01*
X80712985Y-104916740D01*
X81138684Y-104740845D01*
X81376034Y-105096066D01*
X81884033Y-105604066D01*
X82196426Y-105812800D01*
X82252254Y-105850103D01*
X82686600Y-105936500D01*
X87957100Y-105936500D01*
X88391446Y-105850103D01*
X88759666Y-105604066D01*
X89016132Y-105347600D01*
X94520207Y-105347600D01*
X94633246Y-105915885D01*
X94955153Y-106397654D01*
X95436922Y-106719561D01*
X96005207Y-106832600D01*
X96063393Y-106832600D01*
X96631678Y-106719561D01*
X97113447Y-106397654D01*
X97435354Y-105915885D01*
X97548393Y-105347600D01*
X97435354Y-104779315D01*
X97113447Y-104297546D01*
X97071848Y-104269750D01*
X97119617Y-104260762D01*
X97335741Y-104121690D01*
X97480731Y-103909490D01*
X97531740Y-103657600D01*
X97531740Y-101957600D01*
X97487462Y-101722283D01*
X97348390Y-101506159D01*
X97136190Y-101361169D01*
X96884300Y-101310160D01*
X95184300Y-101310160D01*
X94948983Y-101354438D01*
X94732859Y-101493510D01*
X94587869Y-101705710D01*
X94536860Y-101957600D01*
X94536860Y-103657600D01*
X94581138Y-103892917D01*
X94720210Y-104109041D01*
X94932410Y-104254031D01*
X94999841Y-104267686D01*
X94955153Y-104297546D01*
X94633246Y-104779315D01*
X94520207Y-105347600D01*
X89016132Y-105347600D01*
X89292721Y-105071012D01*
X89369266Y-105019866D01*
X89615303Y-104651646D01*
X89701700Y-104217300D01*
X89701700Y-101537600D01*
X89615303Y-101103254D01*
X89369266Y-100735034D01*
X89130200Y-100575295D01*
X89130200Y-96571900D01*
X94520207Y-96571900D01*
X94633246Y-97140185D01*
X94955153Y-97621954D01*
X94996752Y-97649750D01*
X94948983Y-97658738D01*
X94732859Y-97797810D01*
X94587869Y-98010010D01*
X94536860Y-98261900D01*
X94536860Y-99961900D01*
X94581138Y-100197217D01*
X94720210Y-100413341D01*
X94932410Y-100558331D01*
X95184300Y-100609340D01*
X96884300Y-100609340D01*
X97119617Y-100565062D01*
X97335741Y-100425990D01*
X97480731Y-100213790D01*
X97531740Y-99961900D01*
X97531740Y-98261900D01*
X97487462Y-98026583D01*
X97348390Y-97810459D01*
X97136190Y-97665469D01*
X97068759Y-97651814D01*
X97113447Y-97621954D01*
X97435354Y-97140185D01*
X97548393Y-96571900D01*
X97435354Y-96003615D01*
X97113447Y-95521846D01*
X96631678Y-95199939D01*
X96063393Y-95086900D01*
X96005207Y-95086900D01*
X95436922Y-95199939D01*
X94955153Y-95521846D01*
X94633246Y-96003615D01*
X94520207Y-96571900D01*
X89130200Y-96571900D01*
X89130200Y-96229000D01*
X89043803Y-95794654D01*
X88797766Y-95426434D01*
X86473666Y-93102334D01*
X86105446Y-92856297D01*
X85671100Y-92769900D01*
X81873800Y-92769900D01*
X81439455Y-92856296D01*
X81071234Y-93102334D01*
X78495368Y-95678200D01*
X75701600Y-95678200D01*
X75267255Y-95764596D01*
X74899034Y-96010634D01*
X72917834Y-97991834D01*
X72671797Y-98360054D01*
X72593904Y-98751646D01*
X72206402Y-98590741D01*
X71655415Y-98590260D01*
X71146185Y-98800669D01*
X70756239Y-99189936D01*
X70668720Y-99400705D01*
X70577231Y-99179285D01*
X70187964Y-98789339D01*
X69679102Y-98578041D01*
X69128115Y-98577560D01*
X68618885Y-98787969D01*
X68228939Y-99177236D01*
X68017641Y-99686098D01*
X68017160Y-100237085D01*
X68227569Y-100746315D01*
X68616836Y-101136261D01*
X69125698Y-101347559D01*
X69676685Y-101348040D01*
X70185915Y-101137631D01*
X70575861Y-100748364D01*
X70663380Y-100537595D01*
X70754869Y-100759015D01*
X71144136Y-101148961D01*
X71652998Y-101360259D01*
X71949450Y-101360518D01*
X68435255Y-104874713D01*
X68373077Y-104916259D01*
X68320434Y-104951434D01*
X67177781Y-106094087D01*
X67101234Y-106145234D01*
X67050087Y-106221781D01*
X66754450Y-106517418D01*
X65594866Y-105357834D01*
X65555944Y-105331827D01*
X65226646Y-105111797D01*
X64792300Y-105025400D01*
X63370594Y-105025400D01*
X63242900Y-105000000D01*
X63115206Y-105025400D01*
X55356432Y-105025400D01*
X54586200Y-104255168D01*
X54586200Y-103658500D01*
X54577232Y-103613417D01*
X54499804Y-103224155D01*
X54253766Y-102855934D01*
X53021866Y-101624034D01*
X52956563Y-101580400D01*
X52653646Y-101377997D01*
X52219300Y-101291600D01*
X46469376Y-101291600D01*
X46502931Y-101242490D01*
X46553940Y-100990600D01*
X46553940Y-99290600D01*
X46509662Y-99055283D01*
X46370590Y-98839159D01*
X46158390Y-98694169D01*
X45906500Y-98643160D01*
X44206500Y-98643160D01*
X43971183Y-98687438D01*
X43755059Y-98826510D01*
X43610069Y-99038710D01*
X43596414Y-99106141D01*
X43566554Y-99061453D01*
X43084785Y-98739546D01*
X42516500Y-98626507D01*
X41948215Y-98739546D01*
X41466446Y-99061453D01*
X41246500Y-99390626D01*
X41026554Y-99061453D01*
X40544785Y-98739546D01*
X39976500Y-98626507D01*
X39408215Y-98739546D01*
X38926446Y-99061453D01*
X38604539Y-99543222D01*
X38491500Y-100111507D01*
X37284100Y-100111507D01*
X37284100Y-91580800D01*
X98002800Y-91580800D01*
X98002800Y-126569300D01*
G36*
X130753700Y-131723235D02*
X130549446Y-131723057D01*
X129396785Y-132199327D01*
X128514126Y-133080447D01*
X128035846Y-134232274D01*
X128035665Y-134439900D01*
X120882469Y-134439900D01*
X120884731Y-134436590D01*
X120935740Y-134184700D01*
X120935740Y-130224700D01*
X120891462Y-129989383D01*
X120752390Y-129773259D01*
X120540190Y-129628269D01*
X120288300Y-129577260D01*
X118308300Y-129577260D01*
X118072983Y-129621538D01*
X117856859Y-129760610D01*
X117753622Y-129911703D01*
X117380161Y-129662165D01*
X116758300Y-129538469D01*
X116136439Y-129662165D01*
X115609251Y-130014420D01*
X115488300Y-130195436D01*
X115367349Y-130014420D01*
X114840161Y-129662165D01*
X114218300Y-129538469D01*
X113596439Y-129662165D01*
X113069251Y-130014420D01*
X112716996Y-130541608D01*
X112593300Y-131163469D01*
X112593300Y-133245931D01*
X112716996Y-133867792D01*
X113069251Y-134394980D01*
X113136479Y-134439900D01*
X101900300Y-134439900D01*
X101891905Y-134441600D01*
X100007300Y-134441600D01*
X100007300Y-114692885D01*
X100245060Y-114692885D01*
X100455469Y-115202115D01*
X100844736Y-115592061D01*
X101353598Y-115803359D01*
X101904585Y-115803840D01*
X102413815Y-115593431D01*
X102607400Y-115400183D01*
X102607400Y-120863600D01*
X102701409Y-121336214D01*
X102969123Y-121736877D01*
X105699623Y-124467377D01*
X106100286Y-124735091D01*
X106572900Y-124829100D01*
X107045514Y-124735091D01*
X107446177Y-124467377D01*
X107713891Y-124066714D01*
X107807900Y-123594100D01*
X107713891Y-123121486D01*
X107593272Y-122940967D01*
X107808501Y-123030338D01*
X108180467Y-123030662D01*
X108301869Y-122980500D01*
X109925695Y-122980500D01*
X109925700Y-122980501D01*
X110208184Y-122924310D01*
X110235179Y-122918940D01*
X110235138Y-122966467D01*
X110377183Y-123310243D01*
X110639973Y-123573492D01*
X110983501Y-123716138D01*
X111355467Y-123716462D01*
X111476869Y-123666300D01*
X119394196Y-123666300D01*
X119402973Y-123675092D01*
X119746501Y-123817738D01*
X120118467Y-123818062D01*
X120462243Y-123676017D01*
X120725492Y-123413227D01*
X120852314Y-123107807D01*
X124823700Y-123107807D01*
X124823700Y-123165993D01*
X124936739Y-123734278D01*
X125258646Y-124216047D01*
X125740415Y-124537954D01*
X126308700Y-124650993D01*
X126876985Y-124537954D01*
X127358754Y-124216047D01*
X127388103Y-124172123D01*
X127460373Y-124346598D01*
X127639001Y-124525227D01*
X127872390Y-124621900D01*
X128562950Y-124621900D01*
X128721700Y-124463150D01*
X128721700Y-123263900D01*
X128975700Y-123263900D01*
X128975700Y-124463150D01*
X129134450Y-124621900D01*
X129825010Y-124621900D01*
X130058399Y-124525227D01*
X130237027Y-124346598D01*
X130333700Y-124113209D01*
X130333700Y-123422650D01*
X130174950Y-123263900D01*
X128975700Y-123263900D01*
X128721700Y-123263900D01*
X128701700Y-123263900D01*
X128701700Y-123009900D01*
X128721700Y-123009900D01*
X128721700Y-121810650D01*
X128975700Y-121810650D01*
X128975700Y-123009900D01*
X130174950Y-123009900D01*
X130333700Y-122851150D01*
X130333700Y-122160591D01*
X130237027Y-121927202D01*
X130058399Y-121748573D01*
X129825010Y-121651900D01*
X129134450Y-121651900D01*
X128975700Y-121810650D01*
X128721700Y-121810650D01*
X128562950Y-121651900D01*
X127872390Y-121651900D01*
X127639001Y-121748573D01*
X127460373Y-121927202D01*
X127388103Y-122101677D01*
X127358754Y-122057753D01*
X126876985Y-121735846D01*
X126308700Y-121622807D01*
X125740415Y-121735846D01*
X125258646Y-122057753D01*
X124936739Y-122539522D01*
X124823700Y-123107807D01*
X120852314Y-123107807D01*
X120868138Y-123069699D01*
X120868462Y-122697733D01*
X120775398Y-122472500D01*
X124175095Y-122472500D01*
X124175100Y-122472501D01*
X124457584Y-122416310D01*
X124513775Y-122405133D01*
X124800890Y-122213290D01*
X125269735Y-121744445D01*
X125389843Y-121694817D01*
X125653092Y-121432027D01*
X125795738Y-121088499D01*
X125796062Y-120716533D01*
X125654017Y-120372757D01*
X125391227Y-120109508D01*
X125047699Y-119966862D01*
X124675733Y-119966538D01*
X124331957Y-120108583D01*
X124068708Y-120371373D01*
X124018334Y-120492687D01*
X123808520Y-120702500D01*
X110724079Y-120702500D01*
X110594800Y-120573220D01*
X110594800Y-118182179D01*
X110627341Y-118149638D01*
X110703890Y-118098490D01*
X111121935Y-117680445D01*
X111242043Y-117630817D01*
X111505292Y-117368027D01*
X111647938Y-117024499D01*
X111648262Y-116652533D01*
X111506217Y-116308757D01*
X111243427Y-116045508D01*
X110899899Y-115902862D01*
X110527933Y-115902538D01*
X110184157Y-116044583D01*
X109920908Y-116307373D01*
X109870534Y-116428687D01*
X109594955Y-116704265D01*
X109552043Y-116721996D01*
X109426912Y-116846909D01*
X109426910Y-116846910D01*
X109426909Y-116846912D01*
X109302871Y-116970733D01*
X109302717Y-116971103D01*
X109084010Y-117189810D01*
X108892167Y-117476925D01*
X108892167Y-117476926D01*
X108824799Y-117815600D01*
X108824800Y-117815605D01*
X108824800Y-120939795D01*
X108824799Y-120939800D01*
X108854378Y-121088499D01*
X108878646Y-121210500D01*
X108302122Y-121210500D01*
X108182099Y-121160662D01*
X107810133Y-121160338D01*
X107466357Y-121302383D01*
X107203108Y-121565173D01*
X107060462Y-121908701D01*
X107060138Y-122280667D01*
X107098243Y-122372889D01*
X105077400Y-120352046D01*
X105077400Y-114796554D01*
X106322454Y-113551500D01*
X109854212Y-113551500D01*
X109988296Y-113578317D01*
X110110573Y-113578445D01*
X110230500Y-113602300D01*
X111119500Y-113602300D01*
X111146811Y-113596868D01*
X111174335Y-113601082D01*
X111960193Y-113566155D01*
X112289930Y-113551500D01*
X114166298Y-113551500D01*
X114253686Y-113609891D01*
X114726300Y-113703900D01*
X115198914Y-113609891D01*
X115599577Y-113342177D01*
X115867291Y-112941514D01*
X115961300Y-112468900D01*
X115867291Y-111996286D01*
X115599577Y-111595623D01*
X115447177Y-111443223D01*
X115046514Y-111175509D01*
X114573900Y-111081500D01*
X112262500Y-111081500D01*
X112235190Y-111086932D01*
X112207666Y-111082718D01*
X111850523Y-111098591D01*
X111092070Y-111132300D01*
X110352788Y-111132300D01*
X110218703Y-111105483D01*
X110096427Y-111105355D01*
X109976500Y-111081500D01*
X105810900Y-111081500D01*
X105338286Y-111175509D01*
X104937623Y-111443223D01*
X102969123Y-113411723D01*
X102810766Y-113648722D01*
X102805131Y-113635085D01*
X102415864Y-113245139D01*
X101907002Y-113033841D01*
X101356015Y-113033360D01*
X100846785Y-113243769D01*
X100456839Y-113633036D01*
X100245541Y-114141898D01*
X100245060Y-114692885D01*
X100007300Y-114692885D01*
X100007300Y-107751867D01*
X104723338Y-107751867D01*
X104865383Y-108095643D01*
X105128173Y-108358892D01*
X105249486Y-108409266D01*
X105384821Y-108544600D01*
X105300465Y-108628956D01*
X105180357Y-108678583D01*
X104917108Y-108941373D01*
X104774462Y-109284901D01*
X104774138Y-109656867D01*
X104916183Y-110000643D01*
X105178973Y-110263892D01*
X105522501Y-110406538D01*
X105894467Y-110406862D01*
X106238243Y-110264817D01*
X106501492Y-110002027D01*
X106551866Y-109880714D01*
X106710879Y-109721700D01*
X114791520Y-109721700D01*
X117676700Y-112606879D01*
X117676700Y-117394478D01*
X117626862Y-117514501D01*
X117626538Y-117886467D01*
X117768583Y-118230243D01*
X118031373Y-118493492D01*
X118374901Y-118636138D01*
X118746867Y-118636462D01*
X119090643Y-118494417D01*
X119353892Y-118231627D01*
X119496538Y-117888099D01*
X119496862Y-117516133D01*
X119446700Y-117394731D01*
X119446700Y-112240305D01*
X119446701Y-112240300D01*
X119379333Y-111901625D01*
X119367145Y-111883385D01*
X119187490Y-111614510D01*
X119187487Y-111614508D01*
X116558080Y-108985100D01*
X118449120Y-108985100D01*
X121512100Y-112048079D01*
X121512100Y-113206333D01*
X121500362Y-113234601D01*
X121500038Y-113606567D01*
X121512100Y-113635759D01*
X121512100Y-114346478D01*
X121462262Y-114466501D01*
X121461938Y-114838467D01*
X121603983Y-115182243D01*
X121866773Y-115445492D01*
X122210301Y-115588138D01*
X122582267Y-115588462D01*
X122926043Y-115446417D01*
X123189292Y-115183627D01*
X123331938Y-114840099D01*
X123332262Y-114468133D01*
X123282100Y-114346731D01*
X123282100Y-113819976D01*
X123370038Y-113608199D01*
X123370362Y-113236233D01*
X123282100Y-113022622D01*
X123282100Y-111936790D01*
X125908624Y-111936790D01*
X126078455Y-112346824D01*
X126468742Y-112775083D01*
X126993208Y-113021386D01*
X127223100Y-112900719D01*
X127223100Y-111706900D01*
X127477100Y-111706900D01*
X127477100Y-112900719D01*
X127706992Y-113021386D01*
X128231458Y-112775083D01*
X128621745Y-112346824D01*
X128791576Y-111936790D01*
X128670255Y-111706900D01*
X127477100Y-111706900D01*
X127223100Y-111706900D01*
X126029945Y-111706900D01*
X125908624Y-111936790D01*
X123282100Y-111936790D01*
X123282100Y-111681500D01*
X123214733Y-111342825D01*
X123022890Y-111055710D01*
X123022887Y-111055708D01*
X120157080Y-108189900D01*
X125852660Y-108189900D01*
X125852660Y-109889900D01*
X125896938Y-110125217D01*
X126036010Y-110341341D01*
X126248210Y-110486331D01*
X126356207Y-110508201D01*
X126078455Y-110812976D01*
X125908624Y-111223010D01*
X126029945Y-111452900D01*
X127223100Y-111452900D01*
X127223100Y-111432900D01*
X127477100Y-111432900D01*
X127477100Y-111452900D01*
X128670255Y-111452900D01*
X128791576Y-111223010D01*
X128621745Y-110812976D01*
X128345599Y-110509963D01*
X128435417Y-110493062D01*
X128651541Y-110353990D01*
X128796531Y-110141790D01*
X128847540Y-109889900D01*
X128847540Y-108189900D01*
X128803262Y-107954583D01*
X128664190Y-107738459D01*
X128451990Y-107593469D01*
X128200100Y-107542460D01*
X126500100Y-107542460D01*
X126264783Y-107586738D01*
X126048659Y-107725810D01*
X125903669Y-107938010D01*
X125852660Y-108189900D01*
X120157080Y-108189900D01*
X119441490Y-107474310D01*
X119154375Y-107282467D01*
X119098184Y-107271290D01*
X118815700Y-107215099D01*
X118815695Y-107215100D01*
X106558479Y-107215100D01*
X106501244Y-107157865D01*
X106451617Y-107037757D01*
X106188827Y-106774508D01*
X105845299Y-106631862D01*
X105473333Y-106631538D01*
X105129557Y-106773583D01*
X104866308Y-107036373D01*
X104723662Y-107379901D01*
X104723338Y-107751867D01*
X100007300Y-107751867D01*
X100007300Y-103914350D01*
X102350300Y-103914350D01*
X102350300Y-104504909D01*
X102446973Y-104738298D01*
X102625601Y-104916927D01*
X102858990Y-105013600D01*
X103324550Y-105013600D01*
X103483300Y-104854850D01*
X103483300Y-103755600D01*
X103737300Y-103755600D01*
X103737300Y-104854850D01*
X103896050Y-105013600D01*
X104361610Y-105013600D01*
X104594999Y-104916927D01*
X104773627Y-104738298D01*
X104870300Y-104504909D01*
X104870300Y-103914350D01*
X104711550Y-103755600D01*
X103737300Y-103755600D01*
X103483300Y-103755600D01*
X102509050Y-103755600D01*
X102350300Y-103914350D01*
X100007300Y-103914350D01*
X100007300Y-100378600D01*
X102337860Y-100378600D01*
X102337860Y-101878600D01*
X102382138Y-102113917D01*
X102521210Y-102330041D01*
X102589306Y-102376569D01*
X102446973Y-102518902D01*
X102350300Y-102752291D01*
X102350300Y-103342850D01*
X102509050Y-103501600D01*
X103483300Y-103501600D01*
X103483300Y-103481600D01*
X103737300Y-103481600D01*
X103737300Y-103501600D01*
X104711550Y-103501600D01*
X104870300Y-103342850D01*
X104870300Y-102752291D01*
X104773627Y-102518902D01*
X104632390Y-102377664D01*
X104686741Y-102342690D01*
X104831731Y-102130490D01*
X104882740Y-101878600D01*
X104882740Y-101148600D01*
X111086207Y-101148600D01*
X111199246Y-101716885D01*
X111521153Y-102198654D01*
X111850326Y-102418600D01*
X111521153Y-102638546D01*
X111199246Y-103120315D01*
X111086207Y-103688600D01*
X111199246Y-104256885D01*
X111521153Y-104738654D01*
X112002922Y-105060561D01*
X112571207Y-105173600D01*
X112629393Y-105173600D01*
X113197678Y-105060561D01*
X113679447Y-104738654D01*
X114001354Y-104256885D01*
X114114393Y-103688600D01*
X114001354Y-103120315D01*
X113816193Y-102843200D01*
X114829060Y-102843200D01*
X114829060Y-104543200D01*
X114873338Y-104778517D01*
X115012410Y-104994641D01*
X115224610Y-105139631D01*
X115476500Y-105190640D01*
X117176500Y-105190640D01*
X117411817Y-105146362D01*
X117627941Y-105007290D01*
X117772931Y-104795090D01*
X117786586Y-104727659D01*
X117816446Y-104772347D01*
X118298215Y-105094254D01*
X118866500Y-105207293D01*
X119434785Y-105094254D01*
X119916554Y-104772347D01*
X120136500Y-104443174D01*
X120356446Y-104772347D01*
X120838215Y-105094254D01*
X121406500Y-105207293D01*
X121974785Y-105094254D01*
X122456554Y-104772347D01*
X122778461Y-104290578D01*
X122891500Y-103722293D01*
X122891500Y-103664107D01*
X122778461Y-103095822D01*
X122490262Y-102664500D01*
X125823307Y-102664500D01*
X125936346Y-103232785D01*
X126258253Y-103714554D01*
X126299852Y-103742350D01*
X126252083Y-103751338D01*
X126035959Y-103890410D01*
X125890969Y-104102610D01*
X125839960Y-104354500D01*
X125839960Y-106054500D01*
X125884238Y-106289817D01*
X126023310Y-106505941D01*
X126235510Y-106650931D01*
X126487400Y-106701940D01*
X128187400Y-106701940D01*
X128422717Y-106657662D01*
X128638841Y-106518590D01*
X128783831Y-106306390D01*
X128834840Y-106054500D01*
X128834840Y-104354500D01*
X128790562Y-104119183D01*
X128651490Y-103903059D01*
X128439290Y-103758069D01*
X128371859Y-103744414D01*
X128416547Y-103714554D01*
X128738454Y-103232785D01*
X128851493Y-102664500D01*
X128738454Y-102096215D01*
X128416547Y-101614446D01*
X127934778Y-101292539D01*
X127366493Y-101179500D01*
X127308307Y-101179500D01*
X126740022Y-101292539D01*
X126258253Y-101614446D01*
X125936346Y-102096215D01*
X125823307Y-102664500D01*
X122490262Y-102664500D01*
X122456554Y-102614053D01*
X121974785Y-102292146D01*
X121406500Y-102179107D01*
X120838215Y-102292146D01*
X120356446Y-102614053D01*
X120136500Y-102943226D01*
X119916554Y-102614053D01*
X119434785Y-102292146D01*
X118866500Y-102179107D01*
X118298215Y-102292146D01*
X117816446Y-102614053D01*
X117788650Y-102655652D01*
X117779662Y-102607883D01*
X117640590Y-102391759D01*
X117428390Y-102246769D01*
X117176500Y-102195760D01*
X115476500Y-102195760D01*
X115241183Y-102240038D01*
X115025059Y-102379110D01*
X114880069Y-102591310D01*
X114829060Y-102843200D01*
X113816193Y-102843200D01*
X113679447Y-102638546D01*
X113350274Y-102418600D01*
X113552316Y-102283600D01*
X113980300Y-102283600D01*
X114414646Y-102197203D01*
X114782866Y-101951166D01*
X116439732Y-100294300D01*
X119552300Y-100294300D01*
X119986646Y-100207903D01*
X120354866Y-99961866D01*
X121421666Y-98895066D01*
X121509071Y-98764255D01*
X121667703Y-98526846D01*
X121754100Y-98092500D01*
X121754100Y-93711000D01*
X125099407Y-93711000D01*
X125212446Y-94279285D01*
X125534353Y-94761054D01*
X125863526Y-94981000D01*
X125534353Y-95200946D01*
X125212446Y-95682715D01*
X125099407Y-96251000D01*
X125212446Y-96819285D01*
X125534353Y-97301054D01*
X126016122Y-97622961D01*
X126584407Y-97736000D01*
X126642593Y-97736000D01*
X127210878Y-97622961D01*
X127692647Y-97301054D01*
X128014554Y-96819285D01*
X128127593Y-96251000D01*
X128014554Y-95682715D01*
X127692647Y-95200946D01*
X127363474Y-94981000D01*
X127692647Y-94761054D01*
X128014554Y-94279285D01*
X128127593Y-93711000D01*
X128014554Y-93142715D01*
X127692647Y-92660946D01*
X127351947Y-92433298D01*
X127494858Y-92366183D01*
X127885145Y-91937924D01*
X128054976Y-91527890D01*
X127933655Y-91298000D01*
X126740500Y-91298000D01*
X126740500Y-91318000D01*
X126486500Y-91318000D01*
X126486500Y-91298000D01*
X125293345Y-91298000D01*
X125172024Y-91527890D01*
X125341855Y-91937924D01*
X125732142Y-92366183D01*
X125875053Y-92433298D01*
X125534353Y-92660946D01*
X125212446Y-93142715D01*
X125099407Y-93711000D01*
X121754100Y-93711000D01*
X121754100Y-85803335D01*
X121851900Y-85823140D01*
X122452786Y-85823140D01*
X122876600Y-86246954D01*
X122876600Y-87792800D01*
X122970609Y-88265414D01*
X123238323Y-88666077D01*
X124076523Y-89504277D01*
X124477186Y-89771991D01*
X124949800Y-89866000D01*
X125811145Y-89866000D01*
X125875053Y-89908702D01*
X125732142Y-89975817D01*
X125341855Y-90404076D01*
X125172024Y-90814110D01*
X125293345Y-91044000D01*
X126486500Y-91044000D01*
X126486500Y-91024000D01*
X126740500Y-91024000D01*
X126740500Y-91044000D01*
X127933655Y-91044000D01*
X128054976Y-90814110D01*
X127885145Y-90404076D01*
X127494858Y-89975817D01*
X127351947Y-89908702D01*
X127692647Y-89681054D01*
X128014554Y-89199285D01*
X128127593Y-88631000D01*
X128014554Y-88062715D01*
X127692647Y-87580946D01*
X127651048Y-87553150D01*
X127698817Y-87544162D01*
X127914941Y-87405090D01*
X128059931Y-87192890D01*
X128110940Y-86941000D01*
X128110940Y-85241000D01*
X128066662Y-85005683D01*
X127927590Y-84789559D01*
X127715390Y-84644569D01*
X127463500Y-84593560D01*
X125763500Y-84593560D01*
X125528183Y-84637838D01*
X125312059Y-84776910D01*
X125167069Y-84989110D01*
X125144429Y-85100910D01*
X124984877Y-84862123D01*
X124199340Y-84076586D01*
X124199340Y-83475700D01*
X124155062Y-83240383D01*
X124015990Y-83024259D01*
X123803790Y-82879269D01*
X123551900Y-82828260D01*
X121851900Y-82828260D01*
X121616583Y-82872538D01*
X121400459Y-83011610D01*
X121255469Y-83223810D01*
X121241814Y-83291241D01*
X121211954Y-83246553D01*
X120730185Y-82924646D01*
X120161900Y-82811607D01*
X119593615Y-82924646D01*
X119111846Y-83246553D01*
X118789939Y-83728322D01*
X118676900Y-84296607D01*
X118676900Y-84354793D01*
X118789939Y-84923078D01*
X119111846Y-85404847D01*
X119484100Y-85653579D01*
X119484100Y-97622368D01*
X119082168Y-98024300D01*
X115969600Y-98024300D01*
X115535254Y-98110697D01*
X115281879Y-98279997D01*
X115167034Y-98356734D01*
X114097740Y-99426028D01*
X114097740Y-97758600D01*
X114053462Y-97523283D01*
X113914390Y-97307159D01*
X113702190Y-97162169D01*
X113450300Y-97111160D01*
X111750300Y-97111160D01*
X111514983Y-97155438D01*
X111298859Y-97294510D01*
X111153869Y-97506710D01*
X111102860Y-97758600D01*
X111102860Y-99458600D01*
X111147138Y-99693917D01*
X111286210Y-99910041D01*
X111498410Y-100055031D01*
X111565841Y-100068686D01*
X111521153Y-100098546D01*
X111199246Y-100580315D01*
X111086207Y-101148600D01*
X104882740Y-101148600D01*
X104882740Y-100378600D01*
X104838462Y-100143283D01*
X104745300Y-99998505D01*
X104745300Y-99328600D01*
X104658903Y-98894254D01*
X104412866Y-98526034D01*
X104282866Y-98396034D01*
X103914645Y-98149997D01*
X103480300Y-98063600D01*
X103045955Y-98149997D01*
X102677734Y-98396034D01*
X102431697Y-98764255D01*
X102345300Y-99198600D01*
X102431697Y-99632945D01*
X102475300Y-99698202D01*
X102475300Y-100000214D01*
X102388869Y-100126710D01*
X102337860Y-100378600D01*
X100007300Y-100378600D01*
X100007300Y-96764350D01*
X101235300Y-96764350D01*
X101235300Y-97454910D01*
X101331973Y-97688299D01*
X101510602Y-97866927D01*
X101743991Y-97963600D01*
X102434550Y-97963600D01*
X102593300Y-97804850D01*
X102593300Y-96605600D01*
X102847300Y-96605600D01*
X102847300Y-97804850D01*
X103006050Y-97963600D01*
X103696609Y-97963600D01*
X103929998Y-97866927D01*
X104108627Y-97688299D01*
X104205300Y-97454910D01*
X104205300Y-96764350D01*
X104046550Y-96605600D01*
X102847300Y-96605600D01*
X102593300Y-96605600D01*
X101394050Y-96605600D01*
X101235300Y-96764350D01*
X100007300Y-96764350D01*
X100007300Y-93938600D01*
X101206207Y-93938600D01*
X101319246Y-94506885D01*
X101641153Y-94988654D01*
X101685077Y-95018003D01*
X101510602Y-95090273D01*
X101331973Y-95268901D01*
X101235300Y-95502290D01*
X101235300Y-96192850D01*
X101394050Y-96351600D01*
X102593300Y-96351600D01*
X102593300Y-96331600D01*
X102847300Y-96331600D01*
X102847300Y-96351600D01*
X104046550Y-96351600D01*
X104205300Y-96192850D01*
X104205300Y-95502290D01*
X104108627Y-95268901D01*
X103929998Y-95090273D01*
X103755523Y-95018003D01*
X103799447Y-94988654D01*
X104121354Y-94506885D01*
X104234393Y-93938600D01*
X104121354Y-93370315D01*
X103799447Y-92888546D01*
X103317678Y-92566639D01*
X102749393Y-92453600D01*
X102691207Y-92453600D01*
X102122922Y-92566639D01*
X101641153Y-92888546D01*
X101319246Y-93370315D01*
X101206207Y-93938600D01*
X100007300Y-93938600D01*
X100007300Y-85764350D01*
X100315300Y-85764350D01*
X100315300Y-86454909D01*
X100411973Y-86688298D01*
X100590601Y-86866927D01*
X100823990Y-86963600D01*
X101514550Y-86963600D01*
X101673300Y-86804850D01*
X101673300Y-85605600D01*
X100474050Y-85605600D01*
X100315300Y-85764350D01*
X100007300Y-85764350D01*
X100007300Y-84502291D01*
X100315300Y-84502291D01*
X100315300Y-85192850D01*
X100474050Y-85351600D01*
X101673300Y-85351600D01*
X101673300Y-84152350D01*
X101927300Y-84152350D01*
X101927300Y-85351600D01*
X101947300Y-85351600D01*
X101947300Y-85605600D01*
X101927300Y-85605600D01*
X101927300Y-86804850D01*
X102086050Y-86963600D01*
X102776610Y-86963600D01*
X103009999Y-86866927D01*
X103188627Y-86688298D01*
X103260897Y-86513823D01*
X103290246Y-86557747D01*
X103772015Y-86879654D01*
X104340300Y-86992693D01*
X104908585Y-86879654D01*
X105390354Y-86557747D01*
X105610300Y-86228574D01*
X105830246Y-86557747D01*
X106312015Y-86879654D01*
X106880300Y-86992693D01*
X107448585Y-86879654D01*
X107712069Y-86703600D01*
X113535300Y-86703600D01*
X113535300Y-93973600D01*
X118105300Y-93973600D01*
X118105300Y-86703600D01*
X113535300Y-86703600D01*
X107712069Y-86703600D01*
X107930354Y-86557747D01*
X108252261Y-86075978D01*
X108365300Y-85507693D01*
X108365300Y-85449507D01*
X108252261Y-84881222D01*
X107930354Y-84399453D01*
X107448585Y-84077546D01*
X106880300Y-83964507D01*
X106312015Y-84077546D01*
X105830246Y-84399453D01*
X105610300Y-84728626D01*
X105390354Y-84399453D01*
X104908585Y-84077546D01*
X104340300Y-83964507D01*
X103772015Y-84077546D01*
X103290246Y-84399453D01*
X103260897Y-84443377D01*
X103188627Y-84268902D01*
X103009999Y-84090273D01*
X102776610Y-83993600D01*
X102086050Y-83993600D01*
X101927300Y-84152350D01*
X101673300Y-84152350D01*
X101514550Y-83993600D01*
X100823990Y-83993600D01*
X100590601Y-84090273D01*
X100411973Y-84268902D01*
X100315300Y-84502291D01*
X100007300Y-84502291D01*
X100007300Y-81985207D01*
X124823700Y-81985207D01*
X124823700Y-82043393D01*
X124936739Y-82611678D01*
X125258646Y-83093447D01*
X125740415Y-83415354D01*
X126308700Y-83528393D01*
X126876985Y-83415354D01*
X127358754Y-83093447D01*
X127388103Y-83049523D01*
X127460373Y-83223998D01*
X127639001Y-83402627D01*
X127872390Y-83499300D01*
X128562950Y-83499300D01*
X128721700Y-83340550D01*
X128721700Y-82141300D01*
X128975700Y-82141300D01*
X128975700Y-83340550D01*
X129134450Y-83499300D01*
X129825010Y-83499300D01*
X130058399Y-83402627D01*
X130237027Y-83223998D01*
X130333700Y-82990609D01*
X130333700Y-82300050D01*
X130174950Y-82141300D01*
X128975700Y-82141300D01*
X128721700Y-82141300D01*
X128701700Y-82141300D01*
X128701700Y-81887300D01*
X128721700Y-81887300D01*
X128721700Y-80688050D01*
X128975700Y-80688050D01*
X128975700Y-81887300D01*
X130174950Y-81887300D01*
X130333700Y-81728550D01*
X130333700Y-81037991D01*
X130237027Y-80804602D01*
X130058399Y-80625973D01*
X129825010Y-80529300D01*
X129134450Y-80529300D01*
X128975700Y-80688050D01*
X128721700Y-80688050D01*
X128562950Y-80529300D01*
X127872390Y-80529300D01*
X127639001Y-80625973D01*
X127460373Y-80804602D01*
X127388103Y-80979077D01*
X127358754Y-80935153D01*
X126876985Y-80613246D01*
X126308700Y-80500207D01*
X125740415Y-80613246D01*
X125258646Y-80935153D01*
X124936739Y-81416922D01*
X124823700Y-81985207D01*
X100007300Y-81985207D01*
X100007300Y-78815600D01*
X100654700Y-78815600D01*
X100663095Y-78813900D01*
X130753700Y-78813900D01*
X130753700Y-131723235D01*
X130753700Y-131723235D01*
G37*
X130753700Y-131723235D02*
X130549446Y-131723057D01*
X129396785Y-132199327D01*
X128514126Y-133080447D01*
X128035846Y-134232274D01*
X128035665Y-134439900D01*
X120882469Y-134439900D01*
X120884731Y-134436590D01*
X120935740Y-134184700D01*
X120935740Y-130224700D01*
X120891462Y-129989383D01*
X120752390Y-129773259D01*
X120540190Y-129628269D01*
X120288300Y-129577260D01*
X118308300Y-129577260D01*
X118072983Y-129621538D01*
X117856859Y-129760610D01*
X117753622Y-129911703D01*
X117380161Y-129662165D01*
X116758300Y-129538469D01*
X116136439Y-129662165D01*
X115609251Y-130014420D01*
X115488300Y-130195436D01*
X115367349Y-130014420D01*
X114840161Y-129662165D01*
X114218300Y-129538469D01*
X113596439Y-129662165D01*
X113069251Y-130014420D01*
X112716996Y-130541608D01*
X112593300Y-131163469D01*
X112593300Y-133245931D01*
X112716996Y-133867792D01*
X113069251Y-134394980D01*
X113136479Y-134439900D01*
X101900300Y-134439900D01*
X101891905Y-134441600D01*
X100007300Y-134441600D01*
X100007300Y-114692885D01*
X100245060Y-114692885D01*
X100455469Y-115202115D01*
X100844736Y-115592061D01*
X101353598Y-115803359D01*
X101904585Y-115803840D01*
X102413815Y-115593431D01*
X102607400Y-115400183D01*
X102607400Y-120863600D01*
X102701409Y-121336214D01*
X102969123Y-121736877D01*
X105699623Y-124467377D01*
X106100286Y-124735091D01*
X106572900Y-124829100D01*
X107045514Y-124735091D01*
X107446177Y-124467377D01*
X107713891Y-124066714D01*
X107807900Y-123594100D01*
X107713891Y-123121486D01*
X107593272Y-122940967D01*
X107808501Y-123030338D01*
X108180467Y-123030662D01*
X108301869Y-122980500D01*
X109925695Y-122980500D01*
X109925700Y-122980501D01*
X110208184Y-122924310D01*
X110235179Y-122918940D01*
X110235138Y-122966467D01*
X110377183Y-123310243D01*
X110639973Y-123573492D01*
X110983501Y-123716138D01*
X111355467Y-123716462D01*
X111476869Y-123666300D01*
X119394196Y-123666300D01*
X119402973Y-123675092D01*
X119746501Y-123817738D01*
X120118467Y-123818062D01*
X120462243Y-123676017D01*
X120725492Y-123413227D01*
X120852314Y-123107807D01*
X124823700Y-123107807D01*
X124823700Y-123165993D01*
X124936739Y-123734278D01*
X125258646Y-124216047D01*
X125740415Y-124537954D01*
X126308700Y-124650993D01*
X126876985Y-124537954D01*
X127358754Y-124216047D01*
X127388103Y-124172123D01*
X127460373Y-124346598D01*
X127639001Y-124525227D01*
X127872390Y-124621900D01*
X128562950Y-124621900D01*
X128721700Y-124463150D01*
X128721700Y-123263900D01*
X128975700Y-123263900D01*
X128975700Y-124463150D01*
X129134450Y-124621900D01*
X129825010Y-124621900D01*
X130058399Y-124525227D01*
X130237027Y-124346598D01*
X130333700Y-124113209D01*
X130333700Y-123422650D01*
X130174950Y-123263900D01*
X128975700Y-123263900D01*
X128721700Y-123263900D01*
X128701700Y-123263900D01*
X128701700Y-123009900D01*
X128721700Y-123009900D01*
X128721700Y-121810650D01*
X128975700Y-121810650D01*
X128975700Y-123009900D01*
X130174950Y-123009900D01*
X130333700Y-122851150D01*
X130333700Y-122160591D01*
X130237027Y-121927202D01*
X130058399Y-121748573D01*
X129825010Y-121651900D01*
X129134450Y-121651900D01*
X128975700Y-121810650D01*
X128721700Y-121810650D01*
X128562950Y-121651900D01*
X127872390Y-121651900D01*
X127639001Y-121748573D01*
X127460373Y-121927202D01*
X127388103Y-122101677D01*
X127358754Y-122057753D01*
X126876985Y-121735846D01*
X126308700Y-121622807D01*
X125740415Y-121735846D01*
X125258646Y-122057753D01*
X124936739Y-122539522D01*
X124823700Y-123107807D01*
X120852314Y-123107807D01*
X120868138Y-123069699D01*
X120868462Y-122697733D01*
X120775398Y-122472500D01*
X124175095Y-122472500D01*
X124175100Y-122472501D01*
X124457584Y-122416310D01*
X124513775Y-122405133D01*
X124800890Y-122213290D01*
X125269735Y-121744445D01*
X125389843Y-121694817D01*
X125653092Y-121432027D01*
X125795738Y-121088499D01*
X125796062Y-120716533D01*
X125654017Y-120372757D01*
X125391227Y-120109508D01*
X125047699Y-119966862D01*
X124675733Y-119966538D01*
X124331957Y-120108583D01*
X124068708Y-120371373D01*
X124018334Y-120492687D01*
X123808520Y-120702500D01*
X110724079Y-120702500D01*
X110594800Y-120573220D01*
X110594800Y-118182179D01*
X110627341Y-118149638D01*
X110703890Y-118098490D01*
X111121935Y-117680445D01*
X111242043Y-117630817D01*
X111505292Y-117368027D01*
X111647938Y-117024499D01*
X111648262Y-116652533D01*
X111506217Y-116308757D01*
X111243427Y-116045508D01*
X110899899Y-115902862D01*
X110527933Y-115902538D01*
X110184157Y-116044583D01*
X109920908Y-116307373D01*
X109870534Y-116428687D01*
X109594955Y-116704265D01*
X109552043Y-116721996D01*
X109426912Y-116846909D01*
X109426910Y-116846910D01*
X109426909Y-116846912D01*
X109302871Y-116970733D01*
X109302717Y-116971103D01*
X109084010Y-117189810D01*
X108892167Y-117476925D01*
X108892167Y-117476926D01*
X108824799Y-117815600D01*
X108824800Y-117815605D01*
X108824800Y-120939795D01*
X108824799Y-120939800D01*
X108854378Y-121088499D01*
X108878646Y-121210500D01*
X108302122Y-121210500D01*
X108182099Y-121160662D01*
X107810133Y-121160338D01*
X107466357Y-121302383D01*
X107203108Y-121565173D01*
X107060462Y-121908701D01*
X107060138Y-122280667D01*
X107098243Y-122372889D01*
X105077400Y-120352046D01*
X105077400Y-114796554D01*
X106322454Y-113551500D01*
X109854212Y-113551500D01*
X109988296Y-113578317D01*
X110110573Y-113578445D01*
X110230500Y-113602300D01*
X111119500Y-113602300D01*
X111146811Y-113596868D01*
X111174335Y-113601082D01*
X111960193Y-113566155D01*
X112289930Y-113551500D01*
X114166298Y-113551500D01*
X114253686Y-113609891D01*
X114726300Y-113703900D01*
X115198914Y-113609891D01*
X115599577Y-113342177D01*
X115867291Y-112941514D01*
X115961300Y-112468900D01*
X115867291Y-111996286D01*
X115599577Y-111595623D01*
X115447177Y-111443223D01*
X115046514Y-111175509D01*
X114573900Y-111081500D01*
X112262500Y-111081500D01*
X112235190Y-111086932D01*
X112207666Y-111082718D01*
X111850523Y-111098591D01*
X111092070Y-111132300D01*
X110352788Y-111132300D01*
X110218703Y-111105483D01*
X110096427Y-111105355D01*
X109976500Y-111081500D01*
X105810900Y-111081500D01*
X105338286Y-111175509D01*
X104937623Y-111443223D01*
X102969123Y-113411723D01*
X102810766Y-113648722D01*
X102805131Y-113635085D01*
X102415864Y-113245139D01*
X101907002Y-113033841D01*
X101356015Y-113033360D01*
X100846785Y-113243769D01*
X100456839Y-113633036D01*
X100245541Y-114141898D01*
X100245060Y-114692885D01*
X100007300Y-114692885D01*
X100007300Y-107751867D01*
X104723338Y-107751867D01*
X104865383Y-108095643D01*
X105128173Y-108358892D01*
X105249486Y-108409266D01*
X105384821Y-108544600D01*
X105300465Y-108628956D01*
X105180357Y-108678583D01*
X104917108Y-108941373D01*
X104774462Y-109284901D01*
X104774138Y-109656867D01*
X104916183Y-110000643D01*
X105178973Y-110263892D01*
X105522501Y-110406538D01*
X105894467Y-110406862D01*
X106238243Y-110264817D01*
X106501492Y-110002027D01*
X106551866Y-109880714D01*
X106710879Y-109721700D01*
X114791520Y-109721700D01*
X117676700Y-112606879D01*
X117676700Y-117394478D01*
X117626862Y-117514501D01*
X117626538Y-117886467D01*
X117768583Y-118230243D01*
X118031373Y-118493492D01*
X118374901Y-118636138D01*
X118746867Y-118636462D01*
X119090643Y-118494417D01*
X119353892Y-118231627D01*
X119496538Y-117888099D01*
X119496862Y-117516133D01*
X119446700Y-117394731D01*
X119446700Y-112240305D01*
X119446701Y-112240300D01*
X119379333Y-111901625D01*
X119367145Y-111883385D01*
X119187490Y-111614510D01*
X119187487Y-111614508D01*
X116558080Y-108985100D01*
X118449120Y-108985100D01*
X121512100Y-112048079D01*
X121512100Y-113206333D01*
X121500362Y-113234601D01*
X121500038Y-113606567D01*
X121512100Y-113635759D01*
X121512100Y-114346478D01*
X121462262Y-114466501D01*
X121461938Y-114838467D01*
X121603983Y-115182243D01*
X121866773Y-115445492D01*
X122210301Y-115588138D01*
X122582267Y-115588462D01*
X122926043Y-115446417D01*
X123189292Y-115183627D01*
X123331938Y-114840099D01*
X123332262Y-114468133D01*
X123282100Y-114346731D01*
X123282100Y-113819976D01*
X123370038Y-113608199D01*
X123370362Y-113236233D01*
X123282100Y-113022622D01*
X123282100Y-111936790D01*
X125908624Y-111936790D01*
X126078455Y-112346824D01*
X126468742Y-112775083D01*
X126993208Y-113021386D01*
X127223100Y-112900719D01*
X127223100Y-111706900D01*
X127477100Y-111706900D01*
X127477100Y-112900719D01*
X127706992Y-113021386D01*
X128231458Y-112775083D01*
X128621745Y-112346824D01*
X128791576Y-111936790D01*
X128670255Y-111706900D01*
X127477100Y-111706900D01*
X127223100Y-111706900D01*
X126029945Y-111706900D01*
X125908624Y-111936790D01*
X123282100Y-111936790D01*
X123282100Y-111681500D01*
X123214733Y-111342825D01*
X123022890Y-111055710D01*
X123022887Y-111055708D01*
X120157080Y-108189900D01*
X125852660Y-108189900D01*
X125852660Y-109889900D01*
X125896938Y-110125217D01*
X126036010Y-110341341D01*
X126248210Y-110486331D01*
X126356207Y-110508201D01*
X126078455Y-110812976D01*
X125908624Y-111223010D01*
X126029945Y-111452900D01*
X127223100Y-111452900D01*
X127223100Y-111432900D01*
X127477100Y-111432900D01*
X127477100Y-111452900D01*
X128670255Y-111452900D01*
X128791576Y-111223010D01*
X128621745Y-110812976D01*
X128345599Y-110509963D01*
X128435417Y-110493062D01*
X128651541Y-110353990D01*
X128796531Y-110141790D01*
X128847540Y-109889900D01*
X128847540Y-108189900D01*
X128803262Y-107954583D01*
X128664190Y-107738459D01*
X128451990Y-107593469D01*
X128200100Y-107542460D01*
X126500100Y-107542460D01*
X126264783Y-107586738D01*
X126048659Y-107725810D01*
X125903669Y-107938010D01*
X125852660Y-108189900D01*
X120157080Y-108189900D01*
X119441490Y-107474310D01*
X119154375Y-107282467D01*
X119098184Y-107271290D01*
X118815700Y-107215099D01*
X118815695Y-107215100D01*
X106558479Y-107215100D01*
X106501244Y-107157865D01*
X106451617Y-107037757D01*
X106188827Y-106774508D01*
X105845299Y-106631862D01*
X105473333Y-106631538D01*
X105129557Y-106773583D01*
X104866308Y-107036373D01*
X104723662Y-107379901D01*
X104723338Y-107751867D01*
X100007300Y-107751867D01*
X100007300Y-103914350D01*
X102350300Y-103914350D01*
X102350300Y-104504909D01*
X102446973Y-104738298D01*
X102625601Y-104916927D01*
X102858990Y-105013600D01*
X103324550Y-105013600D01*
X103483300Y-104854850D01*
X103483300Y-103755600D01*
X103737300Y-103755600D01*
X103737300Y-104854850D01*
X103896050Y-105013600D01*
X104361610Y-105013600D01*
X104594999Y-104916927D01*
X104773627Y-104738298D01*
X104870300Y-104504909D01*
X104870300Y-103914350D01*
X104711550Y-103755600D01*
X103737300Y-103755600D01*
X103483300Y-103755600D01*
X102509050Y-103755600D01*
X102350300Y-103914350D01*
X100007300Y-103914350D01*
X100007300Y-100378600D01*
X102337860Y-100378600D01*
X102337860Y-101878600D01*
X102382138Y-102113917D01*
X102521210Y-102330041D01*
X102589306Y-102376569D01*
X102446973Y-102518902D01*
X102350300Y-102752291D01*
X102350300Y-103342850D01*
X102509050Y-103501600D01*
X103483300Y-103501600D01*
X103483300Y-103481600D01*
X103737300Y-103481600D01*
X103737300Y-103501600D01*
X104711550Y-103501600D01*
X104870300Y-103342850D01*
X104870300Y-102752291D01*
X104773627Y-102518902D01*
X104632390Y-102377664D01*
X104686741Y-102342690D01*
X104831731Y-102130490D01*
X104882740Y-101878600D01*
X104882740Y-101148600D01*
X111086207Y-101148600D01*
X111199246Y-101716885D01*
X111521153Y-102198654D01*
X111850326Y-102418600D01*
X111521153Y-102638546D01*
X111199246Y-103120315D01*
X111086207Y-103688600D01*
X111199246Y-104256885D01*
X111521153Y-104738654D01*
X112002922Y-105060561D01*
X112571207Y-105173600D01*
X112629393Y-105173600D01*
X113197678Y-105060561D01*
X113679447Y-104738654D01*
X114001354Y-104256885D01*
X114114393Y-103688600D01*
X114001354Y-103120315D01*
X113816193Y-102843200D01*
X114829060Y-102843200D01*
X114829060Y-104543200D01*
X114873338Y-104778517D01*
X115012410Y-104994641D01*
X115224610Y-105139631D01*
X115476500Y-105190640D01*
X117176500Y-105190640D01*
X117411817Y-105146362D01*
X117627941Y-105007290D01*
X117772931Y-104795090D01*
X117786586Y-104727659D01*
X117816446Y-104772347D01*
X118298215Y-105094254D01*
X118866500Y-105207293D01*
X119434785Y-105094254D01*
X119916554Y-104772347D01*
X120136500Y-104443174D01*
X120356446Y-104772347D01*
X120838215Y-105094254D01*
X121406500Y-105207293D01*
X121974785Y-105094254D01*
X122456554Y-104772347D01*
X122778461Y-104290578D01*
X122891500Y-103722293D01*
X122891500Y-103664107D01*
X122778461Y-103095822D01*
X122490262Y-102664500D01*
X125823307Y-102664500D01*
X125936346Y-103232785D01*
X126258253Y-103714554D01*
X126299852Y-103742350D01*
X126252083Y-103751338D01*
X126035959Y-103890410D01*
X125890969Y-104102610D01*
X125839960Y-104354500D01*
X125839960Y-106054500D01*
X125884238Y-106289817D01*
X126023310Y-106505941D01*
X126235510Y-106650931D01*
X126487400Y-106701940D01*
X128187400Y-106701940D01*
X128422717Y-106657662D01*
X128638841Y-106518590D01*
X128783831Y-106306390D01*
X128834840Y-106054500D01*
X128834840Y-104354500D01*
X128790562Y-104119183D01*
X128651490Y-103903059D01*
X128439290Y-103758069D01*
X128371859Y-103744414D01*
X128416547Y-103714554D01*
X128738454Y-103232785D01*
X128851493Y-102664500D01*
X128738454Y-102096215D01*
X128416547Y-101614446D01*
X127934778Y-101292539D01*
X127366493Y-101179500D01*
X127308307Y-101179500D01*
X126740022Y-101292539D01*
X126258253Y-101614446D01*
X125936346Y-102096215D01*
X125823307Y-102664500D01*
X122490262Y-102664500D01*
X122456554Y-102614053D01*
X121974785Y-102292146D01*
X121406500Y-102179107D01*
X120838215Y-102292146D01*
X120356446Y-102614053D01*
X120136500Y-102943226D01*
X119916554Y-102614053D01*
X119434785Y-102292146D01*
X118866500Y-102179107D01*
X118298215Y-102292146D01*
X117816446Y-102614053D01*
X117788650Y-102655652D01*
X117779662Y-102607883D01*
X117640590Y-102391759D01*
X117428390Y-102246769D01*
X117176500Y-102195760D01*
X115476500Y-102195760D01*
X115241183Y-102240038D01*
X115025059Y-102379110D01*
X114880069Y-102591310D01*
X114829060Y-102843200D01*
X113816193Y-102843200D01*
X113679447Y-102638546D01*
X113350274Y-102418600D01*
X113552316Y-102283600D01*
X113980300Y-102283600D01*
X114414646Y-102197203D01*
X114782866Y-101951166D01*
X116439732Y-100294300D01*
X119552300Y-100294300D01*
X119986646Y-100207903D01*
X120354866Y-99961866D01*
X121421666Y-98895066D01*
X121509071Y-98764255D01*
X121667703Y-98526846D01*
X121754100Y-98092500D01*
X121754100Y-93711000D01*
X125099407Y-93711000D01*
X125212446Y-94279285D01*
X125534353Y-94761054D01*
X125863526Y-94981000D01*
X125534353Y-95200946D01*
X125212446Y-95682715D01*
X125099407Y-96251000D01*
X125212446Y-96819285D01*
X125534353Y-97301054D01*
X126016122Y-97622961D01*
X126584407Y-97736000D01*
X126642593Y-97736000D01*
X127210878Y-97622961D01*
X127692647Y-97301054D01*
X128014554Y-96819285D01*
X128127593Y-96251000D01*
X128014554Y-95682715D01*
X127692647Y-95200946D01*
X127363474Y-94981000D01*
X127692647Y-94761054D01*
X128014554Y-94279285D01*
X128127593Y-93711000D01*
X128014554Y-93142715D01*
X127692647Y-92660946D01*
X127351947Y-92433298D01*
X127494858Y-92366183D01*
X127885145Y-91937924D01*
X128054976Y-91527890D01*
X127933655Y-91298000D01*
X126740500Y-91298000D01*
X126740500Y-91318000D01*
X126486500Y-91318000D01*
X126486500Y-91298000D01*
X125293345Y-91298000D01*
X125172024Y-91527890D01*
X125341855Y-91937924D01*
X125732142Y-92366183D01*
X125875053Y-92433298D01*
X125534353Y-92660946D01*
X125212446Y-93142715D01*
X125099407Y-93711000D01*
X121754100Y-93711000D01*
X121754100Y-85803335D01*
X121851900Y-85823140D01*
X122452786Y-85823140D01*
X122876600Y-86246954D01*
X122876600Y-87792800D01*
X122970609Y-88265414D01*
X123238323Y-88666077D01*
X124076523Y-89504277D01*
X124477186Y-89771991D01*
X124949800Y-89866000D01*
X125811145Y-89866000D01*
X125875053Y-89908702D01*
X125732142Y-89975817D01*
X125341855Y-90404076D01*
X125172024Y-90814110D01*
X125293345Y-91044000D01*
X126486500Y-91044000D01*
X126486500Y-91024000D01*
X126740500Y-91024000D01*
X126740500Y-91044000D01*
X127933655Y-91044000D01*
X128054976Y-90814110D01*
X127885145Y-90404076D01*
X127494858Y-89975817D01*
X127351947Y-89908702D01*
X127692647Y-89681054D01*
X128014554Y-89199285D01*
X128127593Y-88631000D01*
X128014554Y-88062715D01*
X127692647Y-87580946D01*
X127651048Y-87553150D01*
X127698817Y-87544162D01*
X127914941Y-87405090D01*
X128059931Y-87192890D01*
X128110940Y-86941000D01*
X128110940Y-85241000D01*
X128066662Y-85005683D01*
X127927590Y-84789559D01*
X127715390Y-84644569D01*
X127463500Y-84593560D01*
X125763500Y-84593560D01*
X125528183Y-84637838D01*
X125312059Y-84776910D01*
X125167069Y-84989110D01*
X125144429Y-85100910D01*
X124984877Y-84862123D01*
X124199340Y-84076586D01*
X124199340Y-83475700D01*
X124155062Y-83240383D01*
X124015990Y-83024259D01*
X123803790Y-82879269D01*
X123551900Y-82828260D01*
X121851900Y-82828260D01*
X121616583Y-82872538D01*
X121400459Y-83011610D01*
X121255469Y-83223810D01*
X121241814Y-83291241D01*
X121211954Y-83246553D01*
X120730185Y-82924646D01*
X120161900Y-82811607D01*
X119593615Y-82924646D01*
X119111846Y-83246553D01*
X118789939Y-83728322D01*
X118676900Y-84296607D01*
X118676900Y-84354793D01*
X118789939Y-84923078D01*
X119111846Y-85404847D01*
X119484100Y-85653579D01*
X119484100Y-97622368D01*
X119082168Y-98024300D01*
X115969600Y-98024300D01*
X115535254Y-98110697D01*
X115281879Y-98279997D01*
X115167034Y-98356734D01*
X114097740Y-99426028D01*
X114097740Y-97758600D01*
X114053462Y-97523283D01*
X113914390Y-97307159D01*
X113702190Y-97162169D01*
X113450300Y-97111160D01*
X111750300Y-97111160D01*
X111514983Y-97155438D01*
X111298859Y-97294510D01*
X111153869Y-97506710D01*
X111102860Y-97758600D01*
X111102860Y-99458600D01*
X111147138Y-99693917D01*
X111286210Y-99910041D01*
X111498410Y-100055031D01*
X111565841Y-100068686D01*
X111521153Y-100098546D01*
X111199246Y-100580315D01*
X111086207Y-101148600D01*
X104882740Y-101148600D01*
X104882740Y-100378600D01*
X104838462Y-100143283D01*
X104745300Y-99998505D01*
X104745300Y-99328600D01*
X104658903Y-98894254D01*
X104412866Y-98526034D01*
X104282866Y-98396034D01*
X103914645Y-98149997D01*
X103480300Y-98063600D01*
X103045955Y-98149997D01*
X102677734Y-98396034D01*
X102431697Y-98764255D01*
X102345300Y-99198600D01*
X102431697Y-99632945D01*
X102475300Y-99698202D01*
X102475300Y-100000214D01*
X102388869Y-100126710D01*
X102337860Y-100378600D01*
X100007300Y-100378600D01*
X100007300Y-96764350D01*
X101235300Y-96764350D01*
X101235300Y-97454910D01*
X101331973Y-97688299D01*
X101510602Y-97866927D01*
X101743991Y-97963600D01*
X102434550Y-97963600D01*
X102593300Y-97804850D01*
X102593300Y-96605600D01*
X102847300Y-96605600D01*
X102847300Y-97804850D01*
X103006050Y-97963600D01*
X103696609Y-97963600D01*
X103929998Y-97866927D01*
X104108627Y-97688299D01*
X104205300Y-97454910D01*
X104205300Y-96764350D01*
X104046550Y-96605600D01*
X102847300Y-96605600D01*
X102593300Y-96605600D01*
X101394050Y-96605600D01*
X101235300Y-96764350D01*
X100007300Y-96764350D01*
X100007300Y-93938600D01*
X101206207Y-93938600D01*
X101319246Y-94506885D01*
X101641153Y-94988654D01*
X101685077Y-95018003D01*
X101510602Y-95090273D01*
X101331973Y-95268901D01*
X101235300Y-95502290D01*
X101235300Y-96192850D01*
X101394050Y-96351600D01*
X102593300Y-96351600D01*
X102593300Y-96331600D01*
X102847300Y-96331600D01*
X102847300Y-96351600D01*
X104046550Y-96351600D01*
X104205300Y-96192850D01*
X104205300Y-95502290D01*
X104108627Y-95268901D01*
X103929998Y-95090273D01*
X103755523Y-95018003D01*
X103799447Y-94988654D01*
X104121354Y-94506885D01*
X104234393Y-93938600D01*
X104121354Y-93370315D01*
X103799447Y-92888546D01*
X103317678Y-92566639D01*
X102749393Y-92453600D01*
X102691207Y-92453600D01*
X102122922Y-92566639D01*
X101641153Y-92888546D01*
X101319246Y-93370315D01*
X101206207Y-93938600D01*
X100007300Y-93938600D01*
X100007300Y-85764350D01*
X100315300Y-85764350D01*
X100315300Y-86454909D01*
X100411973Y-86688298D01*
X100590601Y-86866927D01*
X100823990Y-86963600D01*
X101514550Y-86963600D01*
X101673300Y-86804850D01*
X101673300Y-85605600D01*
X100474050Y-85605600D01*
X100315300Y-85764350D01*
X100007300Y-85764350D01*
X100007300Y-84502291D01*
X100315300Y-84502291D01*
X100315300Y-85192850D01*
X100474050Y-85351600D01*
X101673300Y-85351600D01*
X101673300Y-84152350D01*
X101927300Y-84152350D01*
X101927300Y-85351600D01*
X101947300Y-85351600D01*
X101947300Y-85605600D01*
X101927300Y-85605600D01*
X101927300Y-86804850D01*
X102086050Y-86963600D01*
X102776610Y-86963600D01*
X103009999Y-86866927D01*
X103188627Y-86688298D01*
X103260897Y-86513823D01*
X103290246Y-86557747D01*
X103772015Y-86879654D01*
X104340300Y-86992693D01*
X104908585Y-86879654D01*
X105390354Y-86557747D01*
X105610300Y-86228574D01*
X105830246Y-86557747D01*
X106312015Y-86879654D01*
X106880300Y-86992693D01*
X107448585Y-86879654D01*
X107712069Y-86703600D01*
X113535300Y-86703600D01*
X113535300Y-93973600D01*
X118105300Y-93973600D01*
X118105300Y-86703600D01*
X113535300Y-86703600D01*
X107712069Y-86703600D01*
X107930354Y-86557747D01*
X108252261Y-86075978D01*
X108365300Y-85507693D01*
X108365300Y-85449507D01*
X108252261Y-84881222D01*
X107930354Y-84399453D01*
X107448585Y-84077546D01*
X106880300Y-83964507D01*
X106312015Y-84077546D01*
X105830246Y-84399453D01*
X105610300Y-84728626D01*
X105390354Y-84399453D01*
X104908585Y-84077546D01*
X104340300Y-83964507D01*
X103772015Y-84077546D01*
X103290246Y-84399453D01*
X103260897Y-84443377D01*
X103188627Y-84268902D01*
X103009999Y-84090273D01*
X102776610Y-83993600D01*
X102086050Y-83993600D01*
X101927300Y-84152350D01*
X101673300Y-84152350D01*
X101514550Y-83993600D01*
X100823990Y-83993600D01*
X100590601Y-84090273D01*
X100411973Y-84268902D01*
X100315300Y-84502291D01*
X100007300Y-84502291D01*
X100007300Y-81985207D01*
X124823700Y-81985207D01*
X124823700Y-82043393D01*
X124936739Y-82611678D01*
X125258646Y-83093447D01*
X125740415Y-83415354D01*
X126308700Y-83528393D01*
X126876985Y-83415354D01*
X127358754Y-83093447D01*
X127388103Y-83049523D01*
X127460373Y-83223998D01*
X127639001Y-83402627D01*
X127872390Y-83499300D01*
X128562950Y-83499300D01*
X128721700Y-83340550D01*
X128721700Y-82141300D01*
X128975700Y-82141300D01*
X128975700Y-83340550D01*
X129134450Y-83499300D01*
X129825010Y-83499300D01*
X130058399Y-83402627D01*
X130237027Y-83223998D01*
X130333700Y-82990609D01*
X130333700Y-82300050D01*
X130174950Y-82141300D01*
X128975700Y-82141300D01*
X128721700Y-82141300D01*
X128701700Y-82141300D01*
X128701700Y-81887300D01*
X128721700Y-81887300D01*
X128721700Y-80688050D01*
X128975700Y-80688050D01*
X128975700Y-81887300D01*
X130174950Y-81887300D01*
X130333700Y-81728550D01*
X130333700Y-81037991D01*
X130237027Y-80804602D01*
X130058399Y-80625973D01*
X129825010Y-80529300D01*
X129134450Y-80529300D01*
X128975700Y-80688050D01*
X128721700Y-80688050D01*
X128562950Y-80529300D01*
X127872390Y-80529300D01*
X127639001Y-80625973D01*
X127460373Y-80804602D01*
X127388103Y-80979077D01*
X127358754Y-80935153D01*
X126876985Y-80613246D01*
X126308700Y-80500207D01*
X125740415Y-80613246D01*
X125258646Y-80935153D01*
X124936739Y-81416922D01*
X124823700Y-81985207D01*
X100007300Y-81985207D01*
X100007300Y-78815600D01*
X100654700Y-78815600D01*
X100663095Y-78813900D01*
X130753700Y-78813900D01*
X130753700Y-131723235D01*
M02*
