G04 #@! TF.FileFunction,Soldermask,Top*
%FSLAX46Y46*%
G04 Gerber Fmt 4.6, Leading zero omitted, Abs format (unit mm)*
G04 Created by KiCad (PCBNEW 4.0.6) date 05/22/17 18:05:56*
%MOMM*%
%LPD*%
G01*
G04 APERTURE LIST*
%ADD10C,0.100000*%
%ADD11C,5.400000*%
%ADD12C,1.000000*%
%ADD13R,2.432000X2.432000*%
%ADD14O,2.432000X2.432000*%
%ADD15R,1.950000X1.000000*%
%ADD16R,1.650000X1.900000*%
%ADD17R,2.000000X1.800000*%
%ADD18R,1.800000X2.000000*%
%ADD19R,1.700000X1.900000*%
%ADD20R,1.900000X1.700000*%
%ADD21R,1.000000X1.950000*%
%ADD22R,1.850000X0.850000*%
%ADD23C,1.900000*%
%ADD24R,0.700000X1.800000*%
%ADD25R,1.800000X0.700000*%
%ADD26R,1.400000X1.400000*%
%ADD27O,1.299160X1.901140*%
%ADD28C,1.400000*%
%ADD29R,2.635200X2.635200*%
%ADD30R,2.127200X2.432000*%
%ADD31O,2.127200X2.432000*%
%ADD32R,2.432000X2.127200*%
%ADD33O,2.432000X2.127200*%
%ADD34R,1.900000X1.650000*%
%ADD35R,2.000000X2.400000*%
%ADD36R,2.400000X2.000000*%
%ADD37R,0.800000X1.600000*%
%ADD38R,2.100000X2.100000*%
%ADD39O,2.100000X2.100000*%
%ADD40R,2.200000X1.500000*%
%ADD41R,0.850000X1.850000*%
%ADD42R,2.800000X3.725000*%
%ADD43R,1.600000X1.600000*%
%ADD44R,2.000000X0.950000*%
%ADD45R,0.950000X2.000000*%
%ADD46R,1.000000X1.900000*%
%ADD47R,0.650000X0.900000*%
%ADD48R,0.900000X0.650000*%
%ADD49R,2.900000X2.900000*%
%ADD50R,2.380000X4.360000*%
%ADD51O,2.380000X4.360000*%
%ADD52R,3.725000X2.800000*%
G04 APERTURE END LIST*
D10*
D11*
X91690300Y-42468600D03*
D12*
X93565300Y-42468600D03*
X93016125Y-43794425D03*
X91690300Y-44343600D03*
X90364475Y-43794425D03*
X89815300Y-42468600D03*
X90364475Y-41142775D03*
X91690300Y-40593600D03*
X93016125Y-41142775D03*
D13*
X70560000Y-57580000D03*
D14*
X70560000Y-55040000D03*
D15*
X49150000Y-44195000D03*
X49150000Y-45465000D03*
X49150000Y-46735000D03*
X49150000Y-48005000D03*
X54550000Y-48005000D03*
X54550000Y-46735000D03*
X54550000Y-45465000D03*
X54550000Y-44195000D03*
D16*
X104540000Y-60850000D03*
X104540000Y-58350000D03*
D17*
X45684560Y-57053520D03*
X45684560Y-59253520D03*
X48184560Y-57053520D03*
X48184560Y-59253520D03*
D18*
X84660000Y-46530000D03*
X82460000Y-46530000D03*
X84660000Y-49030000D03*
X82460000Y-49030000D03*
D19*
X59190000Y-72960000D03*
X59190000Y-70260000D03*
D20*
X45130000Y-51450000D03*
X42430000Y-51450000D03*
X113820000Y-47440000D03*
X116520000Y-47440000D03*
X41070000Y-53810000D03*
X43770000Y-53810000D03*
X116600000Y-45250000D03*
X113900000Y-45250000D03*
X64620000Y-72940000D03*
X61920000Y-72940000D03*
D21*
X73575000Y-60960000D03*
X72305000Y-60960000D03*
X71035000Y-60960000D03*
X69765000Y-60960000D03*
X69765000Y-66360000D03*
X71035000Y-66360000D03*
X72305000Y-66360000D03*
X73575000Y-66360000D03*
D15*
X115280000Y-55035000D03*
X115280000Y-56305000D03*
X115280000Y-57575000D03*
X115280000Y-58845000D03*
X120680000Y-58845000D03*
X120680000Y-57575000D03*
X120680000Y-56305000D03*
X120680000Y-55035000D03*
D22*
X108870000Y-65975000D03*
X108870000Y-65325000D03*
X108870000Y-64675000D03*
X108870000Y-64025000D03*
X104470000Y-64025000D03*
X104470000Y-64675000D03*
X104470000Y-65325000D03*
X104470000Y-65975000D03*
D23*
X54000000Y-54410000D03*
X87030000Y-51160000D03*
X65260000Y-59050000D03*
X97860000Y-53150000D03*
X99610000Y-68080000D03*
X122610000Y-49090000D03*
X111630000Y-59080000D03*
D24*
X67880000Y-51470000D03*
X68380000Y-51470000D03*
X68880000Y-51470000D03*
X69380000Y-51470000D03*
X69880000Y-51470000D03*
X69880000Y-47070000D03*
X69380000Y-47070000D03*
X68880000Y-47070000D03*
X68380000Y-47070000D03*
X67880000Y-47070000D03*
X60492320Y-55953520D03*
X59992320Y-55953520D03*
X59492320Y-55953520D03*
X58992320Y-55953520D03*
X58492320Y-55953520D03*
X58492320Y-60353520D03*
X58992320Y-60353520D03*
X59492320Y-60353520D03*
X59992320Y-60353520D03*
X60492320Y-60353520D03*
X102930000Y-51160000D03*
X103430000Y-51160000D03*
X103930000Y-51160000D03*
X104430000Y-51160000D03*
X104930000Y-51160000D03*
X104930000Y-46760000D03*
X104430000Y-46760000D03*
X103930000Y-46760000D03*
X103430000Y-46760000D03*
X102930000Y-46760000D03*
D25*
X88440000Y-54570000D03*
X88440000Y-54070000D03*
X88440000Y-53570000D03*
X88440000Y-53070000D03*
X88440000Y-52570000D03*
X84040000Y-52570000D03*
X84040000Y-53070000D03*
X84040000Y-53570000D03*
X84040000Y-54070000D03*
X84040000Y-54570000D03*
D26*
X100490000Y-54890000D03*
X98490000Y-54890000D03*
X100360000Y-62850000D03*
X98360000Y-62850000D03*
X90260000Y-61750000D03*
X90260000Y-63750000D03*
D15*
X96820000Y-56995000D03*
X96820000Y-58265000D03*
X96820000Y-59535000D03*
X96820000Y-60805000D03*
X102220000Y-60805000D03*
X102220000Y-59535000D03*
X102220000Y-58265000D03*
X102220000Y-56995000D03*
D27*
X86220000Y-63500000D03*
X87490000Y-63500000D03*
X84950000Y-63500000D03*
D26*
X93200000Y-63360000D03*
X95200000Y-63360000D03*
D28*
X39740000Y-52460000D03*
X123570000Y-44380000D03*
X102610000Y-71280000D03*
X87550000Y-61050000D03*
X94720000Y-61510000D03*
X100070000Y-64660000D03*
X64980000Y-49780000D03*
D29*
X52220300Y-64749900D03*
D30*
X73210000Y-43620000D03*
D31*
X70670000Y-43620000D03*
X68130000Y-43620000D03*
X65590000Y-43620000D03*
D30*
X109740000Y-43460000D03*
D31*
X107200000Y-43460000D03*
X104660000Y-43460000D03*
X102120000Y-43460000D03*
D30*
X56870000Y-65810000D03*
D31*
X59410000Y-65810000D03*
X61950000Y-65810000D03*
D32*
X80970000Y-55060000D03*
D33*
X80970000Y-57600000D03*
X80970000Y-60140000D03*
D20*
X48312500Y-61673960D03*
X45612500Y-61673960D03*
D19*
X80200000Y-49320000D03*
X80200000Y-46620000D03*
D16*
X71900000Y-50580000D03*
X71900000Y-48080000D03*
D34*
X67490000Y-67710000D03*
X64990000Y-67710000D03*
X58770000Y-53460000D03*
X56270000Y-53460000D03*
D16*
X73410000Y-71150000D03*
X73410000Y-68650000D03*
X67510000Y-53940000D03*
X67510000Y-56440000D03*
X65400000Y-53550000D03*
X65400000Y-56050000D03*
X61170000Y-53360000D03*
X61170000Y-50860000D03*
X63270000Y-53460000D03*
X63270000Y-55960000D03*
X62670000Y-60410000D03*
X62670000Y-62910000D03*
X106740000Y-50240000D03*
X106740000Y-47740000D03*
D34*
X118820000Y-61060000D03*
X116320000Y-61060000D03*
X116030000Y-53000000D03*
X118530000Y-53000000D03*
D16*
X92790000Y-51350000D03*
X92790000Y-48850000D03*
X90630000Y-51340000D03*
X90630000Y-48840000D03*
X100940000Y-49740000D03*
X100940000Y-47240000D03*
D35*
X98670000Y-50210000D03*
X98670000Y-46210000D03*
D34*
X90610000Y-53530000D03*
X93110000Y-53530000D03*
X93110000Y-55650000D03*
X90610000Y-55650000D03*
X45887760Y-54719440D03*
X48387760Y-54719440D03*
D16*
X86990000Y-46580000D03*
X86990000Y-49080000D03*
X85580000Y-56960000D03*
X85580000Y-59460000D03*
D34*
X107180000Y-62160000D03*
X109680000Y-62160000D03*
D16*
X42160000Y-47720000D03*
X42160000Y-45220000D03*
X44350000Y-47720000D03*
X44350000Y-45220000D03*
X80240000Y-63600000D03*
X80240000Y-66100000D03*
X82410000Y-63610000D03*
X82410000Y-66110000D03*
D34*
X87380000Y-66830000D03*
X84880000Y-66830000D03*
D13*
X74300000Y-57610000D03*
D14*
X74300000Y-55070000D03*
D13*
X111840000Y-52770000D03*
D14*
X109300000Y-52770000D03*
D13*
X111860000Y-56350000D03*
D14*
X109320000Y-56350000D03*
D13*
X96610000Y-66700000D03*
D14*
X94070000Y-66700000D03*
D13*
X66570000Y-61810000D03*
D14*
X66570000Y-64350000D03*
D13*
X125250000Y-52850000D03*
D14*
X125250000Y-55390000D03*
D13*
X91210000Y-58600000D03*
D14*
X88670000Y-58600000D03*
D13*
X55042240Y-60571600D03*
D14*
X52502240Y-60571600D03*
D13*
X55123520Y-56670160D03*
D14*
X52583520Y-56670160D03*
D13*
X113040000Y-61930000D03*
D14*
X113040000Y-64470000D03*
D13*
X70430000Y-69500000D03*
D14*
X70430000Y-72040000D03*
D13*
X124010000Y-59770000D03*
D14*
X124010000Y-62310000D03*
D13*
X40543920Y-59413360D03*
D14*
X40543920Y-56873360D03*
D13*
X77290000Y-48750000D03*
D14*
X77290000Y-46210000D03*
D13*
X60160000Y-43320000D03*
D14*
X60160000Y-45860000D03*
D32*
X39110000Y-49690000D03*
D33*
X39110000Y-47150000D03*
X39110000Y-44610000D03*
X39110000Y-42070000D03*
D16*
X46570000Y-47700000D03*
X46570000Y-45200000D03*
D36*
X63180000Y-70080000D03*
X67180000Y-70080000D03*
D35*
X75810000Y-72870000D03*
X75810000Y-68870000D03*
D34*
X58770000Y-51310000D03*
X56270000Y-51310000D03*
D35*
X57020000Y-47720000D03*
X57020000Y-43720000D03*
D36*
X116280000Y-63420000D03*
X120280000Y-63420000D03*
X115380000Y-50570000D03*
X119380000Y-50570000D03*
D30*
X99850000Y-73190000D03*
D31*
X97310000Y-73190000D03*
X94770000Y-73190000D03*
X92230000Y-73190000D03*
D34*
X51980000Y-50050000D03*
X49480000Y-50050000D03*
D20*
X46910000Y-42020000D03*
X49610000Y-42020000D03*
X51970000Y-42040000D03*
X54670000Y-42040000D03*
D37*
X75639800Y-105555200D03*
X74989800Y-105555200D03*
X74339800Y-105555200D03*
X73689800Y-105555200D03*
X73039800Y-105555200D03*
X72389800Y-105555200D03*
X71739800Y-105555200D03*
X71089800Y-105555200D03*
X71089800Y-112455200D03*
X71739800Y-112455200D03*
X72389800Y-112455200D03*
X73039800Y-112455200D03*
X73689800Y-112455200D03*
X74339800Y-112455200D03*
X74989800Y-112455200D03*
X75639800Y-112455200D03*
D34*
X75645400Y-102540900D03*
X78145400Y-102540900D03*
D16*
X92059200Y-104705300D03*
X92059200Y-102205300D03*
X90116100Y-104705300D03*
X90116100Y-102205300D03*
X86356900Y-100996900D03*
X86356900Y-98496900D03*
X40167000Y-109505900D03*
X40167000Y-107005900D03*
D34*
X54296700Y-107735200D03*
X56796700Y-107735200D03*
X54296700Y-109513200D03*
X56796700Y-109513200D03*
D16*
X59972650Y-103494350D03*
X59972650Y-105994350D03*
X60023450Y-97980650D03*
X60023450Y-95480650D03*
X93100600Y-119782100D03*
X93100600Y-122282100D03*
X73644200Y-119236000D03*
X73644200Y-121736000D03*
X63903300Y-103371800D03*
X63903300Y-100871800D03*
D34*
X74132200Y-115406000D03*
X71632200Y-115406000D03*
D38*
X96034300Y-114161400D03*
D39*
X96034300Y-111621400D03*
D38*
X96034300Y-99111900D03*
D39*
X96034300Y-96571900D03*
D38*
X63192100Y-119711300D03*
D39*
X60652100Y-119711300D03*
D38*
X63166700Y-115990200D03*
D39*
X60626700Y-115990200D03*
D38*
X95869200Y-119749400D03*
D39*
X95869200Y-122289400D03*
D20*
X89045500Y-114174100D03*
X91745500Y-114174100D03*
X91707400Y-112281800D03*
X89007400Y-112281800D03*
X68987100Y-119228700D03*
X66287100Y-119228700D03*
D19*
X66202000Y-113268600D03*
X66202000Y-115968600D03*
D20*
X82169700Y-105741300D03*
X79469700Y-105741300D03*
X79469700Y-107735200D03*
X82169700Y-107735200D03*
X89032800Y-116079100D03*
X91732800Y-116079100D03*
X78834700Y-114085200D03*
X81534700Y-114085200D03*
X81522000Y-112129400D03*
X78822000Y-112129400D03*
D19*
X89735100Y-99103000D03*
X89735100Y-96403000D03*
X55356200Y-114183000D03*
X55356200Y-116883000D03*
D40*
X51598200Y-116870700D03*
X45398200Y-116870700D03*
X45398200Y-120570700D03*
X51598200Y-120570700D03*
D15*
X85498400Y-106643000D03*
X85498400Y-107913000D03*
X85498400Y-109183000D03*
X85498400Y-110453000D03*
X90898400Y-110453000D03*
X90898400Y-109183000D03*
X90898400Y-107913000D03*
X90898400Y-106643000D03*
D41*
X82352950Y-101000750D03*
X83002950Y-101000750D03*
X83652950Y-101000750D03*
X84302950Y-101000750D03*
X84302950Y-96600750D03*
X83652950Y-96600750D03*
X83002950Y-96600750D03*
X82352950Y-96600750D03*
D17*
X66410600Y-96551400D03*
X63910600Y-96551400D03*
X66410600Y-98751400D03*
X63910600Y-98751400D03*
D23*
X80438700Y-103531500D03*
X71929700Y-99975500D03*
X96034300Y-108624200D03*
X69402400Y-99962800D03*
X83829600Y-112180200D03*
X68983300Y-117184000D03*
D42*
X57140550Y-103480950D03*
X57140550Y-97955950D03*
D34*
X71644900Y-117234800D03*
X74144900Y-117234800D03*
D38*
X63179400Y-112154800D03*
D39*
X63179400Y-109614800D03*
D16*
X66392500Y-100897200D03*
X66392500Y-103397200D03*
D19*
X71650300Y-119237600D03*
X71650300Y-121937600D03*
D15*
X87329700Y-122797400D03*
X87329700Y-121527400D03*
X87329700Y-120257400D03*
X87329700Y-118987400D03*
X81929700Y-118987400D03*
X81929700Y-120257400D03*
X81929700Y-121527400D03*
X81929700Y-122797400D03*
D38*
X45056500Y-100140600D03*
D39*
X42516500Y-100140600D03*
X39976500Y-100140600D03*
D38*
X40624200Y-118796900D03*
D39*
X40624200Y-116256900D03*
D43*
X68653100Y-121938700D03*
X68653100Y-124138700D03*
D44*
X51313100Y-111805200D03*
X51313100Y-111005200D03*
X51313100Y-110205200D03*
X51313100Y-109405200D03*
X51313100Y-108605200D03*
X51313100Y-107805200D03*
X51313100Y-107005200D03*
X51313100Y-106205200D03*
D45*
X49863100Y-104755200D03*
X49063100Y-104755200D03*
X48263100Y-104755200D03*
X47463100Y-104755200D03*
X46663100Y-104755200D03*
X45863100Y-104755200D03*
X45063100Y-104755200D03*
X44263100Y-104755200D03*
D44*
X42813100Y-106205200D03*
X42813100Y-107005200D03*
X42813100Y-107805200D03*
X42813100Y-108605200D03*
X42813100Y-109405200D03*
X42813100Y-110205200D03*
X42813100Y-111005200D03*
X42813100Y-111805200D03*
D45*
X44263100Y-113255200D03*
X45063100Y-113255200D03*
X45863100Y-113255200D03*
X46663100Y-113255200D03*
X47463100Y-113255200D03*
X48263100Y-113255200D03*
X49063100Y-113255200D03*
X49863100Y-113255200D03*
D38*
X76438200Y-99810400D03*
D39*
X78978200Y-99810400D03*
D38*
X96034300Y-102807600D03*
D39*
X96034300Y-105347600D03*
D35*
X79054400Y-122994000D03*
X79054400Y-118994000D03*
D20*
X84689400Y-124702400D03*
X87389400Y-124702400D03*
X73653100Y-124130900D03*
X76353100Y-124130900D03*
D19*
X76527100Y-121937600D03*
X76527100Y-119237600D03*
D38*
X90357400Y-123635600D03*
D39*
X90357400Y-121095600D03*
D46*
X119298300Y-90210900D03*
X118028300Y-90210900D03*
X116758300Y-90210900D03*
X115488300Y-90210900D03*
X114218300Y-90210900D03*
X112948300Y-90210900D03*
X111678300Y-90210900D03*
X111678300Y-95610900D03*
X112948300Y-95610900D03*
X114218300Y-95610900D03*
X115488300Y-95610900D03*
X116758300Y-95610900D03*
X118028300Y-95610900D03*
X119298300Y-95610900D03*
D20*
X110615300Y-114627900D03*
X107915300Y-114627900D03*
D47*
X114751700Y-117548900D03*
X115251700Y-117548900D03*
X115751700Y-117548900D03*
X116251700Y-117548900D03*
X116751700Y-117548900D03*
D48*
X117501700Y-116798900D03*
D49*
X115751700Y-115798900D03*
D48*
X117501700Y-116298900D03*
X117501700Y-115798900D03*
X117501700Y-115298900D03*
X117501700Y-114798900D03*
D47*
X116751700Y-114048900D03*
X116251700Y-114048900D03*
X115751700Y-114048900D03*
X115251700Y-114048900D03*
X114751700Y-114048900D03*
D48*
X114001700Y-114798900D03*
X114001700Y-115298900D03*
X114001700Y-115798900D03*
X114001700Y-116298900D03*
X114001700Y-116798900D03*
D43*
X126569050Y-128583750D03*
X126569050Y-130783750D03*
D34*
X117210100Y-120190500D03*
X119710100Y-120190500D03*
D16*
X120847700Y-115587700D03*
X120847700Y-118087700D03*
X123921100Y-110761700D03*
X123921100Y-113261700D03*
D34*
X114172900Y-110436900D03*
X111672900Y-110436900D03*
D16*
X109316100Y-110264500D03*
X109316100Y-107764500D03*
X104109100Y-107662900D03*
X104109100Y-110162900D03*
D34*
X111164900Y-120292100D03*
X113664900Y-120292100D03*
D19*
X120060300Y-124758700D03*
X120060300Y-127458700D03*
X111068700Y-124733300D03*
X111068700Y-127433300D03*
X113862700Y-127458700D03*
X113862700Y-124758700D03*
X117215500Y-127433300D03*
X117215500Y-124733300D03*
X122955900Y-127407900D03*
X122955900Y-124707900D03*
X126410300Y-118467100D03*
X126410300Y-115767100D03*
X123997300Y-118340100D03*
X123997300Y-115640100D03*
X120898500Y-113412500D03*
X120898500Y-110712500D03*
D20*
X121047100Y-108379500D03*
X123747100Y-108379500D03*
D19*
X107284100Y-110313700D03*
X107284100Y-107613700D03*
X106115700Y-120041900D03*
X106115700Y-117341900D03*
X108376300Y-117341900D03*
X108376300Y-120041900D03*
X105607700Y-115165100D03*
X105607700Y-112465100D03*
X128582000Y-115830600D03*
X128582000Y-118530600D03*
D50*
X119298300Y-132204700D03*
D51*
X116758300Y-132204700D03*
X114218300Y-132204700D03*
D20*
X104340300Y-125768600D03*
X107040300Y-125768600D03*
D34*
X106060300Y-93228600D03*
X108560300Y-93228600D03*
D16*
X124327500Y-98277600D03*
X124327500Y-100777600D03*
X115970900Y-82819800D03*
X115970900Y-80319800D03*
X110497200Y-82819800D03*
X110497200Y-80319800D03*
D34*
X119445300Y-87272100D03*
X121945300Y-87272100D03*
D43*
X106810300Y-128278600D03*
X104610300Y-128278600D03*
X101850300Y-89158600D03*
X104050300Y-89158600D03*
D38*
X128848700Y-123136900D03*
D39*
X126308700Y-123136900D03*
D38*
X128848700Y-82014300D03*
D39*
X126308700Y-82014300D03*
D38*
X127337400Y-105204500D03*
D39*
X127337400Y-102664500D03*
D38*
X126613500Y-86091000D03*
D39*
X126613500Y-88631000D03*
X126613500Y-91171000D03*
X126613500Y-93711000D03*
X126613500Y-96251000D03*
D20*
X114666600Y-106753900D03*
X111966600Y-106753900D03*
D19*
X124289400Y-103067100D03*
X124289400Y-105767100D03*
D20*
X126571600Y-99641900D03*
X129271600Y-99641900D03*
X106043300Y-91082100D03*
X103343300Y-91082100D03*
X119700900Y-81442800D03*
X122400900Y-81442800D03*
D52*
X116193400Y-85875100D03*
X110668400Y-85875100D03*
D38*
X112600300Y-98608600D03*
D39*
X112600300Y-101148600D03*
X112600300Y-103688600D03*
D21*
X109375300Y-95618600D03*
X108105300Y-95618600D03*
X106835300Y-95618600D03*
X105565300Y-95618600D03*
X105565300Y-101018600D03*
X106835300Y-101018600D03*
X108105300Y-101018600D03*
X109375300Y-101018600D03*
D38*
X122701900Y-84325700D03*
D39*
X120161900Y-84325700D03*
D38*
X102720300Y-96478600D03*
D39*
X102720300Y-93938600D03*
D38*
X127350100Y-109039900D03*
D39*
X127350100Y-111579900D03*
D38*
X101800300Y-85478600D03*
D39*
X104340300Y-85478600D03*
X106880300Y-85478600D03*
D38*
X116326500Y-103693200D03*
D39*
X118866500Y-103693200D03*
X121406500Y-103693200D03*
D20*
X106100300Y-103108600D03*
X108800300Y-103108600D03*
X106820300Y-105068600D03*
X109520300Y-105068600D03*
D23*
X101630300Y-114418600D03*
D35*
X103630300Y-101258600D03*
X103630300Y-105258600D03*
D11*
X129890300Y-42918600D03*
D12*
X131765300Y-42918600D03*
X131216125Y-44244425D03*
X129890300Y-44793600D03*
X128564475Y-44244425D03*
X128015300Y-42918600D03*
X128564475Y-41592775D03*
X129890300Y-41043600D03*
X131216125Y-41592775D03*
D11*
X40350300Y-73038600D03*
D12*
X42225300Y-73038600D03*
X41676125Y-74364425D03*
X40350300Y-74913600D03*
X39024475Y-74364425D03*
X38475300Y-73038600D03*
X39024475Y-71712775D03*
X40350300Y-71163600D03*
X41676125Y-71712775D03*
D11*
X39060300Y-134838600D03*
D12*
X40935300Y-134838600D03*
X40386125Y-136164425D03*
X39060300Y-136713600D03*
X37734475Y-136164425D03*
X37185300Y-134838600D03*
X37734475Y-133512775D03*
X39060300Y-132963600D03*
X40386125Y-133512775D03*
D11*
X124710300Y-72388600D03*
D12*
X126585300Y-72388600D03*
X126036125Y-73714425D03*
X124710300Y-74263600D03*
X123384475Y-73714425D03*
X122835300Y-72388600D03*
X123384475Y-71062775D03*
X124710300Y-70513600D03*
X126036125Y-71062775D03*
D11*
X91950300Y-85088600D03*
D12*
X93825300Y-85088600D03*
X93276125Y-86414425D03*
X91950300Y-86963600D03*
X90624475Y-86414425D03*
X90075300Y-85088600D03*
X90624475Y-83762775D03*
X91950300Y-83213600D03*
X93276125Y-83762775D03*
D11*
X39710300Y-84328600D03*
D12*
X41585300Y-84328600D03*
X41036125Y-85654425D03*
X39710300Y-86203600D03*
X38384475Y-85654425D03*
X37835300Y-84328600D03*
X38384475Y-83002775D03*
X39710300Y-82453600D03*
X41036125Y-83002775D03*
D11*
X131170300Y-134858600D03*
D12*
X133045300Y-134858600D03*
X132496125Y-136184425D03*
X131170300Y-136733600D03*
X129844475Y-136184425D03*
X129295300Y-134858600D03*
X129844475Y-133532775D03*
X131170300Y-132983600D03*
X132496125Y-133532775D03*
M02*
